<?xml version="1.0" encoding="UTF-8" standalone="no"?>
<!-- Created with Inkscape (http://www.inkscape.org/) -->

<svg
   xmlns:dc="http://purl.org/dc/elements/1.1/"
   xmlns:cc="http://creativecommons.org/ns#"
   xmlns:rdf="http://www.w3.org/1999/02/22-rdf-syntax-ns#"
   xmlns:svg="http://www.w3.org/2000/svg"
   xmlns="http://www.w3.org/2000/svg"
   xmlns:sodipodi="http://sodipodi.sourceforge.net/DTD/sodipodi-0.dtd"
   xmlns:inkscape="http://www.inkscape.org/namespaces/inkscape"
   width="686.84106"
   height="142.45409"
   id="svg8330"
   version="1.1"
   inkscape:version="0.48.4 r9939"
   sodipodi:docname="logSigmaIncrease.svg">
  <sodipodi:namedview
     id="base"
     pagecolor="#ffffff"
     bordercolor="#666666"
     borderopacity="1.0"
     inkscape:pageopacity="0.0"
     inkscape:pageshadow="2"
     inkscape:zoom="1.979899"
     inkscape:cx="320.08365"
     inkscape:cy="105.98302"
     inkscape:document-units="px"
     inkscape:current-layer="layer1"
     showgrid="false"
     inkscape:window-width="1920"
     inkscape:window-height="1056"
     inkscape:window-x="0"
     inkscape:window-y="24"
     inkscape:window-maximized="1"
     fit-margin-top="0"
     fit-margin-left="0"
     fit-margin-right="0"
     fit-margin-bottom="0" />
  <defs
     id="defs8332">
    <marker
       inkscape:stockid="Arrow2Mend"
       orient="auto"
       refY="0"
       refX="0"
       id="Arrow2Mend"
       style="overflow:visible">
      <path
         inkscape:connector-curvature="0"
         id="path3788"
         style="fill-rule:evenodd;stroke-width:0.625;stroke-linejoin:round"
         d="M 8.7185878,4.0337352 -2.2072895,0.01601326 8.7185884,-4.0017078 c -1.7454984,2.3720609 -1.7354408,5.6174519 -6e-7,8.035443 z"
         transform="scale(-0.6,-0.6)" />
    </marker>
    <marker
       inkscape:stockid="Arrow2Mend"
       orient="auto"
       refY="0"
       refX="0"
       id="Arrow2Mend-0"
       style="overflow:visible">
      <path
         inkscape:connector-curvature="0"
         id="path3788-3"
         style="fill-rule:evenodd;stroke-width:0.625;stroke-linejoin:round"
         d="M 8.7185878,4.0337352 -2.2072895,0.01601326 8.7185884,-4.0017078 c -1.7454984,2.3720609 -1.7354408,5.6174519 -6e-7,8.035443 z"
         transform="scale(-0.6,-0.6)" />
    </marker>
    <marker
       inkscape:stockid="Arrow2Mend"
       orient="auto"
       refY="0"
       refX="0"
       id="Arrow2Mend-03"
       style="overflow:visible">
      <path
         inkscape:connector-curvature="0"
         id="path3788-1"
         style="fill-rule:evenodd;stroke-width:0.625;stroke-linejoin:round"
         d="M 8.7185878,4.0337352 -2.2072895,0.01601326 8.7185884,-4.0017078 c -1.7454984,2.3720609 -1.7354408,5.6174519 -6e-7,8.035443 z"
         transform="scale(-0.6,-0.6)" />
    </marker>
    <marker
       inkscape:stockid="Arrow2Mend"
       orient="auto"
       refY="0"
       refX="0"
       id="Arrow2Mend-08"
       style="overflow:visible">
      <path
         inkscape:connector-curvature="0"
         id="path3788-8"
         style="fill-rule:evenodd;stroke-width:0.625;stroke-linejoin:round"
         d="M 8.7185878,4.0337352 -2.2072895,0.01601326 8.7185884,-4.0017078 c -1.7454984,2.3720609 -1.7354408,5.6174519 -6e-7,8.035443 z"
         transform="scale(-0.6,-0.6)" />
    </marker>
  </defs>
  <metadata
     id="metadata8335">
    <rdf:RDF>
      <cc:Work
         rdf:about="">
        <dc:format>image/svg+xml</dc:format>
        <dc:type
           rdf:resource="http://purl.org/dc/dcmitype/StillImage" />
        <dc:title></dc:title>
      </cc:Work>
    </rdf:RDF>
  </metadata>
  <g
     inkscape:label="Layer 1"
     inkscape:groupmode="layer"
     id="layer1"
     transform="translate(-37.793277,-3.7206573)">
    <path
       style="fill:none;stroke:#000000;stroke-width:2;stroke-linecap:butt;stroke-linejoin:miter;stroke-miterlimit:4;stroke-opacity:1;stroke-dasharray:none;marker-end:url(#Arrow2Mend)"
       d="m 38.793277,130.5027 c 2.360744,0.63597 274.791123,-0.95397 274.791123,-0.95397"
       id="path2985"
       inkscape:connector-curvature="0" />
    <path
       style="fill:#000000;fill-opacity:0;stroke:#00c5b7;stroke-width:1.77400148px;stroke-linecap:butt;stroke-linejoin:miter;stroke-opacity:1"
       d="m 83.19434,128.76288 c 18.5858,-0.79989 37.80773,2.09964 54.29337,-7.6014 12.06054,-7.64316 16.02182,-22.567291 18.58545,-35.756322 2.99318,-15.484422 5.07632,-31.577585 12.04134,-45.79862 3.09316,-6.315555 8.44244,-12.151452 14.75661,-7.316474 6.87067,7.229232 7.84263,17.13674 9.598,26.198722 2.93034,18.262243 4.36038,38.118062 16.02901,53.322934 11.36987,12.0454 25.90728,13.54469 41.25912,15.29193 4.36824,0.56393 11.77377,0.40921 16.13414,0.67676"
       id="path4481"
       inkscape:connector-curvature="0"
       sodipodi:nodetypes="cccsccccc" />
    <g
       transform="matrix(2.5611448,0,0,2.5611448,-4.0066417,-281.63761)"
       style="font-size:8px;font-style:normal;font-variant:normal;font-weight:normal;font-stretch:normal;text-align:start;line-height:125%;letter-spacing:0px;word-spacing:0px;writing-mode:lr-tb;text-anchor:start;fill:#00c5b8;fill-opacity:0.9372549;stroke:none;font-family:Times New Roman;-inkscape-font-specification:'Times New Roman,'"
       id="flowRoot4483">
      <path
         d="m 130.08984,160.21431 -2.24218,0 c -0.008,0.10938 -0.0117,0.21745 -0.0117,0.32422 l 2.15625,0 -0.0898,0.30469 -2.05859,0 c 0.0208,0.54948 0.13021,1.00781 0.32812,1.375 0.23177,0.42708 0.54427,0.64062 0.9375,0.64062 0.34896,0 0.64063,-0.0898 0.875,-0.26953 0.14063,-0.10677 0.31901,-0.30989 0.53516,-0.60937 l 0.12109,0.0781 c -0.22396,0.35417 -0.42708,0.60677 -0.60937,0.75782 -0.29948,0.24739 -0.65886,0.37109 -1.07813,0.37109 -0.59895,0 -1.0625,-0.2487 -1.39062,-0.74609 -0.26823,-0.40625 -0.42708,-0.93881 -0.47656,-1.59766 l -0.39453,0 0.0898,-0.30469 0.28906,0 0,-0.0625 c 0,-0.0781 0.003,-0.16536 0.008,-0.26172 l -0.38672,0 0.0898,-0.30468 0.32813,0 c 0.0885,-0.61719 0.29947,-1.1263 0.63281,-1.52735 0.38281,-0.46353 0.87239,-0.69531 1.46875,-0.69531 0.44531,0 0.88802,0.11459 1.32812,0.34375 l 0,1.16797 -0.15234,0 c -0.0677,-0.83593 -0.45964,-1.2539 -1.17578,-1.25391 -0.41146,1e-5 -0.73698,0.21745 -0.97657,0.65235 -0.18489,0.33854 -0.30599,0.77604 -0.36328,1.3125 l 2.3086,0 -0.0898,0.30468"
         style="fill:#00c5b8;fill-opacity:0.9372549"
         id="path3021"
         inkscape:connector-curvature="0" />
    </g>
    <path
       style="fill:none;stroke:#000000;stroke-width:2;stroke-linecap:butt;stroke-linejoin:miter;stroke-miterlimit:4;stroke-opacity:1;stroke-dasharray:none"
       d="m 178.54286,124.8099 c 0,10.60661 0,10.60661 0,10.60661"
       id="path8465"
       inkscape:connector-curvature="0" />
    <path
       sodipodi:type="arc"
       style="fill:#000000;fill-opacity:0;stroke:#000000;stroke-width:5.68828249;stroke-miterlimit:4;stroke-opacity:1;stroke-dasharray:none;stroke-dashoffset:0"
       id="path3957"
       sodipodi:cx="253.04321"
       sodipodi:cy="130.59799"
       sodipodi:rx="56.063465"
       sodipodi:ry="56.063465"
       d="m 309.10668,130.59799 c 0,30.963 -25.10047,56.06347 -56.06347,56.06347 -30.96299,0 -56.06346,-25.10047 -56.06346,-56.06347 0,-30.962995 25.10047,-56.063463 56.06346,-56.063463 30.963,0 56.06347,25.100468 56.06347,56.063463 z"
       transform="matrix(0.62719396,0,0,0.62719396,528.98069,-7.8124852)" />
    <g
       id="g4490"
       transform="matrix(0.23784376,0,0,0.23784376,603.33827,19.650145)"
       style="fill:#000000;fill-opacity:1;stroke:#000000;stroke-opacity:1">
      <path
         transform="translate(0,-2.1428511)"
         d="m 322.85715,183.07646 c 0,6.70632 -5.43654,12.14286 -12.14286,12.14286 -6.70631,0 -12.14285,-5.43654 -12.14285,-12.14286 0,-6.70631 5.43654,-12.14286 12.14285,-12.14286 6.70632,0 12.14286,5.43655 12.14286,12.14286 z"
         sodipodi:ry="12.142858"
         sodipodi:rx="12.142858"
         sodipodi:cy="183.07646"
         sodipodi:cx="310.71429"
         id="path4470"
         style="fill:#000000;fill-opacity:1;stroke:#000000;stroke-width:15;stroke-miterlimit:4;stroke-opacity:1;stroke-dasharray:none;stroke-dashoffset:0"
         sodipodi:type="arc" />
      <path
         d="m 322.85715,183.07646 c 0,6.70632 -5.43654,12.14286 -12.14286,12.14286 -6.70631,0 -12.14285,-5.43654 -12.14285,-12.14286 0,-6.70631 5.43654,-12.14286 12.14285,-12.14286 6.70632,0 12.14286,5.43655 12.14286,12.14286 z"
         sodipodi:ry="12.142858"
         sodipodi:rx="12.142858"
         sodipodi:cy="183.07646"
         sodipodi:cx="310.71429"
         id="path4470-8"
         style="fill:#000000;fill-opacity:1;stroke:#000000;stroke-width:15;stroke-miterlimit:4;stroke-opacity:1;stroke-dasharray:none;stroke-dashoffset:0"
         sodipodi:type="arc"
         transform="translate(87.857134,-2.1428511)" />
    </g>
    <path
       style="fill:none;stroke:#000000;stroke-width:3.56765628;stroke-linecap:butt;stroke-linejoin:miter;stroke-miterlimit:4;stroke-opacity:1;stroke-dasharray:none"
       d="m 668.20537,86.842213 38.90444,0"
       id="path4569"
       inkscape:connector-curvature="0"
       sodipodi:nodetypes="cc" />
    <path
       style="fill:none;stroke:#000000;stroke-width:2;stroke-linecap:butt;stroke-linejoin:miter;stroke-miterlimit:4;stroke-opacity:1;stroke-dasharray:none;marker-end:url(#Arrow2Mend)"
       d="m 379.87955,128.19742 c 2.16298,0.6423 251.77181,-0.96347 251.77181,-0.96347"
       id="path2985-4"
       inkscape:connector-curvature="0" />
    <path
       style="fill:#000000;fill-opacity:0;stroke:#00c5b7;stroke-width:1.77400148px;stroke-linecap:butt;stroke-linejoin:miter;stroke-opacity:1"
       d="m 405.08515,126.44852 c 18.5858,-0.79989 22.69695,-8.21386 28.40051,-15.99426 5.70356,-7.78039 10.62848,-21.241018 14.12117,-33.970602 3.49269,-12.729584 7.19082,-31.780325 12.21991,-42.04862 5.02909,-10.268295 13.144,-7.831333 19.04232,-0.887898 5.89833,6.943434 8.32631,12.535033 11.74086,26.020148 3.41455,13.485115 7.53056,34.858723 19.06472,48.501502 11.53417,13.64278 33.05014,13.54469 48.40198,15.29193 4.36824,0.56393 25.3452,1.83778 29.70557,2.10533"
       id="path4481-0"
       inkscape:connector-curvature="0"
       sodipodi:nodetypes="czzzzzzcc" />
    <g
       transform="matrix(2.5611448,0,0,2.5611448,313.88417,-283.95196)"
       style="font-size:8px;font-style:normal;font-variant:normal;font-weight:normal;font-stretch:normal;text-align:start;line-height:125%;letter-spacing:0px;word-spacing:0px;writing-mode:lr-tb;text-anchor:start;fill:#00c5b8;fill-opacity:0.9372549;stroke:none;font-family:Times New Roman;-inkscape-font-specification:'Times New Roman,'"
       id="flowRoot4483-5">
      <path
         d="m 130.08984,160.21431 -2.24218,0 c -0.008,0.10938 -0.0117,0.21745 -0.0117,0.32422 l 2.15625,0 -0.0898,0.30469 -2.05859,0 c 0.0208,0.54948 0.13021,1.00781 0.32812,1.375 0.23177,0.42708 0.54427,0.64062 0.9375,0.64062 0.34896,0 0.64063,-0.0898 0.875,-0.26953 0.14063,-0.10677 0.31901,-0.30989 0.53516,-0.60937 l 0.12109,0.0781 c -0.22396,0.35417 -0.42708,0.60677 -0.60937,0.75782 -0.29948,0.24739 -0.65886,0.37109 -1.07813,0.37109 -0.59895,0 -1.0625,-0.2487 -1.39062,-0.74609 -0.26823,-0.40625 -0.42708,-0.93881 -0.47656,-1.59766 l -0.39453,0 0.0898,-0.30469 0.28906,0 0,-0.0625 c 0,-0.0781 0.003,-0.16536 0.008,-0.26172 l -0.38672,0 0.0898,-0.30468 0.32813,0 c 0.0885,-0.61719 0.29947,-1.1263 0.63281,-1.52735 0.38281,-0.46353 0.87239,-0.69531 1.46875,-0.69531 0.44531,0 0.88802,0.11459 1.32812,0.34375 l 0,1.16797 -0.15234,0 c -0.0677,-0.83593 -0.45964,-1.2539 -1.17578,-1.25391 -0.41146,1e-5 -0.73698,0.21745 -0.97657,0.65235 -0.18489,0.33854 -0.30599,0.77604 -0.36328,1.3125 l 2.3086,0 -0.0898,0.30468"
         style="fill:#00c5b8;fill-opacity:0.9372549"
         id="path3021-2"
         inkscape:connector-curvature="0" />
    </g>
    <path
       style="fill:none;stroke:#000000;stroke-width:2;stroke-linecap:butt;stroke-linejoin:miter;stroke-miterlimit:4;stroke-opacity:1;stroke-dasharray:none"
       d="m 456.43367,122.49554 c 0,10.60661 0,10.60661 0,10.60661"
       id="path8465-8"
       inkscape:connector-curvature="0" />
    <g
       id="g6193"
       transform="translate(3.5355339,-226.76196)"
       style="stroke-width:0.20000000000000001;stroke-miterlimit:4;stroke-dasharray:none;fill:#00c5b7;fill-opacity:1;stroke:#00c5b7;stroke-opacity:1">
      <g
         id="content"
         transform="matrix(0.38344304,0,0,-0.38344304,-67.102532,458.01045)"
         xml:space="preserve"
         stroke-miterlimit="10.433"
         font-style="normal"
         font-variant="normal"
         font-weight="normal"
         font-stretch="normal"
         font-size-adjust="none"
         letter-spacing="normal"
         word-spacing="normal"
         style="font-style:normal;font-variant:normal;font-weight:normal;font-stretch:normal;letter-spacing:normal;word-spacing:normal;text-anchor:start;fill:#00c5b7;stroke:#00c5b7;stroke-width:0.52158987999999995;stroke-linecap:butt;stroke-linejoin:miter;stroke-miterlimit:4;stroke-opacity:1;stroke-dasharray:none;stroke-dashoffset:0;fill-opacity:1"><path
           d="m 459.91,409.14 -0.02,-0.07 -0.01,-0.08 -0.02,-0.07 -0.01,-0.08 -0.04,-0.16 -0.04,-0.16 -0.03,-0.16 -0.04,-0.16 -0.04,-0.16 -0.04,-0.16 -0.01,-0.08 -0.02,-0.07 -0.02,-0.07 -0.01,-0.07 -0.02,-0.07 -0.01,-0.07 -0.01,-0.06 -0.01,-0.06 -0.01,-0.06 -0.01,-0.05 -0.01,-0.05 -0.01,-0.04 -0.01,-0.04 0,-0.04 0,-0.03 0,-0.02 c 0,-0.89 0.7,-1.35 1.43,-1.35 0.61,0 1.5,0.39 1.85,1.39 0.11,0.21 1.8,6.99 2,7.88 0.39,1.64 1.3,5.12 1.59,6.48 0.21,0.64 1.6,2.99 2.78,4.08 0.41,0.34 1.85,1.64 4,1.64 1.28,0 2.03,-0.59 2.08,-0.59 -1.48,-0.25 -2.58,-1.46 -2.58,-2.74 0,-0.79 0.55,-1.75 1.89,-1.75 1.35,0 2.74,1.14 2.74,2.94 0,1.75 -1.6,3.23 -4.13,3.23 -3.25,0 -5.43,-2.43 -6.39,-3.82 -0.39,2.23 -2.18,3.82 -4.53,3.82 -2.28,0 -3.23,-1.93 -3.69,-2.82 -0.89,-1.71 -1.54,-4.69 -1.54,-4.85 0,-0.5 0.5,-0.5 0.61,-0.5 0.5,0 0.54,0.07 0.84,1.16 0.84,3.53 1.84,5.92 3.64,5.92 0.84,0 1.55,-0.39 1.55,-2.28 0,-1.05 -0.16,-1.61 -0.8,-4.19 z"
           id="path6196"
           inkscape:connector-curvature="0"
           style="fill:#00c5b7;stroke-width:0.52158987999999995;stroke-miterlimit:4;stroke-dasharray:none;fill-opacity:1;stroke:#00c5b7;stroke-opacity:1" /><path
           d="m 489.23,447.34 0,0 0,0.01 0,0 0,0.01 0.01,0 0,0.01 0,0 0,0.01 0,0.01 0.01,0 0,0.02 0.01,0.02 0,0.02 0.01,0.02 0,0.02 0.01,0.02 0,0.02 0.01,0.02 0.01,0.03 0.01,0.04 0.01,0.05 0.01,0.02 0,0.03 0.01,0.02 0,0.02 0.01,0.02 0,0.02 0,0.01 0.01,0.02 0,0.01 0,0 0,0.01 0,0.01 0,0 0,0.01 0.01,0 0,0.01 0,0 0,0 0,0.01 0,0 c 0,0.18 -0.14,0.5 -0.57,0.5 -0.68,0 -3.59,-0.28 -4.45,-0.36 -0.25,-0.03 -0.73,-0.07 -0.73,-0.8 0,-0.48 0.48,-0.48 0.87,-0.48 1.67,0 1.67,-0.25 1.67,-0.54 0,-0.23 -0.07,-0.45 -0.14,-0.76 l -4.32,-17.2 c -0.11,-0.36 -0.15,-0.74 -0.15,-1.08 0,-2.24 1.99,-3.31 3.66,-3.31 0.84,0 1.89,0.28 2.8,1.84 0.73,1.28 1.22,3.34 1.22,3.48 0,0.46 -0.46,0.46 -0.57,0.46 -0.48,0 -0.54,-0.21 -0.68,-0.85 -0.46,-1.73 -1.13,-3.97 -2.63,-3.97 -0.94,0 -1.17,0.88 -1.17,1.71 0,0.39 0.09,1.04 0.2,1.43 z"
           id="path6198"
           inkscape:connector-curvature="0"
           style="fill:#00c5b7;stroke-width:0.52158987999999995;stroke-miterlimit:4;stroke-dasharray:none;fill-opacity:1;stroke:#00c5b7;stroke-opacity:1" /><path
           d="m 510.74,433.46 -0.01,0.36 -0.03,0.35 -0.04,0.34 -0.05,0.33 -0.07,0.32 -0.09,0.31 -0.1,0.29 -0.12,0.29 -0.13,0.28 -0.14,0.27 -0.15,0.25 -0.17,0.25 -0.17,0.23 -0.19,0.22 -0.2,0.21 -0.21,0.21 -0.22,0.18 -0.23,0.18 -0.24,0.17 -0.25,0.15 -0.26,0.15 -0.26,0.13 -0.27,0.11 -0.28,0.11 -0.28,0.1 -0.29,0.08 -0.3,0.07 -0.3,0.06 -0.31,0.04 -0.31,0.03 -0.31,0.02 -0.32,0.01 c -5.17,0 -10.05,-4.85 -10.05,-9.61 0,-3.49 2.55,-6.09 6.35,-6.09 l 0.03,0.96 c -1.73,0 -3.48,1.13 -3.48,3.88 0,1.42 0.67,4.84 2.03,6.83 1.5,2.15 3.51,3.06 5.07,3.06 1.9,0 3.49,-1.3 3.49,-3.88 0,-0.82 -0.41,-4.28 -1.95,-6.71 -1.32,-2.05 -3.41,-3.18 -5.16,-3.18 h 0 l -0.03,-0.96 c 4.98,0 10,4.59 10,9.6 z"
           id="path6200"
           inkscape:connector-curvature="0"
           style="fill:#00c5b7;stroke-width:0.52158987999999995;stroke-miterlimit:4;stroke-dasharray:none;fill-opacity:1;stroke:#00c5b7;stroke-opacity:1" /><path
           d="m 530.45,437.06 0.01,0.05 0.01,0.04 0.02,0.04 0.01,0.05 0.01,0.04 0,0.03 0.01,0.04 0.01,0.03 0.01,0.04 0,0.03 0.01,0.03 0.01,0.03 0,0.02 0,0.03 0.01,0.02 0,0.02 0.01,0.02 0,0.02 0,0.02 0,0.02 0,0.01 0.01,0.02 0,0.01 0,0.01 0,0.01 0,0.01 0,0.01 0,0.01 0,0.01 0,0 0,0.01 0,0 c 0,0.77 -0.62,1.11 -1.19,1.11 -0.8,0 -1.45,-0.65 -1.59,-1.33 -0.59,0.96 -1.78,1.99 -3.59,1.99 v -0.97 c 2.43,0 3.1,-2.61 3.1,-2.97 0,-0.06 0,-0.12 -0.1,-0.51 l -1.57,-6.27 c -0.14,-0.53 -0.14,-0.59 -0.73,-1.3 -1.22,-1.47 -2.89,-2.37 -4.22,-2.37 -1.78,0 -2.61,1.5 -2.61,3.31 0,1.53 0.94,5.44 1.84,6.97 1.47,2.44 3.1,3.14 4.29,3.14 v 0.97 c -4.37,0 -8.93,-4.66 -8.93,-9.64 0,-3.6 2.44,-5.72 5.3,-5.72 1.61,0 3.14,0.8 4.36,1.87 l -0.77,-3.12 c -0.39,-1.47 -0.62,-2.41 -1.95,-3.59 -1.53,-1.29 -3.03,-1.29 -3.91,-1.29 -1.59,0 -2.04,0.1 -2.67,0.24 0.86,0.42 1.11,1.25 1.11,1.75 0,0.83 -0.66,1.28 -1.36,1.28 -0.97,0 -1.98,-0.8 -1.98,-2.13 0,-2.09 3,-2.12 4.95,-2.12 5.47,0 7.8,2.78 8.28,4.78 z"
           id="path6202"
           inkscape:connector-curvature="0"
           style="fill:#00c5b7;stroke-width:0.52158987999999995;stroke-miterlimit:4;stroke-dasharray:none;fill-opacity:1;stroke:#00c5b7;stroke-opacity:1" /></g>    </g>
    <g
       id="g6294"
       transform="translate(176.7767,-231.32493)"
       style="stroke-width:0.20000000000000001;stroke-miterlimit:4;stroke-dasharray:none;fill:#00c5b7;fill-opacity:1;stroke:#00c5b7;stroke-opacity:1">
      <g
         word-spacing="normal"
         letter-spacing="normal"
         font-size-adjust="none"
         font-stretch="normal"
         font-weight="normal"
         font-variant="normal"
         font-style="normal"
         stroke-miterlimit="10.433"
         xml:space="preserve"
         transform="matrix(0.38344304,0,0,-0.38344304,-67.102532,458.01045)"
         id="g6296"
         style="font-style:normal;font-variant:normal;font-weight:normal;font-stretch:normal;letter-spacing:normal;word-spacing:normal;text-anchor:start;fill:#00c5b7;stroke:#00c5b7;stroke-width:0.52158987999999995;stroke-linecap:butt;stroke-linejoin:miter;stroke-miterlimit:4;stroke-opacity:1;stroke-dasharray:none;stroke-dashoffset:0;fill-opacity:1"><path
           id="path6298"
           d="m 459.91,409.14 -0.02,-0.07 -0.01,-0.08 -0.02,-0.07 -0.01,-0.08 -0.04,-0.16 -0.04,-0.16 -0.03,-0.16 -0.04,-0.16 -0.04,-0.16 -0.04,-0.16 -0.01,-0.08 -0.02,-0.07 -0.02,-0.07 -0.01,-0.07 -0.02,-0.07 -0.01,-0.07 -0.01,-0.06 -0.01,-0.06 -0.01,-0.06 -0.01,-0.05 -0.01,-0.05 -0.01,-0.04 -0.01,-0.04 0,-0.04 0,-0.03 0,-0.02 c 0,-0.89 0.7,-1.35 1.43,-1.35 0.61,0 1.5,0.39 1.85,1.39 0.11,0.21 1.8,6.99 2,7.88 0.39,1.64 1.3,5.12 1.59,6.48 0.21,0.64 1.6,2.99 2.78,4.08 0.41,0.34 1.85,1.64 4,1.64 1.28,0 2.03,-0.59 2.08,-0.59 -1.48,-0.25 -2.58,-1.46 -2.58,-2.74 0,-0.79 0.55,-1.75 1.89,-1.75 1.35,0 2.74,1.14 2.74,2.94 0,1.75 -1.6,3.23 -4.13,3.23 -3.25,0 -5.43,-2.43 -6.39,-3.82 -0.39,2.23 -2.18,3.82 -4.53,3.82 -2.28,0 -3.23,-1.93 -3.69,-2.82 -0.89,-1.71 -1.54,-4.69 -1.54,-4.85 0,-0.5 0.5,-0.5 0.61,-0.5 0.5,0 0.54,0.07 0.84,1.16 0.84,3.53 1.84,5.92 3.64,5.92 0.84,0 1.55,-0.39 1.55,-2.28 0,-1.05 -0.16,-1.61 -0.8,-4.19 z"
           inkscape:connector-curvature="0"
           style="fill:#00c5b7;stroke-width:0.52158987999999995;stroke-miterlimit:4;stroke-dasharray:none;fill-opacity:1;stroke:#00c5b7;stroke-opacity:1" /><path
           id="path6300"
           d="m 527.43,422.5 0.14,0 0.15,0 0.14,0 0.07,0.01 0.08,0 0.07,0.01 0.07,0.01 0.07,0.01 0.07,0.01 0.07,0.01 0.06,0.02 0.07,0.02 0.06,0.02 0.06,0.02 0.06,0.03 0.06,0.03 0.05,0.04 0.05,0.03 0.05,0.05 0.04,0.04 0.04,0.05 0.02,0.03 0.02,0.03 0.01,0.02 0.02,0.03 0.01,0.03 0.02,0.04 0.01,0.03 0.01,0.04 0.01,0.03 0.01,0.04 0,0.04 0.01,0.04 0,0.04 0.01,0.04 0,0.04 0,0.05 c 0,1 -0.95,1 -1.64,1 h -29.84 c -0.71,0 -1.64,0 -1.64,-1 0,-0.98 0.93,-0.98 1.68,-0.98 z"
           inkscape:connector-curvature="0"
           style="fill:#00c5b7;stroke-width:0.52158987999999995;stroke-miterlimit:4;stroke-dasharray:none;fill-opacity:1;stroke:#00c5b7;stroke-opacity:1" /><path
           id="path6302"
           d="m 527.48,412.82 0.07,0 0.06,0 0.14,0.01 0.14,0 0.07,0 0.07,0.01 0.07,0.01 0.07,0 0.06,0.01 0.07,0.02 0.07,0.01 0.06,0.02 0.07,0.02 0.06,0.02 0.06,0.02 0.06,0.03 0.05,0.03 0.05,0.04 0.05,0.04 0.05,0.04 0.04,0.05 0.02,0.02 0.02,0.03 0.02,0.02 0.02,0.03 0.01,0.03 0.02,0.03 0.01,0.03 0.02,0.03 0.01,0.04 0.01,0.03 0.01,0.04 0.01,0.04 0,0.04 0.01,0.04 0,0.04 0.01,0.04 0,0.05 0,0.04 c 0,1 -0.95,1 -1.69,1 h -29.75 c -0.75,0 -1.68,0 -1.68,-1 0,-1 0.93,-1 1.64,-1 z"
           inkscape:connector-curvature="0"
           style="fill:#00c5b7;stroke-width:0.52158987999999995;stroke-miterlimit:4;stroke-dasharray:none;fill-opacity:1;stroke:#00c5b7;stroke-opacity:1" /><path
           id="path6304"
           d="m 551.41,417.71 0.04,1.05 c 0.3,7.42 4.49,8.66 6.19,8.66 5.13,0 5.63,-6.72 5.63,-8.66 h -11.82 l -0.04,-1.05 h 13.9 c 1.1,0 1.24,0 1.24,1.05 0,4.92 -2.69,9.75 -8.91,9.75 -5.78,0 -10.37,-5.12 -10.37,-11.36 0,-6.67 5.23,-11.5 10.96,-11.5 6.08,0 8.32,5.53 8.32,6.47 0,0.5 -0.39,0.61 -0.64,0.61 -0.46,0 -0.55,-0.3 -0.66,-0.7 -1.73,-5.13 -6.22,-5.13 -6.72,-5.13 -2.5,0 -4.48,1.49 -5.62,3.33 -1.5,2.39 -1.5,5.69 -1.5,7.48 z"
           inkscape:connector-curvature="0"
           style="fill:#00c5b7;stroke-width:0.52158987999999995;stroke-miterlimit:4;stroke-dasharray:none;fill-opacity:1;stroke:#00c5b7;stroke-opacity:1" /><path
           id="path6306"
           d="m 582.25,417.9 0.29,0.36 0.29,0.37 0.3,0.38 0.3,0.39 0.61,0.78 0.31,0.38 0.31,0.39 0.3,0.37 0.29,0.37 0.29,0.35 0.28,0.34 0.14,0.16 0.13,0.16 0.13,0.16 0.13,0.15 0.13,0.14 0.12,0.14 0.11,0.13 0.12,0.12 c 1.55,1.78 3.59,2.53 5.94,2.58 v 1.55 c -1.3,-0.1 -2.8,-0.14 -4.1,-0.14 -1.48,0 -4.12,0.09 -4.78,0.14 v -1.55 c 1.05,-0.09 1.45,-0.73 1.45,-1.53 0,-0.8 -0.5,-1.45 -0.75,-1.75 l -3.09,-3.89 -3.88,5.03 c -0.45,0.5 -0.45,0.61 -0.45,0.91 0,0.75 0.75,1.18 1.74,1.23 v 1.55 c -1.29,-0.05 -4.58,-0.14 -5.38,-0.14 -1.05,0 -3.39,0.04 -4.73,0.14 v -1.55 c 3.48,0 3.54,-0.05 5.87,-3.03 l 4.94,-6.42 -4.69,-5.94 c -2.39,-2.89 -5.33,-2.98 -6.37,-2.98 v -1.55 c 1.29,0.09 2.84,0.16 4.14,0.16 1.43,0 3.53,-0.11 4.73,-0.16 v 1.55 c -1.09,0.14 -1.45,0.79 -1.45,1.54 0,1.1 1.45,2.74 4.48,6.33 l 3.8,-4.98 c 0.39,-0.55 1.05,-1.35 1.05,-1.64 0,-0.46 -0.46,-1.21 -1.8,-1.25 v -1.55 c 1.48,0.05 4.28,0.16 5.38,0.16 1.34,0 3.29,-0.07 4.78,-0.16 v 1.55 c -2.69,0 -3.58,0.09 -4.74,1.54 z"
           inkscape:connector-curvature="0"
           style="fill:#00c5b7;stroke-width:0.52158987999999995;stroke-miterlimit:4;stroke-dasharray:none;fill-opacity:1;stroke:#00c5b7;stroke-opacity:1" /><path
           id="path6308"
           d="m 602.79,424.93 v 3.28 l -7.17,-0.54 v -1.55 c 3.55,0 3.89,-0.3 3.89,-2.48 v -23.32 c 0,-2.25 -0.54,-2.25 -3.89,-2.25 v -1.54 c 1.7,0.06 4.28,0.15 5.58,0.15 1.34,0 3.89,-0.09 5.64,-0.15 v 1.54 c -3.34,0 -3.89,0 -3.89,2.25 v 8.36 0.46 l 0.7,0.65 c -0.7,1.05 -0.7,1.1 -0.7,2.08 h 0 V 423 c 1.44,2.53 3.89,3.98 6.42,3.98 3.64,0 6.69,-4.39 6.69,-10.02 0,-6.03 -3.5,-10.21 -7.19,-10.21 -1.98,0 -3.87,1 -5.22,3.04 l -0.7,-0.65 c 0.25,-0.8 2.34,-3.49 6.12,-3.49 5.94,0 11.11,4.88 11.11,11.31 0,6.33 -4.83,11.25 -10.4,11.25 -3.89,0 -5.99,-2.18 -6.99,-3.28 z"
           inkscape:connector-curvature="0"
           style="fill:#00c5b7;stroke-width:0.52158987999999995;stroke-miterlimit:4;stroke-dasharray:none;fill-opacity:1;stroke:#00c5b7;stroke-opacity:1" /><path
           id="path6310"
           d="m 638.43,394.25 0,0.02 0,0.03 0,0.01 0,0.02 0,0.01 -0.01,0.02 0,0.01 -0.01,0.02 -0.01,0.02 -0.01,0.02 -0.01,0.02 -0.02,0.03 -0.01,0.02 -0.02,0.03 -0.02,0.03 -0.03,0.03 -0.02,0.03 -0.03,0.04 -0.02,0.02 -0.01,0.02 -0.02,0.02 -0.02,0.02 -0.02,0.02 -0.02,0.03 -0.02,0.02 -0.02,0.02 -0.02,0.03 -0.03,0.02 -0.02,0.03 -0.03,0.03 -0.03,0.03 -0.02,0.03 -0.03,0.03 -0.03,0.03 -0.03,0.03 -0.03,0.03 -0.04,0.04 -0.03,0.03 -0.04,0.04 -0.03,0.03 -0.04,0.04 -0.04,0.04 c -6.22,6.28 -7.81,15.69 -7.81,23.31 0,8.67 1.89,17.35 8.01,23.56 0.64,0.61 0.64,0.71 0.64,0.86 0,0.35 -0.18,0.49 -0.48,0.49 -0.5,0 -4.98,-3.38 -7.92,-9.7 -2.55,-5.49 -3.14,-11.02 -3.14,-15.21 0,-3.89 0.54,-9.9 3.28,-15.54 2.98,-6.13 7.28,-9.36 7.78,-9.36 0.3,0 0.48,0.14 0.48,0.5 z"
           inkscape:connector-curvature="0"
           style="fill:#00c5b7;stroke-width:0.52158987999999995;stroke-miterlimit:4;stroke-dasharray:none;fill-opacity:1;stroke:#00c5b7;stroke-opacity:1" /><path
           id="path6312"
           d="m 645.66,409.14 -0.02,-0.07 -0.01,-0.08 -0.02,-0.07 -0.02,-0.08 -0.03,-0.16 -0.04,-0.16 -0.04,-0.16 -0.04,-0.16 -0.03,-0.16 -0.04,-0.16 -0.02,-0.08 -0.01,-0.07 -0.02,-0.07 -0.01,-0.07 -0.02,-0.07 -0.01,-0.07 -0.02,-0.06 -0.01,-0.06 -0.01,-0.06 -0.01,-0.05 -0.01,-0.05 0,-0.04 -0.01,-0.04 0,-0.04 -0.01,-0.03 0,-0.02 c 0,-0.89 0.71,-1.35 1.44,-1.35 0.61,0 1.5,0.39 1.84,1.39 0.11,0.21 1.8,6.99 2,7.88 0.4,1.64 1.3,5.12 1.6,6.48 0.2,0.64 1.59,2.99 2.78,4.08 0.41,0.34 1.84,1.64 4,1.64 1.28,0 2.03,-0.59 2.08,-0.59 -1.49,-0.25 -2.58,-1.46 -2.58,-2.74 0,-0.79 0.55,-1.75 1.89,-1.75 1.34,0 2.73,1.14 2.73,2.94 0,1.75 -1.59,3.23 -4.12,3.23 -3.25,0 -5.44,-2.43 -6.39,-3.82 -0.39,2.23 -2.19,3.82 -4.53,3.82 -2.28,0 -3.24,-1.93 -3.69,-2.82 -0.89,-1.71 -1.55,-4.69 -1.55,-4.85 0,-0.5 0.5,-0.5 0.61,-0.5 0.5,0 0.55,0.07 0.85,1.16 0.84,3.53 1.84,5.92 3.64,5.92 0.84,0 1.54,-0.39 1.54,-2.28 0,-1.05 -0.15,-1.61 -0.79,-4.19 z"
           inkscape:connector-curvature="0"
           style="fill:#00c5b7;stroke-width:0.52158987999999995;stroke-miterlimit:4;stroke-dasharray:none;fill-opacity:1;stroke:#00c5b7;stroke-opacity:1" /><path
           id="path6314"
           d="m 674.99,447.34 0,0 0,0.01 0,0 0,0.01 0.01,0 0,0.01 0,0 0,0.01 0.01,0.01 0,0 0,0.02 0.01,0.02 0,0.02 0.01,0.02 0,0.02 0.01,0.02 0.01,0.02 0,0.02 0.01,0.03 0.01,0.04 0.01,0.05 0.01,0.02 0,0.03 0.01,0.02 0,0.02 0.01,0.02 0,0.02 0.01,0.01 0,0.02 0,0.01 0,0 0,0.01 0,0.01 0.01,0 0,0.01 0,0 0,0.01 0,0 0,0 0,0.01 0,0 c 0,0.18 -0.14,0.5 -0.56,0.5 -0.69,0 -3.6,-0.28 -4.46,-0.36 -0.25,-0.03 -0.73,-0.07 -0.73,-0.8 0,-0.48 0.48,-0.48 0.87,-0.48 1.68,0 1.68,-0.25 1.68,-0.54 0,-0.23 -0.08,-0.45 -0.15,-0.76 l -4.32,-17.2 c -0.11,-0.36 -0.14,-0.74 -0.14,-1.08 0,-2.24 1.98,-3.31 3.65,-3.31 0.85,0 1.89,0.28 2.8,1.84 0.73,1.28 1.22,3.34 1.22,3.48 0,0.46 -0.46,0.46 -0.56,0.46 -0.49,0 -0.55,-0.21 -0.69,-0.85 -0.46,-1.73 -1.13,-3.97 -2.63,-3.97 -0.93,0 -1.17,0.88 -1.17,1.71 0,0.39 0.09,1.04 0.21,1.43 z"
           inkscape:connector-curvature="0"
           style="fill:#00c5b7;stroke-width:0.52158987999999995;stroke-miterlimit:4;stroke-dasharray:none;fill-opacity:1;stroke:#00c5b7;stroke-opacity:1" /><path
           id="path6316"
           d="m 696.5,433.46 -0.01,0.36 -0.03,0.35 -0.04,0.34 -0.05,0.33 -0.08,0.32 -0.08,0.31 -0.1,0.29 -0.12,0.29 -0.13,0.28 -0.14,0.27 -0.15,0.25 -0.17,0.25 -0.18,0.23 -0.19,0.22 -0.19,0.21 -0.22,0.21 -0.22,0.18 -0.23,0.18 -0.23,0.17 -0.25,0.15 -0.26,0.15 -0.26,0.13 -0.27,0.11 -0.28,0.11 -0.28,0.1 -0.3,0.08 -0.29,0.07 -0.3,0.06 -0.31,0.04 -0.31,0.03 -0.31,0.02 -0.32,0.01 c -5.17,0 -10.05,-4.85 -10.05,-9.61 0,-3.49 2.55,-6.09 6.35,-6.09 l 0.03,0.96 c -1.74,0 -3.49,1.13 -3.49,3.88 0,1.42 0.68,4.84 2.03,6.83 1.5,2.15 3.52,3.06 5.08,3.06 1.89,0 3.49,-1.3 3.49,-3.88 0,-0.82 -0.41,-4.28 -1.96,-6.71 -1.31,-2.05 -3.4,-3.18 -5.15,-3.18 h 0 l -0.03,-0.96 c 4.98,0 10,4.59 10,9.6 z"
           inkscape:connector-curvature="0"
           style="fill:#00c5b7;stroke-width:0.52158987999999995;stroke-miterlimit:4;stroke-dasharray:none;fill-opacity:1;stroke:#00c5b7;stroke-opacity:1" /><path
           id="path6318"
           d="m 716.21,437.06 0.01,0.05 0.01,0.04 0.01,0.04 0.01,0.05 0.01,0.04 0.01,0.03 0.01,0.04 0.01,0.03 0.01,0.04 0,0.03 0.01,0.03 0,0.03 0.01,0.02 0,0.03 0.01,0.02 0,0.02 0,0.02 0.01,0.02 0,0.02 0,0.02 0,0.01 0,0.02 0,0.01 0.01,0.01 0,0.01 0,0.01 0,0.01 0,0.01 0,0.01 0,0 0,0.01 0,0 c 0,0.77 -0.63,1.11 -1.19,1.11 -0.8,0 -1.45,-0.65 -1.59,-1.33 -0.6,0.96 -1.79,1.99 -3.6,1.99 v -0.97 c 2.44,0 3.11,-2.61 3.11,-2.97 0,-0.06 0,-0.12 -0.11,-0.51 l -1.56,-6.27 c -0.14,-0.53 -0.14,-0.59 -0.73,-1.3 -1.22,-1.47 -2.9,-2.37 -4.22,-2.37 -1.78,0 -2.61,1.5 -2.61,3.31 0,1.53 0.93,5.44 1.84,6.97 1.47,2.44 3.09,3.14 4.28,3.14 v 0.97 c -4.36,0 -8.92,-4.66 -8.92,-9.64 0,-3.6 2.44,-5.72 5.3,-5.72 1.61,0 3.14,0.8 4.36,1.87 l -0.77,-3.12 c -0.39,-1.47 -0.62,-2.41 -1.95,-3.59 -1.53,-1.29 -3.03,-1.29 -3.91,-1.29 -1.59,0 -2.05,0.1 -2.67,0.24 0.86,0.42 1.11,1.25 1.11,1.75 0,0.83 -0.66,1.28 -1.36,1.28 -0.97,0 -1.98,-0.8 -1.98,-2.13 0,-2.09 3,-2.12 4.95,-2.12 5.47,0 7.8,2.78 8.28,4.78 z"
           inkscape:connector-curvature="0"
           style="fill:#00c5b7;stroke-width:0.52158987999999995;stroke-miterlimit:4;stroke-dasharray:none;fill-opacity:1;stroke:#00c5b7;stroke-opacity:1" /><path
           id="path6320"
           d="m 735.23,418.65 0,0.37 -0.01,0.39 -0.01,0.39 -0.01,0.41 -0.04,0.84 -0.06,0.88 -0.08,0.92 -0.11,0.95 -0.13,0.97 -0.16,1.01 -0.2,1.02 -0.23,1.03 -0.27,1.05 -0.3,1.06 -0.35,1.07 -0.39,1.07 -0.22,0.53 -0.22,0.53 -0.24,0.53 -0.25,0.53 c -2.98,6.12 -7.27,9.36 -7.77,9.36 -0.29,0 -0.5,-0.19 -0.5,-0.49 0,-0.15 0,-0.25 0.94,-1.15 4.89,-4.92 7.73,-12.85 7.73,-23.27 0,-8.51 -1.84,-17.28 -8.03,-23.56 -0.64,-0.59 -0.64,-0.7 -0.64,-0.84 0,-0.3 0.21,-0.5 0.5,-0.5 0.5,0 4.97,3.39 7.92,9.71 2.54,5.47 3.13,11 3.13,15.19 z"
           inkscape:connector-curvature="0"
           style="fill:#00c5b7;stroke-width:0.52158987999999995;stroke-miterlimit:4;stroke-dasharray:none;fill-opacity:1;stroke:#00c5b7;stroke-opacity:1" /><path
           id="path6322"
           d="m 784.02,417.65 0.16,0 0.16,0 0.16,0.01 0.08,0 0.07,0.01 0.08,0 0.07,0.01 0.08,0.01 0.07,0.01 0.07,0.02 0.07,0.02 0.06,0.02 0.06,0.02 0.07,0.02 0.05,0.03 0.06,0.03 0.05,0.04 0.05,0.03 0.05,0.05 0.04,0.04 0.04,0.05 0.02,0.03 0.01,0.03 0.02,0.03 0.01,0.03 0.02,0.03 0.01,0.03 0.01,0.04 0.01,0.03 0.01,0.04 0.01,0.04 0.01,0.04 0,0.04 0.01,0.04 0,0.04 0,0.05 0,0.04 c 0,1 -0.9,1 -1.75,1 h -26.95 c -0.84,0 -1.73,0 -1.73,-1 0,-1 0.89,-1 1.73,-1 z"
           inkscape:connector-curvature="0"
           style="fill:#00c5b7;stroke-width:0.52158987999999995;stroke-miterlimit:4;stroke-dasharray:none;fill-opacity:1;stroke:#00c5b7;stroke-opacity:1" /><path
           id="path6324"
           d="m 815.75,438.09 0,0.05 0,0.06 0,0.05 0,0.05 0,0.05 0,0.05 0,0.04 0,0.05 0,0.04 0,0.04 0,0.04 0,0.04 -0.01,0.04 0,0.03 0,0.04 0,0.03 -0.01,0.07 -0.01,0.06 -0.01,0.05 -0.02,0.05 -0.01,0.05 -0.02,0.04 -0.02,0.04 -0.03,0.03 -0.03,0.03 -0.03,0.03 -0.03,0.03 -0.04,0.02 -0.05,0.02 -0.02,0.01 -0.03,0.01 -0.02,0 -0.03,0.01 -0.03,0.01 -0.03,0 -0.03,0.01 -0.03,0 -0.03,0.01 -0.04,0 -0.03,0 -0.04,0.01 -0.04,0 -0.04,0 -0.04,0 -0.05,0 -0.04,0 -0.05,0.01 -0.04,0 -0.05,0 -0.05,0 -0.06,0 c -3.09,-3.19 -7.46,-3.19 -9.06,-3.19 v -1.55 c 1,0 3.94,0 6.52,1.3 v -25.81 c 0,-1.8 -0.14,-2.39 -4.63,-2.39 h -1.59 v -1.55 c 1.75,0.16 6.08,0.16 8.06,0.16 2,0 6.33,0 8.08,-0.16 v 1.55 h -1.59 c -4.49,0 -4.65,0.54 -4.65,2.39 z"
           inkscape:connector-curvature="0"
           style="fill:#00c5b7;stroke-width:0.52158987999999995;stroke-miterlimit:4;stroke-dasharray:none;fill-opacity:1;stroke:#00c5b7;stroke-opacity:1" /></g>    </g>
    <g
       transform="translate(46.379574,-101.09445)"
       style="font-size:12px;font-style:normal;font-variant:normal;font-weight:normal;font-stretch:normal;text-align:start;line-height:125%;letter-spacing:0px;word-spacing:0px;writing-mode:lr-tb;text-anchor:start;fill:#000000;fill-opacity:1;stroke:none;font-family:Times New Roman;-inkscape-font-specification:'Times New Roman,'"
       id="flowRoot6918">
      <path
         d="m 327.76758,243.55194 3.02929,0 0,0.88476 -3.02929,0 0,-0.88476"
         style=""
         id="path7091" />
      <path
         d="m 332.69531,239.52069 1.9336,-0.94336 0.19336,0 0,6.70898 c -10e-6,0.44532 0.0176,0.72266 0.0527,0.83203 0.0391,0.10938 0.11718,0.19336 0.23437,0.25196 0.11719,0.0586 0.35547,0.0918 0.71485,0.0996 l 0,0.21679 -2.98828,0 0,-0.21679 c 0.375,-0.008 0.61718,-0.0391 0.72656,-0.0937 0.10937,-0.0586 0.18554,-0.13477 0.22852,-0.22852 0.043,-0.0976 0.0645,-0.38476 0.0645,-0.86133 l 0,-4.28906 c 0,-0.57812 -0.0195,-0.94921 -0.0586,-1.11328 -0.0273,-0.12499 -0.0781,-0.21679 -0.15234,-0.27539 -0.0703,-0.0586 -0.15625,-0.0879 -0.25781,-0.0879 -0.14453,1e-5 -0.34571,0.0606 -0.60352,0.18164 l -0.0879,-0.18164"
         style=""
         id="path7093" />
    </g>
    <g
       transform="translate(41.833887,-142.17257)"
       style="font-size:12px;font-style:normal;font-variant:normal;font-weight:normal;font-stretch:normal;text-align:start;line-height:125%;letter-spacing:0px;word-spacing:0px;writing-mode:lr-tb;text-anchor:start;fill:#000000;fill-opacity:1;stroke:none;font-family:Times New Roman;-inkscape-font-specification:'Times New Roman,'"
       id="flowRoot6926">
      <path
         d="m 134.27734,283.69842 c 0,-0.90624 0.13672,-1.68554 0.41016,-2.33789 0.27344,-0.65624 0.63672,-1.14452 1.08984,-1.46484 0.35156,-0.2539 0.71484,-0.38085 1.08985,-0.38086 0.60937,10e-6 1.15624,0.31055 1.64062,0.93164 0.60547,0.76954 0.9082,1.8125 0.90821,3.12891 -1e-5,0.92187 -0.13282,1.70508 -0.39844,2.34961 -0.26563,0.64453 -0.60548,1.11328 -1.01953,1.40625 -0.41016,0.28906 -0.80665,0.43359 -1.18946,0.43359 -0.75781,0 -1.38867,-0.44727 -1.89257,-1.3418 -0.42579,-0.7539 -0.63868,-1.6621 -0.63868,-2.72461 m 1.14844,0.14649 c 0,1.09375 0.13477,1.98633 0.4043,2.67773 0.22265,0.58203 0.55468,0.87305 0.99609,0.87305 0.21094,0 0.42969,-0.0937 0.65625,-0.28125 0.22656,-0.19141 0.39844,-0.50977 0.51563,-0.95508 0.17968,-0.67187 0.26952,-1.61914 0.26953,-2.8418 -1e-5,-0.90624 -0.0938,-1.6621 -0.28125,-2.26757 -0.14063,-0.44922 -0.32227,-0.76758 -0.54492,-0.95508 -0.16016,-0.1289 -0.35352,-0.19335 -0.58008,-0.19336 -0.26563,1e-5 -0.50196,0.11915 -0.70899,0.35742 -0.28125,0.32423 -0.47265,0.83399 -0.57422,1.5293 -0.10156,0.69531 -0.15234,1.38086 -0.15234,2.05664"
         style=""
         id="path7096" />
    </g>
    <flowRoot
       xml:space="preserve"
       id="flowRoot6934"
       style="font-size:8px;font-style:normal;font-variant:normal;font-weight:normal;font-stretch:normal;text-align:start;line-height:125%;letter-spacing:0px;word-spacing:0px;writing-mode:lr-tb;text-anchor:start;fill:#000000;fill-opacity:1;stroke:none;font-family:Times New Roman;-inkscape-font-specification:'Times New Roman,'"
       transform="translate(37.793277,-131.99363)"><flowRegion
         id="flowRegion6936"><rect
           id="rect6938"
           width="48.48732"
           height="27.274118"
           x="242.43661"
           y="295.17917" /></flowRegion><flowPara
         id="flowPara6940" /></flowRoot>    <g
       transform="translate(319.23097,-142.17257)"
       style="font-size:12px;font-style:normal;font-variant:normal;font-weight:normal;font-stretch:normal;text-align:start;line-height:125%;letter-spacing:0px;word-spacing:0px;writing-mode:lr-tb;text-anchor:start;fill:#000000;fill-opacity:1;stroke:none;font-family:Times New Roman;-inkscape-font-specification:'Times New Roman,'"
       id="flowRoot6926-3">
      <path
         d="m 134.27734,283.69842 c 0,-0.90624 0.13672,-1.68554 0.41016,-2.33789 0.27344,-0.65624 0.63672,-1.14452 1.08984,-1.46484 0.35156,-0.2539 0.71484,-0.38085 1.08985,-0.38086 0.60937,10e-6 1.15624,0.31055 1.64062,0.93164 0.60547,0.76954 0.9082,1.8125 0.90821,3.12891 -1e-5,0.92187 -0.13282,1.70508 -0.39844,2.34961 -0.26563,0.64453 -0.60548,1.11328 -1.01953,1.40625 -0.41016,0.28906 -0.80665,0.43359 -1.18946,0.43359 -0.75781,0 -1.38867,-0.44727 -1.89257,-1.3418 -0.42579,-0.7539 -0.63868,-1.6621 -0.63868,-2.72461 m 1.14844,0.14649 c 0,1.09375 0.13477,1.98633 0.4043,2.67773 0.22265,0.58203 0.55468,0.87305 0.99609,0.87305 0.21094,0 0.42969,-0.0937 0.65625,-0.28125 0.22656,-0.19141 0.39844,-0.50977 0.51563,-0.95508 0.17968,-0.67187 0.26952,-1.61914 0.26953,-2.8418 -1e-5,-0.90624 -0.0938,-1.6621 -0.28125,-2.26757 -0.14063,-0.44922 -0.32227,-0.76758 -0.54492,-0.95508 -0.16016,-0.1289 -0.35352,-0.19335 -0.58008,-0.19336 -0.26563,1e-5 -0.50196,0.11915 -0.70899,0.35742 -0.28125,0.32423 -0.47265,0.83399 -0.57422,1.5293 -0.10156,0.69531 -0.15234,1.38086 -0.15234,2.05664"
         style=""
         id="path7088" />
    </g>
    <path
       style="fill:none;stroke:#d90845;stroke-width:2;stroke-linecap:butt;stroke-linejoin:miter;stroke-miterlimit:4;stroke-opacity:1;stroke-dasharray:none"
       d="m 178.45703,-8.7116674 c 0,142.8314674 0,145.5012074 0,145.5012074"
       id="path6977-7"
       inkscape:connector-curvature="0" />
    <path
       style="fill:none;stroke:#d90845;stroke-width:2;stroke-linecap:butt;stroke-linejoin:miter;stroke-miterlimit:4;stroke-opacity:1;stroke-dasharray:none"
       d="m 462.72863,-8.7116775 c 0,142.8314775 0,145.5012175 0,145.5012175"
       id="path6977-7-3"
       inkscape:connector-curvature="0" />
  </g>
</svg>
