<?xml version="1.0" encoding="UTF-8" standalone="no"?>
<!-- Created with Inkscape (http://www.inkscape.org/) -->

<svg
   xmlns:dc="http://purl.org/dc/elements/1.1/"
   xmlns:cc="http://creativecommons.org/ns#"
   xmlns:rdf="http://www.w3.org/1999/02/22-rdf-syntax-ns#"
   xmlns:svg="http://www.w3.org/2000/svg"
   xmlns="http://www.w3.org/2000/svg"
   xmlns:sodipodi="http://sodipodi.sourceforge.net/DTD/sodipodi-0.dtd"
   xmlns:inkscape="http://www.inkscape.org/namespaces/inkscape"
   width="569.23291"
   height="210.14999"
   id="svg3029"
   version="1.1"
   inkscape:version="0.48.4 r9939"
   sodipodi:docname="noPathDependence.svg">
  <defs
     id="defs3031">
    <marker
       inkscape:stockid="Arrow2Mend"
       orient="auto"
       refY="0"
       refX="0"
       id="Arrow2Mend"
       style="overflow:visible">
      <path
         id="path3856"
         style="fill-rule:evenodd;stroke-width:0.625;stroke-linejoin:round"
         d="M 8.7185878,4.0337352 -2.2072895,0.01601326 8.7185884,-4.0017078 c -1.7454984,2.3720609 -1.7354408,5.6174519 -6e-7,8.035443 z"
         transform="scale(-0.6,-0.6)"
         inkscape:connector-curvature="0" />
    </marker>
    <marker
       inkscape:stockid="Arrow2Mend"
       orient="auto"
       refY="0"
       refX="0"
       id="Arrow2Mend-8"
       style="overflow:visible">
      <path
         id="path3856-8"
         style="fill-rule:evenodd;stroke-width:0.625;stroke-linejoin:round"
         d="M 8.7185878,4.0337352 -2.2072895,0.01601326 8.7185884,-4.0017078 c -1.7454984,2.3720609 -1.7354408,5.6174519 -6e-7,8.035443 z"
         transform="scale(-0.6,-0.6)"
         inkscape:connector-curvature="0" />
    </marker>
  </defs>
  <sodipodi:namedview
     id="base"
     pagecolor="#ff39ff"
     bordercolor="#666666"
     borderopacity="1.0"
     inkscape:pageopacity="0.49411765"
     inkscape:pageshadow="2"
     inkscape:zoom="2.8"
     inkscape:cx="306.03655"
     inkscape:cy="145.65369"
     inkscape:document-units="px"
     inkscape:current-layer="layer1"
     showgrid="false"
     inkscape:window-width="1366"
     inkscape:window-height="744"
     inkscape:window-x="0"
     inkscape:window-y="24"
     inkscape:window-maximized="1"
     fit-margin-top="0"
     fit-margin-left="0"
     fit-margin-right="0"
     fit-margin-bottom="0" />
  <metadata
     id="metadata3034">
    <rdf:RDF>
      <cc:Work
         rdf:about="">
        <dc:format>image/svg+xml</dc:format>
        <dc:type
           rdf:resource="http://purl.org/dc/dcmitype/StillImage" />
        <dc:title />
      </cc:Work>
    </rdf:RDF>
  </metadata>
  <g
     inkscape:label="Layer 1"
     inkscape:groupmode="layer"
     id="layer1"
     transform="translate(-135.78372,-161.92916)">
    <g
       transform="matrix(2.5611448,0,0,2.5611448,289.69103,-235.35249)"
       style="font-size:8px;font-style:normal;font-variant:normal;font-weight:normal;font-stretch:normal;text-align:start;line-height:125%;letter-spacing:0px;word-spacing:0px;writing-mode:lr-tb;text-anchor:start;fill:#00c5b8;fill-opacity:0.9372549;stroke:none;font-family:Times New Roman;-inkscape-font-specification:'Times New Roman,'"
       id="flowRoot4483">
      <path
         d="m 130.08984,160.21431 -2.24218,0 c -0.008,0.10938 -0.0117,0.21745 -0.0117,0.32422 l 2.15625,0 -0.0898,0.30469 -2.05859,0 c 0.0208,0.54948 0.13021,1.00781 0.32812,1.375 0.23177,0.42708 0.54427,0.64062 0.9375,0.64062 0.34896,0 0.64063,-0.0898 0.875,-0.26953 0.14063,-0.10677 0.31901,-0.30989 0.53516,-0.60937 l 0.12109,0.0781 c -0.22396,0.35417 -0.42708,0.60677 -0.60937,0.75782 -0.29948,0.24739 -0.65886,0.37109 -1.07813,0.37109 -0.59895,0 -1.0625,-0.2487 -1.39062,-0.74609 -0.26823,-0.40625 -0.42708,-0.93881 -0.47656,-1.59766 l -0.39453,0 0.0898,-0.30469 0.28906,0 0,-0.0625 c 0,-0.0781 0.003,-0.16536 0.008,-0.26172 l -0.38672,0 0.0898,-0.30468 0.32813,0 c 0.0885,-0.61719 0.29947,-1.1263 0.63281,-1.52735 0.38281,-0.46353 0.87239,-0.69531 1.46875,-0.69531 0.44531,0 0.88802,0.11459 1.32812,0.34375 l 0,1.16797 -0.15234,0 c -0.0677,-0.83593 -0.45964,-1.2539 -1.17578,-1.25391 -0.41146,1e-5 -0.73698,0.21745 -0.97657,0.65235 -0.18489,0.33854 -0.30599,0.77604 -0.36328,1.3125 l 2.3086,0 -0.0898,0.30468"
         style="fill:#00c5b8;fill-opacity:0.9372549"
         id="path3021"
         inkscape:connector-curvature="0" />
    </g>
    <path
       style="fill:#000000;fill-opacity:0;stroke:#00c5b7;stroke-width:2;stroke-linecap:butt;stroke-linejoin:miter;stroke-opacity:1;stroke-miterlimit:4;stroke-dasharray:none"
       d="m 314.41046,184.06879 c 0.48903,18.62491 -1.28367,37.88727 4.64731,54.4076 4.67283,12.08591 13.79707,16.05553 21.86052,18.62455 9.46679,2.99948 19.30575,5.087 28.00013,12.06667 3.86118,3.09967 7.4291,8.46021 4.47312,14.78766 -4.41977,6.88513 -10.47698,7.85913 -16.01725,9.61819 -11.16508,2.93651 -23.30444,4.36956 -32.60031,16.06274 -7.36426,11.39379 -8.6426,31.46495 -9.34911,41.34592 -0.70651,9.88098 -0.55897,12.30469 -0.72255,16.67423"
       id="path4481-5"
       inkscape:connector-curvature="0"
       sodipodi:nodetypes="cccsccczc" />
    <g
       transform="matrix(2.5611448,0,0,2.5611448,-1.5761714,-235.31893)"
       style="font-size:8px;font-style:normal;font-variant:normal;font-weight:normal;font-stretch:normal;text-align:start;line-height:125%;letter-spacing:0px;word-spacing:0px;writing-mode:lr-tb;text-anchor:start;fill:#00c5b8;fill-opacity:0.9372549;stroke:none;font-family:Times New Roman;-inkscape-font-specification:'Times New Roman,'"
       id="flowRoot4483-0">
      <path
         d="m 130.08984,160.21431 -2.24218,0 c -0.008,0.10938 -0.0117,0.21745 -0.0117,0.32422 l 2.15625,0 -0.0898,0.30469 -2.05859,0 c 0.0208,0.54948 0.13021,1.00781 0.32812,1.375 0.23177,0.42708 0.54427,0.64062 0.9375,0.64062 0.34896,0 0.64063,-0.0898 0.875,-0.26953 0.14063,-0.10677 0.31901,-0.30989 0.53516,-0.60937 l 0.12109,0.0781 c -0.22396,0.35417 -0.42708,0.60677 -0.60937,0.75782 -0.29948,0.24739 -0.65886,0.37109 -1.07813,0.37109 -0.59895,0 -1.0625,-0.2487 -1.39062,-0.74609 -0.26823,-0.40625 -0.42708,-0.93881 -0.47656,-1.59766 l -0.39453,0 0.0898,-0.30469 0.28906,0 0,-0.0625 c 0,-0.0781 0.003,-0.16536 0.008,-0.26172 l -0.38672,0 0.0898,-0.30468 0.32813,0 c 0.0885,-0.61719 0.29947,-1.1263 0.63281,-1.52735 0.38281,-0.46353 0.87239,-0.69531 1.46875,-0.69531 0.44531,0 0.88802,0.11459 1.32812,0.34375 l 0,1.16797 -0.15234,0 c -0.0677,-0.83593 -0.45964,-1.2539 -1.17578,-1.25391 -0.41146,1e-5 -0.73698,0.21745 -0.97657,0.65235 -0.18489,0.33854 -0.30599,0.77604 -0.36328,1.3125 l 2.3086,0 -0.0898,0.30468"
         style="fill:#00c5b8;fill-opacity:0.9372549"
         id="path3021-8"
         inkscape:connector-curvature="0" />
    </g>
    <path
       style="fill:none;stroke:#ffffff;stroke-width:1.20000005;stroke-linecap:butt;stroke-linejoin:miter;stroke-miterlimit:4;stroke-opacity:1;stroke-dasharray:none"
       d="m 136.62966,283.1731 c 3.92266,-7.84436 6.35517,-18.23412 9.83745,-26.83808 0.40258,-0.99468 1.17705,-2.62254 1.47562,-3.54465 0.24488,-0.75632 0.1797,-3.17464 0.49187,-2.5319 0.28094,0.57846 -0.17493,11.09873 0,12.65948 0.14039,1.25256 0.5542,2.316 0.73781,3.54464 0.42675,2.85573 0.2415,5.7732 0.49187,8.60845 0.86374,9.78135 0.1683,-1.14579 0.73781,3.54464 0.23164,1.90781 -0.0252,3.59655 0,3.54466 0.27082,-0.55762 4.78623,-17.48968 5.41059,-16.20412 0.59361,1.22224 2.30941,13.57341 2.7053,13.16585 0.80357,-0.82727 1.37954,-6.55279 1.72155,-8.10206 0.63702,-2.88554 1.82721,-3.47337 2.45937,-6.07655 0.75257,-3.09907 1.19489,-5.67243 2.21342,-8.60844 0.52821,-1.52259 1.06907,-2.88324 1.47562,-4.55741 0.082,-0.33759 0.11632,-1.27964 0.24593,-1.01275 0.0113,0.0232 -0.73781,11.94737 -0.73781,13.16584 0,4.22502 -0.008,8.48191 0.24594,12.65947 0.49189,8.1023 1.74579,-7.70284 2.21343,0 0.30242,4.98137 0.76109,9.86091 1.22968,14.68499 0.0446,0.45852 -0.1647,4.47377 0.24594,4.05103 1.02852,-1.05886 5.07989,-19.74878 5.41059,-19.74878 0.71937,0 1.10011,7.27451 1.22968,8.60844 0.0643,0.66206 -0.32791,2.02552 0,2.02552 0.8153,0 2.34807,-9.89842 2.95124,-11.14033 0.35384,-0.72857 0.0145,7.20851 0.49187,5.57016 1.71575,-5.88784 3.11417,-18.96153 4.18092,-25.82531 0.98399,-6.33137 2.43568,-11.70174 3.68904,-17.72326 0.50325,-2.41775 1.54038,-2.63866 2.21342,-5.06378 0.32792,-1.18156 0.39259,-4.15325 0.98375,-3.54466 0.17164,0.1767 -0.66015,21.69445 -0.73781,23.29342 -0.21777,4.48395 -0.6772,8.74755 -0.98375,13.16585 -0.0348,0.50129 -0.23331,1.359 0,1.51913 0.69426,0.4765 2.17418,-6.31898 2.21343,-6.07654 0.93868,5.7982 -1.8704,25.95858 0.98374,29.87635 0.12855,0.17645 0.85546,-0.26415 0.98375,0 0.7141,1.47032 0.51529,3.74559 1.47562,5.06379 1.12611,1.54576 1.84224,-6.56413 1.96749,-7.59568 1.27493,-10.50033 2.70251,-21.13879 4.42685,-31.39549 1.69436,-10.0784 -0.15735,-0.36478 1.47562,-7.0893 0.16395,-0.67518 0.37593,-2.74164 0.49187,-2.02552 0.43907,2.71216 -0.0988,6.89431 -0.24594,9.6212 -0.0543,1.00657 -0.3478,3.7544 0,3.03827 2.13771,-4.40151 1.88865,-12.53348 3.68905,-17.72325 0.23824,-0.68676 0.85412,-2.31979 0.98374,-1.51914 0.60187,3.71773 0,18.54905 0,23.29342 0,0.62449 0.72565,7.64573 0.73781,7.59568 0.11042,-0.4547 1.57872,-14.47268 2.45936,-12.65946 0.18796,0.38701 -0.24535,2.52584 -0.24594,2.53189 -0.71551,7.3662 -0.67039,13.80279 0.73781,20.76153 0.1698,0.83905 0.12455,2.02768 0.49187,2.53189 0.51948,0.71306 0.29634,-4.45363 0.73781,-3.54465 0.21972,0.45239 -0.1037,5.49083 -0.24593,6.07655 -0.0519,0.21351 -0.24594,0.74508 -0.24594,0.50638 0,-1.36086 0.73828,-2.28114 0.98374,-3.54466 1.81466,-9.34085 2.68468,-19.44741 4.42685,-28.86359 1.06228,-5.74144 2.32403,-10.41222 4.18092,-15.19135 0.4709,-1.21199 1.05465,-2.24451 1.47562,-3.54466 0.1438,-0.44412 0.24593,-2.0529 0.24593,-1.51914 0,6.92845 0.49188,14.17091 0.49188,20.76153 0,0.13195 -0.40382,-4.61785 0.98374,-5.57017 0.65583,-0.45011 0.24594,2.08179 0.24594,2.5319 0,7.06065 0.59779,14.329 1.22968,21.26791 0.12458,1.36806 -0.11277,4.6735 0.49187,4.05103 0.56591,-0.5826 1.62694,-11.33514 1.72155,-11.14033 0.0292,0.0601 1.11988,22.37101 1.47562,24.81256 0.0407,0.27915 0.86439,8.00526 1.72156,5.06378 0.92286,-3.16695 1.60265,-13.21883 1.96749,-15.69774 1.72634,-11.72989 3.41405,-23.57054 4.91872,-35.44652 0.43985,-3.47163 0.83674,-6.83898 1.47561,-10.12757 0.12969,-0.66756 0.73319,-1.50962 0.98375,-2.02552 0.12962,-0.26687 0.24593,-1.39018 0.24593,-1.01275 0,7.12982 -0.53445,14.15 -0.7378,21.26791 -0.0337,1.17951 0.0571,2.36897 0,3.54465 -0.0336,0.69249 -0.58395,2.02551 -0.24594,2.02551 0.0587,0 0.69371,-3.31764 0.73781,-3.54465 0.0913,-0.47016 -0.24594,-1.51914 0,-1.51914 0.6619,0 -0.22348,6.33707 0.73781,3.03828 0.0618,-0.21216 0.74372,-5.05162 0.98374,-4.55741 0.40578,0.83549 -0.052,2.36796 0,3.54465 0.15465,3.50266 0.71956,6.4702 1.22968,9.6212 0.48099,2.97102 0.15527,5.25048 0.24594,5.06379 1.04872,-2.15931 3.62209,-19.04755 4.18091,-22.78705 0.0389,-0.26039 0.69124,-5.57016 1.22968,-5.57016 0.33801,0 -0.16395,1.35034 -0.24593,2.02551 -0.0597,0.49126 0,2.02552 0,1.51913 0,-3.38928 -0.0464,-1.05619 0.24593,-5.57016 0.0652,-1.00635 0.16034,-10.12757 1.22969,-10.12757 0.26948,0 0.8785,7.95722 1.22968,7.59568 0.60269,-0.62047 2.26728,-14.79588 3.4431,-17.21688 0.07,-0.14412 0.24594,8.85078 0.24594,10.12757 0,0.84397 -0.18331,3.28676 0,2.53189 0.58067,-2.39118 0.25865,-15.04514 1.47562,-13.16584 0.38229,0.59036 0.4506,18.30053 0.49187,20.25515 0.0716,3.3895 0.89151,13.41897 0.49187,10.12758 -0.53375,-4.39592 -0.24593,-9.77897 -0.24593,-8.60844 0,2.37213 -0.0235,20.48411 0.24593,20.76153 1.15913,1.19332 0.88093,-3.75636 1.22968,-3.03828 0.11084,0.22822 0.29519,18.93881 0.98375,21.77429 0.88635,3.64997 0.21744,-8.2194 0.73781,-6.07655 1.07929,4.44451 0.61422,13.42031 1.47561,11.64672 0.92113,-1.89659 1.05158,-7.42096 1.22968,-9.6212 0.0269,-0.333 -0.16395,-1.01276 0,-1.01276 0.57385,0 0,2.3631 0,3.54465 0,2.73175 -0.26538,8.38987 1.22968,9.6212 1.56457,1.28856 1.67744,-10.40348 3.19717,-9.6212 1.44741,0.74505 1.97793,7.94677 2.45936,10.12758 0.24463,1.10808 0.45501,3.58262 0.98375,3.03827 0.25935,-0.267 1.20728,-12.29244 1.47562,-4.55741 0.0915,2.63663 1.0056,23.7998 3.19717,23.7998 0.54468,0 1.31357,-6.37565 2.45936,-3.54465 0.6787,1.67691 1.79262,13.85225 2.45936,13.16585 0.98495,-1.01399 0.37669,-4.41644 0.49188,-6.07654 0.25128,-3.6217 0.11331,-7.50288 0.49187,-11.14034 0.21727,-2.08769 0.75057,-3.99614 0.98374,-6.07655 0.46665,-4.16355 0.49188,-11.03914 0.49188,-13.67222 0,-8.04679 -0.0965,1.4798 0.24593,-5.57016 0.15718,-3.23635 0.0846,-4.38318 0.24594,-4.05104 0.082,0.16879 -0.20928,0.73284 -0.24594,0.50638 -0.18147,-1.12091 0,-2.3631 0,-3.54465 0,-0.16879 -0.0455,-0.64682 0,-0.50638 1.47159,4.54496 0.69862,11.9917 1.96749,17.21688 0.22775,0.93788 0.7629,2.07718 0.98375,2.5319 0.0858,0.17675 0.68676,-0.2102 0.7378,0 0.86022,3.54233 0.36517,8.2171 1.47562,11.64671 0.33079,1.02163 1.13411,-4.73975 1.22968,-4.05103 0.30047,2.16533 0.45003,4.41029 0.73781,6.58292 0.65785,4.96652 1.82126,4.76956 2.21342,7.59569 0.15344,1.10571 0.41943,3.51319 0.49188,4.5574 0.0232,0.3342 -0.16396,1.01275 0,1.01275 1.06816,0 0.62618,-7.08929 1.96749,-7.08929 0.3696,0 0.43602,5.9504 0.49187,6.58292 0.17165,1.9438 0.30525,6.96717 0.98374,5.57017 0.56001,-1.15304 0.0888,-2.40575 0.24594,0.50637 0.17512,3.24512 0.7904,6.14981 0.98374,4.55741 0.39981,-3.29279 -0.002,-22.6198 1.22968,-21.77428 0.4967,0.34089 1.25695,11.75899 2.21343,15.69773 0.85692,3.52876 2.89566,-11.71248 3.93498,-1.01275 0.0178,0.18286 -0.0568,13.31208 0.98375,10.63395 1.26709,-3.26115 0.60818,-8.99507 0.98374,-8.60843 1.01526,1.0452 0.98533,8.78486 1.47562,11.14033 1.13991,5.47647 2.06557,-2.13102 2.21342,0 0.28274,4.07508 0.28532,5.02324 1.72156,3.54465"
       id="path4848-9"
       inkscape:connector-curvature="0" />
    <path
       style="fill:none;stroke:#ffffff;stroke-width:1.20000005;stroke-linecap:butt;stroke-linejoin:miter;stroke-miterlimit:4;stroke-opacity:1;stroke-dasharray:none"
       d="m 138.10528,286.71774 c 0,-0.84396 -0.19907,-1.79413 0,-2.53189 0.0993,-0.36804 2.12522,-4.05103 2.45936,-4.05103 0.15611,0 0.15679,2.71546 0.73781,1.51914 0.10388,-0.21388 0.57457,-2.36163 0.98374,-1.51914 0.6525,1.34348 -0.27297,4.52957 0.73781,5.57017 0.72777,0.74923 1.28458,-3.43163 1.72156,-2.53189 0.44758,0.92157 -0.16946,5.69365 0,7.0893 0.34427,2.83541 1.64892,-4.55741 1.96749,-4.55741 0.4149,0 -0.48005,3.06262 0.24593,4.55741 0.31217,0.64274 0.35227,-1.66956 0.49187,-2.53189 0.17796,-1.09923 1.6066,-10.51562 2.21343,-11.14034 0.69336,-0.71381 0.01,1.8654 0.24594,4.05103 0.44328,4.10718 0.51811,0.93869 0.73781,4.55741 0.0813,1.33991 0,2.70068 0,4.05103 0,3.05796 1.48979,-3.54465 1.72155,-3.54465 0.44147,0 0.31797,1.69641 0.49187,2.53189 0.0678,0.3258 1.13925,6.35586 1.72155,4.55741 1.21036,-3.73817 1.24691,-9.43397 1.47562,-13.67222 0.13152,-2.43725 0.85683,-5.29263 1.22968,-7.59569 0.19743,-1.21952 1.17928,-4.45363 0.73781,-3.54465 -0.46533,0.95811 -0.50467,5.59653 0,4.55741 0.74904,-1.54226 1.10751,-6.08094 1.47562,-8.10206 0.14216,-0.78057 1.78627,-10.50069 2.21342,-9.62119 0.39576,0.81486 -0.4388,9.51192 0,8.60843 0.63852,-1.3147 0.84006,-2.44655 1.22968,-4.05103 0.19743,-0.81301 0.0504,-2.53189 0.49187,-2.53189 0.49117,0 0.24594,6.08653 0.24594,6.58292 0,10.05761 1.60682,1.11331 1.22968,8.10206 -0.091,1.68598 -1.06981,5.06379 -0.24594,5.06379 1.12469,0 0.6065,-3.54465 1.47562,-3.54465 0.67563,0 -1.03256,3.75321 -0.73781,8.60844 0.0112,0.18368 0.40375,3.21973 0.98375,2.02552 0.23901,-0.49212 0.24593,-2.72147 0.24593,-2.02552 0,3.11018 0.0315,7.51328 0.98375,10.12758 1.04953,2.88127 2.77279,-6.95035 3.19717,-6.07655 1.07342,2.21015 -1.86512,9.04456 1.72155,6.58292 1.52963,-1.04982 0.83323,4.95033 1.22969,6.58292 0.4105,1.69044 0.61283,2.46964 1.47561,2.02552 0.24995,-0.12866 1.28308,-4.73394 1.47562,-3.54465 0.0613,0.37855 0.44186,6.17951 0.49187,6.07655 0.792,-1.63073 0.51277,-6.60063 0.73781,-8.60845 0.62164,-5.54638 0.43611,-1.49857 0.73781,-7.08929 0.0181,-0.33552 -0.16396,-1.01277 0,-1.01277 0.31723,0 -0.50025,5.60468 0.24594,2.5319 0.1062,-0.43733 0.86055,-5.57016 1.22968,-5.57016 0.66093,0 -0.71329,5.01329 -0.24594,4.05103 0.74501,-1.53399 1.22347,-6.06376 1.47562,-6.58293 0.54123,-1.11438 1.60692,10.04393 1.72155,10.63396 0.53633,2.76074 2.43604,-5.76223 2.7053,-3.54466 0.24122,1.98669 -0.36631,4.69739 0,6.58292 0.33516,1.72524 1.6645,3.36847 2.21342,5.0638 0.12424,0.38371 0.29606,3.74465 0.73781,2.53189 2.38904,-6.55866 2.93675,-17.06772 3.68904,-24.81256 0.0804,-0.82758 0,1.68793 0,2.53189 0,1.8394 -0.24593,3.25727 -0.24593,5.06379 0,1.48704 1.77906,-8.92083 1.96749,-9.11482 0.95075,-0.97879 1.35711,5.36296 1.47561,6.58292 0.16783,1.7278 0.36245,2.78952 1.47562,2.02552 0.49798,-0.34178 0.61257,-3.29613 0.98375,-2.53189 1.05851,2.17947 1.26091,7.72427 1.96749,10.63395 0.37962,1.56329 2.36932,11.60381 2.95123,8.60844 0.52306,-2.69243 0.91672,-5.41694 1.47562,-8.10206 0.16466,-0.79109 0.24594,-3.39257 0.24594,-2.5319 0,5.52241 -0.0825,10.80521 1.72155,1.51914 0.62829,-3.23411 0.39112,-7.24995 1.22968,-10.12757 0.49779,-1.70823 1.97077,-1.03307 2.21342,-2.53189 0.18873,-1.16578 0.0699,-4.41357 0.49188,-3.54466 0.0102,0.021 0.21272,16.10156 1.22968,19.2424 0.2659,0.82125 1.47293,-7.09484 1.72155,-6.58293 0.56619,1.16577 -0.24594,6.73094 -0.24594,8.10206 0,0.96094 1.20231,6.69567 1.47562,5.57017 1.70225,-7.00979 2.94939,-22.78704 3.19717,-22.78704 0.65583,0 -0.54568,4.80006 0,4.05103 0.9081,-1.24651 1.43745,-4.02913 1.72155,-6.07655 0.0929,-0.66917 0.24594,-2.72147 0.24594,-2.02552 0,1.77369 -0.27425,4.10932 -0.24594,4.05104 1.18969,-2.44954 1.00444,-7.38559 1.72156,-10.63396 0.18268,-0.8275 0.49187,-3.44087 0.49187,-2.5319 0,1.22756 -0.27908,8.70399 0.98374,5.06379 1.02044,-2.94149 0.52786,-7.24985 1.96749,-9.62119 0.19208,-0.31639 -0.40793,13.21941 0,12.65946 1.26685,-1.73894 1.09281,-4.46195 1.47562,-7.0893 0.12686,-0.87064 0.29444,-3.3449 0.49187,-2.53189 0.26361,1.08553 0.41529,11.00743 1.72156,6.07655 0.35111,-1.32539 0.65583,-2.70069 0.98374,-4.05103 0.27921,-1.14978 0.17939,-2.96977 0.73781,-3.54466 0.80627,-0.83005 1.00047,9.98174 2.21343,11.64672 1.66033,2.27907 1.67804,-6.01715 2.95123,-4.05103 0.3514,0.54263 0.39053,9.34512 0.49187,10.12757 2.3073,17.81509 2.95124,-5.73305 2.95124,6.07655 0,2.56669 -0.0626,5.56091 0.24593,8.10206 0.2162,1.78059 0.45127,0.42276 0.98375,1.51913 0.91047,1.87465 0.71181,5.86245 0.98374,8.10206 0.16988,1.39911 0.11133,4.69599 0.73781,4.05103 0.12351,-0.12714 1.45079,-11.7721 1.72155,-13.16584 0.67319,-3.46517 0.26153,10.09547 1.72156,7.08929 1.25856,-2.59134 1.82655,-10.72686 2.21342,-14.1786 0.56421,-5.03398 1.49212,-9.48861 1.72156,-14.68498 0.005,-0.12296 0.13023,-5.57017 0.24593,-5.57017 0.92649,0 0.49187,11.65924 0.49187,13.67223 0,1.01276 -0.43994,3.49119 0,3.03827 0.90047,-0.92702 1.09711,-5.33676 1.22969,-5.06379 0.76535,1.57584 1.05575,13.75894 1.47561,17.21688 0.4551,3.74817 0.60561,-8.84262 0.98375,-9.62119 0.59681,-1.22882 0.0945,8.16694 2.21342,9.62119 1.37825,0.94593 2.86369,-11.93845 3.19718,-14.68499 0.35913,-2.95778 1.82408,-16.41522 2.70529,-18.22963 1.02685,-2.11426 0.98375,13.70089 0.98375,10.12757 0,-5.17704 0.10956,-10.58113 0.49187,-15.69773 0.24648,-3.29875 0.51532,-5.52189 0.73781,-5.06379 0.80188,1.65106 0.20151,8.30952 0.98374,9.11482 0.34925,0.35954 1.31429,-10.18024 2.45936,-8.60845 0.83617,1.14777 0.86502,8.67827 0.98375,10.63396 0.0204,0.33498 -0.0733,1.3147 0,1.01276 0.13967,-0.57517 0.50157,-6.58293 0.73781,-6.58293 0.11037,0 0.40285,7.10692 0.49187,7.59569 0.12873,0.70679 0.49187,2.78038 0.49187,2.02551 0,-6.38765 -0.0965,0.0698 0.24594,-5.57017 0.0305,-0.50246 -0.17391,-1.8772 0,-1.51913 0.23235,0.4784 0.55981,9.38804 1.22968,7.0893 0.61068,-2.09563 0.66012,-9.03483 1.72155,-10.12757 0.56407,-0.58071 1.46559,9.14578 1.47562,9.11481 0.50841,-1.57021 0.29983,-3.72489 0.49187,-5.57017 0.23712,-2.27836 0.80713,-5.50761 1.22968,-7.59567 2.2025,-10.88378 1.98703,2.80519 3.19717,4.05103 0.53773,0.55358 1.1447,-8.27704 1.22968,-8.10206 0.97783,2.01334 0.78666,9.72177 1.47562,11.14033 1.16491,2.39853 1.24989,-4.32502 1.47562,-4.55741 0.13472,-0.1387 0.44485,5.68926 0.49187,6.07654 0.25092,2.06659 1.11683,-2.49023 1.47562,-1.01276 0.49244,2.02788 0.6251,4.71569 1.22968,6.58293 0.6131,1.89355 0.95647,-5.68249 1.22968,-4.55741 0.23683,0.97523 0.85956,8.59342 0.98375,10.12757 0.0556,0.68649 0.0431,2.58229 0.24593,2.02552 0.52523,-1.44194 1.05816,-17.63132 3.44311,-14.68498 1.6384,2.02407 1.70946,11.14033 2.21342,11.14033 0.79932,0 0.93203,-8.87585 0.98375,-9.6212 0.5095,-7.34347 2.31769,-6.35192 2.95123,-14.1786 0.48719,-6.0187 0.60383,-0.5025 0.73781,2.53189 0.29753,6.73877 -0.3178,-0.59183 0.24593,4.05103 0.0199,0.16375 0,0.67518 0,0.50638 0,-2.65268 -0.11614,-5.47143 0,-8.10206 0.16639,-3.76841 0.47655,-0.90227 0.98375,-4.55741 0.0264,-0.19073 0.31676,-4.41157 0.73781,-3.54464 0.87475,1.80109 0.79391,9.30148 0.98374,11.6467 0.68771,8.49579 1.01632,-4.84023 1.72156,0 0.13278,0.91132 0.46257,9.14498 1.96749,7.59568 0.24994,-0.25731 -0.11509,-5.33321 0.24593,-6.07654 0.15593,-0.32105 0.92577,0.20796 0.98375,0.50638 0.35261,1.81506 -0.20383,5.36033 0.98374,6.58292 0.33306,0.34288 1.03891,-4.98098 1.22968,-5.57016 0.66158,-2.04328 0.85693,-5.29322 1.22969,-7.59569 0.29414,-1.8169 1.02132,-1.09014 1.47561,-2.02551 0.39485,-0.813 0.21331,-2.53189 0.73781,-2.53189 0.338,0 0.13905,1.36527 0.24594,2.02551"
       id="path4852-1"
       inkscape:connector-curvature="0" />
    <path
       style="fill:none;stroke:#ffffff;stroke-width:1.20000005;stroke-linecap:butt;stroke-linejoin:miter;stroke-miterlimit:4;stroke-opacity:1;stroke-dasharray:none"
       d="m 136.38372,284.69223 c 1.05306,-0.89559 4.11305,7.11725 4.18092,7.08931 1.21635,-0.5009 2.10612,-5.57017 3.19717,-5.57017 0.31484,0 0.26612,8.12284 1.22968,9.11482 1.0932,1.12543 2.90058,-6.28514 2.95124,-6.07655 0.61447,2.53038 -0.64771,5.58021 0.98374,7.59568 1.52061,1.87855 2.18133,-11.74584 2.7053,-10.12758 0.59811,1.84726 0.24941,4.41966 0.49187,6.58293 1.56531,13.96604 2.12894,-6.07654 2.95124,-6.07654 0.47575,0 0.68434,15.12529 1.72155,6.58292 0.14475,-1.19214 0.31635,-2.37016 0.49187,-3.54465 0.27488,-1.83943 0.39067,-3.78328 0.73781,-5.57017 0.35994,-1.85277 1.87339,8.70531 1.96749,8.60844 1.65756,-1.70644 0.98779,-5.83584 1.72155,-8.10206 1.87854,-5.80182 -4e-5,16.71075 2.21343,3.03827 0.63977,3.95307 1.22968,1.30822 1.22968,-0.50637"
       id="path4854-6"
       inkscape:connector-curvature="0" />
    <path
       style="fill:none;stroke:#ffffff;stroke-width:1.20000005;stroke-linecap:butt;stroke-linejoin:miter;stroke-miterlimit:4;stroke-opacity:1;stroke-dasharray:none"
       d="m 166.87981,279.62845 c 0.24594,1.51913 0.49187,3.03826 0.73781,4.5574 0,0.1688 -0.0733,0.58187 0,0.50638 1.06504,-1.09645 2.49105,-11.2382 3.44311,-14.17861 0.48339,-1.49294 0.9421,-4.85346 1.72155,-4.05103 0.81184,0.83578 0.68725,7.16342 1.22968,4.55742 0.64022,-3.07581 1.72156,-6.73467 1.72156,-10.12758 0,-1.01276 -0.0409,2.02902 0,3.03827 0.082,2.02552 0.13692,4.05645 0.24593,6.07655 0.40292,7.4665 0.31418,-3.28219 1.22968,-2.02552 0.9924,1.36223 0.24813,6.60101 0.49188,8.60844 0.0897,0.73852 1.12651,-5.35776 1.22968,-5.57016 0.41465,-0.85376 0.91888,4.7967 0.98374,5.06378 0.68361,2.8151 2.02606,-0.77156 2.21343,0 0.99421,4.09416 -0.25952,9.83246 0.98374,13.67223 0.64409,1.98925 0.69626,-5.57017 0.98375,-5.57017 1.84196,0 0.71823,11.37338 1.47561,12.15309 0.27421,0.2823 1.56928,-5.93228 1.72155,-4.05103 0.0655,0.8094 -0.29888,11.19485 0.24594,10.63395 0.9342,-0.96174 0.3464,-5.79849 0.49187,-7.59567 0.019,-0.23547 0.21782,-0.73796 0.24594,-0.50639 0.21143,1.74128 -0.16182,15.86435 0.49187,15.19137 0.26084,-0.26853 0.55473,-11.83519 0.73781,-11.64671 0.5117,0.52679 -0.0564,12.46437 1.22968,11.14034 0.91508,-0.94208 3.44462,-24.41559 4.18092,-28.35722 0.4346,-2.32659 0.6326,-4.17292 0.98374,-6.58293 0.0971,-0.66659 0.16396,-2.70068 0.24594,-2.02551 0.28277,2.32888 -0.0476,14.68499 1.47561,14.68499 0.99732,0 0.21789,-4.10211 0.49188,-6.07655 0.18228,-1.31363 0.87835,-7.017 1.22968,-8.10206 0.091,-0.28089 0.33633,0.10675 0.49187,0 0.0659,-0.0452 0.60095,-1.57636 0.73781,-1.01276 1.00852,4.15305 1.1819,10.14935 1.47562,14.68498 0.24774,3.82582 0.40557,5.74787 0.49187,5.57017 0.70521,-1.45202 0.91231,-20.89276 1.72155,-5.06378 0.0692,1.35337 0.12414,2.71349 0.24594,4.05103 0.48106,5.28272 0.96858,13.641 2.7053,17.21687 0.27772,0.57182 -0.2129,5.43413 0,4.55741 0.82713,-3.40612 0.52304,-8.35878 0.98374,-12.15309 0.14475,-1.19214 0.34713,-2.35251 0.49187,-3.54465 0.0199,-0.16376 0,-0.67517 0,-0.50638 0,1.85672 -0.053,3.71665 0,5.57017 0.0436,1.52585 0.1592,3.03939 0.24594,4.5574 0.19946,3.49078 0.0726,6.28392 0.98374,2.53191 0.83577,-3.44169 1.8036,-6.33033 2.21343,-10.12758 0.14665,-1.35876 -0.18414,-4.05103 0.49187,-4.05103 1.13489,0 0.90609,6.66294 0.98375,8.10206 0.0462,0.85541 0.24593,3.39257 0.24593,2.53189 0,-1.01569 0.18126,-20.8947 1.72155,-17.72326 1.39292,2.86799 1.9561,14.46836 2.95124,15.69775 1.52467,1.88356 2.22312,-3.88765 2.45936,-6.07655 0.1067,-0.98864 0.21997,-3.94411 0,-3.03828 -0.51116,2.10494 0.91859,13.45872 1.22968,13.67223 1.17206,0.80442 1.33146,-12.90401 1.47562,-14.68498 0.0556,-0.68649 0.0948,-2.64799 0.24594,-2.02551 0.51327,2.11361 -0.15169,4.74693 0,7.08929 1.25602,19.39592 2.78325,-10.79446 2.95123,-11.14032 1.25978,-2.59387 0.84872,13.19894 1.96749,10.12757 1.87764,-5.1547 0.66611,-15.90887 1.72155,-20.25515 0.45349,-1.86743 0.60379,4.00701 0.73781,6.07655 0.38283,5.91177 0.47903,11.22831 1.72156,16.71049 0.27949,1.23318 0.82344,4.86487 0.98374,3.54466 0.23859,-1.96505 -0.0447,-4.05313 0,-6.07655 0.12054,-5.46002 0.29494,-10.56545 1.22968,-15.69774 1.08166,-5.93901 1.92067,22.79895 3.44311,14.1786 0.96564,-5.46765 1.58704,-14.40802 3.68904,-18.73601 0.25924,-0.53377 0.61713,-1.01276 0.98374,-1.01276 0.11594,0 0.16396,0.67517 0.24594,0.50638 0.79497,-1.63683 0.43711,-5.4574 1.22968,-7.0893 0.6523,-1.34308 1.01144,1.57616 1.22968,2.02551 0.86892,1.78909 1.50125,-2.73587 1.72155,-3.03827 0.67304,-0.92385 1.01972,7.01926 1.22969,7.59568 0.87995,2.41574 1.895,-8.07274 2.21342,-7.0893 1.18417,3.65728 1.09912,8.71157 2.21343,12.15309 0.47475,1.46628 0.26305,-6.53007 0.73781,-5.06379 1.10033,3.39834 0.91911,8.31629 1.22968,12.15309 0.14071,1.73827 0.1326,6.30988 0.73781,5.06379 0.52984,-1.09096 0.20024,-5.25196 0.24593,-5.06379 0.53441,2.20067 0.93893,4.18832 1.22968,6.58293 0.082,0.67516 -0.0921,2.02551 0.24594,2.02551 0.0543,0 0.68337,-8.2702 1.22968,-6.58293 0.16871,0.52106 1.55619,14.43616 1.96749,13.16586 0.1866,-0.57631 0.0191,-10.61424 0.49187,-10.12758 0.18381,0.18924 0.76549,15.16287 1.72156,14.17861 0.81978,-0.84397 0.39065,-3.69456 0.49187,-5.57017 0.771,-14.28739 0.89759,-24.93462 3.93498,-38.48479 0.1255,-0.55987 1.0705,-5.7985 1.47561,-6.07654 1.80433,-1.23836 -0.0398,25.59264 2.45936,24.30618 0.20726,-0.10668 0,-10.67793 0,-11.64672 0,-1.01275 0,-4.05103 0,-3.03827 0,4.1842 2.21343,36.57129 2.21343,15.69775 0,-0.4283 1.61487,8.97146 1.96749,8.60844 0.93325,-0.96078 0.072,-10.63396 0.73781,-10.63396 0.28298,0 1.80094,10.57148 2.45936,12.15309 1.4985,3.59962 1.33658,-5.49537 2.21343,-4.05103 0.32007,0.52722 0.60819,1.22486 0.73781,2.02552 0.80341,4.96267 0.26428,13.20363 2.21342,17.21687 0.12962,0.26689 0.39756,0.83003 0.49187,0.50638 0.62456,-2.14326 0.24594,-6.74093 0.24594,-9.11481 0,-0.67518 -0.14665,-2.62942 0,-2.02552 0.46906,1.93157 1.30158,16.7105 1.96749,16.7105 0.71848,0 1.0405,-12.99707 1.22968,-14.68498 1.07193,-9.56402 2.8265,-18.8756 4.18091,-28.35722 0.2298,-1.60866 0.59827,-8.10206 1.72156,-8.10206 0.29195,0 0.48979,7.5571 0.49187,7.59569 0.31546,5.84577 0.66865,12.3747 1.96749,17.72325 1.06242,4.37502 1.84347,-8.35739 2.21342,-7.59568 1.93937,3.99313 0.23263,12.89211 2.7053,16.7105 0.53147,0.82072 0.73781,-5.11543 0.73781,-5.57017 0,-1.76042 0.98838,6.067 1.72155,4.55741 0.33615,-0.69212 1.54735,-9.54735 1.96749,-9.11481 0.7876,0.81081 -0.0694,5.57016 1.22969,5.57016 1.52473,0 0.20162,-8.60844 1.22968,-8.60844 0.69699,0 0.92938,8.72036 1.22968,8.10206 0.57309,-1.18 0.24404,-8.10206 0.73781,-8.10206 0.40989,0 0.40989,2.5319 0,2.5319 -0.0659,0 0.70843,-1.51914 1.22968,-1.51914 0.22597,0 0.81735,-1.19157 1.22968,0.50638 0.0733,0.30195 -0.16396,1.01276 0,1.01276 0.23187,0 0.32791,-0.67518 0.49187,-1.01276"
       id="path4856-7"
       inkscape:connector-curvature="0" />
    <path
       style="fill:#ffffff;stroke:#ffffff;stroke-width:1.20000005;stroke-linecap:butt;stroke-linejoin:miter;stroke-miterlimit:4;stroke-opacity:1;stroke-dasharray:none"
       d="m 165.15081,288.93694 c 0.0917,-0.11857 -0.0229,-0.30605 0,-0.44758 0.0373,-0.22996 0.1442,-0.38205 0.1739,-0.62661 0.17869,-1.47171 0.33375,-2.88167 0.60866,-4.29677 0.0944,-0.4861 0.26835,-0.94149 0.34781,-1.43226 0.0222,-0.13696 0.0469,-0.48931 0.087,-0.62661 0.17623,-0.60474 0.52171,-1.11011 0.52171,-1.79031"
       id="path4858-0"
       inkscape:connector-curvature="0" />
    <path
       style="fill:none;stroke:#ffffff;stroke-width:1.20000005;stroke-linecap:butt;stroke-linejoin:miter;stroke-miterlimit:4;stroke-opacity:1;stroke-dasharray:none"
       d="m 137.54539,283.1854 c 1.64176,-3.66898 5.34977,-5.90392 8.00837,-8.58689 0.71658,-0.72316 -0.80146,5.45551 1.00104,4.546 0.48259,-0.24351 4.09459,-4.45477 4.50472,-4.04089 0.2616,0.264 -0.78296,4.04089 -0.50053,4.04089 0.91489,0 5.31469,-3.68252 5.50576,-2.52556 0.11374,0.68875 -0.51125,4.27722 0,5.05112 1.20249,1.82028 3.42048,-1.5573 4.50471,-1.01022 1.66858,0.84194 0.20818,6.2189 2.00209,7.57667 2.85912,2.164 6.59947,-2.43204 8.5089,-0.50511 2.64486,2.66911 1.15895,8.78183 6.00627,9.59713 0.80229,0.13494 4.81877,-2.90194 5.00524,-2.52556 1.37212,2.76939 -1.90571,6.52379 1.50157,8.58689 1.39845,0.84677 7.20181,-1.93675 7.50785,-1.01022 0.70601,2.13748 0.82706,5.66608 3.50366,6.56645 1.44368,0.48565 4.91234,-1.60907 5.50575,-1.01022 1.01813,1.02746 0.39695,3.4661 2.0021,4.54601 1.74285,1.17255 3.42546,-3.6147 4.5047,-2.52557 0.23596,0.23812 -0.23594,0.77212 0,1.01023 0.98841,0.99746 3.48481,-3.57384 3.50367,-3.53578 0.85018,1.71594 -1.1964,6.05726 3.00313,2.52555 5.91032,-4.97041 -3.07011,1.31348 2.0021,-2.52555 2.51097,-1.90049 1.94073,6.19713 4.50471,4.04089 1.77826,-1.49547 2.20515,-4.85098 4.00419,-6.06134 1.92011,-1.29182 -1.17813,7.23477 2.50262,9.09201 0.74613,0.37649 -0.2638,-1.72691 0,-2.52556 0.19023,-0.57592 0.66735,-1.01022 1.00104,-1.51533 0.16684,-0.84185 0.29419,-1.69267 0.50053,-2.52556 2.13531,-8.61958 2.85033,-18.22652 5.50575,-26.26581 0.57518,-1.74135 1.67665,-4.48262 2.50262,-6.56645 0.26289,-0.66325 1.50157,-2.22967 1.50157,-1.51534 0,2.18709 -0.76502,1.63023 -1.00105,3.53579 -0.3939,3.18012 -0.3253,6.91917 -0.50052,10.10223 -0.0289,0.52542 -0.20716,10.04997 0,10.10224 0.72385,0.18262 2.00209,-1.76321 2.00209,-1.01023 0,4.33457 -0.69557,8.18214 0,12.62779 0.35393,2.26207 -0.22312,6.11733 2.00209,6.56645 2.29563,0.46334 2.00209,-4.0752 2.00209,-5.05111 0,-0.84185 0,1.68371 0,2.52556 0,2.01698 0.41023,3.58004 1.50157,1.01022 0.6235,-1.46816 0.38237,-5.67547 1.50157,-4.546 1.02639,1.03578 -0.88463,12.97626 2.0021,9.09201 2.88628,-3.88366 0.25106,-11.87093 3.50366,-15.15336 1.01486,-1.02415 1.14104,3.9938 2.50262,3.53579 1.93744,-0.65174 0.79286,-7.28166 2.00209,-6.06135 1.05885,1.06857 -0.92425,6.37136 -0.50052,8.08179 0.89102,3.59679 3.48328,-4.62826 4.00418,-2.52556 0.54707,2.20834 -0.61836,4.88745 0,7.07157 1.14177,4.03282 1.85771,-0.1457 3.00314,1.01022 0.91479,0.92318 -0.53659,4.16073 0.50052,5.55623 1.41994,1.91061 3.21587,-1.55743 3.50367,-2.52556 1.79136,-6.02594 0.84136,-13.70297 1.50157,-19.69936 1.24457,-11.30387 3.65172,-22.61633 5.50575,-33.84248 0.50979,-3.08679 -0.007,-4.53409 1.50157,-7.07156 0.69423,-1.16766 1.24196,3.42254 1.50157,6.56645 0.45134,5.4657 0,11.18701 0,16.66868 0,8.93137 0.12471,-0.11886 -0.50052,10.60736 -0.0588,1.00848 1.00105,3.03066 0,3.03066 -0.84428,0 2.10909,-9.16151 1.50156,-3.03066 -0.24959,2.51878 -2.2354,12.2746 -1.00104,14.14312 0.28866,0.43696 1.45427,-4.59374 1.50157,-4.54601 0.58743,0.59281 -0.88496,5.7464 -1.00104,6.56646 -0.0943,0.66671 -0.29846,2.62282 0,2.02044 2.65668,-5.36206 2.5193,-13.14974 7.00733,-17.67891 0.53045,-0.53532 0.83711,6.94308 2.00208,6.06135 1.40262,-1.06162 2.33851,-5.21674 2.50262,-5.05113 1.1475,1.15802 -0.13283,5.05113 2.50261,5.05113 1.46847,0 2.77,-5.63934 4.00419,-2.52556 0.15695,0.39596 -0.37079,5.34421 0.50053,5.05111 0.63111,-0.2123 1.77464,-3.03067 2.00209,-3.03067 0.83421,0 -0.11797,1.69217 0,2.52556 0.0783,0.55304 0.97934,6.58836 2.50262,5.05112 2.82402,-2.84992 2.25845,-13.98305 2.50261,-17.67891 0.11371,-1.72125 0.96116,-12.62779 2.50262,-12.62779 0.8342,0 0.9117,2.61572 1.50157,2.02044 1.64872,-1.66384 1.50157,-5.6691 1.50157,-5.55622 0,1.6837 -1.17975,6.24167 0,5.05111 0.36657,-0.36992 1.05257,-2.299 1.50157,-2.52555 0.60337,-0.30447 4.83202,2.80402 5.50576,3.03066"
       id="path3769-7"
       inkscape:connector-curvature="0" />
    <path
       style="fill:none;stroke:#ffffff;stroke-width:1.20000005;stroke-linecap:butt;stroke-linejoin:miter;stroke-miterlimit:4;stroke-opacity:1;stroke-dasharray:none"
       d="m 141.58368,286.72589 c 0.27856,-1.55819 9.17591,-10.35237 9.91625,-9.59807 0.59589,0.60713 -0.87269,3.29377 -0.49581,2.52581 2.34659,-4.78168 6.55684,-3.74231 10.41207,-5.05161 0.78394,-0.26625 1.81798,-0.50517 2.47906,0 0.80424,0.61455 -0.4579,3.35486 0.49582,3.03096 0.93344,-0.31701 4.96053,-5.55678 5.45394,-5.55678 3.6e-4,0 -0.25449,5.30644 0.4958,5.05162 2.28537,-0.77615 1.97867,-10.10323 4.46232,-10.10323 0.35323,0 -0.49002,6.31746 0,6.5671 2.1602,1.10046 8.5195,-12.72143 9.42045,-13.63936 0.39358,-0.40101 0.98784,7.03372 0.99162,7.07226 0.18534,1.88834 0.0332,6.02809 1.98326,4.04129 1.22534,-1.24846 0.99162,-0.53405 0.99162,-2.02064 0,-0.16839 0,0.33677 0,0.50515 0,1.3471 0,2.6942 0,4.0413 0,1.85226 0,3.70452 0,5.55677 0,0.33678 -0.33054,1.01033 0,1.01033 0.52263,0 0.12625,-1.89201 0.49581,-1.51548 0.24135,0.2459 0.64511,7.09667 1.98325,5.05161 1.86801,-2.85484 1.70061,-6.56871 2.97488,-9.59807 0.94854,-2.25499 4.44316,-9.57855 5.94975,-11.11355 0.5959,-0.60713 -0.25794,2.90979 0.49582,2.5258 1.70953,-0.87088 2.18326,-4.44028 2.47906,-3.53613 2.65375,8.11135 -2.5762,4.34336 1.98325,2.02065 0.11958,-0.0609 -1.04391,6.11521 1.98325,3.03097 2.33177,-2.37573 1.78787,-5.51076 3.47069,-8.08259 0.798,-1.21956 0.16527,0.16839 1.48744,-0.50516 0.41811,-0.21299 0.54816,-0.85971 0.99162,-1.01032 1.17081,-0.39763 -0.0101,4.06183 2.47907,-1.01032 0.70212,-1.4307 1.68657,-4.54646 1.98325,-4.54646 0.49582,0 0,1.01032 0,1.51549 0,1.74049 0.58345,2.37778 0.99162,4.04129 0.3972,1.61875 1.06386,0.14717 1.48744,1.01032 0.51397,1.04731 -0.36267,2.93275 0,4.04129 0.3506,1.07161 1.48744,-4.16054 1.48744,-3.03097 0,2.52581 0,5.05162 0,7.57743 0,1.80498 0.35034,4.27724 0,6.06194 -0.13363,0.6808 -0.7113,2.67929 -0.4958,2.02064 1.80647,-5.52165 5.67363,-24.61225 5.94974,-24.75291 0.78124,-0.39799 0.43184,6.5671 0.49582,6.5671 1.32371,0 1.21773,-4.0413 2.47906,-4.0413 1.41826,0 -0.15278,3.71088 0.49581,4.0413 0.71864,0.36609 2.25955,-2.74947 2.47907,-2.52581 0.35059,0.3572 -0.22173,1.96731 0,1.51548 0.26649,-0.54303 0.57027,-1.94479 0.99163,-1.51548 0.72203,0.73564 -0.52923,2.99693 0.4958,4.04129 1.53217,1.56105 1.00413,-4.0031 2.47907,0.50516 1.02423,3.13062 1.19248,8.94265 1.48743,9.09291 0.81355,0.41445 5.52877,-12.85772 5.94976,-14.14452 0.38397,-1.17361 0.99097,-3.53681 0.99163,-3.53613 1.3676,1.39339 -1.48476,6.05921 -0.49581,5.05161 3.55393,-3.62094 0.62704,-7.2803 1.98325,1.01033 0.0348,0.21287 1.14264,4.04129 1.48744,4.04129 0.52263,0 0.20591,-1.95854 0.49581,-1.51549 0.14503,0.22166 1.84818,6.06195 0.99163,6.06195 -0.68143,0 0.14521,-1.42532 0.49581,-2.02065 1.28269,-2.17813 1.95389,-6.71555 3.9665,-8.08259 1.19617,-0.81248 1.43232,4.60261 2.47907,3.53613 1.47929,-1.50719 2.07862,-3.73048 2.97487,-5.55678 0.58432,-1.19067 1.82781,1.15369 2.47907,-0.50516 0.45277,-1.15327 1.09798,-4.54645 2.97487,-4.54645 0.49083,0 0.2504,1.01032 0.49581,1.01032 0.95153,0 1.6133,-3.53613 1.98325,-3.53613 1.33698,0 -0.34535,3.03097 0.99163,3.03097 0.46639,0 1.59324,-3.42834 2.47907,-2.52581 0.70118,0.71441 -0.88694,3.4828 0,3.03097 3.71358,-1.8918 8.16699,-16.16517 8.42882,-16.16517 1.36748,0 0.29864,7.37065 0,8.58775 -0.85373,3.47929 0.6006,-1.01033 1.48743,-1.01033 0.56657,0 -0.82859,4.20741 -0.49581,4.54646 0.26132,0.26624 0.66108,-0.67355 0.99162,-0.50516 1.16768,0.59484 0.73252,3.53613 1.48744,3.53613 0.46746,0 0.52417,-1.01033 0.99163,-1.01033 0.19175,0 1.07351,1.37491 1.48744,1.51549 1.24257,0.422 0.48908,-3.03097 1.48744,-3.03097 1.14664,0 -0.50999,7.24546 1.48744,6.5671 0.73949,-0.25114 3.4481,-18.69098 3.47068,-18.69098 0.90584,0 0.49582,7.31688 0.49582,8.08259 0,1.85226 0,3.70452 0,5.55677 0,0.67355 -0.66109,2.02065 0,2.02065 0.36955,0 0.2345,-0.74408 0.4958,-1.01032 0.31914,-0.32515 0.95936,0.34076 0.99164,0.50516 0.29844,1.52037 0.0623,2.71637 0.4958,4.04129 0.81192,2.48169 -0.47847,-0.50516 0.99164,-0.50516 0.42027,0 -0.49423,6.31533 0,6.5671 0.46745,0.23814 1.40151,-1.0304 1.48743,-0.50516 0.21737,1.32877 -0.93492,3.08875 0,4.04129 0.91274,0.92995 1.44642,-2.24188 2.47907,-3.03097 0.33213,-0.25379 0.2934,3.03097 0.99162,3.03097 0.44571,0 1.77552,-3.24262 1.98325,-3.03097 1.027,1.04637 -0.28424,2.88617 0.99163,3.53613 0.65168,0.33199 1.86257,-1.13327 2.47906,-0.50516 0.39034,0.39771 -0.46612,3.29868 0,3.53613 1.94087,0.98874 0.50429,-1.52412 0.99163,-2.02064 0.0959,-0.0977 1.29774,4.66507 1.48744,5.05161 0.97798,1.99287 5.12173,1.01032 5.45394,1.01032"
       id="path3771-5"
       inkscape:connector-curvature="0" />
    <path
       style="fill:#000000;fill-opacity:0;stroke:#00c5b7;stroke-width:2;stroke-linecap:butt;stroke-linejoin:miter;stroke-miterlimit:4;stroke-opacity:1;stroke-dasharray:none"
       d="m 606.46138,181.71395 c 0.48903,18.62491 -1.28367,37.88727 4.64731,54.4076 4.67283,12.08591 13.79707,16.05553 21.86052,18.62455 9.46679,2.99948 19.30575,5.087 28.00013,12.06667 3.86118,3.09967 7.4291,8.46021 4.47312,14.78766 -4.41977,6.88513 -10.47698,7.85913 -16.01725,9.61819 -11.16508,2.93651 -23.30444,4.36956 -32.60031,16.06274 -7.36426,11.39379 -8.6426,31.46495 -9.34911,41.34592 -0.70651,9.88098 -0.55897,12.30469 -0.72255,16.67423"
       id="path4481-5-0"
       inkscape:connector-curvature="0"
       sodipodi:nodetypes="cccsccczc" />
    <path
       style="fill:none;stroke:#ffffff;stroke-width:1.2;stroke-linecap:butt;stroke-linejoin:miter;stroke-opacity:1;stroke-miterlimit:4;stroke-dasharray:none"
       d="m 419.95066,279.84298 c 0.21924,1.49664 2.52368,2.80745 2.52368,4.14373 0,0.53124 -0.1881,2.06889 0,1.59373 0.71208,-1.79875 1.11999,-3.71558 2.01895,-5.41871 0.82642,-1.56566 -0.51755,5.11614 0.25237,4.14372 0.74587,-0.94206 0.79971,-4.48936 1.76657,-5.09995 0.45769,-0.28903 0.25237,1.26619 0.25237,1.91248 0,2.59625 -0.0584,4.97097 1.00947,7.33118 0.2361,0.52185 0.62878,1.63562 1.00948,1.275 0.93735,-0.88792 0.73785,-5.46736 1.26184,-4.14372 0.74134,1.87268 -0.41127,4.91698 0.25237,7.01245 0.0442,0.1395 0.16824,0.42499 0.25236,0.31874 0.34806,-0.4396 0.46887,-2.732 1.26184,-2.23123 0.0343,0.0216 0.0994,6.37494 0.25237,6.37494 2.36962,0 1.19305,-8.11363 1.76658,-9.56241 0.58242,-1.47123 0.98319,-2.95342 1.51421,-4.46246 1.18296,-3.36175 0.92266,6.58405 1.26184,7.01243 0.83493,1.05455 1.60709,-8.60618 1.76658,-8.60618 0.47503,0 0.94907,5.49499 1.00947,5.41871 0.54342,-0.68635 1.86484,-10.16337 2.27131,-6.0562 0.0461,0.46576 0.29216,5.41871 0.50474,5.41871 0.36149,0 0.98339,-6.51825 1.00947,-7.01244 0.0224,-0.42406 -0.33649,-1.27499 0,-1.27499 0.59603,0 1.1633,10.04811 1.51421,11.15615 1.07937,3.40815 2.25535,-3.86529 3.02842,-1.91248 0.31288,0.79035 0,3.32905 0,4.14372 0,0.53124 -0.0522,1.06659 0,1.59373 0.0431,0.4347 0.59921,1.27499 0.25236,1.27499 -0.51169,0 0.14137,-1.28159 0.25237,-1.91248 0.46849,-2.6627 1.47862,-5.23888 2.01895,-7.96869 0.37944,-1.91696 3.07249,-14.37146 4.03789,-14.98112 0.37466,-0.23661 0.94539,6.5318 1.26184,7.33118 0.0532,0.1344 0.20818,0.45826 0.25237,0.31875 1.0668,-3.3685 0.37677,-9.78419 3.02841,-11.79365 0.25474,-0.19304 1.09204,-0.84604 1.26184,-1.27499 0.20261,-0.51176 0.18442,-1.99832 0.50474,-1.59373 0.35744,0.45145 0.48296,11.97246 1.00947,7.64993 0.0182,-0.149 1.28683,-7.17236 1.51421,-6.6937 1.20044,2.52699 0.85264,9.07171 1.26184,12.43116 0.48412,3.97441 1.56764,7.80346 2.01895,11.79365 0.0646,0.57106 0.12132,1.75924 -0.25237,2.23123 -0.97151,1.22704 -1.31569,-2.57135 -1.00947,-0.6375 0.59215,3.73951 -0.43295,7.64716 0,11.47491 0.55794,4.93284 0.50473,0.34913 0.50473,2.54998 0,0.10628 0,0.425 0,0.31875 0,-0.0586 0.22237,-2.66367 0.25237,-2.54998 0.43301,1.6407 0,5.09421 0,6.69369 0,6.17257 -0.44368,12.64191 0,18.8061 0.17144,2.38169 0.25237,4.61759 0.25237,7.01244 0,0.74375 -0.14282,2.95277 0,2.23123 0.36406,-1.83921 0.42215,-3.43685 0.50474,-5.4187 0.0831,-1.99456 -0.0947,-3.18748 0,-3.18748 0.47638,0 0.9569,7.8093 1.00947,8.60618 0.0489,0.74118 0,1.48749 0,2.23123 0,0.10627 -0.0376,0.41379 0,0.31875 1.50525,-3.80233 1.79431,-10.19818 2.52368,-14.34363 0.57122,-3.24655 1.96976,-9.06822 2.27131,-12.7499 0.0727,-0.88831 0.16697,-9.24367 0.25237,-9.24367 0.51009,0 0.50474,6.25219 0.50474,5.4187 0,-2.58494 0.79247,-4.81164 1.26184,-7.33118 0.17763,-0.95354 -0.27084,-2.86874 0.50473,-2.86874 0.51604,0 0.25237,6.39699 0.25237,7.3312 0,1.2794 0.14633,-2.55259 0.25237,-3.82497 0.0721,-0.86592 0.95332,-8.03961 1.26184,-7.64994 0.68965,0.87104 0.37727,13.29056 0.50474,14.98113 0.27358,3.62808 0.34716,4.56197 0.50473,4.46246 0.18577,-0.11726 0.44746,-3.91297 0.50474,-4.78121 0.014,-0.21177 0,-0.84999 0,-0.63749 0,2.48877 -1.27986,8.04458 0,10.19992 0.5581,0.93984 1.18013,-3.71265 1.26184,-3.50622 1.02247,2.5828 -0.27827,5.92532 0.25237,8.60618 0.43963,2.22101 0.7947,0.36622 1.26184,0.95623 0.84577,1.06823 0.50474,6.12265 0.50474,7.64995 0,0.10627 0,-0.2125 0,-0.31875 0.10428,-3.60675 -0.12413,-7.23176 0,-10.83742 0.11211,-3.25665 6.28419,-26.77478 4.03789,-26.77478 -0.33649,0 0,0.84999 0,1.27499 0,1.27499 -0.0439,2.55119 0,3.82497 0.0469,1.36188 -0.0868,9.18885 1.00947,9.88117 0.5267,0.33261 0.028,-1.48833 0,-2.23124 -0.0891,-2.36464 -1.04504,-19.73986 0,-20.39983 0.75616,-0.47753 2.89768,0.92177 3.02842,1.91249 0.61968,4.69611 0.0733,9.59284 0.7571,14.34363 1.43699,9.98223 1.4413,-10.78778 1.51421,-11.15616 0.31682,-1.60056 0.34019,4.37255 1.00947,7.33119 1.95493,8.64194 3.22128,-5.92534 4.29026,-2.54998 0.61668,1.94718 -0.19368,7.18296 0.50474,5.41871 0.85925,-2.17052 0.24334,-22.43743 0.7571,-27.41228 0.29125,-2.82029 0.87908,-4.43055 1.26184,-7.33118 0.11151,-0.84496 -0.22721,-3.1557 0.25237,-2.54999 1.06557,1.34585 0.26589,6.79616 0.50474,8.60618 0.31935,2.4201 0.15212,1.59671 0.7571,4.14372 0.0996,0.4196 0.14268,1.69059 0.25237,1.27499 0.4768,-1.80663 0.25237,-2.44354 0.25237,-4.78121 0,-0.0114 0,-3.51701 0,-3.50622 0,1.27866 0.77608,11.13218 1.51421,10.19992 0.49157,-0.62088 0.58251,-2.80058 0.7571,-3.50622 0.82385,-3.32971 1.58518,-6.41145 2.01895,-9.88117 0.18031,-1.44235 -0.0261,-5.03411 0.50473,-6.37496 0.005,-0.0114 1.2004,-0.0776 1.26184,0 1.07278,1.35495 1.89873,6.6937 2.27132,6.6937 0.24974,0 -0.37446,-9.48532 0.25236,-9.88117 1.16806,-0.73764 0.71036,3.17563 1.00948,4.78121 0.53438,2.86853 1.0211,7.66463 2.77605,9.88118 0.48163,0.6083 0.99986,-0.91985 1.00947,-0.95625 0.0799,-0.30239 -0.25237,-0.95624 0,-0.95624 0.62257,0 0.86049,10.92447 2.27131,12.1124 1.09356,0.9208 -0.29763,-5.09996 0.25237,-5.09996 0.71907,0 1.43823,7.31979 1.76658,8.28743 0.22229,0.65511 0.53481,1.25737 0.7571,1.91249 0.0332,0.0977 -0.0376,0.41378 0,0.31874 0.5679,-1.43453 0.25237,-3.57207 0.25237,-5.09996 0,-0.31874 0,-1.27499 0,-0.95624 0,2.31019 0.40058,10.38711 1.76658,12.11241 0.1455,0.18377 0.21588,-6.35191 0.25236,-6.37495 0.56169,-0.35472 1.19324,6.2759 1.26184,7.01244 0.36739,3.94416 -0.0132,1.22502 1.00948,5.09996 0.61139,2.31661 0.66076,-2.95557 1.51421,0.63749 0.67488,2.84135 0.74674,6.40113 1.26184,5.09996 1.6893,-4.26728 1.99379,-10.93375 2.52368,-15.61863 0.15511,-1.37139 -0.35604,-2.99105 0.25237,-4.14371 0.48932,-0.92704 2.2434,9.73866 2.27131,9.56242 0.54018,-3.4113 0.25237,-7.05705 0.25237,-10.51866 0,-0.74374 0,-1.48749 0,-2.23123 0,-0.53125 -0.42062,-1.59373 0,-1.59373 1.03195,0 1.7104,5.0279 1.76657,5.73744 0.0335,0.42289 -0.1064,1.67818 0,1.27499 0.91387,-3.46272 0.25237,-8.2064 0.25237,-11.79365 0,-0.74374 0,-1.48749 0,-2.23123 0,-0.31875 -0.25237,-0.95625 0,-0.95625 0.24524,0 1.28088,8.21533 2.01895,5.41871 0.50028,-1.89561 1.45302,-14.30499 2.52368,-14.98112 0.7182,-0.45355 -0.0245,6.89941 0.7571,5.4187 1.62579,-3.08012 0.61903,-11.1983 2.01895,-15.61862 0.29393,-0.92811 2.30656,-0.51152 2.77605,-0.95624 0.59316,-0.56189 0.10466,-3.82497 1.00947,-3.82497 0.55985,0 1.47011,9.58778 2.27131,7.96868 0.64743,-1.30835 0.93359,-3.88522 1.00948,-5.4187 0.0684,-1.38262 -0.15499,-5.42996 0.25236,-4.14372 0.94112,2.97164 1.08055,6.21102 1.76658,9.24368 0.92154,4.07373 0.65453,0.37152 1.26184,4.46246 0.21924,1.47685 0.50474,5.96506 0.50474,4.46246 0,-1.18789 0.0841,-4.56871 0.50473,-3.50622 0.45768,1.15612 0.30403,2.5575 0.50474,3.82497 0.34795,2.19737 1.05404,10.90777 2.01895,12.43114 0.41043,0.648 1.15382,-1.09394 1.26184,-1.91247 0.25335,-1.91998 -0.39615,-3.18749 0,-3.18749 0.14571,0 -0.22747,0.96086 0.25236,3.50623 0.46315,2.45683 1.02924,4.88108 1.51421,7.33119 0.19356,0.97787 -0.041,2.86872 0.75711,2.86872 0.0699,0 0.42162,-6.3186 0.50473,-6.05619 0.36157,1.1417 1.31567,11.15615 2.01895,11.15615 0.0823,0 -0.31112,-4.75718 1.00947,-3.50622 1.22431,1.15976 -0.0365,7.78829 0.75711,4.78122 0.10968,-0.41561 1.75648,-12.7499 1.76657,-12.7499 0.3165,0 1.452,8.44014 1.76658,6.0562 0.48419,-3.66928 0.25349,-9.00427 0.50474,-8.92492 1.00846,0.31843 2.21195,7.84987 3.02841,5.09995 0.10722,-0.36111 0.47202,-5.09995 0.75711,-5.09995 0.83321,0 1.11383,8.41923 2.01894,9.56241 1.38507,1.74939 1.5965,-7.13028 2.01895,-4.46246 1.00222,6.32918 -1.00056,-2.40054 1.00947,7.3312 0.16756,0.8113 0.81339,2.88095 1.26184,3.82496 0.0612,0.12885 0.18637,0.44376 0.25237,0.31875 0.93746,-1.77605 0.40322,-5.08915 0.50474,-7.01245 0.27309,-5.174 1.83334,-10.14285 2.01894,-15.29987 0.0763,-2.12279 0,-4.24996 0,-6.37495 0,-0.2125 -0.16825,-0.6375 0,-0.6375 1.29199,0 2.72848,12.60361 3.28079,13.06865 1.29814,1.09306 0.0116,-11.67764 1.76657,-10.19991 0.9662,0.81355 2.08987,9.61777 2.77605,11.4749 0.92036,2.49093 2.74669,5.06288 4.29026,7.01244 0.87154,1.10079 1.29322,-3.34712 1.76658,-2.54998 1.52833,2.57376 0.96236,7.12577 2.27131,9.88118 0.098,0.2063 1.04514,-4.73504 1.26184,-5.09997 0.78817,-1.32729 1.68059,0.74609 2.01895,0.31875 0.22051,-0.27851 0.40617,-1.34477 0.50473,-1.59374 1.06132,-2.68095 0.93998,-0.20326 1.76658,0.31875"
       id="path3875"
       inkscape:connector-curvature="0" />
    <path
       style="fill:none;stroke:#ffffff;stroke-width:1.2;stroke-linecap:butt;stroke-linejoin:miter;stroke-opacity:1;stroke-miterlimit:4;stroke-dasharray:none"
       d="m 283.60033,116.71088 c 0.15712,-0.62849 0.39185,-1.76078 0.75761,-2.27284 0.52763,-0.73868 1.95597,-0.77587 2.27284,-1.51523 0.10482,-0.24457 3.06325,-6.31345 3.53554,-6.31345 0.12487,0 -0.61007,2.88291 0,2.27284 1.08611,-1.08611 1.246,-3.18769 2.52538,-4.04061 0.41914,-0.27943 3.07678,-3.84485 3.28299,-3.53553 0.71369,1.07052 -0.50897,2.26504 0,3.28299 0.42362,0.84724 0.52941,-0.86416 0.75762,0.50508 0.1165,0.69898 0,1.55459 0,2.27284 0,0.16836 0.16836,0.50508 0,0.50508 -0.33707,0 2.06688,-2.29251 2.27284,-1.26269 0.0698,0.349 -0.28618,2.2392 0,2.52538 0.33379,0.33379 0.9289,-0.83886 1.26269,-0.50508 0.7432,0.7432 0.55023,2.38713 1.51523,3.03046 0.23894,0.15929 0.36948,-1.14574 0.75762,-0.75761 0.11311,0.11311 1.09718,5.05933 1.26269,5.55584 0.90997,2.72992 1.76436,0.50167 2.0203,0.75761 0.2401,0.24009 0.12607,3.61867 0.25254,4.29315 0.14717,0.78492 0.46102,1.53136 0.75761,2.27284 0.0699,0.17477 0.0842,0.4209 0.25254,0.50508 0.10648,0.0532 0.25254,-0.37159 0.25254,-0.25254 0,1.86077 -0.87554,4.69698 -0.25254,6.56599 0.30258,0.90772 2.02031,-3.97932 2.02031,-2.27284 0,0.58925 0,1.17851 0,1.76777 0,2.7484 1.0289,0.009 2.0203,0.50507 0.43144,0.21572 0.2273,2.02031 0.25254,2.02031 0.48042,0 1.29323,-2.25992 1.51523,-2.77792 1.21756,-2.84097 -0.69364,2.58743 1.51523,-0.25254 0.85226,-1.09576 1.15584,-1.30154 1.76776,-2.52538 0.18857,-0.37714 1.74011,-5.55584 2.77792,-5.55584 1.06849,0 0.18894,6.46061 1.26269,6.81853 1.39034,0.46344 1.42589,-2.27284 2.52539,-2.27284 0.24817,0 -0.13653,1.48799 -0.50508,2.77791 -0.62839,2.19938 -0.38944,4.35698 -0.75761,6.566 -0.52582,3.15488 0.25253,-4.50125 0.25253,0.50507 0,0.50508 0.0419,1.0119 0,1.51523 -0.0703,0.84307 -0.85074,1.92718 -0.25253,2.52538 1.00656,1.00657 2.27284,-3.43967 2.27284,-3.28299 0,1.63449 0.0913,1.59729 -0.50508,3.53553 -0.13331,0.43327 -0.82562,1.58324 -0.50507,1.26269 1.65812,-1.65812 3.64337,-9.84761 4.29314,-12.12183 0.4209,-1.47314 0.8418,-2.38508 1.2627,-3.78807 0.12333,-0.41113 0.25253,-1.69192 0.25253,-1.26269 0,0.79279 -0.59096,3.6163 -0.25253,4.29315 0.0532,0.10648 0.19553,-0.14803 0.25253,-0.25254 0.45068,-0.82624 0.8418,-1.68359 1.26269,-2.52538 0.80823,-1.61646 1.47239,-3.74523 2.77792,-5.05077 0.32244,-0.32243 -0.20325,3.283 0.75762,3.283 1.79395,0 1.64939,-3.40137 2.52538,-2.52538 0.23238,0.23238 -1.68057,6.58326 -0.25254,4.79822 0.49888,-0.6236 0.19292,-1.70815 0.75762,-2.27284 0.60379,-0.60379 -0.1095,3.24945 0,3.03046 0.42923,-0.85847 0.40115,-1.88678 0.75761,-2.77792 0.15845,-0.39612 3.49213,-9.03021 4.29315,-7.82868 0.68529,1.02793 0.14504,2.5379 1.26269,3.28299 0.24933,0.16622 1.40322,-1.45816 1.51523,-1.01015 0.28583,1.14332 -0.0692,2.35906 0,3.53553 0.16192,2.75269 0.70611,3.27801 0.75761,3.53554 0.25794,1.28969 0.15158,2.17132 0,3.53553 -0.0383,0.34496 -0.25254,1.35723 -0.25254,1.01015 0,-0.64109 0.47091,-2.34117 0.75762,-1.76776 0.24707,0.49414 -0.4244,3.57587 0,3.78807 0.24548,0.12274 0.73069,-1.01015 1.01015,-1.01015 1.20287,0 2.06842,7.52803 2.77792,6.81853 0.44848,-0.44848 0.83463,-1.54091 1.51523,-1.76777 0.21158,-0.0705 -0.43245,5.62847 0,6.06091 0.0842,0.0842 0.1993,-0.35901 0.25254,-0.25253 0.44118,0.88237 -0.13677,1.9993 0.25254,2.77792 0.56661,1.13323 1.51522,-2.60944 1.51522,-1.01016 0,0.75762 0.75762,2.27285 0,2.27285 -0.94115,0 0.30788,-1.85766 0.50508,-2.77792 1.17476,-5.48223 -0.20067,2.94992 0.75761,-6.31346 0.40359,-3.90132 1.71052,-7.56148 2.52539,-11.36421 0.24944,-1.16405 0.21634,-2.38061 0.50507,-3.53554 0.0289,-0.11571 -0.50507,6.18513 -0.50507,5.80838 0,-1.34463 0.38141,-2.93283 0.50507,-4.29315 0.0314,-0.34565 0.20346,-0.66656 0.25254,-1.01015 0.0476,-0.33333 -0.33672,-1.01015 0,-1.01015 1.05607,0 0.57053,5.49038 0.75761,5.3033 0.40293,-0.40293 0.87791,-2.27285 1.51523,-2.27285 1.09757,0 0.11641,2.19391 0.25254,3.283 0.18315,1.46517 1.01015,2.64672 1.01015,4.04061 0,0.19391 -0.16528,2.44274 0,2.52538 0.59344,0.29672 0.61227,-1.1555 1.01016,-0.75761 0.58679,0.58679 -0.63385,5.79427 1.76776,2.0203 0.62393,-0.98045 0.99473,-3.35689 2.02031,-4.04061 0.35249,-0.23499 0.25205,5.68321 1.76777,2.27285 0.75145,-1.69077 1.06787,-3.51387 1.51522,-5.30331 0.0408,-0.16333 -0.16835,-0.50507 0,-0.50507 0.79967,0 -0.42206,4.54918 0.25254,2.52538 0.35304,-1.0591 0.3117,-4.88696 0.75762,-5.55584 0.54915,-0.82373 1.89161,-2.13932 2.27284,-3.283 0.10648,-0.31943 -0.33672,-1.01015 0,-1.01015 1.97551,0 0.20278,2.50051 1.26269,3.03046 0.19924,0.0996 1.15766,-5.55584 1.51523,-5.55584 0.0257,0 -0.0395,2.58054 0,2.77792 0.37906,1.89532 0.98127,4.03875 1.76777,5.80838 0.56198,1.26445 1.17261,4.29315 1.26269,4.29315 0.30339,0 0.39291,-4.43282 0.75761,-1.51523 0.0442,0.35351 0.58451,4.12716 0.75762,4.04061 0.35749,-0.17875 2.02994,-4.27387 2.27284,-3.78807 0.10669,0.21337 -0.0236,4.82181 0.75761,4.04061 1.55719,-1.55719 1.53647,-5.13574 2.02031,-7.07107 0.008,-0.0308 0.52926,-1.2385 1.01015,-0.75762 0.63135,0.63135 -0.63134,3.15673 0,3.78808 0.37646,0.37646 0.38958,-0.99551 0.50508,-1.51523 0.29897,-1.34537 0.40561,-3.15038 1.26269,-4.29315 0.71992,-0.9599 0.50507,1.3308 0.50507,1.76777 0,0.0842 -0.0138,-0.16951 0,-0.25254 0.15072,-0.90428 0.21233,-1.23965 0.50508,-2.02031 0.64559,-1.72156 1.72164,-3.80998 2.02031,-5.3033 0.30066,-1.50331 1.789,-10.36114 3.28299,-10.85914 0.62075,-0.20692 0.95751,3.61449 1.01015,3.53554 1.06541,-1.59811 0.58361,-5.40415 1.01016,-7.32361 0.3399,-1.52958 1.383,-2.00839 2.0203,-3.283 0.26794,-0.53586 0.23111,-1.472366 0.50508,-2.020302 0.0753,-0.150584 0,0.336718 0,0.505077 0,2.070045 -0.0313,-1.196144 0.25254,2.777915 0.10811,1.51355 0.25253,3.0255 0.25253,4.54569 0,1.53648 -0.48762,4.09298 0,5.55584 0.0586,0.17583 0.33977,-1.17546 0.50508,-1.01015 9e-4,8.9e-4 0.57053,4.99459 1.01015,6.31345 0.74715,2.24144 1.18812,-1.75337 1.51523,-1.26269 0.85966,1.28949 0.11733,3.14778 1.26269,4.29315 0.36086,0.36085 1.2545,-1.14052 1.51523,-1.01015 0.60886,0.30443 1.24982,3.87654 1.51523,3.78807 1.02066,-0.34022 1.63105,-5.0627 2.52538,-4.04061 0.60585,0.69239 2.15426,4.66939 2.52538,4.54568 1.02661,-0.3422 2.4858,-6.57918 3.283,-6.31345 0.44099,0.147 1.19935,3.89336 1.51523,3.78807 1.37819,-0.45939 0.23317,-2.50601 1.01015,-3.28299 0.0842,-0.0842 0.13349,0.25253 0.25254,0.25253 0.0416,0 0.45916,-3.92586 0.50507,-4.29314 0.0835,-0.66824 -0.47619,-2.4965 0,-2.02031 0.24543,0.24542 -0.0945,1.01015 0.25254,1.01015 0.0613,0 1.69317,-6.37948 1.76777,-6.56599 0.14965,-0.37413 0.35542,-0.2993 0.50508,0 0.0631,0.12627 -0.12627,0.75762 0,0.75762 0.55192,0 1.64214,-3.7462 2.52538,-4.04061 0.4857,-0.1619 0.85254,1.11522 1.01015,1.01015 1.88265,-1.2551 1.73485,-5.080084 2.77792,-6.81853 0.77085,-1.284746 1.37213,1.62467 1.51523,1.767767 0.11905,0.119047 -0.0408,-0.341745 0,-0.505077 0.17177,-0.687094 0.9585,-1.361236 1.26269,-2.020305 0.46266,-1.002425 0.86195,-3.0607 1.51523,-4.04061 0.27012,-0.405177 0.46594,-0.11618 0.75761,-0.505076 1.1446,-1.526137 2.0109,-3.419461 3.03046,-5.050763 0.38119,-0.609905 0.0384,-2.020305 0.75761,-2.020305 0.52387,0 0.50508,2.265908 0.50508,2.525381 0,3.035137 0.75761,-1.792159 0.75761,0.757615 0,0.929791 0.25254,3.707711 0.25254,2.777919 0,-5.571564 2.24695,-10.930432 3.03046,-16.414979 0.13149,-0.920446 -0.16328,-1.946288 0.25254,-2.777919 0.34708,-0.694161 0.39532,1.504548 0.50507,2.272843 0.18442,1.290897 0.10004,5.403332 0.50508,5.808377 0.18754,0.18754 0.94612,0.184901 1.01015,0.505077 0.22411,1.120508 0.31321,2.384341 0.50508,3.535533 0.0415,0.249103 -0.17857,0.936186 0,0.757615 0.78938,-0.789382 0.42786,0.258926 0.50508,1.262691 0.0785,1.021069 -0.21907,3.754596 0.50507,3.030457 2.1617,-2.161696 0.63904,-2.752292 1.76777,1.010153 0.40753,1.358419 1.35527,1.27529 2.0203,2.272843 0.5344,0.801592 0.38074,-0.497377 0.75762,1.010152 0.0453,0.181221 -0.13895,0.757615 0.25254,0.757615 0.26116,0 0.58744,-1.756918 0.75761,-2.77792 0.25909,-1.554526 2.30502,-10.386241 2.77792,-10.859139 0.0842,-0.08418 0.13349,0.252538 0.25254,0.252538 0.958,0 0.84612,-2.43688 1.26269,-2.020305 0.97821,0.978207 1.48196,15.624097 2.52538,16.667516 0.0374,0.0374 0.37823,-0.884461 0.75762,-0.505076 0.69522,0.695224 0.91629,2.09189 1.01015,3.030458 0.0201,0.200503 -0.0973,2.855554 0.25254,3.030454 0.48118,0.24059 1.35044,-1.383594 1.76776,-0.757611 0.62654,0.939811 -0.0505,3.737561 0.75762,4.545691 0.81407,0.81406 0.62546,-1.71347 1.26269,-0.75762 0.30789,0.46184 1.26631,3.03046 1.76777,3.03046 0.0465,0 -0.20262,-0.75762 0.50507,-0.75762 0.5324,0 0.26698,1.03904 0.50508,1.51523 0.2946,0.58921 1.1952,0.62264 1.26269,0.75762 0.12665,0.25329 -0.28802,1.51523 0.25254,1.51523 0.23809,0 0.29211,-0.3986 0.50507,-0.50508"
       id="path3879"
       inkscape:connector-curvature="0"
       transform="translate(135.78372,161.92916)" />
    <path
       style="fill:none;stroke:#ffffff;stroke-width:1.2;stroke-linecap:butt;stroke-linejoin:miter;stroke-opacity:1;stroke-miterlimit:4;stroke-dasharray:none"
       d="m 283.34779,119.23627 c 1.76034,-2.01781 9.51219,-19.1929 10.6066,-19.1929 0.67343,0 0.67343,2.0203 0,2.0203 -1.0648,0 0.67343,-2.0203 1.01015,-3.030455 0.53425,-1.602752 0.66698,-4.573837 1.01015,-6.060916 3.88946,-11.668364 -0.27986,1.904372 1.01016,-4.545686 0.006,-0.03074 4.04061,-7.108331 4.04061,-4.545686 0,2.660029 -0.24135,5.443949 -0.50508,8.08122 -0.0691,0.690716 -1.12595,2.330743 -0.50508,2.020305 0.94394,-0.47197 3.54474,-7.071068 4.54569,-7.071068 1.27658,0 -2.52538,11.268411 -2.52538,11.616754 0,6.313712 3.02599,-5.5603 4.54569,-4.04061 0.77088,0.770887 -0.29534,3.869418 0,5.050763 0.6808,2.723209 3.19049,-0.875099 3.53553,0.505079 0.16761,0.67044 -0.46648,4.31245 0,4.54568 1.34488,0.67244 3.05396,-8.034206 4.04061,-6.060912 0.13985,0.279705 0.33709,3.535532 0.50508,3.535532 1.13477,0 4.69332,-11.671139 5.05076,-13.637057 0.0989,-0.543956 1.84363,-7.752817 2.0203,-7.576144 0.25571,0.255703 -0.50507,8.965772 -0.50507,8.08122 0,-1.848358 1.71061,-18.532976 3.03045,-19.192898 0.43555,-0.217771 1.51523,9.216866 1.51523,10.101525 0,0.673436 -0.13207,-1.359947 0,-2.020305 0.89885,-4.494252 1.21298,-1.753836 2.52538,-6.565991 0.2215,-0.812132 0,-3.367175 0,-2.525381 0,6.229274 0,12.458548 0,18.687822 0,2.020305 -1.42857,7.489486 0,6.060915 1.6175,-1.617493 1.11711,-5.861851 3.53554,-7.071068 0.27592,-0.137961 -0.20419,10.606602 0,10.606602 2.34496,0 0.42798,-7.614693 2.52538,-6.565992 0.5678,0.283901 0.86644,7.142926 1.01015,7.071068 2.19626,-1.098131 3.04685,-4.578467 4.04061,-6.565992 0.37646,-0.752923 0,1.683588 0,2.525382 0,1.010152 1.01016,3.030457 0,3.030457 -0.11961,0 -0.0463,-5.322277 0.50508,-11.111678 0.0785,-0.824717 0.59405,-10.101525 2.52538,-10.101525 1.34687,0 0,2.69374 0,4.04061 0,0.841794 0.84179,2.525382 0,2.525382 -1.22567,0 0.63853,-2.367562 1.01015,-3.535534 2.04312,-6.421214 5.05077,-13.841343 5.05077,-20.708127 0,-2.942697 -1.49201,11.065225 -1.01016,10.101525 2.20871,-4.417422 4.40801,-9.51398 6.06092,-14.142136 0.2265,-0.634201 0,-2.69374 0,-2.020305 0,4.078808 -2.0025,7.736433 -1.51523,12.121831 0.0263,0.236639 0.373,0.703183 0.50508,0.505076 1.76616,-2.649247 1.05973,-8.037857 2.0203,-11.111678 0.38244,-1.223817 1.10977,-2.319149 1.51523,-3.535534 0.10648,-0.319438 0,-1.34687 0,-1.010152 0,4.279415 -1.64953,7.857969 -2.02031,12.12183 -0.86861,9.989095 -1.01095,25.384722 2.52539,5.050763 2.81931,-16.211063 -1.02405,1.584698 1.01015,-8.586297 0.033,-0.165089 0,0.336718 0,0.505077 0,1.178511 0.1377,2.365094 0,3.535534 -0.18715,1.59072 -2.76004,20.20305 -2.02031,20.20305 0.0426,0 2.52538,-10.782576 2.52538,-9.091373 0,3.452312 -1.45956,13.187645 -0.50507,14.142136 1.57274,1.572744 1.77776,-4.171876 2.52538,-4.545686 1.33845,-0.669227 -0.4717,13.236549 -0.50508,13.637059 -0.014,0.167777 0,0.336717 0,0.505076 1.40589,-2.572924 1.83376,-13.955587 3.03046,-15.152288 0.80494,-0.804939 -0.10877,11.329217 0,11.111678 0.57829,-1.156571 6.44725,-22.788671 5.55584,-15.657364 -0.51767,4.14139 -1.01015,7.902747 -1.01015,12.12183 0,1.691985 -0.69134,6.247177 0.50507,5.050763 3.53136,-3.531353 4.34592,-15.657365 5.05077,-15.657365 1.85194,0 0.21638,3.716578 0,5.555839 -0.8203,6.972553 -0.87757,12.279694 0.50507,19.1929 0.24038,1.20187 0.74427,2.33905 1.01016,3.53553 0.073,0.3287 -0.2381,1.24825 0,1.01016 0.53239,-0.5324 0.6111,-1.38183 1.01015,-2.02031 5.97013,-9.552216 -0.98764,6.56599 0,6.56599 1.70759,0 3.53553,-12.038542 3.53553,-2.52538 0,1.40913 -0.50507,3.64163 -0.50507,5.05076 0,0.5324 0.31813,-1.01673 0.50507,-1.51523 0.8464,-2.25705 2.21971,-4.29589 3.03046,-6.56599 0.9776,-2.73729 0.0612,-5.46405 1.01015,-4.04061 0.51398,0.77097 0.89379,12.01475 2.02031,10.6066 1.91423,-2.39278 2.5905,-6.76135 3.53553,-9.59645 1.82366,-5.470958 -1.14918,6.42696 -0.50508,7.07107 0.45776,0.45775 3.03046,-8.29676 3.03046,-9.59645 0,-1.229122 -1.01015,10.89284 -1.01015,9.09138 0,-2.24619 1.09494,-4.35948 1.51523,-6.566 0.12842,-0.6742 1.40247,-8.802445 1.51523,-10.606597 0.34719,-5.555073 -0.50508,-23.706143 -0.50508,-6.565991 0,1.010152 -0.056,-2.021861 0,-3.030458 0.27987,-5.037621 0.74697,-10.158613 1.51523,-15.152288 0.18102,-1.176633 0.50508,-4.72601 0.50508,-3.535534 0,8.108911 -2.02031,16.054053 -2.02031,24.243661 0,3.371382 0.13277,6.750764 0.50508,10.101525 0.0416,0.37416 0.33671,1.34687 0.50507,1.010153 1.08273,-2.16545 2.77846,-12.780471 3.53554,-15.657364 0.52998,-2.013916 1.25693,-8.127317 1.51523,-6.060916 0.47764,3.821132 -0.50508,7.776625 -0.50508,11.616755 0,3.148305 1.00076,5.57462 1.01015,5.555839 4.24667,-8.493344 5.05077,-19.478625 5.05077,-28.789348 0,-2.357022 -0.64753,-4.804734 0,-7.071068 0.23125,-0.809404 1.24903,-2.8189 1.51522,-2.020305 2.63505,7.905141 -4.92792,25.00356 0,21.71828 0.99054,-0.660357 0.25983,-2.370594 0.50508,-3.535534 2.89053,-13.730027 0.36186,3.268561 3.53553,-17.677669 0.80482,-5.311813 0.3136,-7.959103 1.01016,-6.565992 1.04105,2.082115 -1.51523,16.16509 -1.51523,19.192898 0,3.965002 -0.11889,6.3729 0.50507,6.060916 3.13648,-1.568237 2.06673,-8.72557 3.03046,-11.616755 0.79577,-2.387313 -1.8491,11.111678 -1.01015,11.111678 0.36415,0 1.20149,-6.060915 1.51523,-6.060915 1.23662,0 0.0685,12.626907 0.50507,12.626907 0.65413,0 2.38151,-13.419733 4.04061,-10.101526 1.27561,2.551209 -1.01015,8.719226 -1.01015,11.616755 0,0.532397 0.18564,1.941146 0.50508,1.515228 1.75699,-2.34265 1.76329,-5.918979 2.52538,-8.586296 0.0654,-0.228934 0.33672,-0.673435 0.50508,-0.505076 0.83285,0.832853 -2.68418,17.057166 0,16.16244 2.01223,-0.670743 2.98909,-6.267733 3.03045,-6.060915 0.81944,4.097199 -0.23088,7.503931 -0.50507,11.616754 -0.0896,1.343887 -0.42592,5.318368 0,4.040608 0.27147,-0.81441 0.26924,-1.69994 0.50507,-2.525379 0.43879,-1.535738 1.12786,-2.996183 1.51523,-4.545686 0.16836,-0.673435 0.0142,-2.511151 0.50508,-2.020306 1.60728,1.607281 -1.14158,11.111681 2.52538,11.111681 3.42525,0 4.04061,-15.624053 4.04061,-9.091375 0,2.003991 -0.69992,15.176875 2.52538,8.081215 1.29045,-2.83899 1.28375,-6.471297 3.03046,-9.091368 0.18678,-0.280166 0,0.673435 0,1.010153 0,5.871385 0.1807,0.250317 -1.01015,8.586295 -0.0714,0.5 -0.35715,1.87237 0,1.51523 2.50137,-2.50137 5.68086,-27.74046 6.56599,-32.829958 0.84823,-4.877339 1.13565,-4.536437 1.51523,-9.091372 0.0559,-0.671109 0,-2.69374 0,-2.020305 0,3.688267 -0.32076,7.425217 -0.50508,11.111677 -0.38157,7.631417 -0.83797,3.627192 -0.50508,11.616755 0.0844,2.02555 0.30336,4.043668 0.50508,6.060915 1.45012,14.501158 2.68347,-14.647212 4.54569,-14.647212 0.33671,0 0.0476,0.676819 0,1.010153 -1.23532,8.647233 0.2262,-5.865727 -0.50508,6.565991 -0.24755,4.208328 -1.45692,8.382588 -1.01015,12.626907 0.39746,3.775902 1.40052,7.128419 1.51523,7.071069 1.24175,-0.62088 0.38927,-2.798859 1.01015,-4.040612 0.43903,-0.878051 2.49692,-2.525381 1.51523,-2.525381 -0.53465,0 -1.68638,9.134163 0.50507,8.586293 1.41902,-0.35475 3.4365,-6.166534 4.04061,-7.57614 0.19896,-0.464239 0,-2.020305 0,-1.515229 0,1.450725 -1.04045,8.318609 0.50508,9.091369 1.2518,0.6259 3.03046,-13.470113 3.03046,-11.111674 0,3.593723 -0.50508,7.042454 -0.50508,10.606604 0,0.53239 0.26698,1.99142 0.50508,1.51523 2.79984,-5.599695 3.19971,-13.641071 4.54568,-19.697978 0.10957,-0.493049 -0.50507,-1.515229 0,-1.515229 0.11184,0 -0.0534,13.981786 0.50508,15.657367 1.21311,3.63932 2.43967,3.78346 3.53554,7.07107 0.33671,1.01015 -0.0546,3.03045 1.01015,3.03045 0.0111,0 1.2417,-1.28368 0.50507,-2.0203"
       id="path3885"
       inkscape:connector-curvature="0"
       transform="translate(135.78372,161.92916)" />
    <path
       style="fill:none;stroke:#ffffff;stroke-width:1.2;stroke-linecap:butt;stroke-linejoin:miter;stroke-opacity:1;stroke-miterlimit:4;stroke-dasharray:none"
       d="m 283.85286,114.69058 c 2.45733,3.69951 4.28393,7.37703 5.55584,11.61675 0.26052,0.86841 0.19923,2.93085 1.01015,2.52538 0.57574,-0.28786 3.98702,-14.06581 4.54569,-9.59644 0.54941,4.39527 -0.53636,17.1413 2.52538,20.20305 0.28366,0.28366 0.77819,-2.02031 2.02031,-2.02031 0.11813,0 -0.40764,8.08122 0.50507,8.08122 0.5755,0 4.04061,-12.87857 4.04061,-14.64721 0,-3.39093 0,2.66999 0,6.06091 0,1.11221 -0.83534,11.61676 1.01016,11.61676 1.90723,0 4.5283,-15.57043 5.05076,-18.18275 1.24452,-6.22259 0.0908,8.54675 0.50508,6.06092 0.29205,-1.75231 2.56625,-18.68782 3.53553,-18.68782 1.82161,0 -0.98433,7.52966 1.51523,3.03045 1.27392,-2.29306 1.62743,-5.4716 3.03046,-7.57614 0.38505,-0.57758 0.50507,1.32614 0.50507,2.02031 0,3.67364 0.2443,7.44725 0,11.11167 -0.11199,1.67986 -1.40083,5.98465 0,5.05077 2.7462,-1.8308 1.73792,-10.4436 2.52538,-8.08122 1.05573,3.16718 0.2613,24.62611 0,28.28427 -0.13249,1.85485 -1.3367,3.89257 -0.50507,5.55584 0.60828,1.21656 0.52952,-8.5863 1.01015,-8.5863 0.49748,0 -1.85145,16.15801 -2.02031,17.67767 -0.0744,0.66931 -0.47619,2.49649 0,2.0203 3.00353,-3.00353 1.68046,-12.70951 5.55584,-14.64721 2.10819,-1.05409 -2.10818,8.12516 0,7.07107 0.67344,-0.33672 0.64962,-1.35932 1.01016,-2.02031 0.64997,-1.19161 1.61544,-2.23996 2.0203,-3.53553 1.01531,-3.24899 0.3209,-8.90719 3.03046,-11.61675 0.35714,-0.35715 0.0503,1.01266 0,1.51523 -0.20173,2.01724 -0.0653,4.08188 -0.50508,6.06091 -0.245,1.10249 -2.31382,3.82905 -1.51523,3.03046 4.12107,-4.12107 3.59088,-10.18454 6.566,-14.64721 2.15171,-3.22758 -0.004,15.16434 1.01015,12.12183 1.41483,-4.24451 2.54506,-9.13074 4.54568,-13.13199 0.11013,-0.22024 0.50508,5.54426 0.50508,6.566 0,5.43778 -2.1664,17.30032 1.51523,21.71827 1.90123,2.28149 4.37798,-13.80476 5.55584,-12.6269 1.20349,1.20349 -0.38657,7.15854 0,9.09137 0.36996,1.84979 3.17644,-0.22014 3.53553,-1.01015 0.59524,-1.30953 0.94859,-2.71846 1.51523,-4.04061 4.63961,-10.82575 -0.48824,2.47486 2.02031,-5.05076 0.0532,-0.15972 0,0.33671 0,0.50507 0,1.17851 0,2.35702 0,3.53554 0,2.12902 -1.25524,13.12701 1.01015,11.61675 3.80133,-2.53422 3.70764,-18.74403 4.04061,-23.73858 0.19071,-2.8607 -0.0572,-11.39767 0.50507,-8.5863 0.78185,3.90924 0.30501,8.15677 0,12.12183 -0.0658,0.85594 -0.77654,3.33979 -0.50507,2.52538 0.4622,-1.38661 1.7425,-7.33619 2.0203,-8.5863 0.33672,-1.51522 0.65464,-3.03475 1.01016,-4.54568 0.31798,-1.35142 0.65243,-2.69917 1.01015,-4.04061 2.92855,-10.98207 0.0546,10.69669 3.03046,10.10152 3.34504,-0.66901 3.84135,-10.34093 5.55584,-12.6269 1.11116,-1.48156 0.10875,3.70708 0,5.55583 -0.0789,1.3418 -1.35683,8.18682 0,9.09138 1.91723,1.27816 4.03256,-12.86738 4.54568,-13.63706 0.56806,-0.85209 0.50508,2.00637 0.50508,3.03046 0,1.0788 -1.80903,15.9089 0.50507,13.13198 3.3648,-4.03775 5.55584,-12.8493 5.55584,-18.18275 0,-1.17851 0.16667,2.36887 0,3.53554 -0.29492,2.06445 -2.61013,13.6088 -1.01015,14.14213 0.93322,0.31107 5.3793,-17.05977 5.55584,-17.67767 0.32705,-1.14467 -0.33672,-4.37732 0.50508,-3.53553 2.09109,2.09109 -1.0364,31.31473 2.0203,31.31473 0.69416,0 0.24727,-1.37579 0.50508,-2.02031 2.77385,-6.93463 0.4339,1.10276 2.52538,-6.56599 0.18264,-0.6697 -0.18909,-2.0203 0.50507,-2.0203 1.67598,0 -0.9823,16.66751 1.51523,16.66751 1.19048,0 0.21635,-2.3806 0.50508,-3.53553 0.25825,-1.033 0.80133,-1.98634 1.01015,-3.03046 2.27601,-11.38004 -1.82086,3.40499 1.51523,-10.6066 0.87899,-3.69174 2.06251,-4.8833 2.52538,-8.5863 0.34212,-2.73695 -1.09144,-10.02023 1.01016,-12.12183 2.33013,-2.33013 1.51522,11.82656 1.51522,12.12183 0,0.50508 -0.083,-1.01702 0,-1.51523 0.25518,-1.53107 0.67344,-3.03045 1.01016,-4.54568 0.16836,-2.02031 0.20434,-4.05604 0.50507,-6.06092 0.20595,-1.37296 0.73788,-2.67925 1.01016,-4.04061 0.066,-0.33018 0,-1.34687 0,-1.01015 0,1.89049 -1.29366,12.84848 -0.50508,13.63706 0.20754,0.20754 2.86572,-9.84355 3.03046,-9.59645 0.9134,1.37011 0.50507,6.86448 0.50507,7.07107 0,0.84179 -0.75292,2.90184 0,2.52538 1.76967,-0.88484 1.1485,-2.95653 1.51523,-4.54569 3.25418,-14.10142 1.28492,1.55969 2.02031,3.03046 1.36058,2.72116 3.46684,-9.65501 3.53553,-10.10152 0.13054,-0.84849 -0.10195,-3.13241 0.50508,-2.52539 0.5861,0.5861 -1.37137,12.62691 -1.01016,12.62691 2.51951,0 3.46201,-8.61342 3.53554,-9.09137 0.11449,-0.74417 0.86249,-2.75861 1.01015,-2.02031 0.3632,1.81599 0,3.7039 0,5.55584 0,1.34687 0,2.69374 0,4.04061 0,0.16836 0,0.67344 0,0.50508 0,-1.94009 -0.0476,-1.59798 0.50508,-4.54569 0.28605,-1.5256 0.65464,-3.03475 1.01015,-4.54568 3.77361,-16.03783 -1.6276,16.05746 5.05076,3.53553 0.67207,-1.26012 3.84973,-11.88984 4.54569,-12.12183 0.97153,-0.32385 0.43211,2.00897 0.50508,3.03046 0.28498,3.98983 -0.28499,6.11169 0,10.10152 0.0159,0.22292 0.38104,1.42956 1.01015,1.01015 1.31223,-0.87482 1.47876,-2.04628 2.0203,-3.53553 0.19574,-0.53828 1.48486,-6.56599 2.02031,-6.56599 1.00652,0 -1.71685,16.36508 -0.50508,18.18274 0.18412,0.27619 1.92465,1.54205 2.02031,2.02031 0.0246,0.12314 1.27927,16.16244 0,16.16244 -1.02409,0 0.38542,-2.01339 0.50507,-3.03046 3.2846,-27.91909 -2.14723,12.29455 1.51523,-12.12183 0.81474,-5.4316 0.44597,-6.6842 0.50508,-6.56599 3.74897,7.49794 -2.51781,17.70798 -0.50508,25.75889 0.0764,0.30576 1.39075,1.13464 1.51523,1.01015 2.24314,-2.24314 4.23018,-31.8198 4.54569,-31.8198 0.33215,0 -0.54518,15.83395 0,6.56599 0.0949,-1.6125 0.36888,-16.16244 3.53553,-16.16244 1.01015,0 0,2.0203 0,3.03046 0,0.27752 0.40841,4.52394 0.50508,4.04061 0.90756,-4.5378 1.05627,-10.51436 1.51523,-9.59645 1.37008,2.74016 -0.40631,3.85053 -1.01016,7.07107 -0.27924,1.48927 -1.35526,5.22331 0,4.54568 2.89752,-1.44876 6.01468,-27.17805 4.54569,-8.08122 -0.0904,1.17504 0,2.35702 0,3.53554 0,0.33671 -0.0817,-0.68349 0,-1.01016 0.25825,-1.033 0.80133,-1.98634 1.01015,-3.03045 0.43428,-2.17142 -0.97048,-5.57568 1.01015,-6.566 0.75664,-0.37832 0.50508,9.28952 0.50508,7.57615 0,-0.69645 2.98649,-12.12183 3.03046,-12.12183 1.12638,0 0,13.93921 0,16.66751 0,4.25356 1.92678,-2.21364 2.0203,-2.52538 0.29427,-0.98089 0.50508,-4.05454 0.50508,-3.03045 0,3.11519 -0.0308,6.00859 -0.50508,9.09137 -0.20639,1.34157 -1.86242,4.04061 -0.50507,4.04061 0.45183,0 1.56847,-1.51523 2.0203,-1.51523 1.4264,0 0,10.10428 0,11.11168 0,0.33672 0,-0.67344 0,-1.01015 0,-1.16449 0.74774,-2.00055 1.01016,-2.52539"
       id="path3887"
       inkscape:connector-curvature="0"
       transform="translate(135.78372,161.92916)" />
    <path
       style="fill:none;stroke:#ffffff;stroke-width:1.2;stroke-linecap:butt;stroke-linejoin:miter;stroke-opacity:1;stroke-miterlimit:4;stroke-dasharray:none"
       d="m 420.1658,279.85728 c 0.67326,-0.64772 1.33252,-1.31345 2.01977,-1.94314 0.32326,-0.29618 0.73604,-0.48149 1.00989,-0.83277 0.24494,-0.31418 0.23881,-0.81776 0.50494,-1.11036 0.79891,-0.87839 -0.28317,4.16386 0.75742,4.16386 0.54175,0 0.87198,-1.94314 1.51483,-1.94314 0.76507,0 -0.40188,1.89781 0.75741,1.38796 0.11669,-0.0513 1.20414,-0.89678 1.26235,-0.83277 0.26741,0.29401 -0.0416,1.89739 0.25247,2.22072 0.5087,0.55931 1.15749,-1.73388 1.51483,-0.55518 0.18394,0.60672 -0.36397,2.22072 0.75741,2.22072 1.40788,0 1.62868,-3.05349 2.77719,-3.05349 0.13577,0 0.80683,4.77534 2.01977,3.88626 0.79183,-0.5804 0.62974,-1.17577 1.00988,-2.22072 1.44758,-3.979 1.66598,-7.65753 2.01978,-11.9364 0.0686,-0.82934 -0.53558,-1.90945 0,-2.49831 1.50453,-1.65422 -0.69286,6.24261 0.50494,3.60867 0.49356,-1.08534 0.10494,-2.19564 0.25247,-3.33109 0.12963,-0.99775 1.08436,-3.24919 1.51483,-2.7759 0.79857,0.87803 0.63035,8.8829 2.01976,8.8829 0.76208,0 -0.28639,-3.09079 0.25248,-2.49831 0.71421,0.78527 0.85621,4.36911 1.00988,5.55181 0.0982,0.75536 0.50494,2.98375 0.50494,2.22073 0,-0.37013 -0.10645,-0.75924 0,-1.11036 0.89751,-2.9604 0.84126,0.37287 1.26236,-3.33109 0.22643,-1.99163 0.24809,-11.37962 1.7673,-11.9364 1.15586,-0.42362 1.80058,4.74851 2.01977,5.55181 0.0997,0.36542 0.007,1.38014 0.25247,1.11036 1.14972,-1.26412 0.25247,-6.02476 0.25247,-7.77254 0,-0.37012 -0.23803,-1.37207 0,-1.11036 0.34374,0.37794 1.57964,8.32772 3.5346,8.32772 0.59922,0 0.22123,-3.57433 0.75742,-4.16385 0.28366,-0.3119 1.23115,3.08779 1.51482,2.7759 0.73835,-0.81181 1.82412,-6.25964 2.52472,-4.71904 1.13964,2.50607 -0.2837,5.50032 1.76729,8.8829 0.13204,0.21776 0.33663,0.74024 0.50494,0.55517 0.0708,-0.0778 0.0774,-3.9825 0.25248,-3.88626 1.63776,0.90036 0.6261,6.25663 0.75741,7.77254 0.24428,2.8202 1.15118,5.52895 1.51482,8.32771 0.20791,1.60011 0.57665,2.65599 1.26236,4.16386 0.16832,0.37012 0.38593,1.50294 0.50495,1.11037 0.29395,-0.96958 0.0577,-2.05416 0.25247,-3.0535 0.53789,-2.7599 2.80208,-15.01727 4.03954,-16.37784 2.04848,-2.2523 3.17792,6.08044 3.28212,6.93976 0.0917,0.75633 0.28549,2.9446 0.50495,2.22073 0.38348,-1.26493 0.4108,-10.09677 -0.25248,-10.82604 -0.69652,-0.76582 0.71326,2.02073 1.00989,3.0535 0.0568,0.19775 1.93295,8.85692 2.52472,7.77254 0.68313,-1.25183 0.77942,-3.17451 1.00988,-4.44145 0.6769,-3.72124 2.30172,6.93976 3.28212,6.93976 1.45906,0 -0.0293,-11.79434 1.7673,-9.16049 0.93185,1.36609 1.17468,7.98973 2.52471,7.49495 0.77038,-0.28234 0.25248,-7.23651 0.25248,-8.32772 0,-1.90449 -0.15701,-3.93045 0,-5.8294 0.14896,-1.80161 0.90385,-3.40887 1.00988,-5.27423 0.27075,-4.7629 0.10103,-9.46614 0.75742,-14.15712 0.0768,-0.54873 -0.18753,-1.15007 0,-1.66554 0.18941,-0.52065 0.75448,1.82629 1.51483,3.33108 1.71399,3.39216 2.08983,6.95109 3.02964,10.82604 0.5148,2.12254 1.48931,6.38458 1.76731,6.38458 0.59508,0 -0.16832,-1.48048 0.25247,-1.94313 0.95953,-1.05501 0.35508,2.95857 0.50493,4.44145 0.0221,0.21836 0.36268,3.41697 0.50495,3.88627 0.096,0.3165 0.2622,0.63259 0.50495,0.83277 0.15054,0.12414 0.50493,-0.4845 0.50493,-0.27759 0,1.83447 0.12952,3.82589 0.75742,5.55182 2.75246,7.56579 1.04089,-1.14446 2.52471,-2.77592 0.24084,-0.2648 1.00633,4.42187 1.00989,4.44145 0.28067,1.54301 0.58107,6.01006 2.27224,6.93977 0.85142,0.46807 0.54376,-2.74745 1.26236,-2.22073 1.43484,1.05174 0.4198,5.45821 1.76729,6.93978 0.43323,0.47633 0.28983,-1.31241 0.50495,-1.94314 0.0727,-0.21296 1.69522,-4.40162 2.27224,-2.49831 0.80227,2.64629 -0.56797,6.03769 1.51483,8.32771 0.69259,0.76151 1.27551,-4.25202 1.51482,-3.33109 0.19343,0.74435 0.24187,5.1296 1.00989,5.55182 0.45134,0.24812 0.31823,-3.40339 0.50494,-3.60868 0.31076,-0.34168 1.24124,4.71904 1.26236,4.71904 0.22783,0 0.38437,-5.86675 0.50494,-6.66218 0.67915,-4.48035 2.03695,-8.848 2.77719,-13.32435 0.15352,-0.92841 0.34678,-1.84844 0.50493,-2.7759 0.0944,-0.5532 -0.20539,-1.41384 0.25248,-1.66555 0.38382,-0.211 0.18722,0.92163 0.25247,1.38795 0.18017,1.28766 -0.0459,6.22059 1.26236,6.93978 1.57126,0.86379 1.31477,-5.03506 3.53459,-6.66218 0.31384,-0.23003 1.67472,5.34822 2.01978,6.10699 0.22892,0.50343 -0.25945,-1.66554 0.25247,-1.66554 1.02423,0 1.20114,6.52478 1.76729,6.93976 0.67747,0.49659 0.84017,-4.72135 1.00988,-4.44145 1.15397,1.90316 0.68465,4.4273 2.01978,6.38459 0.79889,1.17116 1.08234,-1.62613 1.51483,-1.94314 0.0991,-0.0725 0.20669,0.1568 0.25247,0.27759 1.52732,4.03029 0.8209,1.95144 1.00988,6.107 0.0674,1.48152 0.13033,2.96417 0.25247,4.44145 0.0314,0.37995 0.007,1.38013 0.25248,1.11036 0.57673,-0.63411 -0.24727,-2.85246 0.50493,-3.88627 0.83514,-1.14779 0.99312,6.62639 1.00989,6.93976 0.49271,9.20927 0.54755,-4.98962 1.00989,1.11037 0.052,0.68569 0.38427,4.99663 0.50494,4.99663 0.2103,0 -0.13075,-1.05081 0,-2.77591 0.19234,-2.5378 0.88843,-4.95766 1.00989,-7.49494 0.0752,-1.57084 -0.14236,-3.15384 0,-4.71905 0.0427,-0.46947 -0.13135,-1.17695 0.25246,-1.38795 0.22582,-0.12414 0.64451,-0.24828 0.75742,0 0.32685,0.71876 -0.10835,2.61629 0,3.33109 0.30147,1.98881 0.7912,4.13847 1.26236,6.107 0.78889,3.29604 0.29625,6.80659 1.26235,9.99326 0.11902,0.39257 0.23882,0.81776 0.50495,1.11036 0.0869,0.0955 0.65378,-1.01093 0.75741,-0.55518 0.73008,3.21092 -0.9269,8.26431 1.00988,11.10362 0.35705,0.52343 -0.34261,-1.94313 0.25247,-1.94313 0.0954,0 0.82597,4.95895 1.7673,4.44145 0.38382,-0.211 -0.051,-1.05433 0.25248,-1.38795 3.02238,-3.3231 2.07111,-15.27685 2.52471,-20.26412 0.0854,-0.93894 -0.26269,-2.3539 0.50494,-2.77591 0.87148,-0.47909 0.50494,6.2659 0.50494,6.66218 0,0.27759 0,1.11036 0,0.83277 0,-2.52691 -0.25516,-11.09474 0.25247,-12.76916 0.10973,-0.36194 0.18443,0.73625 0.25248,1.11036 0.19406,1.06686 0.51085,1.96915 0.75741,3.05349 0.67568,2.97164 0.72282,5.92216 1.51483,8.8829 0.33999,1.271 0.7574,5.2111 0.7574,3.88627 0,-2.4521 0.32452,-5.67027 0.75742,-8.05012 0.0867,-0.47663 0.27767,0.37423 0.50494,2.49831 0.22051,2.06083 0.60869,6.90679 1.7673,8.60531 0.98563,1.44492 0.19382,-6.64115 1.51483,-5.55181 0.50305,0.41481 1.51371,7.49863 2.27224,4.99663 2.09746,-6.91844 1.12166,-14.27574 1.7673,-21.37448 0.039,-0.42878 0.609,0.35298 1.26236,2.22072 0.31494,0.90033 2.91278,9.20333 3.02965,9.16049 1.23016,-0.45085 0.82789,-7.21735 1.26236,-7.21735 1.4393,0 1.54808,6.07639 2.01976,7.21735 1.95986,4.74064 2.56654,-2.82358 3.02966,-0.27759 0.0841,0.4621 0.98848,5.29776 1.26236,4.99663 0.34725,-0.38179 0.50494,-8.27188 0.50494,-9.43808 0,-0.72107 0.42126,-1.48462 0.50495,-2.22072 0.29274,-2.57498 -1.16276,-0.49661 -0.25247,-2.49831 0.30027,-0.66032 0.75741,5.31565 0.75741,4.99662 0,-2.15063 -0.25248,-4.25583 -0.25248,-6.38458 0,-0.11193 1.72793,6.58832 2.01978,6.10699 0.48324,-0.79698 0.20725,-2.40727 0.25247,-3.05349 0.35304,-5.04612 1.45425,3.60867 2.77719,3.60867 0.85604,0 -0.43211,-5.50243 0.7574,-5.8294 1.89341,-0.52045 1.88989,6.1784 4.03954,4.99664 0.43247,-0.23775 0.4634,-4.79284 1.26236,-4.44145 1.05907,0.46576 1.86635,2.90443 2.27224,3.88626 0.25112,0.60744 0.73849,2.26235 1.00989,1.66555 0.82285,-1.80945 -0.8229,-6.31258 0.50494,-7.77254 0.77848,-0.85594 2.52471,11.03362 2.52471,4.44145 0,-0.63361 0.14641,-8.4887 0.25247,-8.60531 0.21525,-0.23667 1.16014,4.55383 1.26236,4.44145 1.11343,-1.22421 0.25247,-7.22437 0.25247,-8.8829 0,-0.25129 -0.0587,3.54419 0.50495,4.16386 0.11901,0.13086 0.38592,-0.13086 0.50493,0 1.09046,1.19895 0.0878,14.48295 1.51483,15.26748 0.27528,0.15133 0.86606,-0.54116 1.00989,-0.27759 0.98567,1.80623 0.80567,4.36377 1.00989,6.38459 0.0372,0.36786 -0.23804,1.37208 0,1.11036 0.61174,-0.67261 0.25247,-3.31361 0.25247,-4.16386 0,-0.37012 0,-1.48048 0,-1.11036 0,2.38278 -0.19117,4.92124 0.50494,7.21736 0.13306,0.4389 0,-0.92531 0,-1.38796 0,-0.65535 -0.0987,-3.83205 0.50494,-4.16386 0.22582,-0.12414 0.57889,-0.19629 0.75741,0 0.81432,0.89533 0.5341,3.11761 1.00989,4.16386 0.55531,1.22112 1.7673,2.45906 1.7673,3.88627 0,0.4138 -0.38593,-0.71779 -0.50494,-1.11036"
       id="path3877"
       inkscape:connector-curvature="0" />
    <path
       style="fill:none;stroke:#00c5b7;stroke-width:1.20000005000000010;stroke-linecap:butt;stroke-linejoin:miter;stroke-miterlimit:4;stroke-opacity:1;stroke-dasharray:none"
       d="m 136.76851,279.10973 c 0,0 28.73995,-16.87547 49.41994,-23.46903 20.67999,-6.59357 49.19752,-11.01154 70.35479,-13.58735 21.15727,-2.57581 56.28383,-2.88215 56.28383,-2.88215"
       id="path4810-91"
       inkscape:connector-curvature="0"
       sodipodi:nodetypes="czzc" />
    <path
       style="fill:none;stroke:#d90845;stroke-width:1.20000005000000010;stroke-linecap:butt;stroke-linejoin:miter;stroke-miterlimit:4;stroke-opacity:1;stroke-dasharray:none"
       d="m 136.89147,287.32678 c 0,0 28.73996,16.87548 49.41995,23.46904 20.67998,6.59357 49.19751,11.01154 70.35478,13.58734 21.15728,2.57581 56.28383,2.88216 56.28383,2.88216"
       id="path4810-9-7"
       inkscape:connector-curvature="0"
       sodipodi:nodetypes="czzc" />
    <path
       style="fill:none;stroke:#d90845;stroke-width:1.19999999999999996;stroke-linecap:butt;stroke-linejoin:miter;stroke-opacity:1;stroke-miterlimit:4;stroke-dasharray:none"
       d="m 419.55519,280.12444 c 1.97341,9.07364 11.87048,15.5795 20.6203,17.60653 10.60012,-0.39369 15.05039,8.29089 17.78564,17.02918 4.38588,7.4298 7.8665,20.06989 18.91484,18.26115 10.10629,-5.10492 13.13191,-18.13724 21.64015,-25.37224 6.69539,-5.64743 16.69882,-9.05717 24.50144,-3.4768 8.6715,3.27619 8.52658,15.23588 18.08828,17.23517 10.56116,3.82163 16.7722,-6.3398 23.99053,-10.77534 8.09031,-7.57512 21.90478,-6.82791 29.53806,0.97376 2.24908,1.41021 11.84627,13.65509 8.86878,3.87194"
       id="path3851-8"
       inkscape:connector-curvature="0" />
    <path
       style="fill:none;stroke:#ffffff;stroke-width:1.2;stroke-linecap:butt;stroke-linejoin:miter;stroke-opacity:1;stroke-miterlimit:4;stroke-dasharray:none"
       d="m 419.42061,277.01491 c 0.40103,-2.14725 1.87499,-3.88584 3.28169,-5.23686 0.1525,-0.14647 1.19847,-1.81905 1.26218,-1.74561 1.74948,2.01627 1.40703,6.52461 2.01951,5.81873 0.6913,-0.79674 2.52438,-7.41035 2.52438,-4.94592 0,2.25646 0.18813,4.21033 0.50487,6.4006 0.0969,0.66961 0.58902,2.03655 0,2.03655 -0.49065,0 0.49727,-0.97516 0.75731,-1.45468 0.29917,-0.55167 0.57881,-2.36279 0.75732,-1.74562 0.17313,0.59862 -0.62177,6.69153 -0.25244,6.69153 0.87104,0 1.59644,-3.82326 1.76706,-4.36404 0.0156,-0.0494 1.32586,-4.07311 1.51463,-4.07311 0.50488,0 -0.15966,2.29763 0,1.74562 0.99372,-3.43582 3.00199,-6.503 3.53413,-10.18277 0.40487,-2.7997 0.0568,4.52398 0.25243,4.07311 1.67956,-3.8714 2.26745,-8.78006 4.54388,-11.92839 0.52348,-0.72398 1.27574,-1.28155 1.76707,-2.03656 0.0478,-0.0734 0.83056,-1.6612 1.00975,-1.45468 0.0108,0.0124 -0.64977,8.19969 -0.75731,10.18277 -0.0578,1.06469 -0.41395,4.15444 0,3.2003 0.63114,-1.45479 1.4869,-2.82949 2.01949,-4.36404 0.19766,-0.56948 0.26688,-2.29421 0.50488,-1.74562 0.61775,1.42391 -0.52585,8.8373 0.25244,10.18277 0.85735,1.48217 1.78978,-3.70363 2.0195,-2.90936 0.26387,0.91235 -0.0911,7.44125 1.26219,4.94592 2.43541,-4.49092 3.31988,-11.39793 3.53413,-16.58338 0.0801,-1.93738 -0.15237,-3.88711 0,-5.81872 0.0463,-0.58748 0.25243,-2.33552 0.25243,-1.74562 0,3.65734 -1.32287,10.78663 0.75732,2.90936 0.38886,-1.47257 3.35924,-17.3294 3.78656,-17.16524 0.45518,0.17486 -0.88942,7.20407 0,6.69154 0.53704,-0.30948 1.3532,-1.84378 1.51463,-2.3275 0.78284,-2.34579 1.4802,-8.99919 3.53412,-10.18277 0.29602,-0.17057 0.29962,0.17266 0.50488,0.29094 0.0633,0.0364 0.74542,-0.0548 0.75731,0 0.33039,1.52308 0,4.03321 0,5.52779 0,5.66472 0.19138,11.25728 -0.50487,16.87431 -0.0555,0.44788 -0.30044,2.32033 -0.50488,2.90936 -0.0442,0.12734 -0.2148,0.42105 -0.25244,0.29094 -0.43431,-1.50167 1.06706,-5.91425 1.26219,-6.98248 0.2526,-1.38283 0.49531,-2.65151 0.50488,-2.61842 0.70067,2.42258 -0.16921,8.61785 0,11.05558 0.17699,2.54978 1.19618,3.94773 1.26219,3.49124 0.99939,-6.91088 1.15799,-13.99714 2.01951,-20.94742 0.76345,-6.15926 2.33809,-11.86621 4.039,-17.74712 0.22378,-0.77373 1.11201,-6.28521 2.01949,-6.98247 0.57735,-0.4436 0.46639,1.52901 0.50488,2.32749 0.22331,4.63264 0,9.32337 0,13.96494 0,0.77584 0,1.55167 0,2.3275 0,0.097 0,0.38791 0,0.29093 0,-0.61438 1.97532,-12.51026 2.0195,-12.51026 0.9357,0 0.38794,5.18564 0.25244,10.18277 -0.0419,1.54482 0.0305,17.2355 0.25244,17.74712 0.34928,0.80511 1.38826,-6.40192 2.0195,-0.58188 0.33109,3.05269 -0.26893,8.11771 1.26218,10.76465 0.79475,1.37392 2.63841,-5.79063 3.02926,-6.69154 0.0532,-0.12267 0.16829,-0.38791 0.25244,-0.29093 1.147,1.32192 1.19055,10.86427 1.76706,13.96494 0.18989,1.02131 0.36892,3.64793 1.00975,2.90936 2.23165,-2.57199 1.97485,-8.84152 2.52438,-12.21932 0.10403,-0.63941 0.50488,-2.32749 0.75731,-1.74562 1.76778,4.07477 0.16413,9.99879 1.00976,14.54682 0.10279,0.55293 0.41036,1.85454 0.7573,1.45468 3.02434,-3.48557 2.60454,-12.91976 4.29145,-17.45618 0.48191,-1.29596 1.10164,0.95193 1.51462,0 0.8241,-1.89954 1.01939,-3.82104 1.51463,-5.81873 0.20676,-0.83403 0.59227,-3.04921 1.00975,-2.32749 1.57692,2.72612 0.77446,10.6516 1.00975,13.09214 0.24139,2.50388 0.69667,5.32945 1.00976,7.85528 0.25713,2.07453 1.43701,-7.37416 1.76705,-7.56435 0.31585,-0.182 0.25244,0.49529 0.25244,2.32749 0,2.30424 0.0324,4.69956 0.25244,6.98247 0.31687,3.28671 1.90378,-8.67966 3.02926,-3.49123 0.49176,2.26704 1.73921,14.25588 2.77681,14.25588 1.17202,0 1.02074,-2.46039 1.26219,-3.78217 1.05608,-5.78145 1.27918,-11.71584 2.52438,-17.45618 0.34694,-1.59942 0.66242,-4.88539 2.01949,-4.36405 3.0376,1.16696 2.28062,14.74744 3.53414,15.71056 0.37703,0.2897 0.38811,-0.95007 0.50486,-1.45468 0.37937,-1.63959 2.7196,-16.29243 3.53414,-16.29243 0.68328,0 1.5752,9.29439 1.76706,10.47371 1.24244,7.63695 1.41958,-2.61843 2.0195,-2.61843 0.12941,0 0.7369,5.1085 1.00975,5.52779 0.36755,0.56482 0.3563,-1.35162 0.50488,-2.03656 0.92426,-4.26087 0.14813,0.47299 1.00975,-5.23685 1.24094,-8.22362 3.43358,-15.91585 5.55363,-23.85678 0.54592,-2.04484 0.86343,-4.10833 1.51462,-6.10966 0.10653,-0.3274 0.40893,-1.20453 0.50487,-0.87281 0.6833,2.36251 0.15609,5.70325 0.25244,8.14622 0.046,1.16657 0.15162,2.32925 0.25244,3.49123 0.0675,0.77799 0.18494,1.54951 0.25244,2.32749 0.0168,0.193 0,0.77583 0,0.58188 0,-7.54432 0.42119,-11.81633 0.75731,-0.58188 0.10922,3.65037 0.5821,7.12974 0.75732,10.76465 0.11056,2.29346 -0.2271,4.0439 0.25244,3.49123 0.49857,-0.57461 0.0788,-4.81792 0.25243,-5.81872 0.0522,-0.30072 0.13344,-1.14711 0.25244,-0.87281 0.26609,0.61335 0.19323,1.35421 0.25244,2.03655 0.48659,5.60805 0.72259,11.27733 1.26219,16.87431 0.57526,5.9669 0.45438,0.5817 0.7573,5.81873 0.0791,1.36641 -0.83965,3.78217 0,3.78217 0.12937,0 0.47918,9.04865 1.2622,8.14622 4.04281,-4.65938 1.68346,-16.32581 4.54387,-21.82023 0.3699,-0.71051 0.69223,1.50231 0.75732,2.32749 0.32445,4.1133 -0.70278,9.82898 0.50487,8.43716 0.68758,-0.79243 0.54973,-4.45122 0.75732,-5.5278 0.15301,-0.79356 1.70158,-8.65262 2.27194,-9.30996 0.59797,-0.68916 -0.59322,2.90937 0.25244,2.90937 0.13806,0 0.38121,-1.34759 0.50487,-3.2003 0.0856,-1.28248 -0.13612,-7.11653 0.75731,-8.14622 0.71536,-0.82446 0.98218,8.03865 1.26219,8.14622 1.33985,0.51472 1.75576,-1.50391 2.0195,-2.61843 0.78781,-3.32915 1.4681,-7.02819 1.76707,-10.47371 0.0287,-0.33092 -0.1118,-2.62951 0.25244,-2.90936 1.00439,-0.77171 1.61265,12.83223 1.76706,14.25588 0.0217,0.2005 -0.0946,5.29134 0.50487,4.94592 0.65654,-0.37833 0.25244,-6.2889 0.25244,-6.4006 0,-0.29094 -0.14002,-1.11489 0,-0.87281 1.97128,3.40785 1.19052,16.20982 3.28169,18.61992 0.59797,0.68917 0.20799,-1.93609 0.25244,-2.90936 0.31338,-6.86236 0.25243,-0.0364 0.25243,-5.52779 0,-0.29094 -0.21003,-1.03419 0,-0.87281 2.75998,2.1206 0.89618,9.23142 3.53414,11.05558 0.34286,0.23709 0.64473,-0.54247 0.75731,-2.61842 0.14977,-2.76169 0.67122,-5.1242 1.00974,-7.85529 0.0595,-0.48002 -0.25242,-1.8426 0,-1.45468 1.71246,2.6315 1.01522,6.99296 2.52439,9.89184 0.45198,0.8682 0.67402,-1.90144 0.75731,-2.90937 0.17285,-2.09178 -0.37468,-16.44248 0.50488,-17.45618 0.85921,-0.99025 1.3881,3.09165 2.52437,1.45468 0.36025,-0.51898 1.51747,-5.41987 2.0195,-3.49123 0.80146,3.07895 0.43336,6.83781 2.27195,9.30996 0.15488,0.20826 0.39843,0.82721 0.50487,0.58188 0.63973,-1.47459 -0.053,-3.29841 0,-4.94592 0.05,-1.55363 0.19628,-3.10164 0.25243,-4.65498 0.30336,-8.39105 3.13348,6.49668 4.29145,7.56434 0.36762,0.33895 1.64861,-6.81149 2.01949,-6.98247 1.833,-0.84502 2.09142,9.28233 3.53414,8.72809 0.98741,-0.37934 0.46362,-2.34042 0.75731,-3.49124 0.45727,-1.79184 1.18663,-2.47397 1.51462,-4.36404 0.16472,-0.94916 -0.26067,-2.02232 0.25244,-2.90937 1.26733,-2.1909 2.08163,11.35104 3.28169,5.81873 0.84029,-3.87378 1.34555,-7.75381 2.0195,-11.63745 0.30012,-1.72944 2.22932,-2.47487 2.77682,-0.58188"
       id="path3873"
       inkscape:connector-curvature="0" />
    <path
       style="fill:none;stroke:#00c5b7;stroke-width:1.19999999999999996;stroke-linecap:butt;stroke-linejoin:miter;stroke-opacity:1;stroke-miterlimit:4;stroke-dasharray:none"
       d="m 419.91737,273.79691 c 1.97341,-9.07364 11.87048,-15.5795 20.6203,-17.60653 10.60012,0.39369 15.05039,-8.29089 17.78564,-17.02918 4.38588,-7.4298 7.8665,-20.06988 18.91484,-18.26114 10.10629,5.10492 13.13191,18.13723 21.64015,25.37223 6.69539,5.64744 16.69882,9.05717 24.50144,3.4768 8.6715,-3.27619 8.52658,-15.23588 18.08828,-17.23517 10.56116,-3.82162 16.7722,6.3398 23.99053,10.77534 8.09031,7.57513 21.90478,6.82791 29.53806,-0.97376 2.24908,-1.41021 11.84627,-13.65508 8.86878,-3.87193"
       id="path3851"
       inkscape:connector-curvature="0" />
    <path
       style="fill:none;stroke:#ffffff;stroke-width:2.11593031999999992;stroke-linecap:butt;stroke-linejoin:miter;stroke-miterlimit:4;stroke-opacity:1;stroke-dasharray:none;marker-end:url(#Arrow2Mend)"
       d="m 603.92968,370.98769 0,-200.25769"
       id="path3055"
       inkscape:connector-curvature="0" />
    <path
       style="fill:none;stroke:#ffffff;stroke-width:2.11593031999999992;stroke-linecap:butt;stroke-linejoin:miter;stroke-miterlimit:4;stroke-opacity:1;stroke-dasharray:none;marker-end:url(#Arrow2Mend)"
       d="m 312.66248,371.02125 0,-200.25769"
       id="path3055-1"
       inkscape:connector-curvature="0" />
  </g>
</svg>
