<?xml version="1.0" encoding="UTF-8" standalone="no"?>
<!-- Created with Inkscape (http://www.inkscape.org/) -->

<svg
   xmlns:dc="http://purl.org/dc/elements/1.1/"
   xmlns:cc="http://creativecommons.org/ns#"
   xmlns:rdf="http://www.w3.org/1999/02/22-rdf-syntax-ns#"
   xmlns:svg="http://www.w3.org/2000/svg"
   xmlns="http://www.w3.org/2000/svg"
   xmlns:sodipodi="http://sodipodi.sourceforge.net/DTD/sodipodi-0.dtd"
   xmlns:inkscape="http://www.inkscape.org/namespaces/inkscape"
   width="494.88028"
   height="76.889999"
   id="svg2"
   version="1.1"
   inkscape:version="0.48.4 r9939"
   sodipodi:docname="sigmaDeficiency.svg">
  <defs
     id="defs4">
    <marker
       inkscape:stockid="Arrow2Mend"
       orient="auto"
       refY="0"
       refX="0"
       id="Arrow2Mend"
       style="overflow:visible">
      <path
         inkscape:connector-curvature="0"
         id="path3788"
         style="fill-rule:evenodd;stroke-width:0.625;stroke-linejoin:round"
         d="M 8.7185878,4.0337352 -2.2072895,0.01601326 8.7185884,-4.0017078 c -1.7454984,2.3720609 -1.7354408,5.6174519 -6e-7,8.035443 z"
         transform="scale(-0.6,-0.6)" />
    </marker>
    <marker
       inkscape:stockid="Arrow2Mend"
       orient="auto"
       refY="0"
       refX="0"
       id="marker3011"
       style="overflow:visible">
      <path
         inkscape:connector-curvature="0"
         id="path3013"
         style="fill-rule:evenodd;stroke-width:0.625;stroke-linejoin:round"
         d="M 8.7185878,4.0337352 -2.2072895,0.01601326 8.7185884,-4.0017078 c -1.7454984,2.3720609 -1.7354408,5.6174519 -6e-7,8.035443 z"
         transform="scale(-0.6,-0.6)" />
    </marker>
  </defs>
  <sodipodi:namedview
     id="base"
     pagecolor="#ffffff"
     bordercolor="#666666"
     borderopacity="1.0"
     inkscape:pageopacity="0.0"
     inkscape:pageshadow="2"
     inkscape:zoom="1.979899"
     inkscape:cx="76.176567"
     inkscape:cy="-35.2076"
     inkscape:document-units="px"
     inkscape:current-layer="layer1"
     showgrid="false"
     inkscape:window-width="1366"
     inkscape:window-height="744"
     inkscape:window-x="0"
     inkscape:window-y="24"
     inkscape:window-maximized="1"
     fit-margin-top="0"
     fit-margin-left="0"
     fit-margin-right="0"
     fit-margin-bottom="0" />
  <metadata
     id="metadata7">
    <rdf:RDF>
      <cc:Work
         rdf:about="">
        <dc:format>image/svg+xml</dc:format>
        <dc:type
           rdf:resource="http://purl.org/dc/dcmitype/StillImage" />
        <dc:title />
      </cc:Work>
    </rdf:RDF>
  </metadata>
  <g
     inkscape:label="Layer 1"
     inkscape:groupmode="layer"
     id="layer1"
     transform="translate(-15.199523,-40.437846)">
    <path
       style="fill:none;stroke:#ffffff;stroke-width:2;stroke-linecap:butt;stroke-linejoin:miter;stroke-miterlimit:4;stroke-opacity:1;stroke-dasharray:none;marker-end:url(#Arrow2Mend)"
       d="m 16.199523,110.44668 c 1.66742,0.66697 194.087947,-1.00046 194.087947,-1.00046"
       id="path2985"
       inkscape:connector-curvature="0" />
    <g
       transform="matrix(2.5611448,0,0,2.5611448,-106.08135,-302.45071)"
       style="font-size:8px;font-style:normal;font-variant:normal;font-weight:normal;font-stretch:normal;text-align:start;line-height:125%;letter-spacing:0px;word-spacing:0px;writing-mode:lr-tb;text-anchor:start;fill:#00c5b8;fill-opacity:0.9372549;stroke:none;font-family:Times New Roman;-inkscape-font-specification:'Times New Roman,'"
       id="flowRoot4483">
      <path
         d="m 130.08984,160.21431 -2.24218,0 c -0.008,0.10938 -0.0117,0.21745 -0.0117,0.32422 l 2.15625,0 -0.0898,0.30469 -2.05859,0 c 0.0208,0.54948 0.13021,1.00781 0.32812,1.375 0.23177,0.42708 0.54427,0.64062 0.9375,0.64062 0.34896,0 0.64063,-0.0898 0.875,-0.26953 0.14063,-0.10677 0.31901,-0.30989 0.53516,-0.60937 l 0.12109,0.0781 c -0.22396,0.35417 -0.42708,0.60677 -0.60937,0.75782 -0.29948,0.24739 -0.65886,0.37109 -1.07813,0.37109 -0.59895,0 -1.0625,-0.2487 -1.39062,-0.74609 -0.26823,-0.40625 -0.42708,-0.93881 -0.47656,-1.59766 l -0.39453,0 0.0898,-0.30469 0.28906,0 0,-0.0625 c 0,-0.0781 0.003,-0.16536 0.008,-0.26172 l -0.38672,0 0.0898,-0.30468 0.32813,0 c 0.0885,-0.61719 0.29947,-1.1263 0.63281,-1.52735 0.38281,-0.46353 0.87239,-0.69531 1.46875,-0.69531 0.44531,0 0.88802,0.11459 1.32812,0.34375 l 0,1.16797 -0.15234,0 c -0.0677,-0.83593 -0.45964,-1.2539 -1.17578,-1.25391 -0.41146,1e-5 -0.73698,0.21745 -0.97657,0.65235 -0.18489,0.33854 -0.30599,0.77604 -0.36328,1.3125 l 2.3086,0 -0.0898,0.30468"
         style="fill:#00c5b8;fill-opacity:0.9372549"
         id="path3021"
         inkscape:connector-curvature="0" />
    </g>
    <path
       style="fill:none;stroke:#ffffff;stroke-width:2;stroke-linecap:butt;stroke-linejoin:miter;stroke-miterlimit:4;stroke-opacity:1;stroke-dasharray:none;marker-end:url(#Arrow2Mend)"
       d="m 297.77095,111.16097 c 1.66742,0.66697 194.08795,-1.00045 194.08795,-1.00045"
       id="path2985-0"
       inkscape:connector-curvature="0" />
    <g
       transform="matrix(2.5611448,0,0,2.5611448,175.49008,-301.73642)"
       style="font-size:8px;font-style:normal;font-variant:normal;font-weight:normal;font-stretch:normal;text-align:start;line-height:125%;letter-spacing:0px;word-spacing:0px;writing-mode:lr-tb;text-anchor:start;fill:#00c5b7;fill-opacity:1;stroke:none;font-family:Times New Roman;-inkscape-font-specification:'Times New Roman,'"
       id="flowRoot4483-3">
      <path
         d="m 130.08984,160.21431 -2.24218,0 c -0.008,0.10938 -0.0117,0.21745 -0.0117,0.32422 l 2.15625,0 -0.0898,0.30469 -2.05859,0 c 0.0208,0.54948 0.13021,1.00781 0.32812,1.375 0.23177,0.42708 0.54427,0.64062 0.9375,0.64062 0.34896,0 0.64063,-0.0898 0.875,-0.26953 0.14063,-0.10677 0.31901,-0.30989 0.53516,-0.60937 l 0.12109,0.0781 c -0.22396,0.35417 -0.42708,0.60677 -0.60937,0.75782 -0.29948,0.24739 -0.65886,0.37109 -1.07813,0.37109 -0.59895,0 -1.0625,-0.2487 -1.39062,-0.74609 -0.26823,-0.40625 -0.42708,-0.93881 -0.47656,-1.59766 l -0.39453,0 0.0898,-0.30469 0.28906,0 0,-0.0625 c 0,-0.0781 0.003,-0.16536 0.008,-0.26172 l -0.38672,0 0.0898,-0.30468 0.32813,0 c 0.0885,-0.61719 0.29947,-1.1263 0.63281,-1.52735 0.38281,-0.46353 0.87239,-0.69531 1.46875,-0.69531 0.44531,0 0.88802,0.11459 1.32812,0.34375 l 0,1.16797 -0.15234,0 c -0.0677,-0.83593 -0.45964,-1.2539 -1.17578,-1.25391 -0.41146,1e-5 -0.73698,0.21745 -0.97657,0.65235 -0.18489,0.33854 -0.30599,0.77604 -0.36328,1.3125 l 2.3086,0 -0.0898,0.30468"
         style="fill:#00c5b7;fill-opacity:1"
         id="path3018"
         inkscape:connector-curvature="0" />
    </g>
    <path
       style="fill:none;stroke:#ffffff;stroke-width:2;stroke-linecap:butt;stroke-linejoin:miter;stroke-miterlimit:4;stroke-opacity:1;stroke-dasharray:none"
       d="m 110.34007,104.71107 c 0,10.60662 0,10.60662 0,10.60662"
       id="path8465"
       inkscape:connector-curvature="0" />
    <path
       style="fill:none;stroke:#ffffff;stroke-width:2;stroke-linecap:butt;stroke-linejoin:miter;stroke-miterlimit:4;stroke-opacity:1;stroke-dasharray:none"
       d="m 396.19771,105.72123 c 0,10.60662 0,10.60662 0,10.60662"
       id="path8465-2"
       inkscape:connector-curvature="0" />
    <path
       style="fill:none;stroke:#00c5b7;stroke-width:1.79510927;stroke-linecap:butt;stroke-linejoin:miter;stroke-miterlimit:4;stroke-opacity:1;stroke-dasharray:none"
       d="m 476.7758,108.27763 c -12.18446,-2.6e-4 -25.9417,-2.50915 -37.03165,-9.987216 C 428.65421,90.812347 422.6739,85.007929 413.7557,74.440703 404.83751,63.873487 395.95106,47.003964 386.81328,46.049007 c -9.13779,-0.954958 -8.38678,7.945549 -9.61128,16.676509 -1.22449,8.730948 -2.01693,22.900712 -9.17174,31.186984 -7.1548,8.28627 -23.19672,14.99402 -28.53463,15.25794"
       id="path3062"
       inkscape:connector-curvature="0"
       sodipodi:nodetypes="czzzzzc" />
    <path
       style="fill:none;stroke:#00c5b7;stroke-width:1.79510927;stroke-linecap:butt;stroke-linejoin:miter;stroke-miterlimit:4;stroke-opacity:1;stroke-dasharray:none"
       d="m 30.541026,108.92759 c 12.18446,-2.6e-4 25.941712,-1.43771 37.745936,-9.987204 C 80.091185,90.390887 84.285781,83.872183 93.203981,73.304957 102.12217,62.737741 111.00862,45.868218 120.1464,44.913261 c 9.13779,-0.954958 8.38678,7.945549 9.61128,16.676509 1.22449,8.730948 2.01693,22.900712 9.17174,31.186984 7.1548,8.286266 23.19672,14.994016 28.53463,15.257936"
       id="path3062-4"
       inkscape:connector-curvature="0"
       sodipodi:nodetypes="czzzzzc" />
    <g
       style="font-size:33.09859467px;font-style:normal;font-variant:normal;font-weight:normal;font-stretch:normal;text-align:start;line-height:125%;letter-spacing:0px;word-spacing:0px;writing-mode:lr-tb;text-anchor:start;fill:#00c5b7;fill-opacity:0.98232404;stroke:none;font-family:Times New Roman;-inkscape-font-specification:'Times New Roman,'"
       id="text3060">
      <path
         d="m 245.77127,59.719971 0,2.359567 -6.30296,0 c 1.3791,0.786535 2.50501,1.783155 3.37774,2.989864 0.8727,1.195953 1.30906,2.467317 1.30908,3.814096 -2e-5,1.756211 -0.69496,3.210738 -2.08483,4.363584 -1.37912,1.152848 -2.94677,1.729272 -4.70297,1.729272 -2.07945,0 -3.87336,-0.813458 -5.38176,-2.440375 -1.5084,-1.637687 -2.2626,-3.539346 -2.2626,-5.704982 0,-1.529939 0.39326,-2.88211 1.17979,-4.056517 0.79729,-1.174384 1.71849,-1.977067 2.7636,-2.408052 1.05588,-0.430957 2.47808,-0.646443 4.26662,-0.646457 l 7.83829,0 m -7.38577,2.359567 -0.56565,0 c -1.61615,1.3e-5 -2.90907,0.404048 -3.87874,1.212107 -0.95892,0.797307 -1.43837,2.05251 -1.43837,3.765612 0,1.820859 0.50639,3.431613 1.51917,4.832265 1.01278,1.389884 2.19795,2.084824 3.55552,2.084824 1.08819,0 1.98784,-0.522552 2.69895,-1.567658 0.71109,-1.055877 1.06664,-2.327241 1.06666,-3.814096 -2e-5,-2.35956 -0.98586,-4.530575 -2.95754,-6.513054"
         id="path3118"
         inkscape:connector-curvature="0" />
    </g>
    <g
       style="font-size:33.09859467px;font-style:normal;font-variant:normal;font-weight:normal;font-stretch:normal;text-align:start;line-height:125%;letter-spacing:0px;word-spacing:0px;writing-mode:lr-tb;text-anchor:start;fill:#00c5b7;fill-opacity:0.98232404;stroke:none;font-family:Times New Roman;-inkscape-font-specification:'Times New Roman,'"
       id="text3060-4">
      <path
         d="m 287.14254,59.719971 0,2.359567 -6.30295,0 c 1.3791,0.786535 2.50501,1.783155 3.37774,2.989864 0.8727,1.195953 1.30906,2.467317 1.30907,3.814096 -1e-5,1.756211 -0.69495,3.210738 -2.08482,4.363584 -1.37912,1.152848 -2.94678,1.729272 -4.70298,1.729272 -2.07944,0 -3.87335,-0.813458 -5.38175,-2.440375 -1.5084,-1.637687 -2.2626,-3.539346 -2.2626,-5.704982 0,-1.529939 0.39326,-2.88211 1.17979,-4.056517 0.79729,-1.174384 1.71849,-1.977067 2.7636,-2.408052 1.05587,-0.430957 2.47808,-0.646443 4.26661,-0.646457 l 7.83829,0 m -7.38577,2.359567 -0.56565,0 c -1.61615,1.3e-5 -2.90906,0.404048 -3.87874,1.212107 -0.95891,0.797307 -1.43837,2.05251 -1.43836,3.765612 -10e-6,1.820859 0.50638,3.431613 1.51917,4.832265 1.01278,1.389884 2.19795,2.084824 3.55551,2.084824 1.0882,0 1.98785,-0.522552 2.69896,-1.567658 0.71109,-1.055877 1.06664,-2.327241 1.06665,-3.814096 -1e-5,-2.35956 -0.98585,-4.530575 -2.95754,-6.513054"
         id="path3115"
         inkscape:connector-curvature="0" />
    </g>
    <g
       transform="matrix(1.3706571,0,0,1.3706571,-96.417709,-66.905427)"
       style="font-size:8px;font-style:normal;font-variant:normal;font-weight:normal;font-stretch:normal;text-align:start;line-height:125%;letter-spacing:0px;word-spacing:0px;writing-mode:lr-tb;text-anchor:start;fill:#00c5b7;fill-opacity:0.98232404;stroke:none;font-family:Times New Roman;-inkscape-font-specification:'Times New Roman,'"
       id="flowRoot3085">
      <path
         d="m 249.15625,100.69088 1.28906,-0.62891 0.12891,0 0,4.47266 c 0,0.29687 0.0117,0.48177 0.0352,0.55468 0.026,0.0729 0.0781,0.12891 0.15625,0.16797 0.0781,0.0391 0.23698,0.0612 0.47657,0.0664 l 0,0.14453 -1.99219,0 0,-0.14453 c 0.25,-0.005 0.41146,-0.026 0.48437,-0.0625 0.0729,-0.0391 0.1237,-0.0898 0.15235,-0.15235 0.0286,-0.0651 0.043,-0.25651 0.043,-0.57421 l 0,-2.85938 c 0,-0.38541 -0.013,-0.63281 -0.0391,-0.74219 -0.0182,-0.0833 -0.0521,-0.14452 -0.10156,-0.18359 -0.0469,-0.0391 -0.10417,-0.0586 -0.17187,-0.0586 -0.0964,0 -0.23047,0.0404 -0.40235,0.12109 l -0.0586,-0.12109"
         id="path3112"
         inkscape:connector-curvature="0" />
    </g>
    <g
       transform="matrix(1.3112699,0,0,1.3112699,-71.877474,-42.857864)"
       style="font-size:8px;font-style:normal;font-variant:normal;font-weight:normal;font-stretch:normal;text-align:start;line-height:125%;letter-spacing:0px;word-spacing:0px;writing-mode:lr-tb;text-anchor:start;fill:#00c5b7;fill-opacity:0.98232404;stroke:none;font-family:Times New Roman;-inkscape-font-specification:'Times New Roman,'"
       id="flowRoot3093">
      <path
         d="m 276.51172,90.886188 -0.3711,1.019531 -3.125,0 0,-0.144531 c 0.91927,-0.838541 1.56641,-1.523436 1.94141,-2.054688 0.375,-0.531247 0.5625,-1.016923 0.5625,-1.457031 0,-0.335933 -0.10287,-0.611975 -0.30859,-0.828125 -0.20573,-0.216141 -0.45183,-0.324214 -0.73828,-0.324219 -0.26042,5e-6 -0.4948,0.07683 -0.70313,0.230469 -0.20573,0.151046 -0.35807,0.373702 -0.45703,0.667969 l -0.14453,0 c 0.0651,-0.481766 0.23177,-0.851558 0.5,-1.109375 0.27083,-0.257807 0.60807,-0.386713 1.01172,-0.386719 0.42968,6e-6 0.78776,0.138026 1.07422,0.414063 0.28906,0.276046 0.43359,0.601567 0.43359,0.976562 0,0.268233 -0.0625,0.536462 -0.1875,0.804688 -0.19271,0.421878 -0.50521,0.868492 -0.9375,1.339843 -0.64844,0.708335 -1.05339,1.135418 -1.21484,1.28125 l 1.38281,0 c 0.28125,10e-7 0.47786,-0.01042 0.58984,-0.03125 0.11458,-0.02083 0.21745,-0.0625 0.3086,-0.125 0.0911,-0.0651 0.17057,-0.156249 0.23828,-0.273437 l 0.14453,0"
         id="path3109"
         inkscape:connector-curvature="0" />
    </g>
    <g
       style="font-size:24.79257965px;font-style:normal;font-variant:normal;font-weight:normal;font-stretch:normal;text-align:start;line-height:125%;letter-spacing:0px;word-spacing:0px;writing-mode:lr-tb;text-anchor:start;fill:#00c5b7;fill-opacity:0.98232404;stroke:none;font-family:Times New Roman;-inkscape-font-specification:'Times New Roman,'"
       id="text3101">
      <path
         d="m 252.88709,65.424314 13.06211,0 0,0.992672 -13.06211,0 0,-0.992672 m 0,3.946475 13.06211,0 0,0.992672 -13.06211,0 0,-0.992672"
         id="path3106"
         inkscape:connector-curvature="0" />
    </g>
  </g>
</svg>
