<?xml version="1.0" encoding="UTF-8" standalone="no"?>
<!-- Created with Inkscape (http://www.inkscape.org/) -->

<svg
   xmlns:dc="http://purl.org/dc/elements/1.1/"
   xmlns:cc="http://creativecommons.org/ns#"
   xmlns:rdf="http://www.w3.org/1999/02/22-rdf-syntax-ns#"
   xmlns:svg="http://www.w3.org/2000/svg"
   xmlns="http://www.w3.org/2000/svg"
   xmlns:sodipodi="http://sodipodi.sourceforge.net/DTD/sodipodi-0.dtd"
   xmlns:inkscape="http://www.inkscape.org/namespaces/inkscape"
   width="788.69818"
   height="380.70956"
   id="svg3157"
   version="1.1"
   inkscape:version="0.48.4 r9939"
   sodipodi:docname="univar_model.svg">
  <sodipodi:namedview
     id="base"
     pagecolor="#ffffff"
     bordercolor="#666666"
     borderopacity="1.0"
     inkscape:pageopacity="0.0"
     inkscape:pageshadow="2"
     inkscape:zoom="3.959798"
     inkscape:cx="640.85353"
     inkscape:cy="32.734121"
     inkscape:document-units="px"
     inkscape:current-layer="g3317"
     showgrid="false"
     inkscape:window-width="1920"
     inkscape:window-height="1056"
     inkscape:window-x="0"
     inkscape:window-y="24"
     inkscape:window-maximized="1"
     fit-margin-top="0"
     fit-margin-left="0"
     fit-margin-right="0"
     fit-margin-bottom="0" />
  <defs
     id="defs3159">
    <marker
       inkscape:stockid="Arrow2Mend"
       orient="auto"
       refY="0"
       refX="0"
       id="Arrow2Mend"
       style="overflow:visible">
      <path
         inkscape:connector-curvature="0"
         id="path3788"
         style="fill-rule:evenodd;stroke-width:0.625;stroke-linejoin:round"
         d="M 8.7185878,4.0337352 -2.2072895,0.01601326 8.7185884,-4.0017078 c -1.7454984,2.3720609 -1.7354408,5.6174519 -6e-7,8.035443 z"
         transform="scale(-0.6,-0.6)" />
    </marker>
  </defs>
  <metadata
     id="metadata3162">
    <rdf:RDF>
      <cc:Work
         rdf:about="">
        <dc:format>image/svg+xml</dc:format>
        <dc:type
           rdf:resource="http://purl.org/dc/dcmitype/StillImage" />
        <dc:title />
      </cc:Work>
    </rdf:RDF>
  </metadata>
  <g
     inkscape:label="Layer 1"
     inkscape:groupmode="layer"
     id="layer1"
     transform="translate(-12.869422,-11.227075)">
    <g
       id="g3317"
       transform="matrix(0.55669443,0,0,0.55669443,-258.01545,-190.74123)">
      <g
         word-spacing="normal"
         letter-spacing="normal"
         font-size-adjust="none"
         font-stretch="normal"
         font-weight="normal"
         font-variant="normal"
         font-style="normal"
         stroke-miterlimit="10.433"
         xml:space="preserve"
         transform="matrix(1.0629921,0,0,-1.0629921,-186.02362,789.27165)"
         id="g3319"
         style="font-style:normal;font-variant:normal;font-weight:normal;font-stretch:normal;letter-spacing:normal;word-spacing:normal;text-anchor:start;fill:#00c5b7;fill-opacity:0.72701685;stroke:#000000;stroke-linecap:butt;stroke-linejoin:miter;stroke-miterlimit:10.43299961;stroke-opacity:1;stroke-dasharray:none;stroke-dashoffset:0"><path
           id="path3321"
           d="m 654.34,239.49 0.02,0.11 0.03,0.11 0.02,0.11 0.03,0.11 0.03,0.12 0.03,0.12 0.06,0.25 0.06,0.25 0.06,0.25 0.06,0.25 0.06,0.24 0.03,0.12 0.03,0.11 0.03,0.11 0.02,0.11 0.03,0.11 0.02,0.1 0.02,0.09 0.02,0.09 0.02,0.08 0.02,0.08 0.01,0.07 0.01,0.07 0.01,0.05 0.01,0.05 0,0.04 0.01,0.04 c 0,0.9 -0.71,1.34 -1.46,1.34 -0.59,0 -1.48,-0.39 -1.83,-1.39 -0.15,-0.34 -2.5,-9.86 -2.84,-11.16 -0.36,-1.5 -0.45,-2.39 -0.45,-3.29 0,-0.55 0,-0.64 0.04,-0.89 -1.14,-2.64 -2.64,-4.19 -4.57,-4.19 -3.99,0 -3.99,3.69 -3.99,4.53 0,1.59 0.25,3.55 2.6,9.67 0.54,1.49 0.84,2.19 0.84,3.19 0,2.23 -1.64,4.08 -4.09,4.08 -4.74,0 -6.58,-7.22 -6.58,-7.67 0,-0.5 0.5,-0.5 0.61,-0.5 0.5,0 0.54,0.1 0.79,0.9 1.35,4.63 3.29,6.17 5.04,6.17 0.43,0 1.25,-0.04 1.25,-1.64 0,-1.25 -0.57,-2.64 -0.91,-3.48 -2.19,-5.88 -2.78,-8.17 -2.78,-10.06 0,-4.54 3.33,-6.29 7.06,-6.29 0.86,0 3.19,0 5.19,3.49 1.29,-3.19 4.73,-3.49 6.23,-3.49 3.74,0 5.92,3.15 7.22,6.13 1.69,3.89 3.28,10.56 3.28,12.95 0,2.75 -1.34,3.49 -2.19,3.49 -1.25,0 -2.48,-1.3 -2.48,-2.39 0,-0.64 0.3,-0.94 0.73,-1.35 0.55,-0.54 1.8,-1.84 1.8,-4.23 0,-1.69 -1.44,-6.58 -2.73,-9.11 -1.3,-2.64 -3.05,-4.39 -5.49,-4.39 -2.34,0 -3.68,1.5 -3.68,4.33 0,1.4 0.34,2.95 0.54,3.64 z"
           inkscape:connector-curvature="0"
           style="fill:#00c5b7;fill-opacity:0.72701685;stroke-width:0" /><path
           id="path3323"
           d="m 678.63,237.32 0,0.04 0,0.04 0,0.04 0,0.04 0,0.04 0,0.04 0,0.04 0,0.03 0,0.04 0,0.03 -0.01,0.03 0,0.03 0,0.03 -0.01,0.03 0,0.03 0,0.02 -0.01,0.03 0,0.02 -0.01,0.02 0,0.03 -0.01,0.04 -0.02,0.04 -0.02,0.03 -0.02,0.03 -0.02,0.03 -0.02,0.03 -0.03,0.02 -0.03,0.02 -0.03,0.02 -0.04,0.01 -0.04,0.01 -0.05,0.01 -0.04,0.01 -0.03,0.01 -0.03,0 -0.02,0 -0.03,0.01 -0.03,0 -0.03,0 -0.03,0 -0.04,0.01 -0.03,0 -0.04,0 -0.03,0 -0.04,0 -0.04,0 -0.04,0 -0.04,0 -0.04,0 -0.05,0 -0.04,0 c -2.24,-2.2 -5.39,-2.23 -6.83,-2.23 v -1.25 c 0.84,0 3.14,0 5.04,0.97 v -17.77 c 0,-1.16 0,-1.61 -3.48,-1.61 h -1.31 v -1.25 c 0.62,0.03 4.9,0.14 6.2,0.14 1.08,0 5.47,-0.11 6.24,-0.14 v 1.25 h -1.33 c -3.49,0 -3.49,0.45 -3.49,1.61 z"
           inkscape:connector-curvature="0"
           style="fill:#00c5b7;fill-opacity:0.72701685;stroke-width:0" /><polygon
           id="polygon3325"
           points="730.39,399.38 713.79,399.38 713.79,309.75 717.23,309.75 717.23,395.94 730.39,395.94 "
           style="fill:#00c5b7;fill-opacity:0.72701685;stroke-width:0" /><polygon
           id="polygon3327"
           points="717.23,309.77 713.79,309.77 713.79,279.78 717.23,279.78 "
           style="fill:#00c5b7;fill-opacity:0.72701685;stroke-width:0" /><polygon
           id="polygon3329"
           points="717.23,279.89 713.79,279.89 713.79,249.9 717.23,249.9 "
           style="fill:#00c5b7;fill-opacity:0.72701685;stroke-width:0" /><polygon
           id="polygon3331"
           points="717.23,250.01 713.79,250.01 713.79,220.02 717.23,220.02 "
           style="fill:#00c5b7;fill-opacity:0.72701685;stroke-width:0" /><polygon
           id="polygon3333"
           points="717.23,220.12 713.79,220.12 713.79,190.14 717.23,190.14 "
           style="fill:#00c5b7;fill-opacity:0.72701685;stroke-width:0" /><polygon
           id="polygon3335"
           points="717.23,190.25 713.79,190.25 713.79,160.26 717.23,160.26 "
           style="fill:#00c5b7;fill-opacity:0.72701685;stroke-width:0" /><polygon
           id="polygon3337"
           points="717.23,160.4 713.79,160.4 713.79,70.758 730.39,70.758 730.39,74.195 717.23,74.195 "
           style="fill:#00c5b7;fill-opacity:0.72701685;stroke-width:0" /><path
           id="path3339"
           d="m 764.47,362.22 -0.02,-0.07 -0.01,-0.08 -0.02,-0.07 -0.02,-0.08 -0.03,-0.16 -0.04,-0.16 -0.04,-0.16 -0.03,-0.16 -0.04,-0.16 -0.04,-0.16 -0.01,-0.08 -0.02,-0.07 -0.02,-0.07 -0.01,-0.07 -0.02,-0.07 -0.01,-0.07 -0.01,-0.06 -0.02,-0.06 -0.01,-0.05 -0.01,-0.06 0,-0.04 -0.01,-0.05 -0.01,-0.04 0,-0.03 0,-0.04 0,-0.02 c 0,-0.89 0.7,-1.35 1.43,-1.35 0.61,0 1.5,0.39 1.85,1.39 0.11,0.21 1.79,6.99 2,7.88 0.39,1.64 1.29,5.12 1.59,6.48 0.2,0.64 1.59,2.99 2.78,4.08 0.41,0.35 1.85,1.64 4,1.64 1.28,0 2.03,-0.59 2.08,-0.59 -1.48,-0.25 -2.58,-1.45 -2.58,-2.73 0,-0.8 0.55,-1.76 1.89,-1.76 1.35,0 2.74,1.15 2.74,2.94 0,1.75 -1.6,3.24 -4.13,3.24 -3.25,0 -5.44,-2.44 -6.39,-3.83 -0.39,2.23 -2.19,3.83 -4.53,3.83 -2.28,0 -3.23,-1.94 -3.69,-2.83 -0.89,-1.7 -1.54,-4.69 -1.54,-4.85 0,-0.5 0.5,-0.5 0.6,-0.5 0.5,0 0.55,0.07 0.85,1.16 0.84,3.53 1.84,5.92 3.64,5.92 0.84,0 1.55,-0.39 1.55,-2.28 0,-1.04 -0.16,-1.61 -0.8,-4.19 z"
           inkscape:connector-curvature="0"
           style="fill:#00c5b7;fill-opacity:0.72701685;stroke-width:0" /><path
           id="path3341"
           d="m 795.63,399.44 0,0.04 0,0.04 0,0.05 0,0.04 0,0.03 0,0.04 0,0.04 0,0.03 0,0.04 0,0.03 -0.01,0.03 0,0.03 0,0.03 -0.01,0.03 0,0.03 0,0.02 -0.01,0.03 0,0.02 -0.01,0.03 0,0.02 -0.01,0.04 -0.02,0.04 -0.02,0.03 -0.02,0.03 -0.02,0.03 -0.02,0.03 -0.03,0.02 -0.03,0.02 -0.03,0.02 -0.04,0.01 -0.04,0.01 -0.05,0.02 -0.02,0 -0.02,0 -0.03,0.01 -0.03,0 -0.02,0.01 -0.03,0 -0.03,0 -0.03,0 -0.03,0 -0.04,0.01 -0.03,0 -0.04,0 -0.03,0 -0.04,0 -0.04,0 -0.04,0 -0.04,0 -0.04,0 -0.05,0 -0.04,0 c -2.24,-2.2 -5.39,-2.23 -6.83,-2.23 v -1.25 c 0.84,0 3.14,0 5.04,0.97 v -17.77 c 0,-1.16 0,-1.61 -3.48,-1.61 h -1.31 v -1.25 c 0.62,0.03 4.9,0.14 6.2,0.14 1.08,0 5.47,-0.11 6.24,-0.14 v 1.25 h -1.33 c -3.49,0 -3.49,0.45 -3.49,1.61 z"
           inkscape:connector-curvature="0"
           style="fill:#00c5b7;fill-opacity:0.72701685;stroke-width:0" /><path
           id="path3343"
           d="m 794.19,369.08 0,0.04 0,0.04 0,0.05 0,0.04 0,0.03 0,0.04 0,0.04 0,0.03 -0.01,0.04 0,0.03 0,0.03 0,0.03 0,0.03 -0.01,0.03 0,0.03 0,0.02 -0.01,0.03 0,0.02 -0.01,0.03 0,0.02 -0.02,0.04 -0.01,0.04 -0.02,0.03 -0.02,0.03 -0.02,0.03 -0.02,0.03 -0.03,0.02 -0.03,0.02 -0.03,0.02 -0.04,0.01 -0.04,0.02 -0.05,0.01 -0.02,0 -0.02,0.01 -0.03,0 -0.03,0 -0.02,0.01 -0.03,0 -0.03,0 -0.03,0 -0.03,0.01 -0.04,0 -0.03,0 -0.04,0 -0.03,0 -0.04,0 -0.04,0 -0.04,0 -0.04,0 -0.05,0 -0.04,0 -0.04,0 c -2.24,-2.2 -5.4,-2.23 -6.83,-2.23 v -1.25 c 0.84,0 3.14,0 5.04,0.97 v -17.77 c 0,-1.16 0,-1.61 -3.48,-1.61 h -1.31 v -1.25 c 0.62,0.03 4.9,0.14 6.2,0.14 1.08,0 5.47,-0.11 6.23,-0.14 v 1.25 h -1.32 c -3.49,0 -3.49,0.45 -3.49,1.61 z"
           inkscape:connector-curvature="0"
           style="fill:#00c5b7;fill-opacity:0.72701685;stroke-width:0" /><path
           id="path3345"
           d="m 764.47,302.34 -0.02,-0.08 -0.01,-0.07 -0.02,-0.07 -0.02,-0.08 -0.03,-0.16 -0.04,-0.16 -0.04,-0.16 -0.03,-0.17 -0.04,-0.16 -0.04,-0.15 -0.01,-0.08 -0.02,-0.07 -0.02,-0.08 -0.01,-0.07 -0.02,-0.06 -0.01,-0.07 -0.01,-0.06 -0.02,-0.06 -0.01,-0.06 -0.01,-0.05 0,-0.05 -0.01,-0.04 -0.01,-0.04 0,-0.04 0,-0.03 0,-0.02 c 0,-0.9 0.7,-1.35 1.43,-1.35 0.61,0 1.5,0.39 1.85,1.39 0.11,0.21 1.79,6.99 2,7.88 0.39,1.64 1.29,5.12 1.59,6.48 0.2,0.64 1.59,2.99 2.78,4.08 0.41,0.34 1.85,1.64 4,1.64 1.28,0 2.03,-0.59 2.08,-0.59 -1.48,-0.25 -2.58,-1.46 -2.58,-2.74 0,-0.79 0.55,-1.75 1.89,-1.75 1.35,0 2.74,1.14 2.74,2.94 0,1.75 -1.6,3.23 -4.13,3.23 -3.25,0 -5.44,-2.43 -6.39,-3.82 -0.39,2.23 -2.19,3.82 -4.53,3.82 -2.28,0 -3.23,-1.93 -3.69,-2.82 -0.89,-1.71 -1.54,-4.69 -1.54,-4.85 0,-0.5 0.5,-0.5 0.6,-0.5 0.5,0 0.55,0.06 0.85,1.16 0.84,3.53 1.84,5.92 3.64,5.92 0.84,0 1.55,-0.39 1.55,-2.28 0,-1.05 -0.16,-1.61 -0.8,-4.19 z"
           inkscape:connector-curvature="0"
           style="fill:#00c5b7;fill-opacity:0.72701685;stroke-width:0" /><path
           id="path3347"
           d="m 795.63,339.68 0,0.04 0,0.04 0,0.04 0,0.04 0,0.04 0,0.04 0,0.04 0,0.03 0,0.04 0,0.03 -0.01,0.03 0,0.03 0,0.03 -0.01,0.03 0,0.03 0,0.02 -0.01,0.03 0,0.02 -0.01,0.02 0,0.03 -0.01,0.04 -0.02,0.04 -0.02,0.03 -0.02,0.03 -0.02,0.03 -0.02,0.03 -0.03,0.02 -0.03,0.02 -0.03,0.01 -0.04,0.02 -0.04,0.01 -0.05,0.01 -0.02,0.01 -0.02,0 -0.03,0.01 -0.03,0 -0.02,0 -0.03,0.01 -0.03,0 -0.03,0 -0.03,0 -0.04,0 -0.03,0.01 -0.04,0 -0.03,0 -0.04,0 -0.04,0 -0.04,0 -0.04,0 -0.04,0 -0.05,0 -0.04,0 c -2.24,-2.2 -5.39,-2.23 -6.83,-2.23 v -1.25 c 0.84,0 3.14,0 5.04,0.96 v -17.76 c 0,-1.16 0,-1.61 -3.48,-1.61 h -1.31 v -1.25 c 0.62,0.03 4.9,0.14 6.2,0.14 1.08,0 5.47,-0.11 6.24,-0.14 v 1.25 h -1.33 c -3.49,0 -3.49,0.45 -3.49,1.61 z"
           inkscape:connector-curvature="0"
           style="fill:#00c5b7;fill-opacity:0.72701685;stroke-width:0" /><path
           id="path3349"
           d="m 800.11,293.38 h -1.18 c -0.1,-0.76 -0.46,-2.83 -0.91,-3.17 -0.27,-0.2 -2.95,-0.2 -3.44,-0.2 h -6.42 c 3.66,3.23 4.87,4.2 6.97,5.84 2.58,2.06 4.98,4.22 4.98,7.53 0,4.22 -3.68,6.8 -8.15,6.8 -4.31,0 -7.25,-3.03 -7.25,-6.23 0,-1.79 1.5,-1.96 1.86,-1.96 0.83,0 1.84,0.6 1.84,1.85 0,0.62 -0.25,1.84 -2.06,1.84 1.08,2.47 3.45,3.23 5.09,3.23 3.49,0 5.3,-2.7 5.3,-5.53 0,-3.03 -2.16,-5.43 -3.28,-6.68 l -8.39,-8.3 c -0.36,-0.31 -0.36,-0.39 -0.36,-1.36 h 14.36 z"
           inkscape:connector-curvature="0"
           style="fill:#00c5b7;fill-opacity:0.72701685;stroke-width:0" /><path
           id="path3351"
           d="m 785.84,249 0,0.13 -0.01,0.14 -0.02,0.13 -0.02,0.13 -0.03,0.12 -0.04,0.13 -0.04,0.12 -0.04,0.12 -0.06,0.12 -0.06,0.11 -0.06,0.11 -0.07,0.11 -0.07,0.1 -0.08,0.1 -0.08,0.1 -0.09,0.09 -0.09,0.09 -0.1,0.08 -0.1,0.08 -0.1,0.07 -0.11,0.07 -0.11,0.07 -0.11,0.06 -0.12,0.05 -0.12,0.05 -0.12,0.04 -0.13,0.04 -0.13,0.03 -0.13,0.02 -0.13,0.02 -0.13,0.01 -0.14,0 c -1.43,0 -2.64,-1.2 -2.64,-2.64 0,-1.44 1.21,-2.64 2.64,-2.64 1.46,0 2.64,1.2 2.64,2.64 z"
           inkscape:connector-curvature="0"
           style="fill:#00c5b7;fill-opacity:0.72701685;stroke-width:0" /><path
           id="path3353"
           d="m 785.84,229.08 0,0.14 -0.01,0.13 -0.02,0.13 -0.02,0.13 -0.03,0.13 -0.04,0.12 -0.04,0.12 -0.04,0.12 -0.06,0.12 -0.06,0.11 -0.06,0.11 -0.07,0.11 -0.07,0.1 -0.08,0.1 -0.08,0.1 -0.09,0.09 -0.09,0.09 -0.1,0.08 -0.1,0.08 -0.1,0.08 -0.11,0.07 -0.11,0.06 -0.11,0.06 -0.12,0.05 -0.12,0.05 -0.12,0.04 -0.13,0.04 -0.13,0.03 -0.13,0.02 -0.13,0.02 -0.13,0.01 -0.14,0 c -1.43,0 -2.64,-1.2 -2.64,-2.64 0,-1.43 1.21,-2.64 2.64,-2.64 1.46,0 2.64,1.21 2.64,2.64 z"
           inkscape:connector-curvature="0"
           style="fill:#00c5b7;fill-opacity:0.72701685;stroke-width:0" /><path
           id="path3355"
           d="m 785.84,209.16 0,0.13 -0.01,0.14 -0.02,0.13 -0.02,0.13 -0.03,0.12 -0.04,0.13 -0.04,0.12 -0.04,0.12 -0.06,0.12 -0.06,0.11 -0.06,0.11 -0.07,0.11 -0.07,0.1 -0.08,0.1 -0.08,0.1 -0.09,0.09 -0.09,0.09 -0.1,0.08 -0.1,0.08 -0.1,0.07 -0.11,0.07 -0.11,0.07 -0.11,0.06 -0.12,0.05 -0.12,0.05 -0.12,0.04 -0.13,0.04 -0.13,0.03 -0.13,0.02 -0.13,0.02 -0.13,0.01 -0.14,0 c -1.43,0 -2.64,-1.2 -2.64,-2.64 0,-1.44 1.21,-2.64 2.64,-2.64 1.46,0 2.64,1.2 2.64,2.64 z"
           inkscape:connector-curvature="0"
           style="fill:#00c5b7;fill-opacity:0.72701685;stroke-width:0" /><path
           id="path3357"
           d="m 735.19,149.7 -0.01,-0.07 -0.02,-0.08 -0.02,-0.07 -0.01,-0.08 -0.04,-0.16 -0.04,-0.16 -0.03,-0.16 -0.04,-0.16 -0.04,-0.16 -0.03,-0.16 -0.02,-0.07 -0.02,-0.08 -0.01,-0.07 -0.02,-0.07 -0.01,-0.07 -0.02,-0.06 -0.01,-0.07 -0.01,-0.06 -0.01,-0.05 -0.01,-0.05 -0.01,-0.05 -0.01,-0.05 0,-0.04 -0.01,-0.03 0,-0.03 0,-0.03 c 0,-0.89 0.7,-1.35 1.44,-1.35 0.6,0 1.5,0.39 1.84,1.39 0.11,0.21 1.8,6.99 2,7.88 0.39,1.64 1.3,5.12 1.59,6.48 0.21,0.64 1.6,2.99 2.79,4.08 0.4,0.35 1.84,1.64 4,1.64 1.28,0 2.03,-0.59 2.07,-0.59 -1.48,-0.25 -2.57,-1.45 -2.57,-2.74 0,-0.79 0.54,-1.75 1.88,-1.75 1.35,0 2.74,1.15 2.74,2.94 0,1.75 -1.59,3.24 -4.12,3.24 -3.25,0 -5.44,-2.44 -6.4,-3.83 -0.39,2.23 -2.18,3.83 -4.53,3.83 -2.28,0 -3.23,-1.94 -3.69,-2.83 -0.88,-1.7 -1.54,-4.69 -1.54,-4.85 0,-0.5 0.5,-0.5 0.61,-0.5 0.5,0 0.55,0.07 0.84,1.16 0.84,3.53 1.84,5.92 3.64,5.92 0.85,0 1.55,-0.39 1.55,-2.28 0,-1.05 -0.16,-1.61 -0.8,-4.19 z"
           inkscape:connector-curvature="0"
           style="fill:#00c5b7;fill-opacity:0.72701685;stroke-width:0" /><path
           id="path3359"
           d="m 766.35,187.04 0,0.04 0,0.04 0,0.04 0,0.04 0,0.04 0,0.04 0,0.04 0,0.03 0,0.03 -0.01,0.04 0,0.03 0,0.03 0,0.03 -0.01,0.03 0,0.02 0,0.03 -0.01,0.03 0,0.02 -0.01,0.02 0,0.03 -0.02,0.04 -0.01,0.04 -0.02,0.03 -0.02,0.03 -0.02,0.03 -0.02,0.02 -0.03,0.03 -0.03,0.02 -0.03,0.01 -0.04,0.02 -0.04,0.01 -0.05,0.01 -0.04,0.01 -0.03,0.01 -0.03,0 -0.02,0 -0.03,0.01 -0.03,0 -0.03,0 -0.03,0 -0.04,0 -0.03,0.01 -0.04,0 -0.03,0 -0.04,0 -0.04,0 -0.04,0 -0.04,0 -0.05,0 -0.04,0 -0.05,0 c -2.23,-2.2 -5.39,-2.23 -6.82,-2.23 v -1.25 c 0.84,0 3.14,0 5.04,0.96 v -17.76 c 0,-1.16 0,-1.61 -3.48,-1.61 h -1.31 v -1.25 c 0.62,0.03 4.9,0.14 6.2,0.14 1.08,0 5.47,-0.11 6.23,-0.14 v 1.25 h -1.32 c -3.49,0 -3.49,0.45 -3.49,1.61 z"
           inkscape:connector-curvature="0"
           style="fill:#00c5b7;fill-opacity:0.72701685;stroke-width:0" /><path
           id="path3361"
           d="m 770.18,154.16 0.01,0.04 0.01,0.05 0.01,0.04 0.01,0.05 0.01,0.04 0.01,0.04 0.01,0.04 0.01,0.04 0.02,0.07 0.02,0.07 0.02,0.06 0.02,0.06 0.02,0.06 0.02,0.05 0.02,0.05 0.02,0.04 0.02,0.04 0.02,0.04 0.03,0.04 0.03,0.03 0.02,0.03 0.03,0.02 0.03,0.03 0.04,0.02 0.03,0.02 0.04,0.02 0.04,0.01 0.05,0.01 0.04,0.02 0.05,0.01 0.05,0.01 0.06,0.01 0.06,0 0.06,0.01 0.06,0.01 0.07,0 c 0.18,0.04 1.4,0.04 2.1,0.04 2.12,0 3.03,0 3.89,-0.29 1.58,-0.48 1.64,-1.5 1.64,-2.75 0,-0.54 0,-1 -0.23,-2.81 l -0.08,-0.39 c 0,-0.34 0.25,-0.52 0.59,-0.52 0.53,0 0.59,0.32 0.67,0.86 l 0.94,6.66 c 0,0.5 -0.42,0.5 -1.05,0.5 h -21.44 c -0.85,0 -0.93,0 -1.17,-0.73 l -2.2,-6.18 c -0.03,-0.14 -0.17,-0.45 -0.17,-0.62 0,-0.14 0.06,-0.49 0.59,-0.49 0.45,0 0.52,0.18 0.74,0.83 2.01,5.58 3.17,5.93 8.46,5.93 h 1.46 c 1.04,0 1.08,-0.04 1.08,-0.35 0,-0.03 0,-0.2 -0.14,-0.73 l -4.6,-18.33 c -0.31,-1.28 -0.42,-1.64 -4.08,-1.64 -1.25,0 -1.56,0 -1.56,-0.77 0,-0.09 0.06,-0.48 0.59,-0.48 0.97,0 2.02,0.11 2.99,0.11 0.98,0 2.03,0.03 3,0.03 0.98,0 2.17,0 3.14,-0.03 0.94,-0.05 1.99,-0.11 2.92,-0.11 0.28,0 0.82,0 0.82,0.76 0,0.49 -0.37,0.49 -1.44,0.49 -0.66,0 -1.36,0.05 -2.02,0.08 -1.19,0.09 -1.25,0.23 -1.25,0.65 0,0.25 0,0.32 0.13,0.8 z"
           inkscape:connector-curvature="0"
           style="fill:#00c5b7;fill-opacity:0.72701685;stroke-width:0" /><path
           id="path3363"
           d="m 808.08,140.95 0.06,0 0.05,0 0.11,0 0.12,0.01 0.06,0 0.06,0.01 0.06,0 0.05,0.01 0.06,0.01 0.06,0.01 0.06,0.01 0.05,0.01 0.06,0.02 0.05,0.02 0.05,0.02 0.05,0.02 0.05,0.03 0.04,0.03 0.04,0.03 0.04,0.04 0.04,0.04 0.02,0.02 0.01,0.02 0.02,0.02 0.02,0.03 0.01,0.02 0.01,0.03 0.02,0.02 0.01,0.03 0.01,0.03 0.01,0.03 0,0.03 0.01,0.03 0.01,0.03 0,0.04 0.01,0.03 0,0.04 0,0.04 0,0.04 c 0,0.86 -0.79,0.86 -1.39,0.86 h -20.76 c -0.57,0 -1.39,0 -1.39,-0.83 0,-0.88 0.79,-0.88 1.39,-0.88 z"
           inkscape:connector-curvature="0"
           style="fill:#00c5b7;fill-opacity:0.72701685;stroke-width:0" /><path
           id="path3365"
           d="m 824.91,155.23 0,0.05 0,0.04 0,0.04 0,0.04 0,0.04 0,0.04 0,0.04 0,0.03 -0.01,0.03 0,0.04 0,0.03 0,0.03 0,0.03 -0.01,0.03 0,0.02 -0.01,0.03 0,0.03 0,0.02 -0.01,0.02 0,0.03 -0.02,0.04 -0.01,0.03 -0.02,0.04 -0.02,0.03 -0.02,0.03 -0.02,0.02 -0.03,0.03 -0.03,0.02 -0.04,0.01 -0.03,0.02 -0.04,0.01 -0.05,0.01 -0.02,0.01 -0.03,0 -0.02,0.01 -0.03,0 -0.03,0 -0.02,0.01 -0.03,0 -0.03,0 -0.04,0 -0.03,0 -0.03,0 -0.04,0.01 -0.04,0 -0.03,0 -0.04,0 -0.04,0 -0.04,0 -0.05,0 -0.04,0 -0.05,0 c -2.23,-2.2 -5.39,-2.24 -6.83,-2.24 v -1.25 c 0.85,0 3.15,0 5.05,0.97 v -17.76 c 0,-1.16 0,-1.61 -3.48,-1.61 h -1.32 v -1.25 c 0.63,0.03 4.91,0.14 6.21,0.14 1.08,0 5.47,-0.11 6.23,-0.14 v 1.25 h -1.32 c -3.49,0 -3.49,0.45 -3.49,1.61 z"
           inkscape:connector-curvature="0"
           style="fill:#00c5b7;fill-opacity:0.72701685;stroke-width:0" /><path
           id="path3367"
           d="m 760.75,89.938 -0.02,-0.072 -0.01,-0.073 -0.02,-0.076 -0.01,-0.077 -0.04,-0.157 -0.04,-0.161 -0.03,-0.163 -0.04,-0.162 -0.04,-0.161 -0.04,-0.156 -0.01,-0.076 -0.02,-0.075 -0.02,-0.072 -0.01,-0.071 -0.02,-0.068 -0.01,-0.065 -0.01,-0.062 -0.01,-0.06 -0.01,-0.056 -0.01,-0.052 -0.01,-0.049 -0.01,-0.044 -0.01,-0.04 0,-0.036 0,-0.031 0,-0.026 c 0,-0.891 0.7,-1.344 1.43,-1.344 0.61,0 1.5,0.391 1.85,1.391 0.11,0.203 1.8,6.984 2,7.875 0.39,1.64 1.3,5.121 1.59,6.481 0.21,0.64 1.6,2.99 2.78,4.08 0.41,0.34 1.85,1.64 4,1.64 1.28,0 2.03,-0.59 2.08,-0.59 -1.48,-0.25 -2.58,-1.45 -2.58,-2.74 0,-0.79 0.55,-1.75 1.89,-1.75 1.35,0 2.74,1.14 2.74,2.94 0,1.75 -1.6,3.24 -4.13,3.24 -3.25,0 -5.43,-2.44 -6.39,-3.83 -0.39,2.23 -2.18,3.83 -4.53,3.83 -2.28,0 -3.23,-1.94 -3.69,-2.83 -0.89,-1.71 -1.54,-4.69 -1.54,-4.85 0,-0.5 0.5,-0.5 0.61,-0.5 0.5,0 0.54,0.07 0.84,1.16 0.84,3.53 1.84,5.92 3.64,5.92 0.84,0 1.55,-0.39 1.55,-2.28 0,-1.05 -0.16,-1.61 -0.8,-4.19 z"
           inkscape:connector-curvature="0"
           style="fill:#00c5b7;fill-opacity:0.72701685;stroke-width:0" /><path
           id="path3369"
           d="m 791.91,127.16 0,0.04 0,0.04 0,0.04 0,0.04 0,0.04 0,0.04 0,0.04 0,0.03 -0.01,0.04 0,0.03 0,0.03 0,0.03 0,0.03 -0.01,0.03 0,0.03 -0.01,0.02 0,0.03 0,0.02 -0.01,0.02 0,0.03 -0.02,0.04 -0.01,0.04 -0.02,0.03 -0.02,0.03 -0.02,0.03 -0.02,0.03 -0.03,0.02 -0.03,0.02 -0.04,0.02 -0.03,0.01 -0.04,0.01 -0.05,0.01 -0.02,0.01 -0.03,0 -0.02,0.01 -0.03,0 -0.03,0 -0.02,0.01 -0.03,0 -0.03,0 -0.04,0 -0.03,0.01 -0.03,0 -0.04,0 -0.04,0 -0.03,0 -0.04,0 -0.04,0 -0.04,0 -0.05,0 -0.04,0 -0.05,0 c -2.23,-2.2 -5.39,-2.23 -6.83,-2.23 v -1.25 c 0.85,0 3.15,0 5.05,0.96 v -17.76 c 0,-1.16 0,-1.61 -3.48,-1.61 h -1.32 V 105 c 0.63,0.03 4.91,0.14 6.21,0.14 1.08,0 5.47,-0.11 6.23,-0.14 v 1.25 h -1.32 c -3.49,0 -3.49,0.45 -3.49,1.61 z"
           inkscape:connector-curvature="0"
           style="fill:#00c5b7;fill-opacity:0.72701685;stroke-width:0" /><path
           id="path3371"
           d="m 795.74,94.277 0.01,0.047 0.01,0.046 0.01,0.044 0.01,0.043 0.01,0.042 0.01,0.041 0.01,0.039 0.01,0.038 0.02,0.073 0.02,0.069 0.02,0.064 0.02,0.06 0.02,0.055 0.02,0.052 0.02,0.048 0.02,0.045 0.02,0.041 0.03,0.038 0.02,0.035 0.03,0.031 0.03,0.03 0.03,0.026 0.03,0.024 0.03,0.021 0.04,0.02 0.03,0.017 0.04,0.016 0.05,0.014 0.04,0.012 0.05,0.011 0.05,0.01 0.06,0.008 0.06,0.008 0.06,0.007 0.07,0.007 0.07,0.006 c 0.17,0.031 1.39,0.031 2.09,0.031 2.12,0 3.03,0 3.89,-0.281 1.58,-0.485 1.64,-1.5 1.64,-2.75 0,-0.547 0,-1 -0.23,-2.813 l -0.08,-0.39 c 0,-0.344 0.25,-0.516 0.59,-0.516 0.53,0 0.6,0.313 0.68,0.859 l 0.93,6.657 c 0,0.5 -0.42,0.5 -1.05,0.5 h -21.43 c -0.86,0 -0.94,0 -1.17,-0.735 l -2.21,-6.172 c -0.03,-0.14 -0.17,-0.453 -0.17,-0.625 0,-0.14 0.06,-0.484 0.6,-0.484 0.45,0 0.51,0.172 0.73,0.828 2.02,5.578 3.17,5.922 8.47,5.922 h 1.45 c 1.05,0 1.08,-0.031 1.08,-0.344 0,-0.031 0,-0.203 -0.14,-0.734 L 787.9,76.09 c -0.32,-1.281 -0.43,-1.641 -4.08,-1.641 -1.25,0 -1.57,0 -1.57,-0.765 0,-0.094 0.07,-0.485 0.6,-0.485 0.97,0 2.01,0.11 2.98,0.11 0.99,0 2.03,0.031 3,0.031 0.99,0 2.17,0 3.14,-0.031 0.94,-0.047 1.99,-0.11 2.93,-0.11 0.28,0 0.81,0 0.81,0.766 0,0.484 -0.36,0.484 -1.44,0.484 -0.66,0 -1.36,0.047 -2.02,0.078 -1.18,0.094 -1.25,0.235 -1.25,0.657 0,0.25 0,0.312 0.13,0.796 z"
           inkscape:connector-curvature="0"
           style="fill:#00c5b7;fill-opacity:0.72701685;stroke-width:0" /><polygon
           id="polygon3373"
           points="836.02,395.94 849.18,395.94 849.18,309.75 852.62,309.75 852.62,399.38 836.02,399.38 "
           style="fill:#00c5b7;fill-opacity:0.72701685;stroke-width:0" /><polygon
           id="polygon3375"
           points="852.62,309.77 849.18,309.77 849.18,279.78 852.62,279.78 "
           style="fill:#00c5b7;fill-opacity:0.72701685;stroke-width:0" /><polygon
           id="polygon3377"
           points="852.62,279.89 849.18,279.89 849.18,249.9 852.62,249.9 "
           style="fill:#00c5b7;fill-opacity:0.72701685;stroke-width:0" /><polygon
           id="polygon3379"
           points="852.62,250.01 849.18,250.01 849.18,220.02 852.62,220.02 "
           style="fill:#00c5b7;fill-opacity:0.72701685;stroke-width:0" /><polygon
           id="polygon3381"
           points="852.62,220.12 849.18,220.12 849.18,190.14 852.62,190.14 "
           style="fill:#00c5b7;fill-opacity:0.72701685;stroke-width:0" /><polygon
           id="polygon3383"
           points="852.62,190.25 849.18,190.25 849.18,160.26 852.62,160.26 "
           style="fill:#00c5b7;fill-opacity:0.72701685;stroke-width:0" /><polygon
           id="polygon3385"
           points="852.62,160.4 849.18,160.4 849.18,74.195 836.02,74.195 836.02,70.758 852.62,70.758 "
           style="fill:#00c5b7;fill-opacity:0.72701685;stroke-width:0" /><path
           id="path3387"
           d="m 900.34,234.05 h 13.9 c 0.69,0 1.64,0 1.64,1 0,1 -0.95,1 -1.64,1 h -13.9 v 13.96 c 0,0.69 0,1.64 -1,1.64 -0.99,0 -0.99,-0.95 -0.99,-1.64 V 236.05 H 884.4 c -0.7,0 -1.64,0 -1.64,-1 0,-1 0.94,-1 1.64,-1 h 13.95 v -13.93 c 0,-0.71 0,-1.66 0.99,-1.66 1,0 1,0.95 1,1.66 z"
           inkscape:connector-curvature="0"
           style="fill:#00c5b7;fill-opacity:0.72701685;stroke-width:0" /><path
           id="path3389"
           d="m 952.77,239.49 0.03,0.11 0.02,0.11 0.03,0.11 0.03,0.11 0.03,0.12 0.03,0.12 0.06,0.25 0.06,0.25 0.06,0.25 0.06,0.25 0.06,0.24 0.03,0.12 0.03,0.11 0.03,0.11 0.02,0.11 0.03,0.11 0.02,0.1 0.02,0.09 0.02,0.09 0.02,0.08 0.02,0.08 0.01,0.07 0.01,0.07 0.01,0.05 0.01,0.05 0,0.04 0,0.04 c 0,0.9 -0.7,1.34 -1.45,1.34 -0.59,0 -1.48,-0.39 -1.83,-1.39 -0.15,-0.34 -2.5,-9.86 -2.84,-11.16 -0.36,-1.5 -0.45,-2.39 -0.45,-3.29 0,-0.55 0,-0.64 0.04,-0.89 -1.14,-2.64 -2.64,-4.19 -4.58,-4.19 -3.98,0 -3.98,3.69 -3.98,4.53 0,1.59 0.25,3.55 2.59,9.67 0.55,1.49 0.85,2.19 0.85,3.19 0,2.23 -1.64,4.08 -4.1,4.08 -4.73,0 -6.57,-7.22 -6.57,-7.67 0,-0.5 0.5,-0.5 0.6,-0.5 0.5,0 0.55,0.1 0.8,0.9 1.35,4.63 3.28,6.17 5.03,6.17 0.44,0 1.25,-0.04 1.25,-1.64 0,-1.25 -0.56,-2.64 -0.9,-3.48 -2.19,-5.88 -2.78,-8.17 -2.78,-10.06 0,-4.54 3.32,-6.29 7.06,-6.29 0.86,0 3.19,0 5.19,3.49 1.29,-3.19 4.73,-3.49 6.23,-3.49 3.73,0 5.92,3.15 7.22,6.13 1.69,3.89 3.28,10.56 3.28,12.95 0,2.75 -1.34,3.49 -2.19,3.49 -1.25,0 -2.48,-1.3 -2.48,-2.39 0,-0.64 0.29,-0.94 0.73,-1.35 0.55,-0.54 1.8,-1.84 1.8,-4.23 0,-1.69 -1.44,-6.58 -2.74,-9.11 -1.29,-2.64 -3.04,-4.39 -5.48,-4.39 -2.34,0 -3.69,1.5 -3.69,4.33 0,1.4 0.35,2.95 0.55,3.64 z"
           inkscape:connector-curvature="0"
           style="fill:#00c5b7;fill-opacity:0.72701685;stroke-width:0" /><path
           id="path3391"
           d="m 982.99,221.5 h -1.19 c -0.09,-0.76 -0.45,-2.82 -0.9,-3.17 -0.27,-0.2 -2.95,-0.2 -3.44,-0.2 h -6.42 c 3.66,3.23 4.87,4.2 6.97,5.84 2.58,2.07 4.98,4.22 4.98,7.53 0,4.22 -3.69,6.8 -8.15,6.8 -4.32,0 -7.25,-3.03 -7.25,-6.23 0,-1.78 1.5,-1.96 1.86,-1.96 0.82,0 1.84,0.6 1.84,1.85 0,0.62 -0.25,1.84 -2.06,1.84 1.07,2.47 3.45,3.24 5.09,3.24 3.48,0 5.3,-2.71 5.3,-5.54 0,-3.03 -2.16,-5.43 -3.28,-6.68 l -8.39,-8.3 c -0.36,-0.31 -0.36,-0.39 -0.36,-1.36 h 14.36 z"
           inkscape:connector-curvature="0"
           style="fill:#00c5b7;fill-opacity:0.72701685;stroke-width:0" /><polygon
           id="polygon3393"
           points="1028.8,399.38 1012.2,399.38 1012.2,309.75 1015.7,309.75 1015.7,395.94 1028.8,395.94 "
           style="fill:#00c5b7;fill-opacity:0.72701685;stroke-width:0" /><polygon
           id="polygon3395"
           points="1015.7,309.77 1012.2,309.77 1012.2,279.78 1015.7,279.78 "
           style="fill:#00c5b7;fill-opacity:0.72701685;stroke-width:0" /><polygon
           id="polygon3397"
           points="1015.7,279.89 1012.2,279.89 1012.2,249.9 1015.7,249.9 "
           style="fill:#00c5b7;fill-opacity:0.72701685;stroke-width:0" /><polygon
           id="polygon3399"
           points="1015.7,250.01 1012.2,250.01 1012.2,220.02 1015.7,220.02 "
           style="fill:#00c5b7;fill-opacity:0.72701685;stroke-width:0" /><polygon
           id="polygon3401"
           points="1015.7,220.12 1012.2,220.12 1012.2,190.14 1015.7,190.14 "
           style="fill:#00c5b7;fill-opacity:0.72701685;stroke-width:0" /><polygon
           id="polygon3403"
           points="1015.7,190.25 1012.2,190.25 1012.2,160.26 1015.7,160.26 "
           style="fill:#00c5b7;fill-opacity:0.72701685;stroke-width:0" /><polygon
           id="polygon3405"
           points="1015.7,160.4 1012.2,160.4 1012.2,70.758 1028.8,70.758 1028.8,74.195 1015.7,74.195 "
           style="fill:#00c5b7;fill-opacity:0.72701685;stroke-width:0" /><path
           id="path3407"
           d="m 1063,362.22 0,-0.07 0,-0.08 0,-0.07 0,-0.08 -0.1,-0.16 0,-0.16 0,-0.16 -0.1,-0.16 0,-0.16 -0.1,-0.16 0,-0.08 0,-0.07 0,-0.07 0,-0.07 0,-0.07 0,-0.07 -0.1,-0.06 0,-0.06 0,-0.05 0,-0.06 0,-0.04 0,-0.05 0,-0.04 0,-0.03 0,-0.04 0,-0.02 c 0,-0.89 0.7,-1.35 1.4,-1.35 0.6,0 1.5,0.39 1.9,1.39 0.1,0.21 1.8,6.99 2,7.88 0.3,1.64 1.3,5.12 1.5,6.48 0.3,0.64 1.7,2.99 2.8,4.08 0.4,0.35 1.9,1.64 4,1.64 1.3,0 2.1,-0.59 2.1,-0.59 -1.5,-0.25 -2.6,-1.45 -2.6,-2.73 0,-0.8 0.6,-1.76 1.9,-1.76 1.4,0 2.8,1.15 2.8,2.94 0,1.75 -1.6,3.24 -4.2,3.24 -3.2,0 -5.4,-2.44 -6.4,-3.83 -0.4,2.23 -2.1,3.83 -4.5,3.83 -2.3,0 -3.2,-1.94 -3.7,-2.83 -0.9,-1.7 -1.5,-4.69 -1.5,-4.85 0,-0.5 0.5,-0.5 0.6,-0.5 0.5,0 0.5,0.07 0.8,1.16 0.9,3.53 1.9,5.92 3.7,5.92 0.8,0 1.5,-0.39 1.5,-2.28 0,-1.04 -0.1,-1.61 -0.8,-4.19 z"
           inkscape:connector-curvature="0"
           style="fill:#00c5b7;fill-opacity:0.72701685;stroke-width:0" /><path
           id="path3409"
           d="m 1100.1,383.62 h -1.2 c -0.1,-0.76 -0.4,-2.82 -0.9,-3.17 -0.2,-0.2 -2.9,-0.2 -3.4,-0.2 h -6.4 c 3.6,3.23 4.8,4.2 6.9,5.84 2.6,2.07 5,4.22 5,7.53 0,4.22 -3.7,6.8 -8.1,6.8 -4.4,0 -7.3,-3.03 -7.3,-6.23 0,-1.78 1.5,-1.96 1.9,-1.96 0.8,0 1.8,0.6 1.8,1.85 0,0.62 -0.2,1.84 -2.1,1.84 1.1,2.47 3.5,3.24 5.1,3.24 3.5,0 5.3,-2.71 5.3,-5.54 0,-3.03 -2.1,-5.43 -3.2,-6.68 l -8.4,-8.3 c -0.4,-0.31 -0.4,-0.39 -0.4,-1.36 h 14.4 z"
           inkscape:connector-curvature="0"
           style="fill:#00c5b7;fill-opacity:0.72701685;stroke-width:0" /><path
           id="path3411"
           d="m 1092.8,369.08 -0.1,0.04 0,0.04 0,0.05 0,0.04 0,0.03 0,0.04 0,0.04 0,0.03 0,0.04 0,0.03 0,0.03 0,0.03 0,0.03 0,0.03 0,0.03 0,0.02 0,0.03 0,0.02 0,0.05 0,0.04 0,0.04 0,0.03 -0.1,0.03 0,0.03 0,0.03 0,0.02 -0.1,0.02 0,0.02 0,0.01 -0.1,0.02 0,0.01 0,0 -0.1,0.01 0,0 0,0 0,0.01 -0.1,0 0,0 0,0 -0.1,0.01 0,0 0,0 -0.1,0 0,0 0,0 -0.1,0 0,0 -0.1,0 0,0 -0.1,0 0,0 c -2.2,-2.2 -5.4,-2.23 -6.8,-2.23 v -1.25 c 0.8,0 3.1,0 5,0.97 v -17.77 c 0,-1.16 0,-1.61 -3.5,-1.61 h -1.3 v -1.25 c 0.7,0.03 4.9,0.14 6.2,0.14 1.1,0 5.5,-0.11 6.3,-0.14 v 1.25 h -1.4 c -3.4,0 -3.4,0.45 -3.4,1.61 z"
           inkscape:connector-curvature="0"
           style="fill:#00c5b7;fill-opacity:0.72701685;stroke-width:0" /><path
           id="path3413"
           d="m 1063,302.34 0,-0.08 0,-0.07 0,-0.07 0,-0.08 -0.1,-0.16 0,-0.16 0,-0.16 -0.1,-0.17 0,-0.16 -0.1,-0.15 0,-0.08 0,-0.07 0,-0.08 0,-0.07 0,-0.06 0,-0.07 -0.1,-0.06 0,-0.06 0,-0.06 0,-0.05 0,-0.05 0,-0.04 0,-0.04 0,-0.04 0,-0.03 0,-0.02 c 0,-0.9 0.7,-1.35 1.4,-1.35 0.6,0 1.5,0.39 1.9,1.39 0.1,0.21 1.8,6.99 2,7.88 0.3,1.64 1.3,5.12 1.5,6.48 0.3,0.64 1.7,2.99 2.8,4.08 0.4,0.34 1.9,1.64 4,1.64 1.3,0 2.1,-0.59 2.1,-0.59 -1.5,-0.25 -2.6,-1.46 -2.6,-2.74 0,-0.79 0.6,-1.75 1.9,-1.75 1.4,0 2.8,1.14 2.8,2.94 0,1.75 -1.6,3.23 -4.2,3.23 -3.2,0 -5.4,-2.43 -6.4,-3.82 -0.4,2.23 -2.1,3.82 -4.5,3.82 -2.3,0 -3.2,-1.93 -3.7,-2.82 -0.9,-1.71 -1.5,-4.69 -1.5,-4.85 0,-0.5 0.5,-0.5 0.6,-0.5 0.5,0 0.5,0.06 0.8,1.16 0.9,3.53 1.9,5.92 3.7,5.92 0.8,0 1.5,-0.39 1.5,-2.28 0,-1.05 -0.1,-1.61 -0.8,-4.19 z"
           inkscape:connector-curvature="0"
           style="fill:#00c5b7;fill-opacity:0.72701685;stroke-width:0" /><path
           id="path3415"
           d="m 1100.1,323.86 h -1.2 c -0.1,-0.76 -0.4,-2.82 -0.9,-3.17 -0.2,-0.2 -2.9,-0.2 -3.4,-0.2 h -6.4 c 3.6,3.23 4.8,4.2 6.9,5.84 2.6,2.06 5,4.22 5,7.53 0,4.22 -3.7,6.8 -8.1,6.8 -4.4,0 -7.3,-3.03 -7.3,-6.23 0,-1.79 1.5,-1.96 1.9,-1.96 0.8,0 1.8,0.6 1.8,1.85 0,0.62 -0.2,1.84 -2.1,1.84 1.1,2.47 3.5,3.23 5.1,3.23 3.5,0 5.3,-2.7 5.3,-5.53 0,-3.03 -2.1,-5.43 -3.2,-6.68 l -8.4,-8.3 c -0.4,-0.31 -0.4,-0.39 -0.4,-1.36 h 14.4 z"
           inkscape:connector-curvature="0"
           style="fill:#00c5b7;fill-opacity:0.72701685;stroke-width:0" /><path
           id="path3417"
           d="m 1098.7,293.38 h -1.2 c -0.1,-0.76 -0.5,-2.83 -0.9,-3.17 -0.3,-0.2 -3,-0.2 -3.5,-0.2 h -6.4 c 3.7,3.23 4.9,4.2 7,5.84 2.6,2.06 5,4.22 5,7.53 0,4.22 -3.7,6.8 -8.2,6.8 -4.3,0 -7.2,-3.03 -7.2,-6.23 0,-1.79 1.5,-1.96 1.8,-1.96 0.8,0 1.9,0.6 1.9,1.85 0,0.62 -0.3,1.84 -2.1,1.84 1.1,2.47 3.5,3.23 5.1,3.23 3.5,0 5.3,-2.7 5.3,-5.53 0,-3.03 -2.2,-5.43 -3.3,-6.68 l -8.4,-8.3 c -0.3,-0.31 -0.3,-0.39 -0.3,-1.36 h 14.3 z"
           inkscape:connector-curvature="0"
           style="fill:#00c5b7;fill-opacity:0.72701685;stroke-width:0" /><path
           id="path3419"
           d="m 1084.3,249 0,0.13 0,0.14 -0.1,0.13 0,0.13 0,0.12 0,0.13 -0.1,0.12 0,0.12 -0.1,0.12 0,0.11 -0.1,0.11 -0.1,0.11 0,0.1 -0.1,0.1 -0.1,0.1 -0.1,0.09 -0.1,0.09 -0.1,0.08 -0.1,0.08 -0.1,0.07 -0.1,0.07 -0.1,0.07 -0.1,0.06 -0.1,0.05 -0.2,0.05 -0.1,0.04 -0.1,0.04 -0.1,0.03 -0.2,0.02 -0.1,0.02 -0.1,0.01 -0.2,0 c -1.4,0 -2.6,-1.2 -2.6,-2.64 0,-1.44 1.2,-2.64 2.6,-2.64 1.5,0 2.7,1.2 2.7,2.64 z"
           inkscape:connector-curvature="0"
           style="fill:#00c5b7;fill-opacity:0.72701685;stroke-width:0" /><path
           id="path3421"
           d="m 1084.3,229.08 0,0.14 0,0.13 -0.1,0.13 0,0.13 0,0.13 0,0.12 -0.1,0.12 0,0.12 -0.1,0.12 0,0.11 -0.1,0.11 -0.1,0.11 0,0.1 -0.1,0.1 -0.1,0.1 -0.1,0.09 -0.1,0.09 -0.1,0.08 -0.1,0.08 -0.1,0.08 -0.1,0.07 -0.1,0.06 -0.1,0.06 -0.1,0.05 -0.2,0.05 -0.1,0.04 -0.1,0.04 -0.1,0.03 -0.2,0.02 -0.1,0.02 -0.1,0.01 -0.2,0 c -1.4,0 -2.6,-1.2 -2.6,-2.64 0,-1.43 1.2,-2.64 2.6,-2.64 1.5,0 2.7,1.21 2.7,2.64 z"
           inkscape:connector-curvature="0"
           style="fill:#00c5b7;fill-opacity:0.72701685;stroke-width:0" /><path
           id="path3423"
           d="m 1084.3,209.16 0,0.13 0,0.14 -0.1,0.13 0,0.13 0,0.12 0,0.13 -0.1,0.12 0,0.12 -0.1,0.12 0,0.11 -0.1,0.11 -0.1,0.11 0,0.1 -0.1,0.1 -0.1,0.1 -0.1,0.09 -0.1,0.09 -0.1,0.08 -0.1,0.08 -0.1,0.07 -0.1,0.07 -0.1,0.07 -0.1,0.06 -0.1,0.05 -0.2,0.05 -0.1,0.04 -0.1,0.04 -0.1,0.03 -0.2,0.02 -0.1,0.02 -0.1,0.01 -0.2,0 c -1.4,0 -2.6,-1.2 -2.6,-2.64 0,-1.44 1.2,-2.64 2.6,-2.64 1.5,0 2.7,1.2 2.7,2.64 z"
           inkscape:connector-curvature="0"
           style="fill:#00c5b7;fill-opacity:0.72701685;stroke-width:0" /><path
           id="path3425"
           d="m 1033.6,149.7 0,-0.07 0,-0.08 0,-0.07 0,-0.08 -0.1,-0.16 0,-0.16 0,-0.16 -0.1,-0.16 0,-0.16 -0.1,-0.16 0,-0.07 0,-0.08 0,-0.07 0,-0.07 0,-0.07 0,-0.06 -0.1,-0.07 0,-0.06 0,-0.05 0,-0.05 0,-0.05 0,-0.05 0,-0.04 0,-0.03 0,-0.03 0,-0.03 c 0,-0.89 0.7,-1.35 1.4,-1.35 0.6,0 1.5,0.39 1.9,1.39 0.1,0.21 1.7,6.99 2,7.88 0.3,1.64 1.3,5.12 1.6,6.48 0.1,0.64 1.5,2.99 2.7,4.08 0.4,0.35 1.9,1.64 4,1.64 1.3,0 2.1,-0.59 2.1,-0.59 -1.5,-0.25 -2.6,-1.45 -2.6,-2.74 0,-0.79 0.6,-1.75 1.9,-1.75 1.4,0 2.8,1.15 2.8,2.94 0,1.75 -1.6,3.24 -4.2,3.24 -3.2,0 -5.4,-2.44 -6.4,-3.83 -0.3,2.23 -2.2,3.83 -4.5,3.83 -2.3,0 -3.2,-1.94 -3.7,-2.83 -0.9,-1.7 -1.5,-4.69 -1.5,-4.85 0,-0.5 0.5,-0.5 0.6,-0.5 0.5,0 0.5,0.07 0.8,1.16 0.9,3.53 1.9,5.92 3.7,5.92 0.8,0 1.5,-0.39 1.5,-2.28 0,-1.05 -0.1,-1.61 -0.8,-4.19 z"
           inkscape:connector-curvature="0"
           style="fill:#00c5b7;fill-opacity:0.72701685;stroke-width:0" /><path
           id="path3427"
           d="m 1070.7,171.22 h -1.2 c -0.1,-0.76 -0.4,-2.82 -0.9,-3.17 -0.2,-0.2 -2.9,-0.2 -3.4,-0.2 h -6.4 c 3.6,3.23 4.8,4.2 6.9,5.84 2.6,2.06 5,4.22 5,7.53 0,4.22 -3.7,6.8 -8.1,6.8 -4.4,0 -7.3,-3.03 -7.3,-6.23 0,-1.79 1.5,-1.96 1.9,-1.96 0.8,0 1.8,0.6 1.8,1.85 0,0.62 -0.2,1.84 -2.1,1.84 1.1,2.47 3.5,3.23 5.1,3.23 3.5,0 5.3,-2.7 5.3,-5.53 0,-3.03 -2.1,-5.43 -3.2,-6.68 l -8.4,-8.3 c -0.4,-0.31 -0.4,-0.39 -0.4,-1.36 h 14.4 z"
           inkscape:connector-curvature="0"
           style="fill:#00c5b7;fill-opacity:0.72701685;stroke-width:0" /><path
           id="path3429"
           d="m 1068.6,154.16 0,0.04 0,0.05 0.1,0.04 0,0.05 0,0.04 0,0.04 0,0.04 0,0.04 0,0.07 0,0.07 0.1,0.06 0,0.06 0,0.06 0,0.05 0,0.05 0.1,0.04 0,0.04 0,0.04 0,0.04 0.1,0.03 0,0.03 0,0.02 0,0.03 0.1,0.02 0,0.02 0.1,0.02 0,0.01 0,0.01 0.1,0.02 0,0.01 0.1,0.01 0,0.01 0.1,0 0.1,0.01 0,0.01 0.1,0 c 0.2,0.04 1.4,0.04 2.1,0.04 2.1,0 3,0 3.9,-0.29 1.6,-0.48 1.6,-1.5 1.6,-2.75 0,-0.54 0,-1 -0.2,-2.81 l -0.1,-0.39 c 0,-0.34 0.3,-0.52 0.6,-0.52 0.5,0 0.6,0.32 0.7,0.86 l 0.9,6.66 c 0,0.5 -0.4,0.5 -1,0.5 h -21.5 c -0.8,0 -0.9,0 -1.1,-0.73 l -2.3,-6.18 c 0,-0.14 -0.1,-0.45 -0.1,-0.62 0,-0.14 0,-0.49 0.6,-0.49 0.4,0 0.5,0.18 0.7,0.83 2,5.58 3.2,5.93 8.5,5.93 h 1.4 c 1.1,0 1.1,-0.04 1.1,-0.35 0,-0.03 0,-0.2 -0.1,-0.73 l -4.6,-18.33 c -0.3,-1.28 -0.5,-1.64 -4.1,-1.64 -1.3,0 -1.6,0 -1.6,-0.77 0,-0.09 0.1,-0.48 0.6,-0.48 1,0 2,0.11 3,0.11 1,0 2,0.03 3,0.03 1,0 2.2,0 3.1,-0.03 1,-0.05 2,-0.11 3,-0.11 0.3,0 0.8,0 0.8,0.76 0,0.49 -0.4,0.49 -1.4,0.49 -0.7,0 -1.4,0.05 -2.1,0.08 -1.2,0.09 -1.2,0.23 -1.2,0.65 0,0.25 0,0.32 0.1,0.8 z"
           inkscape:connector-curvature="0"
           style="fill:#00c5b7;fill-opacity:0.72701685;stroke-width:0" /><path
           id="path3431"
           d="m 1106.5,140.95 0.1,0 0,0 0.1,0 0,0 0.2,0.01 0,0 0.1,0.01 0,0 0.1,0.01 0,0.01 0.1,0.01 0.1,0.01 0,0.01 0.1,0.02 0,0.02 0.1,0.02 0,0.02 0.1,0.03 0,0.03 0.1,0.03 0,0.04 0,0.04 0.1,0.02 0,0.02 0,0.02 0,0.03 0,0.02 0,0.03 0,0.02 0.1,0.03 0,0.03 0,0.03 0,0.03 0,0.03 0,0.03 0,0.04 0,0.03 0,0.04 0,0.04 0,0.04 c 0,0.86 -0.8,0.86 -1.4,0.86 h -20.7 c -0.6,0 -1.4,0 -1.4,-0.83 0,-0.88 0.8,-0.88 1.4,-0.88 z"
           inkscape:connector-curvature="0"
           style="fill:#00c5b7;fill-opacity:0.72701685;stroke-width:0" /><path
           id="path3433"
           d="m 1123.3,155.23 0,0.05 0,0.04 0,0.04 0,0.04 0,0.04 0,0.04 0,0.04 0,0.03 0,0.03 0,0.04 0,0.03 0,0.03 0,0.03 0,0.03 0,0.02 0,0.03 0,0.03 0,0.02 0,0.02 0,0.03 0,0.04 0,0.03 0,0.04 -0.1,0.03 0,0.03 0,0.02 0,0.03 -0.1,0.02 0,0.01 0,0.02 -0.1,0.01 0,0.01 0,0.01 -0.1,0 0,0.01 0,0 0,0 -0.1,0.01 0,0 0,0 -0.1,0 0,0 0,0 -0.1,0.01 0,0 0,0 -0.1,0 0,0 -0.1,0 0,0 -0.1,0 0,0 c -2.2,-2.2 -5.4,-2.24 -6.8,-2.24 v -1.25 c 0.8,0 3.1,0 5,0.97 v -17.76 c 0,-1.16 0,-1.61 -3.5,-1.61 h -1.3 v -1.25 c 0.6,0.03 4.9,0.14 6.2,0.14 1.1,0 5.5,-0.11 6.3,-0.14 v 1.25 h -1.4 c -3.5,0 -3.5,0.45 -3.5,1.61 z"
           inkscape:connector-curvature="0"
           style="fill:#00c5b7;fill-opacity:0.72701685;stroke-width:0" /><path
           id="path3435"
           d="m 1059.2,89.938 0,-0.072 0,-0.073 -0.1,-0.076 0,-0.077 0,-0.157 0,-0.161 -0.1,-0.163 0,-0.162 -0.1,-0.161 0,-0.156 0,-0.076 0,-0.075 0,-0.072 -0.1,-0.071 0,-0.068 0,-0.065 0,-0.062 0,-0.06 0,-0.056 0,-0.052 0,-0.049 0,-0.044 -0.1,-0.04 0,-0.036 0,-0.031 0,-0.026 c 0,-0.891 0.7,-1.344 1.5,-1.344 0.6,0 1.5,0.391 1.8,1.391 0.1,0.203 1.8,6.984 2,7.875 0.4,1.64 1.3,5.121 1.6,6.481 0.2,0.64 1.6,2.99 2.8,4.08 0.4,0.34 1.8,1.64 4,1.64 1.3,0 2,-0.59 2.1,-0.59 -1.5,-0.25 -2.6,-1.45 -2.6,-2.74 0,-0.79 0.5,-1.75 1.9,-1.75 1.3,0 2.7,1.14 2.7,2.94 0,1.75 -1.6,3.24 -4.1,3.24 -3.3,0 -5.4,-2.44 -6.4,-3.83 -0.4,2.23 -2.2,3.83 -4.5,3.83 -2.3,0 -3.3,-1.94 -3.7,-2.83 -0.9,-1.71 -1.6,-4.69 -1.6,-4.85 0,-0.5 0.5,-0.5 0.6,-0.5 0.5,0 0.6,0.07 0.9,1.16 0.8,3.53 1.8,5.92 3.6,5.92 0.9,0 1.6,-0.39 1.6,-2.28 0,-1.05 -0.2,-1.61 -0.8,-4.19 z"
           inkscape:connector-curvature="0"
           style="fill:#00c5b7;fill-opacity:0.72701685;stroke-width:0" /><path
           id="path3437"
           d="m 1096.3,111.34 h -1.2 c -0.1,-0.76 -0.5,-2.82 -0.9,-3.17 -0.3,-0.2 -3,-0.2 -3.5,-0.2 h -6.4 c 3.7,3.23 4.9,4.2 7,5.84 2.6,2.07 5,4.22 5,7.53 0,4.22 -3.7,6.8 -8.2,6.8 -4.3,0 -7.2,-3.03 -7.2,-6.23 0,-1.79 1.5,-1.96 1.8,-1.96 0.9,0 1.9,0.6 1.9,1.85 0,0.62 -0.3,1.84 -2.1,1.84 1.1,2.47 3.5,3.24 5.1,3.24 3.5,0 5.3,-2.71 5.3,-5.54 0,-3.03 -2.2,-5.43 -3.3,-6.68 l -8.4,-8.3 c -0.3,-0.31 -0.3,-0.39 -0.3,-1.36 h 14.3 z"
           inkscape:connector-curvature="0"
           style="fill:#00c5b7;fill-opacity:0.72701685;stroke-width:0" /><path
           id="path3439"
           d="m 1094.2,94.277 0,0.047 0,0.046 0,0.044 0,0.043 0,0.042 0,0.041 0.1,0.039 0,0.038 0,0.073 0,0.069 0,0.064 0,0.06 0.1,0.055 0,0.052 0,0.048 0,0.045 0,0.041 0.1,0.038 0,0.035 0,0.031 0,0.03 0.1,0.026 0,0.024 0,0.021 0.1,0.02 0,0.017 0.1,0.016 0,0.014 0,0.012 0.1,0.011 0,0.01 0.1,0.008 0.1,0.008 0,0.007 0.1,0.007 0,0.006 c 0.2,0.031 1.4,0.031 2.1,0.031 2.2,0 3.1,0 3.9,-0.281 1.6,-0.485 1.7,-1.5 1.7,-2.75 0,-0.547 0,-1 -0.3,-2.813 l 0,-0.39 c 0,-0.344 0.2,-0.516 0.6,-0.516 0.5,0 0.6,0.313 0.6,0.859 l 1,6.657 c 0,0.5 -0.5,0.5 -1.1,0.5 h -21.4 c -0.9,0 -1,0 -1.2,-0.735 l -2.2,-6.172 c 0,-0.14 -0.2,-0.453 -0.2,-0.625 0,-0.14 0.1,-0.484 0.6,-0.484 0.5,0 0.5,0.172 0.8,0.828 2,5.578 3.1,5.922 8.4,5.922 h 1.5 c 1,0 1.1,-0.031 1.1,-0.344 0,-0.031 0,-0.203 -0.2,-0.734 l -4.6,-18.328 c -0.3,-1.281 -0.4,-1.641 -4.1,-1.641 -1.2,0 -1.5,0 -1.5,-0.765 0,-0.094 0.1,-0.485 0.6,-0.485 0.9,0 2,0.11 3,0.11 0.9,0 2,0.031 3,0.031 0.9,0 2.1,0 3.1,-0.031 0.9,-0.047 2,-0.11 2.9,-0.11 0.3,0 0.8,0 0.8,0.766 0,0.484 -0.3,0.484 -1.4,0.484 -0.6,0 -1.4,0.047 -2,0.078 -1.2,0.094 -1.3,0.235 -1.3,0.657 0,0.25 0,0.312 0.2,0.796 z"
           inkscape:connector-curvature="0"
           style="fill:#00c5b7;fill-opacity:0.72701685;stroke-width:0" /><polygon
           id="polygon3441"
           points="1134.5,395.94 1147.6,395.94 1147.6,309.75 1151.1,309.75 1151.1,399.38 1134.5,399.38 "
           style="fill:#00c5b7;fill-opacity:0.72701685;stroke-width:0" /><polygon
           id="polygon3443"
           points="1151.1,309.77 1147.6,309.77 1147.6,279.78 1151.1,279.78 "
           style="fill:#00c5b7;fill-opacity:0.72701685;stroke-width:0" /><polygon
           id="polygon3445"
           points="1151.1,279.89 1147.6,279.89 1147.6,249.9 1151.1,249.9 "
           style="fill:#00c5b7;fill-opacity:0.72701685;stroke-width:0" /><polygon
           id="polygon3447"
           points="1151.1,250.01 1147.6,250.01 1147.6,220.02 1151.1,220.02 "
           style="fill:#00c5b7;fill-opacity:0.72701685;stroke-width:0" /><polygon
           id="polygon3449"
           points="1151.1,220.12 1147.6,220.12 1147.6,190.14 1151.1,190.14 "
           style="fill:#00c5b7;fill-opacity:0.72701685;stroke-width:0" /><polygon
           id="polygon3451"
           points="1151.1,190.25 1147.6,190.25 1147.6,160.26 1151.1,160.26 "
           style="fill:#00c5b7;fill-opacity:0.72701685;stroke-width:0" /><polygon
           id="polygon3453"
           points="1151.1,160.4 1147.6,160.4 1147.6,74.195 1134.5,74.195 1134.5,70.758 1151.1,70.758 "
           style="fill:#00c5b7;fill-opacity:0.72701685;stroke-width:0" /><path
           id="path3455"
           d="m 1198.8,234.05 h 13.9 c 0.7,0 1.6,0 1.6,1 0,1 -0.9,1 -1.6,1 h -13.9 v 13.96 c 0,0.69 0,1.64 -1,1.64 -1,0 -1,-0.95 -1,-1.64 v -13.96 h -14 c -0.7,0 -1.6,0 -1.6,-1 0,-1 0.9,-1 1.6,-1 h 14 v -13.93 c 0,-0.71 0,-1.66 1,-1.66 1,0 1,0.95 1,1.66 z"
           inkscape:connector-curvature="0"
           style="fill:#00c5b7;fill-opacity:0.72701685;stroke-width:0" /><path
           id="path3457"
           d="m 1237.8,235.05 0,0.14 -0.1,0.13 0,0.14 0,0.13 0,0.12 -0.1,0.13 0,0.12 0,0.12 -0.1,0.12 -0.1,0.11 0,0.11 -0.1,0.11 -0.1,0.1 0,0.1 -0.1,0.1 -0.1,0.09 -0.1,0.09 -0.1,0.08 -0.1,0.08 -0.1,0.07 -0.1,0.07 -0.1,0.07 -0.1,0.05 -0.2,0.06 -0.1,0.04 -0.1,0.05 -0.1,0.03 -0.2,0.03 -0.1,0.02 -0.1,0.02 -0.1,0.01 -0.2,0.01 c -1.4,0 -2.6,-1.19 -2.6,-2.65 0,-1.43 1.2,-2.64 2.6,-2.64 1.5,0 2.7,1.21 2.7,2.64 z"
           inkscape:connector-curvature="0"
           style="fill:#00c5b7;fill-opacity:0.72701685;stroke-width:0" /><path
           id="path3459"
           d="m 1259.8,235.05 0,0.14 0,0.13 0,0.14 0,0.13 0,0.12 -0.1,0.13 0,0.12 -0.1,0.12 0,0.12 -0.1,0.11 0,0.11 -0.1,0.11 -0.1,0.1 -0.1,0.1 0,0.1 -0.1,0.09 -0.1,0.09 -0.1,0.08 -0.1,0.08 -0.1,0.07 -0.1,0.07 -0.1,0.07 -0.2,0.05 -0.1,0.06 -0.1,0.04 -0.1,0.05 -0.1,0.03 -0.2,0.03 -0.1,0.02 -0.1,0.02 -0.2,0.01 -0.1,0.01 c -1.4,0 -2.6,-1.19 -2.6,-2.65 0,-1.43 1.2,-2.64 2.6,-2.64 1.5,0 2.6,1.21 2.6,2.64 z"
           inkscape:connector-curvature="0"
           style="fill:#00c5b7;fill-opacity:0.72701685;stroke-width:0" /><path
           id="path3461"
           d="m 1281.9,235.05 0,0.14 0,0.13 0,0.14 0,0.13 -0.1,0.12 0,0.13 0,0.12 -0.1,0.12 0,0.12 -0.1,0.11 -0.1,0.11 0,0.11 -0.1,0.1 -0.1,0.1 -0.1,0.1 -0.1,0.09 -0.1,0.09 0,0.08 -0.1,0.08 -0.2,0.07 -0.1,0.07 -0.1,0.07 -0.1,0.05 -0.1,0.06 -0.1,0.04 -0.1,0.05 -0.2,0.03 -0.1,0.03 -0.1,0.02 -0.2,0.02 -0.1,0.01 -0.1,0.01 c -1.5,0 -2.7,-1.19 -2.7,-2.65 0,-1.43 1.2,-2.64 2.7,-2.64 1.4,0 2.6,1.21 2.6,2.64 z"
           inkscape:connector-curvature="0"
           style="fill:#00c5b7;fill-opacity:0.72701685;stroke-width:0" /><path
           id="path3463"
           d="m 1317.8,234.05 h 13.9 c 0.7,0 1.6,0 1.6,1 0,1 -0.9,1 -1.6,1 h -13.9 v 13.96 c 0,0.69 0,1.64 -1,1.64 -1,0 -1,-0.95 -1,-1.64 v -13.96 h -13.9 c -0.7,0 -1.7,0 -1.7,-1 0,-1 1,-1 1.7,-1 h 13.9 v -13.93 c 0,-0.71 0,-1.66 1,-1.66 1,0 1,0.95 1,1.66 z"
           inkscape:connector-curvature="0"
           style="fill:#00c5b7;fill-opacity:0.72701685;stroke-width:0" /><path
           id="path3465"
           d="m 1370.2,239.49 0.1,0.11 0,0.11 0,0.11 0,0.11 0.1,0.12 0,0.12 0.1,0.25 0,0.25 0.1,0.25 0,0.25 0.1,0.24 0,0.12 0.1,0.11 0,0.11 0,0.11 0,0.11 0.1,0.1 0,0.09 0,0.09 0,0.08 0,0.08 0.1,0.07 0,0.07 0,0.05 0,0.05 0,0.04 0,0.04 c 0,0.9 -0.7,1.34 -1.5,1.34 -0.6,0 -1.4,-0.39 -1.8,-1.39 -0.1,-0.34 -2.5,-9.86 -2.8,-11.16 -0.4,-1.5 -0.5,-2.39 -0.5,-3.29 0,-0.55 0,-0.64 0.1,-0.89 -1.2,-2.64 -2.7,-4.19 -4.6,-4.19 -4,0 -4,3.69 -4,4.53 0,1.59 0.3,3.55 2.6,9.67 0.5,1.49 0.8,2.19 0.8,3.19 0,2.23 -1.6,4.08 -4.1,4.08 -4.7,0 -6.5,-7.22 -6.5,-7.67 0,-0.5 0.5,-0.5 0.6,-0.5 0.5,0 0.5,0.1 0.8,0.9 1.3,4.63 3.2,6.17 5,6.17 0.4,0 1.2,-0.04 1.2,-1.64 0,-1.25 -0.5,-2.64 -0.9,-3.48 -2.1,-5.88 -2.7,-8.17 -2.7,-10.06 0,-4.54 3.3,-6.29 7,-6.29 0.9,0 3.2,0 5.2,3.49 1.3,-3.19 4.8,-3.49 6.3,-3.49 3.7,0 5.9,3.15 7.2,6.13 1.7,3.89 3.3,10.56 3.3,12.95 0,2.75 -1.4,3.49 -2.2,3.49 -1.3,0 -2.5,-1.3 -2.5,-2.39 0,-0.64 0.3,-0.94 0.7,-1.35 0.6,-0.54 1.8,-1.84 1.8,-4.23 0,-1.69 -1.4,-6.58 -2.7,-9.11 -1.3,-2.64 -3.1,-4.39 -5.5,-4.39 -2.4,0 -3.7,1.5 -3.7,4.33 0,1.4 0.3,2.95 0.6,3.64 z"
           inkscape:connector-curvature="0"
           style="fill:#00c5b7;fill-opacity:0.72701685;stroke-width:0" /><path
           id="path3467"
           d="m 1411.9,235.16 0.1,0.25 0.1,0.24 0,0.12 0.1,0.11 0,0.12 0.1,0.11 0,0.11 0.1,0.1 0.1,0.11 0,0.1 0.1,0.1 0.1,0.09 0.1,0.09 0.1,0.09 0.1,0.09 0.1,0.08 0.1,0.07 0.1,0.08 0.2,0.07 0.1,0.06 0.2,0.06 0.1,0.05 0.2,0.05 0.2,0.05 0.2,0.04 0.2,0.03 0.2,0.03 0.1,0.01 0.1,0.01 0.2,0.01 0.1,0.01 0.1,0 0.1,0.01 c 0.2,0 0.7,0.03 0.7,0.76 0,0.21 -0.1,0.49 -0.5,0.49 -1.1,0 -2.4,-0.14 -3.6,-0.14 -0.9,0 -2.9,0.14 -3.7,0.14 -0.2,0 -0.7,0 -0.7,-0.77 0,-0.45 0.4,-0.48 0.8,-0.48 1.6,-0.03 2.2,-0.56 2.2,-1.44 0,-0.27 0,-0.45 -0.2,-0.83 l -3.8,-15.19 -8.8,18.11 c -0.3,0.6 -0.3,0.6 -1.2,0.6 h -4.7 c -0.7,0 -1.2,0 -1.2,-0.77 0,-0.48 0.4,-0.48 1.2,-0.48 0.7,0 1.5,-0.03 2.2,-0.17 l -4.7,-18.64 c -0.3,-1.33 -0.9,-2.38 -3.6,-2.49 -0.2,0 -0.7,-0.03 -0.7,-0.73 0,-0.38 0.3,-0.52 0.5,-0.52 1.2,0 2.4,0.14 3.6,0.14 0.9,0 2.9,-0.14 3.7,-0.14 0.4,0 0.7,0.17 0.7,0.74 0,0.48 -0.4,0.51 -0.8,0.51 -2.2,0.08 -2.2,0.99 -2.2,1.47 0,0.14 0,0.31 0.2,0.87 l 4.4,17.83 10.2,-20.83 c 0.3,-0.56 0.4,-0.59 0.8,-0.59 0.5,0 0.5,0.11 0.7,0.74 z"
           inkscape:connector-curvature="0"
           style="fill:#00c5b7;fill-opacity:0.72701685;stroke-width:0" /><polygon
           id="polygon3469"
           points="1461.8,399.38 1445.2,399.38 1445.2,309.75 1448.6,309.75 1448.6,395.94 1461.8,395.94 "
           style="fill:#00c5b7;fill-opacity:0.72701685;stroke-width:0" /><polygon
           id="polygon3471"
           points="1448.6,309.77 1445.2,309.77 1445.2,279.78 1448.6,279.78 "
           style="fill:#00c5b7;fill-opacity:0.72701685;stroke-width:0" /><polygon
           id="polygon3473"
           points="1448.6,279.89 1445.2,279.89 1445.2,249.9 1448.6,249.9 "
           style="fill:#00c5b7;fill-opacity:0.72701685;stroke-width:0" /><polygon
           id="polygon3475"
           points="1448.6,250.01 1445.2,250.01 1445.2,220.02 1448.6,220.02 "
           style="fill:#00c5b7;fill-opacity:0.72701685;stroke-width:0" /><polygon
           id="polygon3477"
           points="1448.6,220.12 1445.2,220.12 1445.2,190.14 1448.6,190.14 "
           style="fill:#00c5b7;fill-opacity:0.72701685;stroke-width:0" /><polygon
           id="polygon3479"
           points="1448.6,190.25 1445.2,190.25 1445.2,160.26 1448.6,160.26 "
           style="fill:#00c5b7;fill-opacity:0.72701685;stroke-width:0" /><polygon
           id="polygon3481"
           points="1448.6,160.4 1445.2,160.4 1445.2,70.758 1461.8,70.758 1461.8,74.195 1448.6,74.195 "
           style="fill:#00c5b7;fill-opacity:0.72701685;stroke-width:0" /><path
           id="path3483"
           d="m 1488.2,362.22 0,-0.07 0,-0.08 -0.1,-0.07 0,-0.08 0,-0.16 0,-0.16 -0.1,-0.16 0,-0.16 -0.1,-0.16 0,-0.16 0,-0.08 0,-0.07 0,-0.07 -0.1,-0.07 0,-0.07 0,-0.07 0,-0.06 0,-0.06 0,-0.05 0,-0.06 0,-0.04 0,-0.05 -0.1,-0.04 0,-0.03 0,-0.04 0,-0.02 c 0,-0.89 0.7,-1.35 1.5,-1.35 0.6,0 1.5,0.39 1.8,1.39 0.1,0.21 1.8,6.99 2,7.88 0.4,1.64 1.3,5.12 1.6,6.48 0.2,0.64 1.6,2.99 2.8,4.08 0.4,0.35 1.8,1.64 4,1.64 1.3,0 2,-0.59 2.1,-0.59 -1.5,-0.25 -2.6,-1.45 -2.6,-2.73 0,-0.8 0.5,-1.76 1.9,-1.76 1.3,0 2.7,1.15 2.7,2.94 0,1.75 -1.6,3.24 -4.1,3.24 -3.3,0 -5.4,-2.44 -6.4,-3.83 -0.4,2.23 -2.2,3.83 -4.5,3.83 -2.3,0 -3.3,-1.94 -3.7,-2.83 -0.9,-1.7 -1.6,-4.69 -1.6,-4.85 0,-0.5 0.5,-0.5 0.6,-0.5 0.5,0 0.6,0.07 0.9,1.16 0.8,3.53 1.8,5.92 3.6,5.92 0.9,0 1.6,-0.39 1.6,-2.28 0,-1.04 -0.2,-1.61 -0.8,-4.19 z"
           inkscape:connector-curvature="0"
           style="fill:#00c5b7;fill-opacity:0.72701685;stroke-width:0" /><path
           id="path3485"
           d="m 1536.7,397.4 0.1,0.24 0.1,0.25 0,0.11 0.1,0.12 0,0.11 0.1,0.12 0,0.11 0.1,0.1 0.1,0.11 0,0.1 0.1,0.1 0.1,0.09 0.1,0.09 0.1,0.09 0.1,0.09 0.1,0.08 0.1,0.07 0.1,0.08 0.2,0.06 0.1,0.07 0.2,0.06 0.1,0.05 0.2,0.05 0.2,0.04 0.2,0.04 0.2,0.04 0.2,0.03 0.1,0.01 0.1,0.01 0.2,0.01 0.1,0 0.1,0.01 0.1,0.01 c 0.2,0 0.7,0.03 0.7,0.76 0,0.2 -0.1,0.49 -0.5,0.49 -1.1,0 -2.4,-0.15 -3.6,-0.15 -0.8,0 -2.9,0.15 -3.7,0.15 -0.2,0 -0.7,0 -0.7,-0.77 0,-0.45 0.4,-0.48 0.8,-0.48 1.6,-0.04 2.2,-0.57 2.2,-1.44 0,-0.27 0,-0.46 -0.2,-0.83 l -3.7,-15.19 -8.9,18.11 c -0.3,0.6 -0.3,0.6 -1.2,0.6 h -4.8 c -0.6,0 -1.1,0 -1.1,-0.77 0,-0.48 0.5,-0.48 1.2,-0.48 0.7,0 1.5,-0.04 2.2,-0.18 l -4.7,-18.64 c -0.3,-1.33 -0.9,-2.37 -3.6,-2.48 -0.2,0 -0.7,-0.03 -0.7,-0.74 0,-0.37 0.3,-0.51 0.5,-0.51 1.2,0 2.4,0.14 3.6,0.14 0.9,0 2.9,-0.14 3.7,-0.14 0.4,0 0.7,0.17 0.7,0.73 0,0.49 -0.4,0.52 -0.8,0.52 -2.2,0.08 -2.2,0.98 -2.2,1.47 0,0.14 0,0.31 0.2,0.87 l 4.4,17.83 10.2,-20.83 c 0.3,-0.56 0.4,-0.59 0.8,-0.59 0.5,0 0.5,0.11 0.7,0.73 z"
           inkscape:connector-curvature="0"
           style="fill:#00c5b7;fill-opacity:0.72701685;stroke-width:0" /><path
           id="path3487"
           d="m 1517.9,369.08 0,0.04 0,0.04 0,0.05 0,0.04 0,0.03 0,0.04 0,0.04 0,0.03 0,0.04 0,0.03 0,0.03 0,0.03 0,0.03 0,0.03 0,0.03 0,0.02 0,0.03 0,0.02 0,0.05 0,0.04 -0.1,0.04 0,0.03 0,0.03 0,0.03 0,0.03 -0.1,0.02 0,0.02 0,0.02 -0.1,0.01 0,0.02 -0.1,0.01 0,0 0,0.01 0,0 -0.1,0 0,0.01 0,0 0,0 -0.1,0 0,0.01 0,0 -0.1,0 0,0 0,0 -0.1,0 0,0 -0.1,0 0,0 0,0 -0.1,0 0,0 c -2.3,-2.2 -5.4,-2.23 -6.9,-2.23 v -1.25 c 0.9,0 3.2,0 5.1,0.97 v -17.77 c 0,-1.16 0,-1.61 -3.5,-1.61 h -1.3 v -1.25 c 0.6,0.03 4.9,0.14 6.2,0.14 1.1,0 5.5,-0.11 6.2,-0.14 v 1.25 h -1.3 c -3.5,0 -3.5,0.45 -3.5,1.61 z"
           inkscape:connector-curvature="0"
           style="fill:#00c5b7;fill-opacity:0.72701685;stroke-width:0" /><path
           id="path3489"
           d="m 1488.2,302.34 0,-0.08 0,-0.07 -0.1,-0.07 0,-0.08 0,-0.16 0,-0.16 -0.1,-0.16 0,-0.17 -0.1,-0.16 0,-0.15 0,-0.08 0,-0.07 0,-0.08 -0.1,-0.07 0,-0.06 0,-0.07 0,-0.06 0,-0.06 0,-0.06 0,-0.05 0,-0.05 0,-0.04 -0.1,-0.04 0,-0.04 0,-0.03 0,-0.02 c 0,-0.9 0.7,-1.35 1.5,-1.35 0.6,0 1.5,0.39 1.8,1.39 0.1,0.21 1.8,6.99 2,7.88 0.4,1.64 1.3,5.12 1.6,6.48 0.2,0.64 1.6,2.99 2.8,4.08 0.4,0.34 1.8,1.64 4,1.64 1.3,0 2,-0.59 2.1,-0.59 -1.5,-0.25 -2.6,-1.46 -2.6,-2.74 0,-0.79 0.5,-1.75 1.9,-1.75 1.3,0 2.7,1.14 2.7,2.94 0,1.75 -1.6,3.23 -4.1,3.23 -3.3,0 -5.4,-2.43 -6.4,-3.82 -0.4,2.23 -2.2,3.82 -4.5,3.82 -2.3,0 -3.3,-1.93 -3.7,-2.82 -0.9,-1.71 -1.6,-4.69 -1.6,-4.85 0,-0.5 0.5,-0.5 0.6,-0.5 0.5,0 0.6,0.06 0.9,1.16 0.8,3.53 1.8,5.92 3.6,5.92 0.9,0 1.6,-0.39 1.6,-2.28 0,-1.05 -0.2,-1.61 -0.8,-4.19 z"
           inkscape:connector-curvature="0"
           style="fill:#00c5b7;fill-opacity:0.72701685;stroke-width:0" /><path
           id="path3491"
           d="m 1536.7,337.52 0.1,0.25 0.1,0.24 0,0.12 0.1,0.11 0,0.12 0.1,0.11 0,0.11 0.1,0.1 0.1,0.11 0,0.1 0.1,0.1 0.1,0.09 0.1,0.09 0.1,0.09 0.1,0.09 0.1,0.08 0.1,0.07 0.1,0.08 0.2,0.06 0.1,0.07 0.2,0.06 0.1,0.05 0.2,0.05 0.2,0.05 0.2,0.03 0.2,0.04 0.2,0.03 0.1,0.01 0.1,0.01 0.2,0.01 0.1,0.01 0.1,0 0.1,0.01 c 0.2,0 0.7,0.03 0.7,0.76 0,0.21 -0.1,0.49 -0.5,0.49 -1.1,0 -2.4,-0.14 -3.6,-0.14 -0.8,0 -2.9,0.14 -3.7,0.14 -0.2,0 -0.7,0 -0.7,-0.77 0,-0.45 0.4,-0.48 0.8,-0.48 1.6,-0.03 2.2,-0.57 2.2,-1.44 0,-0.27 0,-0.45 -0.2,-0.83 l -3.7,-15.19 -8.9,18.11 c -0.3,0.6 -0.3,0.6 -1.2,0.6 h -4.8 c -0.6,0 -1.1,0 -1.1,-0.77 0,-0.48 0.5,-0.48 1.2,-0.48 0.7,0 1.5,-0.03 2.2,-0.18 l -4.7,-18.64 c -0.3,-1.32 -0.9,-2.37 -3.6,-2.48 -0.2,0 -0.7,-0.03 -0.7,-0.73 0,-0.38 0.3,-0.52 0.5,-0.52 1.2,0 2.4,0.14 3.6,0.14 0.9,0 2.9,-0.14 3.7,-0.14 0.4,0 0.7,0.17 0.7,0.73 0,0.49 -0.4,0.52 -0.8,0.52 -2.2,0.08 -2.2,0.98 -2.2,1.47 0,0.14 0,0.31 0.2,0.87 l 4.4,17.83 10.2,-20.83 c 0.3,-0.56 0.4,-0.59 0.8,-0.59 0.5,0 0.5,0.11 0.7,0.73 z"
           inkscape:connector-curvature="0"
           style="fill:#00c5b7;fill-opacity:0.72701685;stroke-width:0" /><path
           id="path3493"
           d="m 1523.8,293.38 h -1.2 c 0,-0.76 -0.4,-2.83 -0.9,-3.17 -0.2,-0.2 -2.9,-0.2 -3.4,-0.2 h -6.4 c 3.6,3.23 4.9,4.2 6.9,5.84 2.6,2.06 5,4.22 5,7.53 0,4.22 -3.7,6.8 -8.1,6.8 -4.3,0 -7.3,-3.03 -7.3,-6.23 0,-1.79 1.5,-1.96 1.9,-1.96 0.8,0 1.8,0.6 1.8,1.85 0,0.62 -0.2,1.84 -2,1.84 1,2.47 3.4,3.23 5.1,3.23 3.4,0 5.3,-2.7 5.3,-5.53 0,-3.03 -2.2,-5.43 -3.3,-6.68 l -8.4,-8.3 c -0.4,-0.31 -0.4,-0.39 -0.4,-1.36 h 14.4 z"
           inkscape:connector-curvature="0"
           style="fill:#00c5b7;fill-opacity:0.72701685;stroke-width:0" /><path
           id="path3495"
           d="m 1517.2,249 0,0.13 0,0.14 0,0.13 0,0.13 0,0.12 -0.1,0.13 0,0.12 -0.1,0.12 0,0.12 -0.1,0.11 0,0.11 -0.1,0.11 -0.1,0.1 -0.1,0.1 0,0.1 -0.1,0.09 -0.1,0.09 -0.1,0.08 -0.1,0.08 -0.1,0.07 -0.1,0.07 -0.1,0.07 -0.2,0.06 -0.1,0.05 -0.1,0.05 -0.1,0.04 -0.1,0.04 -0.2,0.03 -0.1,0.02 -0.1,0.02 -0.2,0.01 -0.1,0 c -1.4,0 -2.6,-1.2 -2.6,-2.64 0,-1.44 1.2,-2.64 2.6,-2.64 1.5,0 2.6,1.2 2.6,2.64 z"
           inkscape:connector-curvature="0"
           style="fill:#00c5b7;fill-opacity:0.72701685;stroke-width:0" /><path
           id="path3497"
           d="m 1517.2,229.08 0,0.14 0,0.13 0,0.13 0,0.13 0,0.13 -0.1,0.12 0,0.12 -0.1,0.12 0,0.12 -0.1,0.11 0,0.11 -0.1,0.11 -0.1,0.1 -0.1,0.1 0,0.1 -0.1,0.09 -0.1,0.09 -0.1,0.08 -0.1,0.08 -0.1,0.08 -0.1,0.07 -0.1,0.06 -0.2,0.06 -0.1,0.05 -0.1,0.05 -0.1,0.04 -0.1,0.04 -0.2,0.03 -0.1,0.02 -0.1,0.02 -0.2,0.01 -0.1,0 c -1.4,0 -2.6,-1.2 -2.6,-2.64 0,-1.43 1.2,-2.64 2.6,-2.64 1.5,0 2.6,1.21 2.6,2.64 z"
           inkscape:connector-curvature="0"
           style="fill:#00c5b7;fill-opacity:0.72701685;stroke-width:0" /><path
           id="path3499"
           d="m 1517.2,209.16 0,0.13 0,0.14 0,0.13 0,0.13 0,0.12 -0.1,0.13 0,0.12 -0.1,0.12 0,0.12 -0.1,0.11 0,0.11 -0.1,0.11 -0.1,0.1 -0.1,0.1 0,0.1 -0.1,0.09 -0.1,0.09 -0.1,0.08 -0.1,0.08 -0.1,0.07 -0.1,0.07 -0.1,0.07 -0.2,0.06 -0.1,0.05 -0.1,0.05 -0.1,0.04 -0.1,0.04 -0.2,0.03 -0.1,0.02 -0.1,0.02 -0.2,0.01 -0.1,0 c -1.4,0 -2.6,-1.2 -2.6,-2.64 0,-1.44 1.2,-2.64 2.6,-2.64 1.5,0 2.6,1.2 2.6,2.64 z"
           inkscape:connector-curvature="0"
           style="fill:#00c5b7;fill-opacity:0.72701685;stroke-width:0" /><path
           id="path3501"
           d="m 1466.6,149.58 0,-0.07 0,-0.08 -0.1,-0.07 0,-0.08 0,-0.16 0,-0.16 -0.1,-0.16 0,-0.16 -0.1,-0.16 0,-0.16 0,-0.08 0,-0.07 0,-0.07 -0.1,-0.07 0,-0.07 0,-0.07 0,-0.06 0,-0.06 0,-0.05 0,-0.06 0,-0.04 0,-0.05 -0.1,-0.04 0,-0.04 0,-0.03 0,-0.02 c 0,-0.89 0.7,-1.35 1.5,-1.35 0.6,0 1.5,0.39 1.8,1.39 0.1,0.21 1.8,6.99 2,7.88 0.4,1.64 1.3,5.12 1.6,6.48 0.2,0.64 1.6,2.99 2.8,4.08 0.4,0.35 1.8,1.64 4,1.64 1.3,0 2,-0.59 2.1,-0.59 -1.5,-0.25 -2.6,-1.45 -2.6,-2.74 0,-0.79 0.5,-1.75 1.9,-1.75 1.3,0 2.7,1.14 2.7,2.94 0,1.75 -1.6,3.24 -4.1,3.24 -3.3,0 -5.4,-2.44 -6.4,-3.83 -0.4,2.23 -2.2,3.83 -4.5,3.83 -2.3,0 -3.3,-1.94 -3.7,-2.83 -0.9,-1.71 -1.6,-4.69 -1.6,-4.85 0,-0.5 0.5,-0.5 0.6,-0.5 0.6,0 0.6,0.07 0.9,1.16 0.8,3.53 1.8,5.92 3.6,5.92 0.9,0 1.6,-0.39 1.6,-2.28 0,-1.05 -0.2,-1.61 -0.8,-4.19 z"
           inkscape:connector-curvature="0"
           style="fill:#00c5b7;fill-opacity:0.72701685;stroke-width:0" /><path
           id="path3503"
           d="m 1515.1,184.76 0.1,0.25 0.1,0.24 0,0.12 0.1,0.11 0,0.12 0.1,0.11 0,0.11 0.1,0.11 0.1,0.1 0,0.1 0.1,0.1 0.1,0.09 0.1,0.1 0.1,0.08 0.1,0.09 0.1,0.08 0.1,0.08 0.1,0.07 0.2,0.07 0.1,0.06 0.2,0.06 0.1,0.05 0.2,0.05 0.2,0.05 0.2,0.04 0.2,0.03 0.2,0.03 0.1,0.01 0.1,0.01 0.2,0.01 0.1,0.01 0.1,0 0.1,0.01 c 0.2,0 0.7,0.03 0.7,0.76 0,0.21 -0.1,0.49 -0.5,0.49 -1.1,0 -2.4,-0.14 -3.6,-0.14 -0.8,0 -2.9,0.14 -3.7,0.14 -0.2,0 -0.7,0 -0.7,-0.77 0,-0.45 0.4,-0.48 0.8,-0.48 1.6,-0.03 2.2,-0.56 2.2,-1.44 0,-0.27 -0.1,-0.45 -0.2,-0.83 l -3.7,-15.19 -8.9,18.11 c -0.3,0.6 -0.3,0.6 -1.2,0.6 h -4.8 c -0.6,0 -1.1,0 -1.1,-0.77 0,-0.48 0.5,-0.48 1.2,-0.48 0.7,0 1.5,-0.03 2.2,-0.17 l -4.7,-18.64 c -0.3,-1.33 -0.9,-2.38 -3.6,-2.49 -0.2,0 -0.7,-0.03 -0.7,-0.73 0,-0.38 0.3,-0.52 0.5,-0.52 1.2,0 2.4,0.14 3.6,0.14 0.9,0 2.9,-0.14 3.7,-0.14 0.4,0 0.7,0.17 0.7,0.74 0,0.48 -0.4,0.51 -0.8,0.51 -2.2,0.08 -2.2,0.99 -2.2,1.47 0,0.14 0,0.31 0.2,0.87 l 4.4,17.83 10.2,-20.83 c 0.3,-0.56 0.4,-0.59 0.8,-0.59 0.5,0 0.5,0.11 0.7,0.74 z"
           inkscape:connector-curvature="0"
           style="fill:#00c5b7;fill-opacity:0.72701685;stroke-width:0" /><path
           id="path3505"
           d="m 1501.6,154.04 0,0.05 0,0.04 0,0.05 0,0.04 0,0.04 0,0.04 0.1,0.04 0,0.04 0,0.07 0,0.07 0,0.06 0,0.06 0.1,0.06 0,0.05 0,0.05 0,0.04 0,0.05 0.1,0.03 0,0.04 0,0.03 0,0.03 0.1,0.03 0,0.02 0,0.02 0.1,0.02 0,0.02 0.1,0.01 0,0.02 0,0.01 0.1,0.01 0,0.01 0.1,0.01 0.1,0.01 0,0 0.1,0.01 0.1,0.01 c 0.1,0.03 1.4,0.03 2.1,0.03 2.1,0 3,0 3.8,-0.28 1.6,-0.49 1.7,-1.5 1.7,-2.75 0,-0.55 0,-1 -0.2,-2.82 l -0.1,-0.39 c 0,-0.34 0.2,-0.51 0.6,-0.51 0.5,0 0.6,0.31 0.6,0.86 l 1,6.65 c 0,0.5 -0.4,0.5 -1.1,0.5 h -21.4 c -0.9,0 -0.9,0 -1.2,-0.73 l -2.2,-6.17 c 0,-0.14 -0.2,-0.46 -0.2,-0.63 0,-0.14 0.1,-0.48 0.6,-0.48 0.5,0 0.5,0.17 0.8,0.83 2,5.57 3.1,5.92 8.4,5.92 h 1.5 c 1,0 1.1,-0.03 1.1,-0.35 0,-0.03 0,-0.2 -0.2,-0.73 l -4.6,-18.33 c -0.3,-1.28 -0.4,-1.64 -4,-1.64 -1.3,0 -1.6,0 -1.6,-0.76 0,-0.1 0.1,-0.49 0.6,-0.49 1,0 2,0.11 3,0.11 1,0 2,0.03 3,0.03 1,0 2.1,0 3.1,-0.03 1,-0.05 2,-0.11 2.9,-0.11 0.3,0 0.9,0 0.9,0.77 0,0.48 -0.4,0.48 -1.5,0.48 -0.7,0 -1.3,0.05 -2,0.08 -1.2,0.09 -1.3,0.23 -1.3,0.66 0,0.25 0,0.31 0.2,0.79 z"
           inkscape:connector-curvature="0"
           style="fill:#00c5b7;fill-opacity:0.72701685;stroke-width:0" /><path
           id="path3507"
           d="m 1539.5,140.84 0,0 0.1,0 0.1,0 0.1,0 0.1,0 0,0.01 0.1,0 0.1,0.01 0,0.01 0.1,0.01 0,0.01 0.1,0.02 0,0.01 0.1,0.02 0,0.02 0.1,0.03 0,0.02 0.1,0.03 0,0.03 0.1,0.04 0,0.04 0,0.02 0,0.02 0,0.02 0.1,0.03 0,0.02 0,0.03 0,0.03 0,0.02 0,0.03 0,0.03 0,0.03 0,0.03 0.1,0.04 0,0.03 0,0.04 0,0.03 0,0.04 0,0.04 c 0,0.86 -0.8,0.86 -1.4,0.86 h -20.8 c -0.5,0 -1.4,0 -1.4,-0.83 0,-0.87 0.8,-0.87 1.4,-0.87 z"
           inkscape:connector-curvature="0"
           style="fill:#00c5b7;fill-opacity:0.72701685;stroke-width:0" /><path
           id="path3509"
           d="m 1556.3,155.12 0,0.04 0,0.04 0,0.05 0,0.04 0,0.03 0,0.04 0,0.04 0,0.03 0,0.04 0,0.03 0,0.03 0,0.03 0,0.03 0,0.03 0,0.03 0,0.02 0,0.03 0,0.02 0,0.05 0,0.04 -0.1,0.04 0,0.03 0,0.03 0,0.03 0,0.03 -0.1,0.02 0,0.02 0,0.02 -0.1,0.01 0,0.01 -0.1,0.02 0,0 0,0 0,0.01 -0.1,0 0,0.01 0,0 0,0 -0.1,0 0,0 0,0.01 -0.1,0 0,0 0,0 -0.1,0 0,0 -0.1,0 0,0 0,0 -0.1,0 0,0 c -2.3,-2.2 -5.4,-2.23 -6.9,-2.23 v -1.25 c 0.9,0 3.2,0 5.1,0.97 v -17.77 c 0,-1.16 0,-1.61 -3.5,-1.61 h -1.3 v -1.25 c 0.6,0.03 4.9,0.14 6.2,0.14 1.1,0 5.5,-0.11 6.2,-0.14 v 1.25 h -1.3 c -3.5,0 -3.5,0.45 -3.5,1.61 z"
           inkscape:connector-curvature="0"
           style="fill:#00c5b7;fill-opacity:0.72701685;stroke-width:0" /><path
           id="path3511"
           d="m 1488.2,89.816 0,-0.071 0,-0.073 -0.1,-0.076 0,-0.077 0,-0.157 0,-0.161 -0.1,-0.163 0,-0.163 -0.1,-0.16 0,-0.156 0,-0.077 0,-0.074 0,-0.072 -0.1,-0.071 0,-0.068 0,-0.065 0,-0.062 0,-0.06 0,-0.056 0,-0.052 0,-0.049 0,-0.044 -0.1,-0.04 0,-0.036 0,-0.031 0,-0.026 c 0,-0.891 0.7,-1.344 1.5,-1.344 0.6,0 1.5,0.391 1.8,1.391 0.1,0.203 1.8,6.984 2,7.875 0.4,1.64 1.3,5.122 1.6,6.482 0.2,0.64 1.6,2.99 2.8,4.08 0.4,0.34 1.8,1.64 4,1.64 1.3,0 2,-0.59 2.1,-0.59 -1.5,-0.25 -2.6,-1.46 -2.6,-2.74 0,-0.79 0.5,-1.75 1.9,-1.75 1.3,0 2.7,1.14 2.7,2.94 0,1.75 -1.6,3.23 -4.1,3.23 -3.3,0 -5.4,-2.43 -6.4,-3.82 -0.4,2.23 -2.2,3.82 -4.5,3.82 -2.3,0 -3.3,-1.93 -3.7,-2.82 -0.9,-1.71 -1.6,-4.69 -1.6,-4.85 0,-0.5 0.5,-0.5 0.6,-0.5 0.5,0 0.6,0.07 0.9,1.16 0.8,3.53 1.8,5.92 3.6,5.92 0.9,0 1.6,-0.39 1.6,-2.28 0,-1.05 -0.2,-1.61 -0.8,-4.19 z"
           inkscape:connector-curvature="0"
           style="fill:#00c5b7;fill-opacity:0.72701685;stroke-width:0" /><path
           id="path3513"
           d="m 1536.7,124.88 0.1,0.25 0.1,0.24 0,0.11 0.1,0.12 0,0.11 0.1,0.12 0,0.11 0.1,0.1 0.1,0.11 0,0.1 0.1,0.1 0.1,0.09 0.1,0.09 0.1,0.09 0.1,0.09 0.1,0.08 0.1,0.07 0.1,0.08 0.2,0.06 0.1,0.07 0.2,0.06 0.1,0.05 0.2,0.05 0.2,0.05 0.2,0.03 0.2,0.04 0.2,0.03 0.1,0.01 0.1,0.01 0.2,0.01 0.1,0.01 0.1,0 0.1,0.01 c 0.2,0 0.7,0.03 0.7,0.76 0,0.21 -0.1,0.49 -0.5,0.49 -1.1,0 -2.4,-0.14 -3.6,-0.14 -0.8,0 -2.9,0.14 -3.7,0.14 -0.2,0 -0.7,0 -0.7,-0.77 0,-0.45 0.4,-0.48 0.8,-0.48 1.6,-0.04 2.2,-0.57 2.2,-1.44 0,-0.27 0,-0.45 -0.2,-0.83 l -3.7,-15.19 -8.9,18.11 c -0.3,0.6 -0.3,0.6 -1.2,0.6 h -4.8 c -0.6,0 -1.1,0 -1.1,-0.77 0,-0.48 0.5,-0.48 1.2,-0.48 0.7,0 1.5,-0.04 2.2,-0.18 l -4.7,-18.64 c -0.3,-1.32 -0.9,-2.37 -3.6,-2.48 -0.2,0 -0.7,-0.03 -0.7,-0.74 0,-0.37 0.3,-0.51 0.5,-0.51 1.2,0 2.4,0.14 3.6,0.14 0.9,0 2.9,-0.14 3.7,-0.14 0.4,0 0.7,0.17 0.7,0.73 0,0.49 -0.4,0.52 -0.8,0.52 -2.2,0.08 -2.2,0.98 -2.2,1.47 0,0.14 0,0.31 0.2,0.87 l 4.4,17.83 10.2,-20.83 c 0.3,-0.56 0.4,-0.59 0.8,-0.59 0.5,0 0.5,0.11 0.7,0.73 z"
           inkscape:connector-curvature="0"
           style="fill:#00c5b7;fill-opacity:0.72701685;stroke-width:0" /><path
           id="path3515"
           d="m 1523.2,94.156 0,0.047 0,0.046 0,0.044 0,0.043 0,0.042 0,0.041 0.1,0.039 0,0.038 0,0.073 0,0.069 0,0.064 0,0.06 0.1,0.055 0,0.052 0,0.048 0,0.045 0,0.041 0.1,0.038 0,0.035 0,0.031 0,0.029 0.1,0.027 0,0.024 0,0.021 0.1,0.02 0,0.017 0.1,0.016 0,0.014 0,0.012 0.1,0.011 0,0.01 0.1,0.008 0.1,0.008 0,0.007 0.1,0.007 0,0.006 c 0.2,0.031 1.4,0.031 2.1,0.031 2.2,0 3.1,0 3.9,-0.281 1.6,-0.485 1.7,-1.5 1.7,-2.75 0,-0.547 0,-1 -0.3,-2.813 l 0,-0.39 c 0,-0.344 0.2,-0.516 0.6,-0.516 0.5,0 0.6,0.313 0.6,0.859 l 1,6.657 c 0,0.5 -0.5,0.5 -1.1,0.5 h -21.4 c -0.9,0 -1,0 -1.2,-0.735 l -2.2,-6.172 c 0,-0.14 -0.2,-0.453 -0.2,-0.625 0,-0.14 0.1,-0.484 0.6,-0.484 0.5,0 0.5,0.172 0.8,0.828 2,5.578 3.1,5.922 8.4,5.922 h 1.5 c 1,0 1.1,-0.031 1.1,-0.344 0,-0.031 0,-0.203 -0.2,-0.734 l -4.6,-18.328 c -0.3,-1.281 -0.4,-1.641 -4.1,-1.641 -1.2,0 -1.5,0 -1.5,-0.766 0,-0.093 0.1,-0.484 0.6,-0.484 0.9,0 2,0.11 3,0.11 0.9,0 2,0.031 3,0.031 0.9,0 2.1,0 3.1,-0.031 0.9,-0.047 2,-0.11 2.9,-0.11 0.3,0 0.8,0 0.8,0.766 0,0.484 -0.3,0.484 -1.4,0.484 -0.6,0 -1.4,0.047 -2,0.078 -1.2,0.094 -1.3,0.235 -1.3,0.656 0,0.25 0,0.313 0.2,0.797 z"
           inkscape:connector-curvature="0"
           style="fill:#00c5b7;fill-opacity:0.72701685;stroke-width:0" /><polygon
           id="polygon3517"
           points="1567.3,395.94 1580.5,395.94 1580.5,309.75 1583.9,309.75 1583.9,399.38 1567.3,399.38 "
           style="fill:#00c5b7;fill-opacity:0.72701685;stroke-width:0" /><polygon
           id="polygon3519"
           points="1583.9,309.77 1580.5,309.77 1580.5,279.78 1583.9,279.78 "
           style="fill:#00c5b7;fill-opacity:0.72701685;stroke-width:0" /><polygon
           id="polygon3521"
           points="1583.9,279.89 1580.5,279.89 1580.5,249.9 1583.9,249.9 "
           style="fill:#00c5b7;fill-opacity:0.72701685;stroke-width:0" /><polygon
           id="polygon3523"
           points="1583.9,250.01 1580.5,250.01 1580.5,220.02 1583.9,220.02 "
           style="fill:#00c5b7;fill-opacity:0.72701685;stroke-width:0" /><polygon
           id="polygon3525"
           points="1583.9,220.12 1580.5,220.12 1580.5,190.14 1583.9,190.14 "
           style="fill:#00c5b7;fill-opacity:0.72701685;stroke-width:0" /><polygon
           id="polygon3527"
           points="1583.9,190.25 1580.5,190.25 1580.5,160.26 1583.9,160.26 "
           style="fill:#00c5b7;fill-opacity:0.72701685;stroke-width:0" /><polygon
           id="polygon3529"
           points="1583.9,160.4 1580.5,160.4 1580.5,74.195 1567.3,74.195 1567.3,70.758 1583.9,70.758 "
           style="fill:#00c5b7;fill-opacity:0.72701685;stroke-width:0" /><path
           id="path3531"
           d="m 1650.2,238.9 0.4,-0.33 0.4,-0.32 0.4,-0.31 0.4,-0.29 0.4,-0.29 0.4,-0.27 0.5,-0.26 0.4,-0.25 0.4,-0.23 0.4,-0.22 0.4,-0.21 0.4,-0.2 0.3,-0.19 0.4,-0.17 0.2,-0.08 0.1,-0.08 0.2,-0.07 0.1,-0.08 c -1.7,-0.79 -4.2,-2.09 -6.2,-3.82 h -31.7 c -0.8,0 -1.8,0 -1.8,-1 0,-1 0.9,-1 1.8,-1 h 29.4 c -2.4,-2.3 -5,-6.68 -5,-7.33 0,-0.55 0.7,-0.55 1,-0.55 0.4,0 0.7,0 0.9,0.41 1.1,1.89 2.5,4.53 5.7,7.42 3.4,3.03 6.8,4.37 9.4,5.12 0.8,0.3 0.9,0.36 1,0.46 0.1,0.04 0.1,0.2 0.1,0.29 0,0.11 0,0.21 -0.1,0.3 l -0.1,0.11 c -0.1,0.05 -0.2,0.09 -1.1,0.39 -6.8,2 -11.7,6.53 -14.5,11.86 -0.6,1 -0.6,1.05 -1.3,1.05 -0.3,0 -1,0 -1,-0.55 0,-0.66 2.6,-4.98 5,-7.33 h -29.4 c -0.9,0 -1.8,0 -1.8,-1 0,-0.98 1,-0.98 1.8,-0.98 z"
           inkscape:connector-curvature="0"
           style="fill:#00c5b7;fill-opacity:0.72701685;stroke-width:0" /><polygon
           id="polygon3533"
           points="1710.6,399.38 1693.9,399.38 1693.9,309.75 1697.4,309.75 1697.4,395.94 1710.6,395.94 "
           style="fill:#00c5b7;fill-opacity:0.72701685;stroke-width:0" /><polygon
           id="polygon3535"
           points="1697.4,309.77 1693.9,309.77 1693.9,279.78 1697.4,279.78 "
           style="fill:#00c5b7;fill-opacity:0.72701685;stroke-width:0" /><polygon
           id="polygon3537"
           points="1697.4,279.89 1693.9,279.89 1693.9,249.9 1697.4,249.9 "
           style="fill:#00c5b7;fill-opacity:0.72701685;stroke-width:0" /><polygon
           id="polygon3539"
           points="1697.4,250.01 1693.9,250.01 1693.9,220.02 1697.4,220.02 "
           style="fill:#00c5b7;fill-opacity:0.72701685;stroke-width:0" /><polygon
           id="polygon3541"
           points="1697.4,220.12 1693.9,220.12 1693.9,190.14 1697.4,190.14 "
           style="fill:#00c5b7;fill-opacity:0.72701685;stroke-width:0" /><polygon
           id="polygon3543"
           points="1697.4,190.25 1693.9,190.25 1693.9,160.26 1697.4,160.26 "
           style="fill:#00c5b7;fill-opacity:0.72701685;stroke-width:0" /><polygon
           id="polygon3545"
           points="1697.4,160.4 1693.9,160.4 1693.9,70.758 1710.6,70.758 1710.6,74.195 1697.4,74.195 "
           style="fill:#00c5b7;fill-opacity:0.72701685;stroke-width:0" /><path
           id="path3547"
           d="m 1739.2,362.22 0,-0.07 0,-0.08 0,-0.07 0,-0.08 -0.1,-0.16 0,-0.16 0,-0.16 -0.1,-0.16 0,-0.16 -0.1,-0.16 0,-0.08 0,-0.07 0,-0.07 0,-0.07 0,-0.07 0,-0.07 -0.1,-0.06 0,-0.06 0,-0.05 0,-0.06 0,-0.04 0,-0.05 0,-0.04 0,-0.03 0,-0.04 0,-0.02 c 0,-0.89 0.7,-1.35 1.4,-1.35 0.6,0 1.5,0.39 1.9,1.39 0.1,0.21 1.8,6.99 2,7.88 0.3,1.64 1.3,5.12 1.6,6.48 0.2,0.64 1.5,2.99 2.7,4.08 0.4,0.35 1.9,1.64 4,1.64 1.3,0 2.1,-0.59 2.1,-0.59 -1.5,-0.25 -2.6,-1.45 -2.6,-2.73 0,-0.8 0.6,-1.76 1.9,-1.76 1.4,0 2.8,1.15 2.8,2.94 0,1.75 -1.6,3.24 -4.2,3.24 -3.2,0 -5.4,-2.44 -6.4,-3.83 -0.3,2.23 -2.1,3.83 -4.5,3.83 -2.3,0 -3.2,-1.94 -3.7,-2.83 -0.9,-1.7 -1.5,-4.69 -1.5,-4.85 0,-0.5 0.5,-0.5 0.6,-0.5 0.5,0 0.5,0.07 0.8,1.16 0.9,3.53 1.9,5.92 3.7,5.92 0.8,0 1.5,-0.39 1.5,-2.28 0,-1.04 -0.1,-1.61 -0.8,-4.19 z"
           inkscape:connector-curvature="0"
           style="fill:#00c5b7;fill-opacity:0.72701685;stroke-width:0" /><path
           id="path3549"
           d="m 1770.6,388.2 0.1,1.12 2.4,9.44 c 0.3,1.08 0.3,1.19 1.8,1.19 h 4.1 c 3.2,0 5.2,-0.99 5.2,-3.46 0,-1.08 -0.4,-3.83 -2.1,-5.4 -1.3,-1.11 -3.3,-1.77 -5.8,-1.77 h -5.6 l -0.1,-1.12 h 6.3 c 5.9,0 10.9,3.76 10.9,7.56 0,2.94 -2.9,5.44 -7.7,5.44 h -12.2 c -0.7,0 -1.1,0 -1.1,-0.77 0,-0.48 0.4,-0.48 1.2,-0.48 0.6,0 0.7,0 1.3,-0.08 0.7,-0.07 0.8,-0.14 0.8,-0.49 0,-0.06 0,-0.23 -0.2,-0.76 l -4.6,-18.36 c -0.3,-1.36 -0.4,-1.61 -3.1,-1.61 -0.6,0 -1,0 -1,-0.77 0,-0.03 0,-0.48 0.6,-0.48 1,0 3.5,0.14 4.5,0.14 0.6,0 1.8,0 2.4,-0.03 0.7,-0.05 1.5,-0.11 2.2,-0.11 0.2,0 0.7,0 0.7,0.76 0,0.49 -0.4,0.49 -1.1,0.49 0,0 -0.7,0 -1.3,0.08 -0.8,0.06 -0.8,0.17 -0.8,0.51 0,0.03 0,0.25 0.2,0.77 z"
           inkscape:connector-curvature="0"
           style="fill:#00c5b7;fill-opacity:0.72701685;stroke-width:0" /><path
           id="path3551"
           d="m 1768.9,369.08 0,0.04 0,0.04 0,0.05 0,0.04 0,0.03 0,0.04 0,0.04 0,0.03 0,0.04 0,0.03 0,0.03 0,0.03 0,0.03 0,0.03 0,0.03 0,0.02 0,0.03 0,0.02 0,0.03 0,0.02 0,0.04 0,0.04 0,0.03 -0.1,0.03 0,0.03 0,0.03 0,0.02 -0.1,0.02 0,0.02 0,0.01 -0.1,0.02 0,0.01 0,0 -0.1,0.01 0,0 0,0 0,0.01 -0.1,0 0,0 0,0 -0.1,0.01 0,0 0,0 -0.1,0 0,0 0,0 -0.1,0 0,0 -0.1,0 0,0 0,0 -0.1,0 c -2.2,-2.2 -5.4,-2.23 -6.8,-2.23 v -1.25 c 0.8,0 3.1,0 5,0.97 v -17.77 c 0,-1.16 0,-1.61 -3.5,-1.61 h -1.3 v -1.25 c 0.6,0.03 4.9,0.14 6.2,0.14 1.1,0 5.5,-0.11 6.3,-0.14 v 1.25 h -1.4 c -3.5,0 -3.5,0.45 -3.5,1.61 z"
           inkscape:connector-curvature="0"
           style="fill:#00c5b7;fill-opacity:0.72701685;stroke-width:0" /><path
           id="path3553"
           d="m 1739.2,302.34 0,-0.08 0,-0.07 0,-0.07 0,-0.08 -0.1,-0.16 0,-0.16 0,-0.16 -0.1,-0.17 0,-0.16 -0.1,-0.15 0,-0.08 0,-0.07 0,-0.08 0,-0.07 0,-0.06 0,-0.07 -0.1,-0.06 0,-0.06 0,-0.06 0,-0.05 0,-0.05 0,-0.04 0,-0.04 0,-0.04 0,-0.03 0,-0.02 c 0,-0.9 0.7,-1.35 1.4,-1.35 0.6,0 1.5,0.39 1.9,1.39 0.1,0.21 1.8,6.99 2,7.88 0.3,1.64 1.3,5.12 1.6,6.48 0.2,0.64 1.5,2.99 2.7,4.08 0.4,0.34 1.9,1.64 4,1.64 1.3,0 2.1,-0.59 2.1,-0.59 -1.5,-0.25 -2.6,-1.46 -2.6,-2.74 0,-0.79 0.6,-1.75 1.9,-1.75 1.4,0 2.8,1.14 2.8,2.94 0,1.75 -1.6,3.23 -4.2,3.23 -3.2,0 -5.4,-2.43 -6.4,-3.82 -0.3,2.23 -2.1,3.82 -4.5,3.82 -2.3,0 -3.2,-1.93 -3.7,-2.82 -0.9,-1.71 -1.5,-4.69 -1.5,-4.85 0,-0.5 0.5,-0.5 0.6,-0.5 0.5,0 0.5,0.06 0.8,1.16 0.9,3.53 1.9,5.92 3.7,5.92 0.8,0 1.5,-0.39 1.5,-2.28 0,-1.05 -0.1,-1.61 -0.8,-4.19 z"
           inkscape:connector-curvature="0"
           style="fill:#00c5b7;fill-opacity:0.72701685;stroke-width:0" /><path
           id="path3555"
           d="m 1770.6,328.32 0.1,1.12 2.4,9.44 c 0.3,1.08 0.3,1.19 1.8,1.19 h 4.1 c 3.2,0 5.2,-0.99 5.2,-3.46 0,-1.07 -0.4,-3.82 -2.1,-5.4 -1.3,-1.11 -3.3,-1.77 -5.8,-1.77 h -5.6 l -0.1,-1.12 h 6.3 c 5.9,0 10.9,3.76 10.9,7.56 0,2.94 -2.9,5.44 -7.7,5.44 h -12.2 c -0.7,0 -1.1,0 -1.1,-0.77 0,-0.48 0.4,-0.48 1.2,-0.48 0.6,0 0.7,0 1.3,-0.08 0.7,-0.06 0.8,-0.14 0.8,-0.49 0,-0.06 0,-0.23 -0.2,-0.76 l -4.6,-18.36 c -0.3,-1.36 -0.4,-1.61 -3.1,-1.61 -0.6,0 -1,0 -1,-0.77 0,-0.03 0,-0.48 0.6,-0.48 1,0 3.5,0.14 4.5,0.14 0.6,0 1.8,0 2.4,-0.03 0.7,-0.05 1.5,-0.11 2.2,-0.11 0.2,0 0.7,0 0.7,0.77 0,0.48 -0.4,0.48 -1.1,0.48 0,0 -0.7,0 -1.3,0.08 -0.8,0.06 -0.8,0.17 -0.8,0.51 0,0.03 0,0.25 0.2,0.77 z"
           inkscape:connector-curvature="0"
           style="fill:#00c5b7;fill-opacity:0.72701685;stroke-width:0" /><path
           id="path3557"
           d="m 1774.9,293.38 h -1.2 c -0.1,-0.76 -0.5,-2.83 -0.9,-3.17 -0.3,-0.2 -3,-0.2 -3.5,-0.2 h -6.4 c 3.7,3.23 4.9,4.2 7,5.84 2.6,2.06 5,4.22 5,7.53 0,4.22 -3.7,6.8 -8.2,6.8 -4.3,0 -7.2,-3.03 -7.2,-6.23 0,-1.79 1.5,-1.96 1.8,-1.96 0.9,0 1.9,0.6 1.9,1.85 0,0.62 -0.3,1.84 -2.1,1.84 1.1,2.47 3.5,3.23 5.1,3.23 3.5,0 5.3,-2.7 5.3,-5.53 0,-3.03 -2.2,-5.43 -3.3,-6.68 l -8.4,-8.3 c -0.3,-0.31 -0.3,-0.39 -0.3,-1.36 h 14.3 z"
           inkscape:connector-curvature="0"
           style="fill:#00c5b7;fill-opacity:0.72701685;stroke-width:0" /><path
           id="path3559"
           d="m 1766,249 0,0.13 0,0.14 0,0.13 -0.1,0.13 0,0.12 0,0.13 -0.1,0.12 0,0.12 -0.1,0.12 0,0.11 -0.1,0.11 -0.1,0.11 0,0.1 -0.1,0.1 -0.1,0.1 -0.1,0.09 -0.1,0.09 -0.1,0.08 -0.1,0.08 -0.1,0.07 -0.1,0.07 -0.1,0.07 -0.1,0.06 -0.1,0.05 -0.1,0.05 -0.2,0.04 -0.1,0.04 -0.1,0.03 -0.1,0.02 -0.2,0.02 -0.1,0.01 -0.1,0 c -1.5,0 -2.7,-1.2 -2.7,-2.64 0,-1.44 1.2,-2.64 2.7,-2.64 1.4,0 2.6,1.2 2.6,2.64 z"
           inkscape:connector-curvature="0"
           style="fill:#00c5b7;fill-opacity:0.72701685;stroke-width:0" /><path
           id="path3561"
           d="m 1766,229.08 0,0.14 0,0.13 0,0.13 -0.1,0.13 0,0.13 0,0.12 -0.1,0.12 0,0.12 -0.1,0.12 0,0.11 -0.1,0.11 -0.1,0.11 0,0.1 -0.1,0.1 -0.1,0.1 -0.1,0.09 -0.1,0.09 -0.1,0.08 -0.1,0.08 -0.1,0.08 -0.1,0.07 -0.1,0.06 -0.1,0.06 -0.1,0.05 -0.1,0.05 -0.2,0.04 -0.1,0.04 -0.1,0.03 -0.1,0.02 -0.2,0.02 -0.1,0.01 -0.1,0 c -1.5,0 -2.7,-1.2 -2.7,-2.64 0,-1.43 1.2,-2.64 2.7,-2.64 1.4,0 2.6,1.21 2.6,2.64 z"
           inkscape:connector-curvature="0"
           style="fill:#00c5b7;fill-opacity:0.72701685;stroke-width:0" /><path
           id="path3563"
           d="m 1766,209.16 0,0.13 0,0.14 0,0.13 -0.1,0.13 0,0.12 0,0.13 -0.1,0.12 0,0.12 -0.1,0.12 0,0.11 -0.1,0.11 -0.1,0.11 0,0.1 -0.1,0.1 -0.1,0.1 -0.1,0.09 -0.1,0.09 -0.1,0.08 -0.1,0.08 -0.1,0.07 -0.1,0.07 -0.1,0.07 -0.1,0.06 -0.1,0.05 -0.1,0.05 -0.2,0.04 -0.1,0.04 -0.1,0.03 -0.1,0.02 -0.2,0.02 -0.1,0.01 -0.1,0 c -1.5,0 -2.7,-1.2 -2.7,-2.64 0,-1.44 1.2,-2.64 2.7,-2.64 1.4,0 2.6,1.2 2.6,2.64 z"
           inkscape:connector-curvature="0"
           style="fill:#00c5b7;fill-opacity:0.72701685;stroke-width:0" /><path
           id="path3565"
           d="m 1715.2,149.58 0,-0.07 0,-0.08 0,-0.07 0,-0.08 -0.1,-0.16 0,-0.16 0,-0.16 -0.1,-0.16 0,-0.16 -0.1,-0.16 0,-0.08 0,-0.07 0,-0.07 0,-0.07 0,-0.07 0,-0.07 -0.1,-0.06 0,-0.06 0,-0.05 0,-0.06 0,-0.04 0,-0.05 0,-0.04 0,-0.04 0,-0.03 0,-0.02 c 0,-0.89 0.7,-1.35 1.4,-1.35 0.6,0 1.5,0.39 1.9,1.39 0.1,0.21 1.8,6.99 2,7.88 0.3,1.64 1.3,5.12 1.6,6.48 0.2,0.64 1.5,2.99 2.7,4.08 0.4,0.35 1.9,1.64 4,1.64 1.3,0 2.1,-0.59 2.1,-0.59 -1.5,-0.25 -2.6,-1.45 -2.6,-2.74 0,-0.79 0.6,-1.75 1.9,-1.75 1.4,0 2.8,1.14 2.8,2.94 0,1.75 -1.6,3.24 -4.2,3.24 -3.2,0 -5.4,-2.44 -6.4,-3.83 -0.3,2.23 -2.1,3.83 -4.5,3.83 -2.3,0 -3.2,-1.94 -3.7,-2.83 -0.9,-1.71 -1.5,-4.69 -1.5,-4.85 0,-0.5 0.5,-0.5 0.6,-0.5 0.5,0 0.5,0.07 0.8,1.16 0.9,3.53 1.9,5.92 3.7,5.92 0.8,0 1.5,-0.39 1.5,-2.28 0,-1.05 -0.1,-1.61 -0.8,-4.19 z"
           inkscape:connector-curvature="0"
           style="fill:#00c5b7;fill-opacity:0.72701685;stroke-width:0" /><path
           id="path3567"
           d="m 1746.6,175.56 0.1,1.12 2.4,9.44 c 0.3,1.08 0.3,1.19 1.8,1.19 h 4.1 c 3.2,0 5.2,-0.99 5.2,-3.46 0,-1.07 -0.4,-3.82 -2.1,-5.4 -1.3,-1.11 -3.3,-1.77 -5.8,-1.77 h -5.6 l -0.1,-1.12 h 6.3 c 5.9,0 10.9,3.76 10.9,7.56 0,2.94 -2.9,5.44 -7.7,5.44 h -12.2 c -0.7,0 -1.1,0 -1.1,-0.77 0,-0.48 0.4,-0.48 1.2,-0.48 0.6,0 0.7,0 1.3,-0.08 0.7,-0.06 0.8,-0.14 0.8,-0.48 0,-0.07 0,-0.24 -0.2,-0.77 l -4.6,-18.36 c -0.3,-1.36 -0.4,-1.61 -3.1,-1.61 -0.6,0 -1,0 -1,-0.76 0,-0.04 0,-0.49 0.6,-0.49 1,0 3.5,0.14 4.5,0.14 0.6,0 1.8,0 2.4,-0.03 0.7,-0.05 1.5,-0.11 2.2,-0.11 0.2,0 0.7,0 0.7,0.77 0,0.48 -0.4,0.48 -1.1,0.48 0,0 -0.7,0 -1.3,0.08 -0.8,0.06 -0.8,0.17 -0.8,0.51 0,0.04 0,0.25 0.2,0.77 z"
           inkscape:connector-curvature="0"
           style="fill:#00c5b7;fill-opacity:0.72701685;stroke-width:0" /><path
           id="path3569"
           d="m 1750.2,154.04 0,0.05 0,0.04 0.1,0.05 0,0.04 0,0.04 0,0.04 0,0.04 0,0.04 0,0.07 0,0.07 0.1,0.06 0,0.06 0,0.06 0,0.05 0,0.05 0.1,0.04 0,0.05 0,0.03 0,0.04 0.1,0.03 0,0.03 0,0.03 0,0.02 0.1,0.02 0,0.02 0.1,0.02 0,0.01 0,0.02 0.1,0.01 0,0.01 0.1,0.01 0,0.01 0.1,0.01 0.1,0 0,0.01 0.1,0.01 c 0.2,0.03 1.4,0.03 2.1,0.03 2.1,0 3,0 3.9,-0.28 1.6,-0.49 1.6,-1.5 1.6,-2.75 0,-0.55 0,-1 -0.2,-2.82 l -0.1,-0.39 c 0,-0.34 0.3,-0.51 0.6,-0.51 0.5,0 0.6,0.31 0.7,0.86 l 0.9,6.65 c 0,0.5 -0.4,0.5 -1,0.5 h -21.5 c -0.8,0 -0.9,0 -1.1,-0.73 l -2.3,-6.17 c 0,-0.14 -0.1,-0.46 -0.1,-0.63 0,-0.14 0,-0.48 0.6,-0.48 0.4,0 0.5,0.17 0.7,0.83 2,5.57 3.2,5.92 8.5,5.92 h 1.4 c 1.1,0 1.1,-0.03 1.1,-0.35 0,-0.03 0,-0.2 -0.1,-0.73 l -4.6,-18.33 c -0.3,-1.28 -0.5,-1.64 -4.1,-1.64 -1.2,0 -1.6,0 -1.6,-0.76 0,-0.1 0.1,-0.49 0.6,-0.49 1,0 2,0.11 3,0.11 1,0 2,0.03 3,0.03 1,0 2.2,0 3.1,-0.03 1,-0.05 2,-0.11 3,-0.11 0.3,0 0.8,0 0.8,0.77 0,0.48 -0.4,0.48 -1.4,0.48 -0.7,0 -1.4,0.05 -2.1,0.08 -1.1,0.09 -1.2,0.23 -1.2,0.66 0,0.25 0,0.31 0.1,0.79 z"
           inkscape:connector-curvature="0"
           style="fill:#00c5b7;fill-opacity:0.72701685;stroke-width:0" /><path
           id="path3571"
           d="m 1788.1,140.84 0.1,0 0,0 0.1,0 0.2,0 0,0 0.1,0.01 0,0 0.1,0.01 0,0.01 0.1,0.01 0.1,0.01 0,0.02 0.1,0.01 0,0.02 0.1,0.02 0,0.03 0.1,0.02 0,0.03 0.1,0.03 0,0.04 0,0.04 0.1,0.02 0,0.02 0,0.02 0,0.03 0,0.02 0,0.03 0,0.03 0.1,0.02 0,0.03 0,0.03 0,0.03 0,0.03 0,0.04 0,0.03 0,0.04 0,0.03 0,0.04 0,0.04 c 0,0.86 -0.8,0.86 -1.4,0.86 h -20.7 c -0.6,0 -1.4,0 -1.4,-0.83 0,-0.87 0.8,-0.87 1.4,-0.87 z"
           inkscape:connector-curvature="0"
           style="fill:#00c5b7;fill-opacity:0.72701685;stroke-width:0" /><path
           id="path3573"
           d="m 1804.9,155.12 0,0.04 0,0.04 0,0.05 0,0.04 0,0.03 0,0.04 0,0.04 0,0.03 0,0.04 0,0.03 0,0.03 0,0.03 0,0.03 0,0.03 0,0.03 0,0.02 0,0.03 0,0.02 0,0.05 0,0.04 0,0.04 0,0.03 -0.1,0.03 0,0.03 0,0.03 0,0.02 -0.1,0.02 0,0.02 0,0.01 -0.1,0.01 0,0.02 0,0 -0.1,0 0,0.01 0,0 0,0.01 -0.1,0 0,0 0,0 -0.1,0 0,0.01 0,0 -0.1,0 0,0 0,0 -0.1,0 0,0 -0.1,0 0,0 -0.1,0 0,0 c -2.2,-2.2 -5.4,-2.23 -6.8,-2.23 v -1.25 c 0.8,0 3.1,0 5,0.97 v -17.77 c 0,-1.16 0,-1.61 -3.5,-1.61 h -1.3 v -1.25 c 0.6,0.03 4.9,0.14 6.2,0.14 1.1,0 5.5,-0.11 6.3,-0.14 v 1.25 h -1.4 c -3.5,0 -3.5,0.45 -3.5,1.61 z"
           inkscape:connector-curvature="0"
           style="fill:#00c5b7;fill-opacity:0.72701685;stroke-width:0" /><path
           id="path3575"
           d="m 1739.2,89.816 0,-0.071 0,-0.073 0,-0.076 0,-0.077 -0.1,-0.157 0,-0.161 0,-0.163 -0.1,-0.163 0,-0.16 -0.1,-0.156 0,-0.077 0,-0.074 0,-0.072 0,-0.071 0,-0.068 0,-0.065 -0.1,-0.062 0,-0.06 0,-0.056 0,-0.052 0,-0.049 0,-0.044 0,-0.04 0,-0.036 0,-0.031 0,-0.026 c 0,-0.891 0.7,-1.344 1.4,-1.344 0.6,0 1.5,0.391 1.9,1.391 0.1,0.203 1.8,6.984 2,7.875 0.3,1.64 1.3,5.122 1.6,6.482 0.2,0.64 1.5,2.99 2.7,4.08 0.4,0.34 1.9,1.64 4,1.64 1.3,0 2.1,-0.59 2.1,-0.59 -1.5,-0.25 -2.6,-1.46 -2.6,-2.74 0,-0.79 0.6,-1.75 1.9,-1.75 1.4,0 2.8,1.14 2.8,2.94 0,1.75 -1.6,3.23 -4.2,3.23 -3.2,0 -5.4,-2.43 -6.4,-3.82 -0.3,2.23 -2.1,3.82 -4.5,3.82 -2.3,0 -3.2,-1.93 -3.7,-2.82 -0.9,-1.71 -1.5,-4.69 -1.5,-4.85 0,-0.5 0.5,-0.5 0.6,-0.5 0.5,0 0.5,0.07 0.8,1.16 0.9,3.53 1.9,5.92 3.7,5.92 0.8,0 1.5,-0.39 1.5,-2.28 0,-1.05 -0.1,-1.61 -0.8,-4.19 z"
           inkscape:connector-curvature="0"
           style="fill:#00c5b7;fill-opacity:0.72701685;stroke-width:0" /><path
           id="path3577"
           d="m 1770.6,115.68 0.1,1.12 2.4,9.44 c 0.3,1.08 0.3,1.19 1.8,1.19 h 4.1 c 3.2,0 5.2,-0.99 5.2,-3.46 0,-1.08 -0.4,-3.83 -2.1,-5.4 -1.3,-1.11 -3.3,-1.77 -5.8,-1.77 h -5.6 l -0.1,-1.12 h 6.3 c 5.9,0 10.9,3.76 10.9,7.56 0,2.94 -2.9,5.44 -7.7,5.44 h -12.2 c -0.7,0 -1.1,0 -1.1,-0.77 0,-0.48 0.4,-0.48 1.2,-0.48 0.6,0 0.7,0 1.3,-0.08 0.7,-0.06 0.8,-0.14 0.8,-0.49 0,-0.06 0,-0.23 -0.2,-0.76 l -4.6,-18.36 c -0.3,-1.36 -0.4,-1.61 -3.1,-1.61 -0.6,0 -1,0 -1,-0.77 0,-0.03 0,-0.48 0.6,-0.48 1,0 3.5,0.14 4.5,0.14 0.6,0 1.8,0 2.4,-0.03 0.7,-0.05 1.5,-0.11 2.2,-0.11 0.2,0 0.7,0 0.7,0.76 0,0.49 -0.4,0.49 -1.1,0.49 0,0 -0.7,0 -1.3,0.08 -0.8,0.06 -0.8,0.17 -0.8,0.51 0,0.03 0,0.25 0.2,0.77 z"
           inkscape:connector-curvature="0"
           style="fill:#00c5b7;fill-opacity:0.72701685;stroke-width:0" /><path
           id="path3579"
           d="m 1774.2,94.156 0,0.047 0,0.046 0.1,0.044 0,0.043 0,0.042 0,0.041 0,0.039 0,0.038 0,0.073 0,0.069 0.1,0.064 0,0.06 0,0.055 0,0.052 0,0.048 0.1,0.045 0,0.041 0,0.038 0,0.035 0.1,0.031 0,0.029 0,0.027 0,0.024 0.1,0.021 0,0.02 0.1,0.017 0,0.016 0,0.014 0.1,0.012 0,0.011 0.1,0.01 0,0.008 0.1,0.008 0.1,0.007 0,0.007 0.1,0.006 c 0.2,0.031 1.4,0.031 2.1,0.031 2.1,0 3,0 3.9,-0.281 1.6,-0.485 1.6,-1.5 1.6,-2.75 0,-0.547 0,-1 -0.2,-2.813 l -0.1,-0.39 c 0,-0.344 0.3,-0.516 0.6,-0.516 0.5,0 0.6,0.313 0.7,0.859 l 0.9,6.657 c 0,0.5 -0.4,0.5 -1,0.5 h -21.5 c -0.8,0 -0.9,0 -1.1,-0.735 l -2.3,-6.172 c 0,-0.14 -0.1,-0.453 -0.1,-0.625 0,-0.14 0,-0.484 0.6,-0.484 0.4,0 0.5,0.172 0.7,0.828 2,5.578 3.2,5.922 8.5,5.922 h 1.4 c 1.1,0 1.1,-0.031 1.1,-0.344 0,-0.031 0,-0.203 -0.1,-0.734 l -4.6,-18.328 c -0.3,-1.281 -0.5,-1.641 -4.1,-1.641 -1.2,0 -1.6,0 -1.6,-0.766 0,-0.093 0.1,-0.484 0.6,-0.484 1,0 2,0.11 3,0.11 1,0 2,0.031 3,0.031 1,0 2.2,0 3.1,-0.031 1,-0.047 2,-0.11 3,-0.11 0.3,0 0.8,0 0.8,0.766 0,0.484 -0.4,0.484 -1.4,0.484 -0.7,0 -1.4,0.047 -2.1,0.078 -1.1,0.094 -1.2,0.235 -1.2,0.656 0,0.25 0,0.313 0.1,0.797 z"
           inkscape:connector-curvature="0"
           style="fill:#00c5b7;fill-opacity:0.72701685;stroke-width:0" /><polygon
           id="polygon3581"
           points="1816.1,395.94 1829.2,395.94 1829.2,309.75 1832.7,309.75 1832.7,399.38 1816.1,399.38 "
           style="fill:#00c5b7;fill-opacity:0.72701685;stroke-width:0" /><polygon
           id="polygon3583"
           points="1832.7,309.77 1829.2,309.77 1829.2,279.78 1832.7,279.78 "
           style="fill:#00c5b7;fill-opacity:0.72701685;stroke-width:0" /><polygon
           id="polygon3585"
           points="1832.7,279.89 1829.2,279.89 1829.2,249.9 1832.7,249.9 "
           style="fill:#00c5b7;fill-opacity:0.72701685;stroke-width:0" /><polygon
           id="polygon3587"
           points="1832.7,250.01 1829.2,250.01 1829.2,220.02 1832.7,220.02 "
           style="fill:#00c5b7;fill-opacity:0.72701685;stroke-width:0" /><polygon
           id="polygon3589"
           points="1832.7,220.12 1829.2,220.12 1829.2,190.14 1832.7,190.14 "
           style="fill:#00c5b7;fill-opacity:0.72701685;stroke-width:0" /><polygon
           id="polygon3591"
           points="1832.7,190.25 1829.2,190.25 1829.2,160.26 1832.7,160.26 "
           style="fill:#00c5b7;fill-opacity:0.72701685;stroke-width:0" /><polygon
           id="polygon3593"
           points="1832.7,160.4 1829.2,160.4 1829.2,74.195 1816.1,74.195 1816.1,70.758 1832.7,70.758 "
           style="fill:#00c5b7;fill-opacity:0.72701685;stroke-width:0" /></g>      <g
         id="g22104"
         style="fill:#ffffff">
        <path
           style="font-size:medium;font-style:normal;font-variant:normal;font-weight:normal;font-stretch:normal;text-indent:0;text-align:start;text-decoration:none;line-height:normal;letter-spacing:normal;word-spacing:normal;text-transform:none;direction:ltr;block-progression:tb;writing-mode:lr-tb;text-anchor:start;baseline-shift:baseline;color:#000000;fill:#ffffff;fill-opacity:1;stroke:none;stroke-width:3.59263515000000000;marker:none;visibility:visible;display:inline;overflow:visible;enable-background:accumulate;font-family:Sans;-inkscape-font-specification:Sans"
           d="m 1870.5938,1002.25 c 0,0 -86.4032,0.7447 -173.1876,1.3438 -43.3921,0.2995 -86.8658,0.5751 -119.6874,0.6874 -16.4109,0.056 -30.1763,0.064 -39.9063,0.031 -4.865,-0.016 -8.7251,-0.05 -11.4063,-0.094 -1.3405,-0.022 -2.3782,-0.034 -3.0937,-0.063 -0.3578,-0.014 -0.6425,-0.049 -0.8125,-0.062 -0.085,-0.01 -0.1463,0 -0.1562,0 -0.01,-0 -0.017,-0.038 0.3124,0.094 l -1.3437,3.3125 c 0.3766,0.1506 0.4427,0.1399 0.5625,0.1562 0.1198,0.016 0.2173,0.021 0.3438,0.031 0.2529,0.02 0.5534,0.047 0.9374,0.062 0.7682,0.03 1.832,0.04 3.1876,0.062 2.711,0.044 6.5957,0.077 11.4687,0.094 9.746,0.033 23.4913,0.025 39.9063,-0.031 32.8298,-0.1123 76.3244,-0.388 119.7187,-0.6875 86.7886,-0.5991 173.1875,-1.3437 173.1875,-1.3437 l -0.031,-3.5938 z"
           id="path2985"
           inkscape:connector-curvature="0" />
        <path
           d="m 1851.7489,995.51373 23.6258,8.45617 -23.4757,8.8642 c 3.7181,-5.1455 3.6358,-12.1408 -0.1501,-17.32037 z"
           style="fill-rule:evenodd;stroke-width:0.62500000000000000;stroke-linejoin:round;fill:#ffffff"
           id="path22110"
           inkscape:connector-curvature="0" />
      </g>
      <path
         style="fill:#000000;fill-opacity:0;stroke:#00c5b7;stroke-width:3.18667006px;stroke-linecap:butt;stroke-linejoin:miter;stroke-opacity:1"
         d="m 1522.9848,1002.6406 c 33.386,-1.4369 67.9147,3.7716 97.5282,-13.65453 21.6645,-13.7296 28.7802,-40.53809 33.3853,-64.22975 5.3767,-27.81494 9.1187,-56.72338 21.6301,-82.26887 5.5563,-11.34474 15.1653,-21.82787 26.5076,-13.14271 12.3419,12.98599 14.0878,30.78303 17.241,47.06122 5.2639,32.80479 7.8327,68.47212 28.7932,95.78491 20.4239,21.6374 46.5377,24.3306 74.1145,27.4692 7.8468,1.01303 21.1494,0.73503 28.982,1.21573"
         id="path4481"
         inkscape:connector-curvature="0"
         sodipodi:nodetypes="cccsccccc" />
      <g
         transform="matrix(4.6006295,0,0,4.6006295,1302.3183,264.14786)"
         style="font-size:8px;font-style:normal;font-variant:normal;font-weight:normal;font-stretch:normal;text-align:start;line-height:125%;letter-spacing:0px;word-spacing:0px;writing-mode:lr-tb;text-anchor:start;fill:#00c5b8;fill-opacity:0.9372549;stroke:none;font-family:Times New Roman;-inkscape-font-specification:'Times New Roman,'"
         id="flowRoot4483">
        <path
           d="m 130.08984,160.21431 -2.24218,0 c -0.008,0.10938 -0.0117,0.21745 -0.0117,0.32422 l 2.15625,0 -0.0898,0.30469 -2.05859,0 c 0.0208,0.54948 0.13021,1.00781 0.32812,1.375 0.23177,0.42708 0.54427,0.64062 0.9375,0.64062 0.34896,0 0.64063,-0.0898 0.875,-0.26953 0.14063,-0.10677 0.31901,-0.30989 0.53516,-0.60937 l 0.12109,0.0781 c -0.22396,0.35417 -0.42708,0.60677 -0.60937,0.75782 -0.29948,0.24739 -0.65886,0.37109 -1.07813,0.37109 -0.59895,0 -1.0625,-0.2487 -1.39062,-0.74609 -0.26823,-0.40625 -0.42708,-0.93881 -0.47656,-1.59766 l -0.39453,0 0.0898,-0.30469 0.28906,0 0,-0.0625 c 0,-0.0781 0.003,-0.16536 0.008,-0.26172 l -0.38672,0 0.0898,-0.30468 0.32813,0 c 0.0885,-0.61719 0.29947,-1.1263 0.63281,-1.52735 0.38281,-0.46353 0.87239,-0.69531 1.46875,-0.69531 0.44531,0 0.88802,0.11459 1.32812,0.34375 l 0,1.16797 -0.15234,0 c -0.0677,-0.83593 -0.45964,-1.2539 -1.17578,-1.25391 -0.41146,1e-5 -0.73698,0.21745 -0.97657,0.65235 -0.18489,0.33854 -0.30599,0.77604 -0.36328,1.3125 l 2.3086,0 -0.0898,0.30468"
           style="fill:#00c5b8;fill-opacity:0.9372549"
           id="path3021"
           inkscape:connector-curvature="0" />
      </g>
      <path
         style="fill:#ffffff;stroke:#ffffff;stroke-width:3.59263515000000000;stroke-linecap:butt;stroke-linejoin:miter;stroke-miterlimit:4;stroke-opacity:1;stroke-dasharray:none"
         d="m 1691.0799,995.53977 c 0,19.05283 0,19.05283 0,19.05283"
         id="path8465"
         inkscape:connector-curvature="0" />
      <path
         style="fill:none;stroke:#d90845;stroke-width:3.59263515;stroke-linecap:butt;stroke-linejoin:miter;stroke-miterlimit:4;stroke-opacity:1;stroke-dasharray:none"
         d="m 1629.8809,825.36947 c 0,219.50873 0,219.50873 0,219.50873"
         id="path3930"
         inkscape:connector-curvature="0" />
      <g
         transform="matrix(4.4886779,0,0,4.4886779,1291.2386,699.63818)"
         style="font-size:8px;font-style:normal;font-variant:normal;font-weight:normal;font-stretch:normal;text-align:start;line-height:125%;letter-spacing:0px;word-spacing:0px;writing-mode:lr-tb;text-anchor:start;fill:#00c5b7;fill-opacity:1;stroke:none;font-family:Times New Roman;-inkscape-font-specification:'Times New Roman,'"
         id="flowRoot3951">
        <path
           inkscape:connector-curvature="0"
           d="m 87.734375,52.265094 0.664062,0 -0.402343,1.808594 c -0.07813,0.343751 -0.131514,0.554689 -0.160157,0.632812 0.104164,0.479168 0.255205,0.718751 0.453125,0.71875 0.234372,1e-6 0.355465,-0.161457 0.363282,-0.484375 l 0.140625,0 c -0.0078,0.302084 -0.06381,0.546876 -0.167969,0.734375 -0.101566,0.184896 -0.235681,0.277344 -0.402344,0.277344 -0.138024,0 -0.240888,-0.05599 -0.308594,-0.167969 -0.06771,-0.111979 -0.140628,-0.341145 -0.21875,-0.6875 -0.270836,0.570313 -0.713543,0.855469 -1.328125,0.855469 -0.419272,0 -0.752605,-0.16276 -1,-0.488281 -0.247396,-0.328124 -0.371094,-0.796874 -0.371093,-1.40625 -10e-7,-0.598956 0.135416,-1.065101 0.40625,-1.398438 0.270832,-0.333329 0.596353,-0.499996 0.976562,-0.5 0.268227,4e-6 0.488279,0.09506 0.660156,0.285157 0.171873,0.190107 0.324217,0.500003 0.457032,0.929687 l 0.238281,-1.109375 m -0.34375,1.53125 C 87.268227,53.377076 87.131508,53.050253 86.980469,52.815875 86.829425,52.5789 86.648436,52.46041 86.4375,52.460407 c -0.476564,3e-6 -0.714845,0.557294 -0.714844,1.671875 -10e-7,1.057292 0.227864,1.585937 0.683594,1.585937 0.395831,0 0.6888,-0.466145 0.878906,-1.398437 l 0.105469,-0.523438"
           id="path3971" />
      </g>
      <g
         transform="matrix(3.1644642,0,0,3.1644642,1254.4282,840.03678)"
         style="font-size:8px;font-style:normal;font-variant:normal;font-weight:normal;font-stretch:normal;text-align:start;line-height:125%;letter-spacing:0px;word-spacing:0px;writing-mode:lr-tb;text-anchor:start;fill:#00c5b7;fill-opacity:1;stroke:none;font-family:Times New Roman;-inkscape-font-specification:'Times New Roman,'"
         id="flowRoot3959">
        <path
           inkscape:connector-curvature="0"
           d="m 143.65625,29.36275 -3.85938,5.636719 -0.34765,0 3.85937,-5.636719 0.34766,0 m -4.01563,0 c 0.35157,6e-6 0.6237,0.145839 0.81641,0.4375 0.19531,0.291672 0.29297,0.626307 0.29297,1.003907 0,0.453128 -0.10938,0.803388 -0.32813,1.050781 -0.21875,0.247398 -0.48177,0.371096 -0.78906,0.371094 -0.20573,2e-6 -0.39453,-0.05599 -0.5664,-0.167969 -0.17188,-0.114581 -0.3099,-0.283851 -0.41407,-0.507813 C 138.55078,31.326296 138.5,31.077598 138.5,30.804157 c 0,-0.273434 0.0521,-0.524735 0.15625,-0.753907 0.10417,-0.231765 0.24609,-0.40364 0.42578,-0.515625 0.18229,-0.114578 0.36849,-0.171869 0.55859,-0.171875 m -0.0117,0.21875 c -0.13282,6e-6 -0.25131,0.07813 -0.35547,0.234375 -0.10157,0.156255 -0.15235,0.48438 -0.15235,0.984375 0,0.361983 0.0286,0.638025 0.0859,0.828125 0.0443,0.143233 0.11328,0.25391 0.20703,0.332032 0.0547,0.04688 0.1224,0.07031 0.20313,0.07031 0.125,3e-6 0.23177,-0.0677 0.32031,-0.203125 0.13021,-0.200517 0.19531,-0.535153 0.19531,-1.003906 0,-0.494787 -0.0638,-0.842443 -0.1914,-1.042969 -0.0833,-0.132807 -0.18751,-0.199213 -0.3125,-0.199219 m 3.84765,2.570313 c 0.18489,3e-6 0.36849,0.0586 0.55078,0.175781 0.18489,0.11719 0.32682,0.287763 0.42578,0.511719 0.10156,0.22396 0.15234,0.470054 0.15235,0.738281 -10e-6,0.460938 -0.11068,0.813803 -0.33203,1.058594 -0.22136,0.242187 -0.48308,0.363281 -0.78516,0.363281 -0.19011,0 -0.375,-0.05859 -0.55469,-0.175781 -0.17708,-0.117187 -0.31771,-0.283854 -0.42187,-0.5 -0.10157,-0.218749 -0.15235,-0.467447 -0.15235,-0.746094 0,-0.273436 0.0508,-0.523436 0.15235,-0.75 0.10416,-0.22656 0.24479,-0.395831 0.42187,-0.507812 0.17969,-0.111977 0.36068,-0.167966 0.54297,-0.167969 m 0.004,0.207031 c -0.12501,3e-6 -0.23308,0.07032 -0.32422,0.210938 -0.11719,0.182293 -0.17579,0.527345 -0.17578,1.035156 -10e-6,0.466147 0.0599,0.791667 0.17969,0.976562 0.0885,0.132813 0.1953,0.199219 0.32031,0.199219 0.11979,0 0.22656,-0.07161 0.32031,-0.214844 0.125,-0.190103 0.1875,-0.516926 0.1875,-0.980468 0,-0.489582 -0.0625,-0.83203 -0.1875,-1.027344 -0.0859,-0.13281 -0.19271,-0.199216 -0.32031,-0.199219"
           id="path3968" />
      </g>
      <g
         id="g4327"
         transform="matrix(0,1.9076015,-1.9076015,0,2377.9405,442.01917)"
         style="fill:#00c5b7;fill-opacity:0.7254902">
        <g
           word-spacing="normal"
           letter-spacing="normal"
           font-size-adjust="none"
           font-stretch="normal"
           font-weight="normal"
           font-variant="normal"
           font-style="normal"
           stroke-miterlimit="10.433"
           xml:space="preserve"
           transform="matrix(0.56734017,0,0,-0.56734017,-99.28453,596.88075)"
           id="g4329"
           style="font-style:normal;font-variant:normal;font-weight:normal;font-stretch:normal;letter-spacing:normal;word-spacing:normal;text-anchor:start;fill:#00c5b7;fill-opacity:0.7254902;stroke:#000000;stroke-linecap:butt;stroke-linejoin:miter;stroke-miterlimit:10.43299961;stroke-opacity:1;stroke-dasharray:none;stroke-dashoffset:0"><path
             id="path4331"
             d="m 491.69,422.5 0.4,-0.34 0.4,-0.31 0.42,-0.31 0.41,-0.3 0.42,-0.28 0.42,-0.27 0.42,-0.26 0.42,-0.25 0.41,-0.23 0.4,-0.23 0.39,-0.21 0.39,-0.19 0.37,-0.19 0.35,-0.17 0.18,-0.08 0.16,-0.08 0.17,-0.08 0.15,-0.07 c -1.79,-0.79 -4.23,-2.09 -6.28,-3.83 h -31.64 c -0.84,0 -1.8,0 -1.8,-1 0,-1 0.91,-1 1.75,-1 h 29.44 c -2.39,-2.29 -4.97,-6.67 -4.97,-7.32 0,-0.55 0.64,-0.55 0.94,-0.55 0.41,0 0.75,0 0.95,0.41 1.05,1.89 2.44,4.53 5.68,7.42 3.43,3.03 6.78,4.37 9.37,5.12 0.84,0.3 0.89,0.36 0.98,0.46 0.11,0.04 0.11,0.2 0.11,0.29 0,0.11 0,0.21 -0.04,0.3 l -0.16,0.11 c -0.09,0.05 -0.16,0.09 -1.09,0.39 -6.74,2 -11.71,6.53 -14.5,11.86 -0.55,1 -0.6,1.05 -1.3,1.05 -0.3,0 -0.94,0 -0.94,-0.55 0,-0.66 2.53,-4.99 4.97,-7.33 H 460 c -0.84,0 -1.75,0 -1.75,-1 0,-0.98 0.96,-0.98 1.8,-0.98 z"
             inkscape:connector-curvature="0"
             style="fill:#00c5b7;fill-opacity:0.7254902;stroke-width:0" /></g>      </g>
    </g>
  </g>
</svg>
