<?xml version="1.0" encoding="UTF-8" standalone="no"?>
<!-- Created with Inkscape (http://www.inkscape.org/) -->

<svg
   xmlns:dc="http://purl.org/dc/elements/1.1/"
   xmlns:cc="http://creativecommons.org/ns#"
   xmlns:rdf="http://www.w3.org/1999/02/22-rdf-syntax-ns#"
   xmlns:svg="http://www.w3.org/2000/svg"
   xmlns="http://www.w3.org/2000/svg"
   xmlns:sodipodi="http://sodipodi.sourceforge.net/DTD/sodipodi-0.dtd"
   xmlns:inkscape="http://www.inkscape.org/namespaces/inkscape"
   width="788.69818"
   height="380.70956"
   id="svg3157"
   version="1.1"
   inkscape:version="0.48.4 r9939"
   sodipodi:docname="univar_model2.svg">
  <sodipodi:namedview
     id="base"
     pagecolor="#ffffff"
     bordercolor="#666666"
     borderopacity="1.0"
     inkscape:pageopacity="0.0"
     inkscape:pageshadow="2"
     inkscape:zoom="1.4"
     inkscape:cx="409.01526"
     inkscape:cy="208.8152"
     inkscape:document-units="px"
     inkscape:current-layer="g3319"
     showgrid="false"
     inkscape:window-width="1920"
     inkscape:window-height="1056"
     inkscape:window-x="0"
     inkscape:window-y="24"
     inkscape:window-maximized="1"
     fit-margin-top="0"
     fit-margin-left="0"
     fit-margin-right="0"
     fit-margin-bottom="0" />
  <defs
     id="defs3159">
    <marker
       inkscape:stockid="Arrow2Mend"
       orient="auto"
       refY="0"
       refX="0"
       id="Arrow2Mend"
       style="overflow:visible">
      <path
         inkscape:connector-curvature="0"
         id="path3788"
         style="fill-rule:evenodd;stroke-width:0.625;stroke-linejoin:round"
         d="M 8.7185878,4.0337352 -2.2072895,0.01601326 8.7185884,-4.0017078 c -1.7454984,2.3720609 -1.7354408,5.6174519 -6e-7,8.035443 z"
         transform="scale(-0.6,-0.6)" />
    </marker>
  </defs>
  <metadata
     id="metadata3162">
    <rdf:RDF>
      <cc:Work
         rdf:about="">
        <dc:format>image/svg+xml</dc:format>
        <dc:type
           rdf:resource="http://purl.org/dc/dcmitype/StillImage" />
        <dc:title></dc:title>
      </cc:Work>
    </rdf:RDF>
  </metadata>
  <g
     inkscape:label="Layer 1"
     inkscape:groupmode="layer"
     id="layer1"
     transform="translate(-12.869422,-11.227075)">
    <g
       id="g3317"
       transform="matrix(0.55669443,0,0,0.55669443,-258.01545,-190.74123)">
      <g
         word-spacing="normal"
         letter-spacing="normal"
         font-size-adjust="none"
         font-stretch="normal"
         font-weight="normal"
         font-variant="normal"
         font-style="normal"
         stroke-miterlimit="10.433"
         xml:space="preserve"
         transform="matrix(1.0629921,0,0,-1.0629921,-186.02362,789.27165)"
         id="g3319"
         style="font-style:normal;font-variant:normal;font-weight:normal;font-stretch:normal;letter-spacing:normal;word-spacing:normal;text-anchor:start;fill:#00c5b7;fill-opacity:0.72701685;stroke:#000000;stroke-linecap:butt;stroke-linejoin:miter;stroke-miterlimit:10.43299961;stroke-opacity:1;stroke-dasharray:none;stroke-dashoffset:0"><path
           id="path3321"
           d="m 654.34,239.49 0.02,0.11 0.03,0.11 0.02,0.11 0.03,0.11 0.03,0.12 0.03,0.12 0.06,0.25 0.06,0.25 0.06,0.25 0.06,0.25 0.06,0.24 0.03,0.12 0.03,0.11 0.03,0.11 0.02,0.11 0.03,0.11 0.02,0.1 0.02,0.09 0.02,0.09 0.02,0.08 0.02,0.08 0.01,0.07 0.01,0.07 0.01,0.05 0.01,0.05 0,0.04 0.01,0.04 c 0,0.9 -0.71,1.34 -1.46,1.34 -0.59,0 -1.48,-0.39 -1.83,-1.39 -0.15,-0.34 -2.5,-9.86 -2.84,-11.16 -0.36,-1.5 -0.45,-2.39 -0.45,-3.29 0,-0.55 0,-0.64 0.04,-0.89 -1.14,-2.64 -2.64,-4.19 -4.57,-4.19 -3.99,0 -3.99,3.69 -3.99,4.53 0,1.59 0.25,3.55 2.6,9.67 0.54,1.49 0.84,2.19 0.84,3.19 0,2.23 -1.64,4.08 -4.09,4.08 -4.74,0 -6.58,-7.22 -6.58,-7.67 0,-0.5 0.5,-0.5 0.61,-0.5 0.5,0 0.54,0.1 0.79,0.9 1.35,4.63 3.29,6.17 5.04,6.17 0.43,0 1.25,-0.04 1.25,-1.64 0,-1.25 -0.57,-2.64 -0.91,-3.48 -2.19,-5.88 -2.78,-8.17 -2.78,-10.06 0,-4.54 3.33,-6.29 7.06,-6.29 0.86,0 3.19,0 5.19,3.49 1.29,-3.19 4.73,-3.49 6.23,-3.49 3.74,0 5.92,3.15 7.22,6.13 1.69,3.89 3.28,10.56 3.28,12.95 0,2.75 -1.34,3.49 -2.19,3.49 -1.25,0 -2.48,-1.3 -2.48,-2.39 0,-0.64 0.3,-0.94 0.73,-1.35 0.55,-0.54 1.8,-1.84 1.8,-4.23 0,-1.69 -1.44,-6.58 -2.73,-9.11 -1.3,-2.64 -3.05,-4.39 -5.49,-4.39 -2.34,0 -3.68,1.5 -3.68,4.33 0,1.4 0.34,2.95 0.54,3.64 z"
           inkscape:connector-curvature="0"
           style="fill:#00c5b7;fill-opacity:0.72701685;stroke-width:0" /><path
           id="path3323"
           d="m 678.63,237.32 0,0.04 0,0.04 0,0.04 0,0.04 0,0.04 0,0.04 0,0.04 0,0.03 0,0.04 0,0.03 -0.01,0.03 0,0.03 0,0.03 -0.01,0.03 0,0.03 0,0.02 -0.01,0.03 0,0.02 -0.01,0.02 0,0.03 -0.01,0.04 -0.02,0.04 -0.02,0.03 -0.02,0.03 -0.02,0.03 -0.02,0.03 -0.03,0.02 -0.03,0.02 -0.03,0.02 -0.04,0.01 -0.04,0.01 -0.05,0.01 -0.04,0.01 -0.03,0.01 -0.03,0 -0.02,0 -0.03,0.01 -0.03,0 -0.03,0 -0.03,0 -0.04,0.01 -0.03,0 -0.04,0 -0.03,0 -0.04,0 -0.04,0 -0.04,0 -0.04,0 -0.04,0 -0.05,0 -0.04,0 c -2.24,-2.2 -5.39,-2.23 -6.83,-2.23 v -1.25 c 0.84,0 3.14,0 5.04,0.97 v -17.77 c 0,-1.16 0,-1.61 -3.48,-1.61 h -1.31 v -1.25 c 0.62,0.03 4.9,0.14 6.2,0.14 1.08,0 5.47,-0.11 6.24,-0.14 v 1.25 h -1.33 c -3.49,0 -3.49,0.45 -3.49,1.61 z"
           inkscape:connector-curvature="0"
           style="fill:#00c5b7;fill-opacity:0.72701685;stroke-width:0" /><polygon
           id="polygon3325"
           points="730.39,399.38 713.79,399.38 713.79,309.75 717.23,309.75 717.23,395.94 730.39,395.94 "
           style="fill:#00c5b7;fill-opacity:0.72701685;stroke-width:0" /><polygon
           id="polygon3327"
           points="717.23,309.77 713.79,309.77 713.79,279.78 717.23,279.78 "
           style="fill:#00c5b7;fill-opacity:0.72701685;stroke-width:0" /><polygon
           id="polygon3329"
           points="717.23,279.89 713.79,279.89 713.79,249.9 717.23,249.9 "
           style="fill:#00c5b7;fill-opacity:0.72701685;stroke-width:0" /><polygon
           id="polygon3331"
           points="717.23,250.01 713.79,250.01 713.79,220.02 717.23,220.02 "
           style="fill:#00c5b7;fill-opacity:0.72701685;stroke-width:0" /><polygon
           id="polygon3333"
           points="717.23,220.12 713.79,220.12 713.79,190.14 717.23,190.14 "
           style="fill:#00c5b7;fill-opacity:0.72701685;stroke-width:0" /><polygon
           id="polygon3335"
           points="717.23,190.25 713.79,190.25 713.79,160.26 717.23,160.26 "
           style="fill:#00c5b7;fill-opacity:0.72701685;stroke-width:0" /><polygon
           id="polygon3337"
           points="717.23,160.4 713.79,160.4 713.79,70.758 730.39,70.758 730.39,74.195 717.23,74.195 "
           style="fill:#00c5b7;fill-opacity:0.72701685;stroke-width:0" /><path
           id="path3339"
           d="m 764.47,362.22 -0.02,-0.07 -0.01,-0.08 -0.02,-0.07 -0.02,-0.08 -0.03,-0.16 -0.04,-0.16 -0.04,-0.16 -0.03,-0.16 -0.04,-0.16 -0.04,-0.16 -0.01,-0.08 -0.02,-0.07 -0.02,-0.07 -0.01,-0.07 -0.02,-0.07 -0.01,-0.07 -0.01,-0.06 -0.02,-0.06 -0.01,-0.05 -0.01,-0.06 0,-0.04 -0.01,-0.05 -0.01,-0.04 0,-0.03 0,-0.04 0,-0.02 c 0,-0.89 0.7,-1.35 1.43,-1.35 0.61,0 1.5,0.39 1.85,1.39 0.11,0.21 1.79,6.99 2,7.88 0.39,1.64 1.29,5.12 1.59,6.48 0.2,0.64 1.59,2.99 2.78,4.08 0.41,0.35 1.85,1.64 4,1.64 1.28,0 2.03,-0.59 2.08,-0.59 -1.48,-0.25 -2.58,-1.45 -2.58,-2.73 0,-0.8 0.55,-1.76 1.89,-1.76 1.35,0 2.74,1.15 2.74,2.94 0,1.75 -1.6,3.24 -4.13,3.24 -3.25,0 -5.44,-2.44 -6.39,-3.83 -0.39,2.23 -2.19,3.83 -4.53,3.83 -2.28,0 -3.23,-1.94 -3.69,-2.83 -0.89,-1.7 -1.54,-4.69 -1.54,-4.85 0,-0.5 0.5,-0.5 0.6,-0.5 0.5,0 0.55,0.07 0.85,1.16 0.84,3.53 1.84,5.92 3.64,5.92 0.84,0 1.55,-0.39 1.55,-2.28 0,-1.04 -0.16,-1.61 -0.8,-4.19 z"
           inkscape:connector-curvature="0"
           style="fill:#00c5b7;fill-opacity:0.72701685;stroke-width:0" /><path
           id="path3341"
           d="m 795.63,399.44 0,0.04 0,0.04 0,0.05 0,0.04 0,0.03 0,0.04 0,0.04 0,0.03 0,0.04 0,0.03 -0.01,0.03 0,0.03 0,0.03 -0.01,0.03 0,0.03 0,0.02 -0.01,0.03 0,0.02 -0.01,0.03 0,0.02 -0.01,0.04 -0.02,0.04 -0.02,0.03 -0.02,0.03 -0.02,0.03 -0.02,0.03 -0.03,0.02 -0.03,0.02 -0.03,0.02 -0.04,0.01 -0.04,0.01 -0.05,0.02 -0.02,0 -0.02,0 -0.03,0.01 -0.03,0 -0.02,0.01 -0.03,0 -0.03,0 -0.03,0 -0.03,0 -0.04,0.01 -0.03,0 -0.04,0 -0.03,0 -0.04,0 -0.04,0 -0.04,0 -0.04,0 -0.04,0 -0.05,0 -0.04,0 c -2.24,-2.2 -5.39,-2.23 -6.83,-2.23 v -1.25 c 0.84,0 3.14,0 5.04,0.97 v -17.77 c 0,-1.16 0,-1.61 -3.48,-1.61 h -1.31 v -1.25 c 0.62,0.03 4.9,0.14 6.2,0.14 1.08,0 5.47,-0.11 6.24,-0.14 v 1.25 h -1.33 c -3.49,0 -3.49,0.45 -3.49,1.61 z"
           inkscape:connector-curvature="0"
           style="fill:#00c5b7;fill-opacity:0.72701685;stroke-width:0" /><path
           id="path3343"
           d="m 794.19,369.08 0,0.04 0,0.04 0,0.05 0,0.04 0,0.03 0,0.04 0,0.04 0,0.03 -0.01,0.04 0,0.03 0,0.03 0,0.03 0,0.03 -0.01,0.03 0,0.03 0,0.02 -0.01,0.03 0,0.02 -0.01,0.03 0,0.02 -0.02,0.04 -0.01,0.04 -0.02,0.03 -0.02,0.03 -0.02,0.03 -0.02,0.03 -0.03,0.02 -0.03,0.02 -0.03,0.02 -0.04,0.01 -0.04,0.02 -0.05,0.01 -0.02,0 -0.02,0.01 -0.03,0 -0.03,0 -0.02,0.01 -0.03,0 -0.03,0 -0.03,0 -0.03,0.01 -0.04,0 -0.03,0 -0.04,0 -0.03,0 -0.04,0 -0.04,0 -0.04,0 -0.04,0 -0.05,0 -0.04,0 -0.04,0 c -2.24,-2.2 -5.4,-2.23 -6.83,-2.23 v -1.25 c 0.84,0 3.14,0 5.04,0.97 v -17.77 c 0,-1.16 0,-1.61 -3.48,-1.61 h -1.31 v -1.25 c 0.62,0.03 4.9,0.14 6.2,0.14 1.08,0 5.47,-0.11 6.23,-0.14 v 1.25 h -1.32 c -3.49,0 -3.49,0.45 -3.49,1.61 z"
           inkscape:connector-curvature="0"
           style="fill:#00c5b7;fill-opacity:0.72701685;stroke-width:0" /><path
           id="path3345"
           d="m 764.47,302.34 -0.02,-0.08 -0.01,-0.07 -0.02,-0.07 -0.02,-0.08 -0.03,-0.16 -0.04,-0.16 -0.04,-0.16 -0.03,-0.17 -0.04,-0.16 -0.04,-0.15 -0.01,-0.08 -0.02,-0.07 -0.02,-0.08 -0.01,-0.07 -0.02,-0.06 -0.01,-0.07 -0.01,-0.06 -0.02,-0.06 -0.01,-0.06 -0.01,-0.05 0,-0.05 -0.01,-0.04 -0.01,-0.04 0,-0.04 0,-0.03 0,-0.02 c 0,-0.9 0.7,-1.35 1.43,-1.35 0.61,0 1.5,0.39 1.85,1.39 0.11,0.21 1.79,6.99 2,7.88 0.39,1.64 1.29,5.12 1.59,6.48 0.2,0.64 1.59,2.99 2.78,4.08 0.41,0.34 1.85,1.64 4,1.64 1.28,0 2.03,-0.59 2.08,-0.59 -1.48,-0.25 -2.58,-1.46 -2.58,-2.74 0,-0.79 0.55,-1.75 1.89,-1.75 1.35,0 2.74,1.14 2.74,2.94 0,1.75 -1.6,3.23 -4.13,3.23 -3.25,0 -5.44,-2.43 -6.39,-3.82 -0.39,2.23 -2.19,3.82 -4.53,3.82 -2.28,0 -3.23,-1.93 -3.69,-2.82 -0.89,-1.71 -1.54,-4.69 -1.54,-4.85 0,-0.5 0.5,-0.5 0.6,-0.5 0.5,0 0.55,0.06 0.85,1.16 0.84,3.53 1.84,5.92 3.64,5.92 0.84,0 1.55,-0.39 1.55,-2.28 0,-1.05 -0.16,-1.61 -0.8,-4.19 z"
           inkscape:connector-curvature="0"
           style="fill:#00c5b7;fill-opacity:0.72701685;stroke-width:0" /><path
           id="path3347"
           d="m 795.63,339.68 0,0.04 0,0.04 0,0.04 0,0.04 0,0.04 0,0.04 0,0.04 0,0.03 0,0.04 0,0.03 -0.01,0.03 0,0.03 0,0.03 -0.01,0.03 0,0.03 0,0.02 -0.01,0.03 0,0.02 -0.01,0.02 0,0.03 -0.01,0.04 -0.02,0.04 -0.02,0.03 -0.02,0.03 -0.02,0.03 -0.02,0.03 -0.03,0.02 -0.03,0.02 -0.03,0.01 -0.04,0.02 -0.04,0.01 -0.05,0.01 -0.02,0.01 -0.02,0 -0.03,0.01 -0.03,0 -0.02,0 -0.03,0.01 -0.03,0 -0.03,0 -0.03,0 -0.04,0 -0.03,0.01 -0.04,0 -0.03,0 -0.04,0 -0.04,0 -0.04,0 -0.04,0 -0.04,0 -0.05,0 -0.04,0 c -2.24,-2.2 -5.39,-2.23 -6.83,-2.23 v -1.25 c 0.84,0 3.14,0 5.04,0.96 v -17.76 c 0,-1.16 0,-1.61 -3.48,-1.61 h -1.31 v -1.25 c 0.62,0.03 4.9,0.14 6.2,0.14 1.08,0 5.47,-0.11 6.24,-0.14 v 1.25 h -1.33 c -3.49,0 -3.49,0.45 -3.49,1.61 z"
           inkscape:connector-curvature="0"
           style="fill:#00c5b7;fill-opacity:0.72701685;stroke-width:0" /><path
           id="path3349"
           d="m 800.11,293.38 h -1.18 c -0.1,-0.76 -0.46,-2.83 -0.91,-3.17 -0.27,-0.2 -2.95,-0.2 -3.44,-0.2 h -6.42 c 3.66,3.23 4.87,4.2 6.97,5.84 2.58,2.06 4.98,4.22 4.98,7.53 0,4.22 -3.68,6.8 -8.15,6.8 -4.31,0 -7.25,-3.03 -7.25,-6.23 0,-1.79 1.5,-1.96 1.86,-1.96 0.83,0 1.84,0.6 1.84,1.85 0,0.62 -0.25,1.84 -2.06,1.84 1.08,2.47 3.45,3.23 5.09,3.23 3.49,0 5.3,-2.7 5.3,-5.53 0,-3.03 -2.16,-5.43 -3.28,-6.68 l -8.39,-8.3 c -0.36,-0.31 -0.36,-0.39 -0.36,-1.36 h 14.36 z"
           inkscape:connector-curvature="0"
           style="fill:#00c5b7;fill-opacity:0.72701685;stroke-width:0" /><path
           id="path3351"
           d="m 785.84,249 0,0.13 -0.01,0.14 -0.02,0.13 -0.02,0.13 -0.03,0.12 -0.04,0.13 -0.04,0.12 -0.04,0.12 -0.06,0.12 -0.06,0.11 -0.06,0.11 -0.07,0.11 -0.07,0.1 -0.08,0.1 -0.08,0.1 -0.09,0.09 -0.09,0.09 -0.1,0.08 -0.1,0.08 -0.1,0.07 -0.11,0.07 -0.11,0.07 -0.11,0.06 -0.12,0.05 -0.12,0.05 -0.12,0.04 -0.13,0.04 -0.13,0.03 -0.13,0.02 -0.13,0.02 -0.13,0.01 -0.14,0 c -1.43,0 -2.64,-1.2 -2.64,-2.64 0,-1.44 1.21,-2.64 2.64,-2.64 1.46,0 2.64,1.2 2.64,2.64 z"
           inkscape:connector-curvature="0"
           style="fill:#00c5b7;fill-opacity:0.72701685;stroke-width:0" /><path
           id="path3353"
           d="m 785.84,229.08 0,0.14 -0.01,0.13 -0.02,0.13 -0.02,0.13 -0.03,0.13 -0.04,0.12 -0.04,0.12 -0.04,0.12 -0.06,0.12 -0.06,0.11 -0.06,0.11 -0.07,0.11 -0.07,0.1 -0.08,0.1 -0.08,0.1 -0.09,0.09 -0.09,0.09 -0.1,0.08 -0.1,0.08 -0.1,0.08 -0.11,0.07 -0.11,0.06 -0.11,0.06 -0.12,0.05 -0.12,0.05 -0.12,0.04 -0.13,0.04 -0.13,0.03 -0.13,0.02 -0.13,0.02 -0.13,0.01 -0.14,0 c -1.43,0 -2.64,-1.2 -2.64,-2.64 0,-1.43 1.21,-2.64 2.64,-2.64 1.46,0 2.64,1.21 2.64,2.64 z"
           inkscape:connector-curvature="0"
           style="fill:#00c5b7;fill-opacity:0.72701685;stroke-width:0" /><path
           id="path3355"
           d="m 785.84,209.16 0,0.13 -0.01,0.14 -0.02,0.13 -0.02,0.13 -0.03,0.12 -0.04,0.13 -0.04,0.12 -0.04,0.12 -0.06,0.12 -0.06,0.11 -0.06,0.11 -0.07,0.11 -0.07,0.1 -0.08,0.1 -0.08,0.1 -0.09,0.09 -0.09,0.09 -0.1,0.08 -0.1,0.08 -0.1,0.07 -0.11,0.07 -0.11,0.07 -0.11,0.06 -0.12,0.05 -0.12,0.05 -0.12,0.04 -0.13,0.04 -0.13,0.03 -0.13,0.02 -0.13,0.02 -0.13,0.01 -0.14,0 c -1.43,0 -2.64,-1.2 -2.64,-2.64 0,-1.44 1.21,-2.64 2.64,-2.64 1.46,0 2.64,1.2 2.64,2.64 z"
           inkscape:connector-curvature="0"
           style="fill:#00c5b7;fill-opacity:0.72701685;stroke-width:0" /><path
           id="path3357"
           d="m 735.19,149.7 -0.01,-0.07 -0.02,-0.08 -0.02,-0.07 -0.01,-0.08 -0.04,-0.16 -0.04,-0.16 -0.03,-0.16 -0.04,-0.16 -0.04,-0.16 -0.03,-0.16 -0.02,-0.07 -0.02,-0.08 -0.01,-0.07 -0.02,-0.07 -0.01,-0.07 -0.02,-0.06 -0.01,-0.07 -0.01,-0.06 -0.01,-0.05 -0.01,-0.05 -0.01,-0.05 -0.01,-0.05 0,-0.04 -0.01,-0.03 0,-0.03 0,-0.03 c 0,-0.89 0.7,-1.35 1.44,-1.35 0.6,0 1.5,0.39 1.84,1.39 0.11,0.21 1.8,6.99 2,7.88 0.39,1.64 1.3,5.12 1.59,6.48 0.21,0.64 1.6,2.99 2.79,4.08 0.4,0.35 1.84,1.64 4,1.64 1.28,0 2.03,-0.59 2.07,-0.59 -1.48,-0.25 -2.57,-1.45 -2.57,-2.74 0,-0.79 0.54,-1.75 1.88,-1.75 1.35,0 2.74,1.15 2.74,2.94 0,1.75 -1.59,3.24 -4.12,3.24 -3.25,0 -5.44,-2.44 -6.4,-3.83 -0.39,2.23 -2.18,3.83 -4.53,3.83 -2.28,0 -3.23,-1.94 -3.69,-2.83 -0.88,-1.7 -1.54,-4.69 -1.54,-4.85 0,-0.5 0.5,-0.5 0.61,-0.5 0.5,0 0.55,0.07 0.84,1.16 0.84,3.53 1.84,5.92 3.64,5.92 0.85,0 1.55,-0.39 1.55,-2.28 0,-1.05 -0.16,-1.61 -0.8,-4.19 z"
           inkscape:connector-curvature="0"
           style="fill:#00c5b7;fill-opacity:0.72701685;stroke-width:0" /><path
           id="path3359"
           d="m 766.35,187.04 0,0.04 0,0.04 0,0.04 0,0.04 0,0.04 0,0.04 0,0.04 0,0.03 0,0.03 -0.01,0.04 0,0.03 0,0.03 0,0.03 -0.01,0.03 0,0.02 0,0.03 -0.01,0.03 0,0.02 -0.01,0.02 0,0.03 -0.02,0.04 -0.01,0.04 -0.02,0.03 -0.02,0.03 -0.02,0.03 -0.02,0.02 -0.03,0.03 -0.03,0.02 -0.03,0.01 -0.04,0.02 -0.04,0.01 -0.05,0.01 -0.04,0.01 -0.03,0.01 -0.03,0 -0.02,0 -0.03,0.01 -0.03,0 -0.03,0 -0.03,0 -0.04,0 -0.03,0.01 -0.04,0 -0.03,0 -0.04,0 -0.04,0 -0.04,0 -0.04,0 -0.05,0 -0.04,0 -0.05,0 c -2.23,-2.2 -5.39,-2.23 -6.82,-2.23 v -1.25 c 0.84,0 3.14,0 5.04,0.96 v -17.76 c 0,-1.16 0,-1.61 -3.48,-1.61 h -1.31 v -1.25 c 0.62,0.03 4.9,0.14 6.2,0.14 1.08,0 5.47,-0.11 6.23,-0.14 v 1.25 h -1.32 c -3.49,0 -3.49,0.45 -3.49,1.61 z"
           inkscape:connector-curvature="0"
           style="fill:#00c5b7;fill-opacity:0.72701685;stroke-width:0" /><path
           id="path3361"
           d="m 770.18,154.16 0.01,0.04 0.01,0.05 0.01,0.04 0.01,0.05 0.01,0.04 0.01,0.04 0.01,0.04 0.01,0.04 0.02,0.07 0.02,0.07 0.02,0.06 0.02,0.06 0.02,0.06 0.02,0.05 0.02,0.05 0.02,0.04 0.02,0.04 0.02,0.04 0.03,0.04 0.03,0.03 0.02,0.03 0.03,0.02 0.03,0.03 0.04,0.02 0.03,0.02 0.04,0.02 0.04,0.01 0.05,0.01 0.04,0.02 0.05,0.01 0.05,0.01 0.06,0.01 0.06,0 0.06,0.01 0.06,0.01 0.07,0 c 0.18,0.04 1.4,0.04 2.1,0.04 2.12,0 3.03,0 3.89,-0.29 1.58,-0.48 1.64,-1.5 1.64,-2.75 0,-0.54 0,-1 -0.23,-2.81 l -0.08,-0.39 c 0,-0.34 0.25,-0.52 0.59,-0.52 0.53,0 0.59,0.32 0.67,0.86 l 0.94,6.66 c 0,0.5 -0.42,0.5 -1.05,0.5 h -21.44 c -0.85,0 -0.93,0 -1.17,-0.73 l -2.2,-6.18 c -0.03,-0.14 -0.17,-0.45 -0.17,-0.62 0,-0.14 0.06,-0.49 0.59,-0.49 0.45,0 0.52,0.18 0.74,0.83 2.01,5.58 3.17,5.93 8.46,5.93 h 1.46 c 1.04,0 1.08,-0.04 1.08,-0.35 0,-0.03 0,-0.2 -0.14,-0.73 l -4.6,-18.33 c -0.31,-1.28 -0.42,-1.64 -4.08,-1.64 -1.25,0 -1.56,0 -1.56,-0.77 0,-0.09 0.06,-0.48 0.59,-0.48 0.97,0 2.02,0.11 2.99,0.11 0.98,0 2.03,0.03 3,0.03 0.98,0 2.17,0 3.14,-0.03 0.94,-0.05 1.99,-0.11 2.92,-0.11 0.28,0 0.82,0 0.82,0.76 0,0.49 -0.37,0.49 -1.44,0.49 -0.66,0 -1.36,0.05 -2.02,0.08 -1.19,0.09 -1.25,0.23 -1.25,0.65 0,0.25 0,0.32 0.13,0.8 z"
           inkscape:connector-curvature="0"
           style="fill:#00c5b7;fill-opacity:0.72701685;stroke-width:0" /><path
           id="path3363"
           d="m 808.08,140.95 0.06,0 0.05,0 0.11,0 0.12,0.01 0.06,0 0.06,0.01 0.06,0 0.05,0.01 0.06,0.01 0.06,0.01 0.06,0.01 0.05,0.01 0.06,0.02 0.05,0.02 0.05,0.02 0.05,0.02 0.05,0.03 0.04,0.03 0.04,0.03 0.04,0.04 0.04,0.04 0.02,0.02 0.01,0.02 0.02,0.02 0.02,0.03 0.01,0.02 0.01,0.03 0.02,0.02 0.01,0.03 0.01,0.03 0.01,0.03 0,0.03 0.01,0.03 0.01,0.03 0,0.04 0.01,0.03 0,0.04 0,0.04 0,0.04 c 0,0.86 -0.79,0.86 -1.39,0.86 h -20.76 c -0.57,0 -1.39,0 -1.39,-0.83 0,-0.88 0.79,-0.88 1.39,-0.88 z"
           inkscape:connector-curvature="0"
           style="fill:#00c5b7;fill-opacity:0.72701685;stroke-width:0" /><path
           id="path3365"
           d="m 824.91,155.23 0,0.05 0,0.04 0,0.04 0,0.04 0,0.04 0,0.04 0,0.04 0,0.03 -0.01,0.03 0,0.04 0,0.03 0,0.03 0,0.03 -0.01,0.03 0,0.02 -0.01,0.03 0,0.03 0,0.02 -0.01,0.02 0,0.03 -0.02,0.04 -0.01,0.03 -0.02,0.04 -0.02,0.03 -0.02,0.03 -0.02,0.02 -0.03,0.03 -0.03,0.02 -0.04,0.01 -0.03,0.02 -0.04,0.01 -0.05,0.01 -0.02,0.01 -0.03,0 -0.02,0.01 -0.03,0 -0.03,0 -0.02,0.01 -0.03,0 -0.03,0 -0.04,0 -0.03,0 -0.03,0 -0.04,0.01 -0.04,0 -0.03,0 -0.04,0 -0.04,0 -0.04,0 -0.05,0 -0.04,0 -0.05,0 c -2.23,-2.2 -5.39,-2.24 -6.83,-2.24 v -1.25 c 0.85,0 3.15,0 5.05,0.97 v -17.76 c 0,-1.16 0,-1.61 -3.48,-1.61 h -1.32 v -1.25 c 0.63,0.03 4.91,0.14 6.21,0.14 1.08,0 5.47,-0.11 6.23,-0.14 v 1.25 h -1.32 c -3.49,0 -3.49,0.45 -3.49,1.61 z"
           inkscape:connector-curvature="0"
           style="fill:#00c5b7;fill-opacity:0.72701685;stroke-width:0" /><path
           id="path3367"
           d="m 760.75,89.938 -0.02,-0.072 -0.01,-0.073 -0.02,-0.076 -0.01,-0.077 -0.04,-0.157 -0.04,-0.161 -0.03,-0.163 -0.04,-0.162 -0.04,-0.161 -0.04,-0.156 -0.01,-0.076 -0.02,-0.075 -0.02,-0.072 -0.01,-0.071 -0.02,-0.068 -0.01,-0.065 -0.01,-0.062 -0.01,-0.06 -0.01,-0.056 -0.01,-0.052 -0.01,-0.049 -0.01,-0.044 -0.01,-0.04 0,-0.036 0,-0.031 0,-0.026 c 0,-0.891 0.7,-1.344 1.43,-1.344 0.61,0 1.5,0.391 1.85,1.391 0.11,0.203 1.8,6.984 2,7.875 0.39,1.64 1.3,5.121 1.59,6.481 0.21,0.64 1.6,2.99 2.78,4.08 0.41,0.34 1.85,1.64 4,1.64 1.28,0 2.03,-0.59 2.08,-0.59 -1.48,-0.25 -2.58,-1.45 -2.58,-2.74 0,-0.79 0.55,-1.75 1.89,-1.75 1.35,0 2.74,1.14 2.74,2.94 0,1.75 -1.6,3.24 -4.13,3.24 -3.25,0 -5.43,-2.44 -6.39,-3.83 -0.39,2.23 -2.18,3.83 -4.53,3.83 -2.28,0 -3.23,-1.94 -3.69,-2.83 -0.89,-1.71 -1.54,-4.69 -1.54,-4.85 0,-0.5 0.5,-0.5 0.61,-0.5 0.5,0 0.54,0.07 0.84,1.16 0.84,3.53 1.84,5.92 3.64,5.92 0.84,0 1.55,-0.39 1.55,-2.28 0,-1.05 -0.16,-1.61 -0.8,-4.19 z"
           inkscape:connector-curvature="0"
           style="fill:#00c5b7;fill-opacity:0.72701685;stroke-width:0" /><path
           id="path3369"
           d="m 791.91,127.16 0,0.04 0,0.04 0,0.04 0,0.04 0,0.04 0,0.04 0,0.04 0,0.03 -0.01,0.04 0,0.03 0,0.03 0,0.03 0,0.03 -0.01,0.03 0,0.03 -0.01,0.02 0,0.03 0,0.02 -0.01,0.02 0,0.03 -0.02,0.04 -0.01,0.04 -0.02,0.03 -0.02,0.03 -0.02,0.03 -0.02,0.03 -0.03,0.02 -0.03,0.02 -0.04,0.02 -0.03,0.01 -0.04,0.01 -0.05,0.01 -0.02,0.01 -0.03,0 -0.02,0.01 -0.03,0 -0.03,0 -0.02,0.01 -0.03,0 -0.03,0 -0.04,0 -0.03,0.01 -0.03,0 -0.04,0 -0.04,0 -0.03,0 -0.04,0 -0.04,0 -0.04,0 -0.05,0 -0.04,0 -0.05,0 c -2.23,-2.2 -5.39,-2.23 -6.83,-2.23 v -1.25 c 0.85,0 3.15,0 5.05,0.96 v -17.76 c 0,-1.16 0,-1.61 -3.48,-1.61 h -1.32 V 105 c 0.63,0.03 4.91,0.14 6.21,0.14 1.08,0 5.47,-0.11 6.23,-0.14 v 1.25 h -1.32 c -3.49,0 -3.49,0.45 -3.49,1.61 z"
           inkscape:connector-curvature="0"
           style="fill:#00c5b7;fill-opacity:0.72701685;stroke-width:0" /><path
           id="path3371"
           d="m 795.74,94.277 0.01,0.047 0.01,0.046 0.01,0.044 0.01,0.043 0.01,0.042 0.01,0.041 0.01,0.039 0.01,0.038 0.02,0.073 0.02,0.069 0.02,0.064 0.02,0.06 0.02,0.055 0.02,0.052 0.02,0.048 0.02,0.045 0.02,0.041 0.03,0.038 0.02,0.035 0.03,0.031 0.03,0.03 0.03,0.026 0.03,0.024 0.03,0.021 0.04,0.02 0.03,0.017 0.04,0.016 0.05,0.014 0.04,0.012 0.05,0.011 0.05,0.01 0.06,0.008 0.06,0.008 0.06,0.007 0.07,0.007 0.07,0.006 c 0.17,0.031 1.39,0.031 2.09,0.031 2.12,0 3.03,0 3.89,-0.281 1.58,-0.485 1.64,-1.5 1.64,-2.75 0,-0.547 0,-1 -0.23,-2.813 l -0.08,-0.39 c 0,-0.344 0.25,-0.516 0.59,-0.516 0.53,0 0.6,0.313 0.68,0.859 l 0.93,6.657 c 0,0.5 -0.42,0.5 -1.05,0.5 h -21.43 c -0.86,0 -0.94,0 -1.17,-0.735 l -2.21,-6.172 c -0.03,-0.14 -0.17,-0.453 -0.17,-0.625 0,-0.14 0.06,-0.484 0.6,-0.484 0.45,0 0.51,0.172 0.73,0.828 2.02,5.578 3.17,5.922 8.47,5.922 h 1.45 c 1.05,0 1.08,-0.031 1.08,-0.344 0,-0.031 0,-0.203 -0.14,-0.734 L 787.9,76.09 c -0.32,-1.281 -0.43,-1.641 -4.08,-1.641 -1.25,0 -1.57,0 -1.57,-0.765 0,-0.094 0.07,-0.485 0.6,-0.485 0.97,0 2.01,0.11 2.98,0.11 0.99,0 2.03,0.031 3,0.031 0.99,0 2.17,0 3.14,-0.031 0.94,-0.047 1.99,-0.11 2.93,-0.11 0.28,0 0.81,0 0.81,0.766 0,0.484 -0.36,0.484 -1.44,0.484 -0.66,0 -1.36,0.047 -2.02,0.078 -1.18,0.094 -1.25,0.235 -1.25,0.657 0,0.25 0,0.312 0.13,0.796 z"
           inkscape:connector-curvature="0"
           style="fill:#00c5b7;fill-opacity:0.72701685;stroke-width:0" /><polygon
           id="polygon3373"
           points="836.02,395.94 849.18,395.94 849.18,309.75 852.62,309.75 852.62,399.38 836.02,399.38 "
           style="fill:#00c5b7;fill-opacity:0.72701685;stroke-width:0" /><polygon
           id="polygon3375"
           points="852.62,309.77 849.18,309.77 849.18,279.78 852.62,279.78 "
           style="fill:#00c5b7;fill-opacity:0.72701685;stroke-width:0" /><polygon
           id="polygon3377"
           points="852.62,279.89 849.18,279.89 849.18,249.9 852.62,249.9 "
           style="fill:#00c5b7;fill-opacity:0.72701685;stroke-width:0" /><polygon
           id="polygon3379"
           points="852.62,250.01 849.18,250.01 849.18,220.02 852.62,220.02 "
           style="fill:#00c5b7;fill-opacity:0.72701685;stroke-width:0" /><polygon
           id="polygon3381"
           points="852.62,220.12 849.18,220.12 849.18,190.14 852.62,190.14 "
           style="fill:#00c5b7;fill-opacity:0.72701685;stroke-width:0" /><polygon
           id="polygon3383"
           points="852.62,190.25 849.18,190.25 849.18,160.26 852.62,160.26 "
           style="fill:#00c5b7;fill-opacity:0.72701685;stroke-width:0" /><polygon
           id="polygon3385"
           points="852.62,160.4 849.18,160.4 849.18,74.195 836.02,74.195 836.02,70.758 852.62,70.758 "
           style="fill:#00c5b7;fill-opacity:0.72701685;stroke-width:0" /><path
           id="path3387"
           d="m 900.34,234.05 h 13.9 c 0.69,0 1.64,0 1.64,1 0,1 -0.95,1 -1.64,1 h -13.9 v 13.96 c 0,0.69 0,1.64 -1,1.64 -0.99,0 -0.99,-0.95 -0.99,-1.64 V 236.05 H 884.4 c -0.7,0 -1.64,0 -1.64,-1 0,-1 0.94,-1 1.64,-1 h 13.95 v -13.93 c 0,-0.71 0,-1.66 0.99,-1.66 1,0 1,0.95 1,1.66 z"
           inkscape:connector-curvature="0"
           style="fill:#00c5b7;fill-opacity:0.72701685;stroke-width:0" /><path
           id="path3389"
           d="m 952.77,239.49 0.03,0.11 0.02,0.11 0.03,0.11 0.03,0.11 0.03,0.12 0.03,0.12 0.06,0.25 0.06,0.25 0.06,0.25 0.06,0.25 0.06,0.24 0.03,0.12 0.03,0.11 0.03,0.11 0.02,0.11 0.03,0.11 0.02,0.1 0.02,0.09 0.02,0.09 0.02,0.08 0.02,0.08 0.01,0.07 0.01,0.07 0.01,0.05 0.01,0.05 0,0.04 0,0.04 c 0,0.9 -0.7,1.34 -1.45,1.34 -0.59,0 -1.48,-0.39 -1.83,-1.39 -0.15,-0.34 -2.5,-9.86 -2.84,-11.16 -0.36,-1.5 -0.45,-2.39 -0.45,-3.29 0,-0.55 0,-0.64 0.04,-0.89 -1.14,-2.64 -2.64,-4.19 -4.58,-4.19 -3.98,0 -3.98,3.69 -3.98,4.53 0,1.59 0.25,3.55 2.59,9.67 0.55,1.49 0.85,2.19 0.85,3.19 0,2.23 -1.64,4.08 -4.1,4.08 -4.73,0 -6.57,-7.22 -6.57,-7.67 0,-0.5 0.5,-0.5 0.6,-0.5 0.5,0 0.55,0.1 0.8,0.9 1.35,4.63 3.28,6.17 5.03,6.17 0.44,0 1.25,-0.04 1.25,-1.64 0,-1.25 -0.56,-2.64 -0.9,-3.48 -2.19,-5.88 -2.78,-8.17 -2.78,-10.06 0,-4.54 3.32,-6.29 7.06,-6.29 0.86,0 3.19,0 5.19,3.49 1.29,-3.19 4.73,-3.49 6.23,-3.49 3.73,0 5.92,3.15 7.22,6.13 1.69,3.89 3.28,10.56 3.28,12.95 0,2.75 -1.34,3.49 -2.19,3.49 -1.25,0 -2.48,-1.3 -2.48,-2.39 0,-0.64 0.29,-0.94 0.73,-1.35 0.55,-0.54 1.8,-1.84 1.8,-4.23 0,-1.69 -1.44,-6.58 -2.74,-9.11 -1.29,-2.64 -3.04,-4.39 -5.48,-4.39 -2.34,0 -3.69,1.5 -3.69,4.33 0,1.4 0.35,2.95 0.55,3.64 z"
           inkscape:connector-curvature="0"
           style="fill:#00c5b7;fill-opacity:0.72701685;stroke-width:0" /><path
           id="path3391"
           d="m 982.99,221.5 h -1.19 c -0.09,-0.76 -0.45,-2.82 -0.9,-3.17 -0.27,-0.2 -2.95,-0.2 -3.44,-0.2 h -6.42 c 3.66,3.23 4.87,4.2 6.97,5.84 2.58,2.07 4.98,4.22 4.98,7.53 0,4.22 -3.69,6.8 -8.15,6.8 -4.32,0 -7.25,-3.03 -7.25,-6.23 0,-1.78 1.5,-1.96 1.86,-1.96 0.82,0 1.84,0.6 1.84,1.85 0,0.62 -0.25,1.84 -2.06,1.84 1.07,2.47 3.45,3.24 5.09,3.24 3.48,0 5.3,-2.71 5.3,-5.54 0,-3.03 -2.16,-5.43 -3.28,-6.68 l -8.39,-8.3 c -0.36,-0.31 -0.36,-0.39 -0.36,-1.36 h 14.36 z"
           inkscape:connector-curvature="0"
           style="fill:#00c5b7;fill-opacity:0.72701685;stroke-width:0" /><polygon
           id="polygon3393"
           points="1028.8,399.38 1012.2,399.38 1012.2,309.75 1015.7,309.75 1015.7,395.94 1028.8,395.94 "
           style="fill:#00c5b7;fill-opacity:0.72701685;stroke-width:0" /><polygon
           id="polygon3395"
           points="1015.7,309.77 1012.2,309.77 1012.2,279.78 1015.7,279.78 "
           style="fill:#00c5b7;fill-opacity:0.72701685;stroke-width:0" /><polygon
           id="polygon3397"
           points="1015.7,279.89 1012.2,279.89 1012.2,249.9 1015.7,249.9 "
           style="fill:#00c5b7;fill-opacity:0.72701685;stroke-width:0" /><polygon
           id="polygon3399"
           points="1015.7,250.01 1012.2,250.01 1012.2,220.02 1015.7,220.02 "
           style="fill:#00c5b7;fill-opacity:0.72701685;stroke-width:0" /><polygon
           id="polygon3401"
           points="1015.7,220.12 1012.2,220.12 1012.2,190.14 1015.7,190.14 "
           style="fill:#00c5b7;fill-opacity:0.72701685;stroke-width:0" /><polygon
           id="polygon3403"
           points="1015.7,190.25 1012.2,190.25 1012.2,160.26 1015.7,160.26 "
           style="fill:#00c5b7;fill-opacity:0.72701685;stroke-width:0" /><polygon
           id="polygon3405"
           points="1015.7,160.4 1012.2,160.4 1012.2,70.758 1028.8,70.758 1028.8,74.195 1015.7,74.195 "
           style="fill:#00c5b7;fill-opacity:0.72701685;stroke-width:0" /><path
           id="path3407"
           d="m 1063,362.22 0,-0.07 0,-0.08 0,-0.07 0,-0.08 -0.1,-0.16 0,-0.16 0,-0.16 -0.1,-0.16 0,-0.16 -0.1,-0.16 0,-0.08 0,-0.07 0,-0.07 0,-0.07 0,-0.07 0,-0.07 -0.1,-0.06 0,-0.06 0,-0.05 0,-0.06 0,-0.04 0,-0.05 0,-0.04 0,-0.03 0,-0.04 0,-0.02 c 0,-0.89 0.7,-1.35 1.4,-1.35 0.6,0 1.5,0.39 1.9,1.39 0.1,0.21 1.8,6.99 2,7.88 0.3,1.64 1.3,5.12 1.5,6.48 0.3,0.64 1.7,2.99 2.8,4.08 0.4,0.35 1.9,1.64 4,1.64 1.3,0 2.1,-0.59 2.1,-0.59 -1.5,-0.25 -2.6,-1.45 -2.6,-2.73 0,-0.8 0.6,-1.76 1.9,-1.76 1.4,0 2.8,1.15 2.8,2.94 0,1.75 -1.6,3.24 -4.2,3.24 -3.2,0 -5.4,-2.44 -6.4,-3.83 -0.4,2.23 -2.1,3.83 -4.5,3.83 -2.3,0 -3.2,-1.94 -3.7,-2.83 -0.9,-1.7 -1.5,-4.69 -1.5,-4.85 0,-0.5 0.5,-0.5 0.6,-0.5 0.5,0 0.5,0.07 0.8,1.16 0.9,3.53 1.9,5.92 3.7,5.92 0.8,0 1.5,-0.39 1.5,-2.28 0,-1.04 -0.1,-1.61 -0.8,-4.19 z"
           inkscape:connector-curvature="0"
           style="fill:#00c5b7;fill-opacity:0.72701685;stroke-width:0" /><path
           id="path3409"
           d="m 1100.1,383.62 h -1.2 c -0.1,-0.76 -0.4,-2.82 -0.9,-3.17 -0.2,-0.2 -2.9,-0.2 -3.4,-0.2 h -6.4 c 3.6,3.23 4.8,4.2 6.9,5.84 2.6,2.07 5,4.22 5,7.53 0,4.22 -3.7,6.8 -8.1,6.8 -4.4,0 -7.3,-3.03 -7.3,-6.23 0,-1.78 1.5,-1.96 1.9,-1.96 0.8,0 1.8,0.6 1.8,1.85 0,0.62 -0.2,1.84 -2.1,1.84 1.1,2.47 3.5,3.24 5.1,3.24 3.5,0 5.3,-2.71 5.3,-5.54 0,-3.03 -2.1,-5.43 -3.2,-6.68 l -8.4,-8.3 c -0.4,-0.31 -0.4,-0.39 -0.4,-1.36 h 14.4 z"
           inkscape:connector-curvature="0"
           style="fill:#00c5b7;fill-opacity:0.72701685;stroke-width:0" /><path
           id="path3411"
           d="m 1092.8,369.08 -0.1,0.04 0,0.04 0,0.05 0,0.04 0,0.03 0,0.04 0,0.04 0,0.03 0,0.04 0,0.03 0,0.03 0,0.03 0,0.03 0,0.03 0,0.03 0,0.02 0,0.03 0,0.02 0,0.05 0,0.04 0,0.04 0,0.03 -0.1,0.03 0,0.03 0,0.03 0,0.02 -0.1,0.02 0,0.02 0,0.01 -0.1,0.02 0,0.01 0,0 -0.1,0.01 0,0 0,0 0,0.01 -0.1,0 0,0 0,0 -0.1,0.01 0,0 0,0 -0.1,0 0,0 0,0 -0.1,0 0,0 -0.1,0 0,0 -0.1,0 0,0 c -2.2,-2.2 -5.4,-2.23 -6.8,-2.23 v -1.25 c 0.8,0 3.1,0 5,0.97 v -17.77 c 0,-1.16 0,-1.61 -3.5,-1.61 h -1.3 v -1.25 c 0.7,0.03 4.9,0.14 6.2,0.14 1.1,0 5.5,-0.11 6.3,-0.14 v 1.25 h -1.4 c -3.4,0 -3.4,0.45 -3.4,1.61 z"
           inkscape:connector-curvature="0"
           style="fill:#00c5b7;fill-opacity:0.72701685;stroke-width:0" /><path
           id="path3413"
           d="m 1063,302.34 0,-0.08 0,-0.07 0,-0.07 0,-0.08 -0.1,-0.16 0,-0.16 0,-0.16 -0.1,-0.17 0,-0.16 -0.1,-0.15 0,-0.08 0,-0.07 0,-0.08 0,-0.07 0,-0.06 0,-0.07 -0.1,-0.06 0,-0.06 0,-0.06 0,-0.05 0,-0.05 0,-0.04 0,-0.04 0,-0.04 0,-0.03 0,-0.02 c 0,-0.9 0.7,-1.35 1.4,-1.35 0.6,0 1.5,0.39 1.9,1.39 0.1,0.21 1.8,6.99 2,7.88 0.3,1.64 1.3,5.12 1.5,6.48 0.3,0.64 1.7,2.99 2.8,4.08 0.4,0.34 1.9,1.64 4,1.64 1.3,0 2.1,-0.59 2.1,-0.59 -1.5,-0.25 -2.6,-1.46 -2.6,-2.74 0,-0.79 0.6,-1.75 1.9,-1.75 1.4,0 2.8,1.14 2.8,2.94 0,1.75 -1.6,3.23 -4.2,3.23 -3.2,0 -5.4,-2.43 -6.4,-3.82 -0.4,2.23 -2.1,3.82 -4.5,3.82 -2.3,0 -3.2,-1.93 -3.7,-2.82 -0.9,-1.71 -1.5,-4.69 -1.5,-4.85 0,-0.5 0.5,-0.5 0.6,-0.5 0.5,0 0.5,0.06 0.8,1.16 0.9,3.53 1.9,5.92 3.7,5.92 0.8,0 1.5,-0.39 1.5,-2.28 0,-1.05 -0.1,-1.61 -0.8,-4.19 z"
           inkscape:connector-curvature="0"
           style="fill:#00c5b7;fill-opacity:0.72701685;stroke-width:0" /><path
           id="path3415"
           d="m 1100.1,323.86 h -1.2 c -0.1,-0.76 -0.4,-2.82 -0.9,-3.17 -0.2,-0.2 -2.9,-0.2 -3.4,-0.2 h -6.4 c 3.6,3.23 4.8,4.2 6.9,5.84 2.6,2.06 5,4.22 5,7.53 0,4.22 -3.7,6.8 -8.1,6.8 -4.4,0 -7.3,-3.03 -7.3,-6.23 0,-1.79 1.5,-1.96 1.9,-1.96 0.8,0 1.8,0.6 1.8,1.85 0,0.62 -0.2,1.84 -2.1,1.84 1.1,2.47 3.5,3.23 5.1,3.23 3.5,0 5.3,-2.7 5.3,-5.53 0,-3.03 -2.1,-5.43 -3.2,-6.68 l -8.4,-8.3 c -0.4,-0.31 -0.4,-0.39 -0.4,-1.36 h 14.4 z"
           inkscape:connector-curvature="0"
           style="fill:#00c5b7;fill-opacity:0.72701685;stroke-width:0" /><path
           id="path3417"
           d="m 1098.7,293.38 h -1.2 c -0.1,-0.76 -0.5,-2.83 -0.9,-3.17 -0.3,-0.2 -3,-0.2 -3.5,-0.2 h -6.4 c 3.7,3.23 4.9,4.2 7,5.84 2.6,2.06 5,4.22 5,7.53 0,4.22 -3.7,6.8 -8.2,6.8 -4.3,0 -7.2,-3.03 -7.2,-6.23 0,-1.79 1.5,-1.96 1.8,-1.96 0.8,0 1.9,0.6 1.9,1.85 0,0.62 -0.3,1.84 -2.1,1.84 1.1,2.47 3.5,3.23 5.1,3.23 3.5,0 5.3,-2.7 5.3,-5.53 0,-3.03 -2.2,-5.43 -3.3,-6.68 l -8.4,-8.3 c -0.3,-0.31 -0.3,-0.39 -0.3,-1.36 h 14.3 z"
           inkscape:connector-curvature="0"
           style="fill:#00c5b7;fill-opacity:0.72701685;stroke-width:0" /><path
           id="path3419"
           d="m 1084.3,249 0,0.13 0,0.14 -0.1,0.13 0,0.13 0,0.12 0,0.13 -0.1,0.12 0,0.12 -0.1,0.12 0,0.11 -0.1,0.11 -0.1,0.11 0,0.1 -0.1,0.1 -0.1,0.1 -0.1,0.09 -0.1,0.09 -0.1,0.08 -0.1,0.08 -0.1,0.07 -0.1,0.07 -0.1,0.07 -0.1,0.06 -0.1,0.05 -0.2,0.05 -0.1,0.04 -0.1,0.04 -0.1,0.03 -0.2,0.02 -0.1,0.02 -0.1,0.01 -0.2,0 c -1.4,0 -2.6,-1.2 -2.6,-2.64 0,-1.44 1.2,-2.64 2.6,-2.64 1.5,0 2.7,1.2 2.7,2.64 z"
           inkscape:connector-curvature="0"
           style="fill:#00c5b7;fill-opacity:0.72701685;stroke-width:0" /><path
           id="path3421"
           d="m 1084.3,229.08 0,0.14 0,0.13 -0.1,0.13 0,0.13 0,0.13 0,0.12 -0.1,0.12 0,0.12 -0.1,0.12 0,0.11 -0.1,0.11 -0.1,0.11 0,0.1 -0.1,0.1 -0.1,0.1 -0.1,0.09 -0.1,0.09 -0.1,0.08 -0.1,0.08 -0.1,0.08 -0.1,0.07 -0.1,0.06 -0.1,0.06 -0.1,0.05 -0.2,0.05 -0.1,0.04 -0.1,0.04 -0.1,0.03 -0.2,0.02 -0.1,0.02 -0.1,0.01 -0.2,0 c -1.4,0 -2.6,-1.2 -2.6,-2.64 0,-1.43 1.2,-2.64 2.6,-2.64 1.5,0 2.7,1.21 2.7,2.64 z"
           inkscape:connector-curvature="0"
           style="fill:#00c5b7;fill-opacity:0.72701685;stroke-width:0" /><path
           id="path3423"
           d="m 1084.3,209.16 0,0.13 0,0.14 -0.1,0.13 0,0.13 0,0.12 0,0.13 -0.1,0.12 0,0.12 -0.1,0.12 0,0.11 -0.1,0.11 -0.1,0.11 0,0.1 -0.1,0.1 -0.1,0.1 -0.1,0.09 -0.1,0.09 -0.1,0.08 -0.1,0.08 -0.1,0.07 -0.1,0.07 -0.1,0.07 -0.1,0.06 -0.1,0.05 -0.2,0.05 -0.1,0.04 -0.1,0.04 -0.1,0.03 -0.2,0.02 -0.1,0.02 -0.1,0.01 -0.2,0 c -1.4,0 -2.6,-1.2 -2.6,-2.64 0,-1.44 1.2,-2.64 2.6,-2.64 1.5,0 2.7,1.2 2.7,2.64 z"
           inkscape:connector-curvature="0"
           style="fill:#00c5b7;fill-opacity:0.72701685;stroke-width:0" /><path
           id="path3425"
           d="m 1033.6,149.7 0,-0.07 0,-0.08 0,-0.07 0,-0.08 -0.1,-0.16 0,-0.16 0,-0.16 -0.1,-0.16 0,-0.16 -0.1,-0.16 0,-0.07 0,-0.08 0,-0.07 0,-0.07 0,-0.07 0,-0.06 -0.1,-0.07 0,-0.06 0,-0.05 0,-0.05 0,-0.05 0,-0.05 0,-0.04 0,-0.03 0,-0.03 0,-0.03 c 0,-0.89 0.7,-1.35 1.4,-1.35 0.6,0 1.5,0.39 1.9,1.39 0.1,0.21 1.7,6.99 2,7.88 0.3,1.64 1.3,5.12 1.6,6.48 0.1,0.64 1.5,2.99 2.7,4.08 0.4,0.35 1.9,1.64 4,1.64 1.3,0 2.1,-0.59 2.1,-0.59 -1.5,-0.25 -2.6,-1.45 -2.6,-2.74 0,-0.79 0.6,-1.75 1.9,-1.75 1.4,0 2.8,1.15 2.8,2.94 0,1.75 -1.6,3.24 -4.2,3.24 -3.2,0 -5.4,-2.44 -6.4,-3.83 -0.3,2.23 -2.2,3.83 -4.5,3.83 -2.3,0 -3.2,-1.94 -3.7,-2.83 -0.9,-1.7 -1.5,-4.69 -1.5,-4.85 0,-0.5 0.5,-0.5 0.6,-0.5 0.5,0 0.5,0.07 0.8,1.16 0.9,3.53 1.9,5.92 3.7,5.92 0.8,0 1.5,-0.39 1.5,-2.28 0,-1.05 -0.1,-1.61 -0.8,-4.19 z"
           inkscape:connector-curvature="0"
           style="fill:#00c5b7;fill-opacity:0.72701685;stroke-width:0" /><path
           id="path3427"
           d="m 1070.7,171.22 h -1.2 c -0.1,-0.76 -0.4,-2.82 -0.9,-3.17 -0.2,-0.2 -2.9,-0.2 -3.4,-0.2 h -6.4 c 3.6,3.23 4.8,4.2 6.9,5.84 2.6,2.06 5,4.22 5,7.53 0,4.22 -3.7,6.8 -8.1,6.8 -4.4,0 -7.3,-3.03 -7.3,-6.23 0,-1.79 1.5,-1.96 1.9,-1.96 0.8,0 1.8,0.6 1.8,1.85 0,0.62 -0.2,1.84 -2.1,1.84 1.1,2.47 3.5,3.23 5.1,3.23 3.5,0 5.3,-2.7 5.3,-5.53 0,-3.03 -2.1,-5.43 -3.2,-6.68 l -8.4,-8.3 c -0.4,-0.31 -0.4,-0.39 -0.4,-1.36 h 14.4 z"
           inkscape:connector-curvature="0"
           style="fill:#00c5b7;fill-opacity:0.72701685;stroke-width:0" /><path
           id="path3429"
           d="m 1068.6,154.16 0,0.04 0,0.05 0.1,0.04 0,0.05 0,0.04 0,0.04 0,0.04 0,0.04 0,0.07 0,0.07 0.1,0.06 0,0.06 0,0.06 0,0.05 0,0.05 0.1,0.04 0,0.04 0,0.04 0,0.04 0.1,0.03 0,0.03 0,0.02 0,0.03 0.1,0.02 0,0.02 0.1,0.02 0,0.01 0,0.01 0.1,0.02 0,0.01 0.1,0.01 0,0.01 0.1,0 0.1,0.01 0,0.01 0.1,0 c 0.2,0.04 1.4,0.04 2.1,0.04 2.1,0 3,0 3.9,-0.29 1.6,-0.48 1.6,-1.5 1.6,-2.75 0,-0.54 0,-1 -0.2,-2.81 l -0.1,-0.39 c 0,-0.34 0.3,-0.52 0.6,-0.52 0.5,0 0.6,0.32 0.7,0.86 l 0.9,6.66 c 0,0.5 -0.4,0.5 -1,0.5 h -21.5 c -0.8,0 -0.9,0 -1.1,-0.73 l -2.3,-6.18 c 0,-0.14 -0.1,-0.45 -0.1,-0.62 0,-0.14 0,-0.49 0.6,-0.49 0.4,0 0.5,0.18 0.7,0.83 2,5.58 3.2,5.93 8.5,5.93 h 1.4 c 1.1,0 1.1,-0.04 1.1,-0.35 0,-0.03 0,-0.2 -0.1,-0.73 l -4.6,-18.33 c -0.3,-1.28 -0.5,-1.64 -4.1,-1.64 -1.3,0 -1.6,0 -1.6,-0.77 0,-0.09 0.1,-0.48 0.6,-0.48 1,0 2,0.11 3,0.11 1,0 2,0.03 3,0.03 1,0 2.2,0 3.1,-0.03 1,-0.05 2,-0.11 3,-0.11 0.3,0 0.8,0 0.8,0.76 0,0.49 -0.4,0.49 -1.4,0.49 -0.7,0 -1.4,0.05 -2.1,0.08 -1.2,0.09 -1.2,0.23 -1.2,0.65 0,0.25 0,0.32 0.1,0.8 z"
           inkscape:connector-curvature="0"
           style="fill:#00c5b7;fill-opacity:0.72701685;stroke-width:0" /><path
           id="path3431"
           d="m 1106.5,140.95 0.1,0 0,0 0.1,0 0,0 0.2,0.01 0,0 0.1,0.01 0,0 0.1,0.01 0,0.01 0.1,0.01 0.1,0.01 0,0.01 0.1,0.02 0,0.02 0.1,0.02 0,0.02 0.1,0.03 0,0.03 0.1,0.03 0,0.04 0,0.04 0.1,0.02 0,0.02 0,0.02 0,0.03 0,0.02 0,0.03 0,0.02 0.1,0.03 0,0.03 0,0.03 0,0.03 0,0.03 0,0.03 0,0.04 0,0.03 0,0.04 0,0.04 0,0.04 c 0,0.86 -0.8,0.86 -1.4,0.86 h -20.7 c -0.6,0 -1.4,0 -1.4,-0.83 0,-0.88 0.8,-0.88 1.4,-0.88 z"
           inkscape:connector-curvature="0"
           style="fill:#00c5b7;fill-opacity:0.72701685;stroke-width:0" /><path
           id="path3433"
           d="m 1123.3,155.23 0,0.05 0,0.04 0,0.04 0,0.04 0,0.04 0,0.04 0,0.04 0,0.03 0,0.03 0,0.04 0,0.03 0,0.03 0,0.03 0,0.03 0,0.02 0,0.03 0,0.03 0,0.02 0,0.02 0,0.03 0,0.04 0,0.03 0,0.04 -0.1,0.03 0,0.03 0,0.02 0,0.03 -0.1,0.02 0,0.01 0,0.02 -0.1,0.01 0,0.01 0,0.01 -0.1,0 0,0.01 0,0 0,0 -0.1,0.01 0,0 0,0 -0.1,0 0,0 0,0 -0.1,0.01 0,0 0,0 -0.1,0 0,0 -0.1,0 0,0 -0.1,0 0,0 c -2.2,-2.2 -5.4,-2.24 -6.8,-2.24 v -1.25 c 0.8,0 3.1,0 5,0.97 v -17.76 c 0,-1.16 0,-1.61 -3.5,-1.61 h -1.3 v -1.25 c 0.6,0.03 4.9,0.14 6.2,0.14 1.1,0 5.5,-0.11 6.3,-0.14 v 1.25 h -1.4 c -3.5,0 -3.5,0.45 -3.5,1.61 z"
           inkscape:connector-curvature="0"
           style="fill:#00c5b7;fill-opacity:0.72701685;stroke-width:0" /><path
           id="path3435"
           d="m 1059.2,89.938 0,-0.072 0,-0.073 -0.1,-0.076 0,-0.077 0,-0.157 0,-0.161 -0.1,-0.163 0,-0.162 -0.1,-0.161 0,-0.156 0,-0.076 0,-0.075 0,-0.072 -0.1,-0.071 0,-0.068 0,-0.065 0,-0.062 0,-0.06 0,-0.056 0,-0.052 0,-0.049 0,-0.044 -0.1,-0.04 0,-0.036 0,-0.031 0,-0.026 c 0,-0.891 0.7,-1.344 1.5,-1.344 0.6,0 1.5,0.391 1.8,1.391 0.1,0.203 1.8,6.984 2,7.875 0.4,1.64 1.3,5.121 1.6,6.481 0.2,0.64 1.6,2.99 2.8,4.08 0.4,0.34 1.8,1.64 4,1.64 1.3,0 2,-0.59 2.1,-0.59 -1.5,-0.25 -2.6,-1.45 -2.6,-2.74 0,-0.79 0.5,-1.75 1.9,-1.75 1.3,0 2.7,1.14 2.7,2.94 0,1.75 -1.6,3.24 -4.1,3.24 -3.3,0 -5.4,-2.44 -6.4,-3.83 -0.4,2.23 -2.2,3.83 -4.5,3.83 -2.3,0 -3.3,-1.94 -3.7,-2.83 -0.9,-1.71 -1.6,-4.69 -1.6,-4.85 0,-0.5 0.5,-0.5 0.6,-0.5 0.5,0 0.6,0.07 0.9,1.16 0.8,3.53 1.8,5.92 3.6,5.92 0.9,0 1.6,-0.39 1.6,-2.28 0,-1.05 -0.2,-1.61 -0.8,-4.19 z"
           inkscape:connector-curvature="0"
           style="fill:#00c5b7;fill-opacity:0.72701685;stroke-width:0" /><path
           id="path3437"
           d="m 1096.3,111.34 h -1.2 c -0.1,-0.76 -0.5,-2.82 -0.9,-3.17 -0.3,-0.2 -3,-0.2 -3.5,-0.2 h -6.4 c 3.7,3.23 4.9,4.2 7,5.84 2.6,2.07 5,4.22 5,7.53 0,4.22 -3.7,6.8 -8.2,6.8 -4.3,0 -7.2,-3.03 -7.2,-6.23 0,-1.79 1.5,-1.96 1.8,-1.96 0.9,0 1.9,0.6 1.9,1.85 0,0.62 -0.3,1.84 -2.1,1.84 1.1,2.47 3.5,3.24 5.1,3.24 3.5,0 5.3,-2.71 5.3,-5.54 0,-3.03 -2.2,-5.43 -3.3,-6.68 l -8.4,-8.3 c -0.3,-0.31 -0.3,-0.39 -0.3,-1.36 h 14.3 z"
           inkscape:connector-curvature="0"
           style="fill:#00c5b7;fill-opacity:0.72701685;stroke-width:0" /><path
           id="path3439"
           d="m 1094.2,94.277 0,0.047 0,0.046 0,0.044 0,0.043 0,0.042 0,0.041 0.1,0.039 0,0.038 0,0.073 0,0.069 0,0.064 0,0.06 0.1,0.055 0,0.052 0,0.048 0,0.045 0,0.041 0.1,0.038 0,0.035 0,0.031 0,0.03 0.1,0.026 0,0.024 0,0.021 0.1,0.02 0,0.017 0.1,0.016 0,0.014 0,0.012 0.1,0.011 0,0.01 0.1,0.008 0.1,0.008 0,0.007 0.1,0.007 0,0.006 c 0.2,0.031 1.4,0.031 2.1,0.031 2.2,0 3.1,0 3.9,-0.281 1.6,-0.485 1.7,-1.5 1.7,-2.75 0,-0.547 0,-1 -0.3,-2.813 l 0,-0.39 c 0,-0.344 0.2,-0.516 0.6,-0.516 0.5,0 0.6,0.313 0.6,0.859 l 1,6.657 c 0,0.5 -0.5,0.5 -1.1,0.5 h -21.4 c -0.9,0 -1,0 -1.2,-0.735 l -2.2,-6.172 c 0,-0.14 -0.2,-0.453 -0.2,-0.625 0,-0.14 0.1,-0.484 0.6,-0.484 0.5,0 0.5,0.172 0.8,0.828 2,5.578 3.1,5.922 8.4,5.922 h 1.5 c 1,0 1.1,-0.031 1.1,-0.344 0,-0.031 0,-0.203 -0.2,-0.734 l -4.6,-18.328 c -0.3,-1.281 -0.4,-1.641 -4.1,-1.641 -1.2,0 -1.5,0 -1.5,-0.765 0,-0.094 0.1,-0.485 0.6,-0.485 0.9,0 2,0.11 3,0.11 0.9,0 2,0.031 3,0.031 0.9,0 2.1,0 3.1,-0.031 0.9,-0.047 2,-0.11 2.9,-0.11 0.3,0 0.8,0 0.8,0.766 0,0.484 -0.3,0.484 -1.4,0.484 -0.6,0 -1.4,0.047 -2,0.078 -1.2,0.094 -1.3,0.235 -1.3,0.657 0,0.25 0,0.312 0.2,0.796 z"
           inkscape:connector-curvature="0"
           style="fill:#00c5b7;fill-opacity:0.72701685;stroke-width:0" /><polygon
           id="polygon3441"
           points="1134.5,395.94 1147.6,395.94 1147.6,309.75 1151.1,309.75 1151.1,399.38 1134.5,399.38 "
           style="fill:#00c5b7;fill-opacity:0.72701685;stroke-width:0" /><polygon
           id="polygon3443"
           points="1151.1,309.77 1147.6,309.77 1147.6,279.78 1151.1,279.78 "
           style="fill:#00c5b7;fill-opacity:0.72701685;stroke-width:0" /><polygon
           id="polygon3445"
           points="1151.1,279.89 1147.6,279.89 1147.6,249.9 1151.1,249.9 "
           style="fill:#00c5b7;fill-opacity:0.72701685;stroke-width:0" /><polygon
           id="polygon3447"
           points="1151.1,250.01 1147.6,250.01 1147.6,220.02 1151.1,220.02 "
           style="fill:#00c5b7;fill-opacity:0.72701685;stroke-width:0" /><polygon
           id="polygon3449"
           points="1151.1,220.12 1147.6,220.12 1147.6,190.14 1151.1,190.14 "
           style="fill:#00c5b7;fill-opacity:0.72701685;stroke-width:0" /><polygon
           id="polygon3451"
           points="1151.1,190.25 1147.6,190.25 1147.6,160.26 1151.1,160.26 "
           style="fill:#00c5b7;fill-opacity:0.72701685;stroke-width:0" /><polygon
           id="polygon3453"
           points="1151.1,160.4 1147.6,160.4 1147.6,74.195 1134.5,74.195 1134.5,70.758 1151.1,70.758 "
           style="fill:#00c5b7;fill-opacity:0.72701685;stroke-width:0" /><path
           id="path3455"
           d="m 1198.8,234.05 h 13.9 c 0.7,0 1.6,0 1.6,1 0,1 -0.9,1 -1.6,1 h -13.9 v 13.96 c 0,0.69 0,1.64 -1,1.64 -1,0 -1,-0.95 -1,-1.64 v -13.96 h -14 c -0.7,0 -1.6,0 -1.6,-1 0,-1 0.9,-1 1.6,-1 h 14 v -13.93 c 0,-0.71 0,-1.66 1,-1.66 1,0 1,0.95 1,1.66 z"
           inkscape:connector-curvature="0"
           style="fill:#00c5b7;fill-opacity:0.72701685;stroke-width:0" /><path
           id="path3457"
           d="m 1237.8,235.05 0,0.14 -0.1,0.13 0,0.14 0,0.13 0,0.12 -0.1,0.13 0,0.12 0,0.12 -0.1,0.12 -0.1,0.11 0,0.11 -0.1,0.11 -0.1,0.1 0,0.1 -0.1,0.1 -0.1,0.09 -0.1,0.09 -0.1,0.08 -0.1,0.08 -0.1,0.07 -0.1,0.07 -0.1,0.07 -0.1,0.05 -0.2,0.06 -0.1,0.04 -0.1,0.05 -0.1,0.03 -0.2,0.03 -0.1,0.02 -0.1,0.02 -0.1,0.01 -0.2,0.01 c -1.4,0 -2.6,-1.19 -2.6,-2.65 0,-1.43 1.2,-2.64 2.6,-2.64 1.5,0 2.7,1.21 2.7,2.64 z"
           inkscape:connector-curvature="0"
           style="fill:#00c5b7;fill-opacity:0.72701685;stroke-width:0" /><path
           id="path3459"
           d="m 1259.8,235.05 0,0.14 0,0.13 0,0.14 0,0.13 0,0.12 -0.1,0.13 0,0.12 -0.1,0.12 0,0.12 -0.1,0.11 0,0.11 -0.1,0.11 -0.1,0.1 -0.1,0.1 0,0.1 -0.1,0.09 -0.1,0.09 -0.1,0.08 -0.1,0.08 -0.1,0.07 -0.1,0.07 -0.1,0.07 -0.2,0.05 -0.1,0.06 -0.1,0.04 -0.1,0.05 -0.1,0.03 -0.2,0.03 -0.1,0.02 -0.1,0.02 -0.2,0.01 -0.1,0.01 c -1.4,0 -2.6,-1.19 -2.6,-2.65 0,-1.43 1.2,-2.64 2.6,-2.64 1.5,0 2.6,1.21 2.6,2.64 z"
           inkscape:connector-curvature="0"
           style="fill:#00c5b7;fill-opacity:0.72701685;stroke-width:0" /><path
           id="path3461"
           d="m 1281.9,235.05 0,0.14 0,0.13 0,0.14 0,0.13 -0.1,0.12 0,0.13 0,0.12 -0.1,0.12 0,0.12 -0.1,0.11 -0.1,0.11 0,0.11 -0.1,0.1 -0.1,0.1 -0.1,0.1 -0.1,0.09 -0.1,0.09 0,0.08 -0.1,0.08 -0.2,0.07 -0.1,0.07 -0.1,0.07 -0.1,0.05 -0.1,0.06 -0.1,0.04 -0.1,0.05 -0.2,0.03 -0.1,0.03 -0.1,0.02 -0.2,0.02 -0.1,0.01 -0.1,0.01 c -1.5,0 -2.7,-1.19 -2.7,-2.65 0,-1.43 1.2,-2.64 2.7,-2.64 1.4,0 2.6,1.21 2.6,2.64 z"
           inkscape:connector-curvature="0"
           style="fill:#00c5b7;fill-opacity:0.72701685;stroke-width:0" /><path
           id="path3463"
           d="m 1317.8,234.05 h 13.9 c 0.7,0 1.6,0 1.6,1 0,1 -0.9,1 -1.6,1 h -13.9 v 13.96 c 0,0.69 0,1.64 -1,1.64 -1,0 -1,-0.95 -1,-1.64 v -13.96 h -13.9 c -0.7,0 -1.7,0 -1.7,-1 0,-1 1,-1 1.7,-1 h 13.9 v -13.93 c 0,-0.71 0,-1.66 1,-1.66 1,0 1,0.95 1,1.66 z"
           inkscape:connector-curvature="0"
           style="fill:#00c5b7;fill-opacity:0.72701685;stroke-width:0" /><path
           id="path3465"
           d="m 1370.2,239.49 0.1,0.11 0,0.11 0,0.11 0,0.11 0.1,0.12 0,0.12 0.1,0.25 0,0.25 0.1,0.25 0,0.25 0.1,0.24 0,0.12 0.1,0.11 0,0.11 0,0.11 0,0.11 0.1,0.1 0,0.09 0,0.09 0,0.08 0,0.08 0.1,0.07 0,0.07 0,0.05 0,0.05 0,0.04 0,0.04 c 0,0.9 -0.7,1.34 -1.5,1.34 -0.6,0 -1.4,-0.39 -1.8,-1.39 -0.1,-0.34 -2.5,-9.86 -2.8,-11.16 -0.4,-1.5 -0.5,-2.39 -0.5,-3.29 0,-0.55 0,-0.64 0.1,-0.89 -1.2,-2.64 -2.7,-4.19 -4.6,-4.19 -4,0 -4,3.69 -4,4.53 0,1.59 0.3,3.55 2.6,9.67 0.5,1.49 0.8,2.19 0.8,3.19 0,2.23 -1.6,4.08 -4.1,4.08 -4.7,0 -6.5,-7.22 -6.5,-7.67 0,-0.5 0.5,-0.5 0.6,-0.5 0.5,0 0.5,0.1 0.8,0.9 1.3,4.63 3.2,6.17 5,6.17 0.4,0 1.2,-0.04 1.2,-1.64 0,-1.25 -0.5,-2.64 -0.9,-3.48 -2.1,-5.88 -2.7,-8.17 -2.7,-10.06 0,-4.54 3.3,-6.29 7,-6.29 0.9,0 3.2,0 5.2,3.49 1.3,-3.19 4.8,-3.49 6.3,-3.49 3.7,0 5.9,3.15 7.2,6.13 1.7,3.89 3.3,10.56 3.3,12.95 0,2.75 -1.4,3.49 -2.2,3.49 -1.3,0 -2.5,-1.3 -2.5,-2.39 0,-0.64 0.3,-0.94 0.7,-1.35 0.6,-0.54 1.8,-1.84 1.8,-4.23 0,-1.69 -1.4,-6.58 -2.7,-9.11 -1.3,-2.64 -3.1,-4.39 -5.5,-4.39 -2.4,0 -3.7,1.5 -3.7,4.33 0,1.4 0.3,2.95 0.6,3.64 z"
           inkscape:connector-curvature="0"
           style="fill:#00c5b7;fill-opacity:0.72701685;stroke-width:0" /><path
           id="path3467"
           d="m 1411.9,235.16 0.1,0.25 0.1,0.24 0,0.12 0.1,0.11 0,0.12 0.1,0.11 0,0.11 0.1,0.1 0.1,0.11 0,0.1 0.1,0.1 0.1,0.09 0.1,0.09 0.1,0.09 0.1,0.09 0.1,0.08 0.1,0.07 0.1,0.08 0.2,0.07 0.1,0.06 0.2,0.06 0.1,0.05 0.2,0.05 0.2,0.05 0.2,0.04 0.2,0.03 0.2,0.03 0.1,0.01 0.1,0.01 0.2,0.01 0.1,0.01 0.1,0 0.1,0.01 c 0.2,0 0.7,0.03 0.7,0.76 0,0.21 -0.1,0.49 -0.5,0.49 -1.1,0 -2.4,-0.14 -3.6,-0.14 -0.9,0 -2.9,0.14 -3.7,0.14 -0.2,0 -0.7,0 -0.7,-0.77 0,-0.45 0.4,-0.48 0.8,-0.48 1.6,-0.03 2.2,-0.56 2.2,-1.44 0,-0.27 0,-0.45 -0.2,-0.83 l -3.8,-15.19 -8.8,18.11 c -0.3,0.6 -0.3,0.6 -1.2,0.6 h -4.7 c -0.7,0 -1.2,0 -1.2,-0.77 0,-0.48 0.4,-0.48 1.2,-0.48 0.7,0 1.5,-0.03 2.2,-0.17 l -4.7,-18.64 c -0.3,-1.33 -0.9,-2.38 -3.6,-2.49 -0.2,0 -0.7,-0.03 -0.7,-0.73 0,-0.38 0.3,-0.52 0.5,-0.52 1.2,0 2.4,0.14 3.6,0.14 0.9,0 2.9,-0.14 3.7,-0.14 0.4,0 0.7,0.17 0.7,0.74 0,0.48 -0.4,0.51 -0.8,0.51 -2.2,0.08 -2.2,0.99 -2.2,1.47 0,0.14 0,0.31 0.2,0.87 l 4.4,17.83 10.2,-20.83 c 0.3,-0.56 0.4,-0.59 0.8,-0.59 0.5,0 0.5,0.11 0.7,0.74 z"
           inkscape:connector-curvature="0"
           style="fill:#00c5b7;fill-opacity:0.72701685;stroke-width:0" /><polygon
           id="polygon3469"
           points="1461.8,399.38 1445.2,399.38 1445.2,309.75 1448.6,309.75 1448.6,395.94 1461.8,395.94 "
           style="fill:#00c5b7;fill-opacity:0.72701685;stroke-width:0" /><polygon
           id="polygon3471"
           points="1448.6,309.77 1445.2,309.77 1445.2,279.78 1448.6,279.78 "
           style="fill:#00c5b7;fill-opacity:0.72701685;stroke-width:0" /><polygon
           id="polygon3473"
           points="1448.6,279.89 1445.2,279.89 1445.2,249.9 1448.6,249.9 "
           style="fill:#00c5b7;fill-opacity:0.72701685;stroke-width:0" /><polygon
           id="polygon3475"
           points="1448.6,250.01 1445.2,250.01 1445.2,220.02 1448.6,220.02 "
           style="fill:#00c5b7;fill-opacity:0.72701685;stroke-width:0" /><polygon
           id="polygon3477"
           points="1448.6,220.12 1445.2,220.12 1445.2,190.14 1448.6,190.14 "
           style="fill:#00c5b7;fill-opacity:0.72701685;stroke-width:0" /><polygon
           id="polygon3479"
           points="1448.6,190.25 1445.2,190.25 1445.2,160.26 1448.6,160.26 "
           style="fill:#00c5b7;fill-opacity:0.72701685;stroke-width:0" /><polygon
           id="polygon3481"
           points="1448.6,160.4 1445.2,160.4 1445.2,70.758 1461.8,70.758 1461.8,74.195 1448.6,74.195 "
           style="fill:#00c5b7;fill-opacity:0.72701685;stroke-width:0" /><path
           id="path3483"
           d="m 1488.2,362.22 0,-0.07 0,-0.08 -0.1,-0.07 0,-0.08 0,-0.16 0,-0.16 -0.1,-0.16 0,-0.16 -0.1,-0.16 0,-0.16 0,-0.08 0,-0.07 0,-0.07 -0.1,-0.07 0,-0.07 0,-0.07 0,-0.06 0,-0.06 0,-0.05 0,-0.06 0,-0.04 0,-0.05 -0.1,-0.04 0,-0.03 0,-0.04 0,-0.02 c 0,-0.89 0.7,-1.35 1.5,-1.35 0.6,0 1.5,0.39 1.8,1.39 0.1,0.21 1.8,6.99 2,7.88 0.4,1.64 1.3,5.12 1.6,6.48 0.2,0.64 1.6,2.99 2.8,4.08 0.4,0.35 1.8,1.64 4,1.64 1.3,0 2,-0.59 2.1,-0.59 -1.5,-0.25 -2.6,-1.45 -2.6,-2.73 0,-0.8 0.5,-1.76 1.9,-1.76 1.3,0 2.7,1.15 2.7,2.94 0,1.75 -1.6,3.24 -4.1,3.24 -3.3,0 -5.4,-2.44 -6.4,-3.83 -0.4,2.23 -2.2,3.83 -4.5,3.83 -2.3,0 -3.3,-1.94 -3.7,-2.83 -0.9,-1.7 -1.6,-4.69 -1.6,-4.85 0,-0.5 0.5,-0.5 0.6,-0.5 0.5,0 0.6,0.07 0.9,1.16 0.8,3.53 1.8,5.92 3.6,5.92 0.9,0 1.6,-0.39 1.6,-2.28 0,-1.04 -0.2,-1.61 -0.8,-4.19 z"
           inkscape:connector-curvature="0"
           style="fill:#00c5b7;fill-opacity:0.72701685;stroke-width:0" /><path
           id="path3485"
           d="m 1536.7,397.4 0.1,0.24 0.1,0.25 0,0.11 0.1,0.12 0,0.11 0.1,0.12 0,0.11 0.1,0.1 0.1,0.11 0,0.1 0.1,0.1 0.1,0.09 0.1,0.09 0.1,0.09 0.1,0.09 0.1,0.08 0.1,0.07 0.1,0.08 0.2,0.06 0.1,0.07 0.2,0.06 0.1,0.05 0.2,0.05 0.2,0.04 0.2,0.04 0.2,0.04 0.2,0.03 0.1,0.01 0.1,0.01 0.2,0.01 0.1,0 0.1,0.01 0.1,0.01 c 0.2,0 0.7,0.03 0.7,0.76 0,0.2 -0.1,0.49 -0.5,0.49 -1.1,0 -2.4,-0.15 -3.6,-0.15 -0.8,0 -2.9,0.15 -3.7,0.15 -0.2,0 -0.7,0 -0.7,-0.77 0,-0.45 0.4,-0.48 0.8,-0.48 1.6,-0.04 2.2,-0.57 2.2,-1.44 0,-0.27 0,-0.46 -0.2,-0.83 l -3.7,-15.19 -8.9,18.11 c -0.3,0.6 -0.3,0.6 -1.2,0.6 h -4.8 c -0.6,0 -1.1,0 -1.1,-0.77 0,-0.48 0.5,-0.48 1.2,-0.48 0.7,0 1.5,-0.04 2.2,-0.18 l -4.7,-18.64 c -0.3,-1.33 -0.9,-2.37 -3.6,-2.48 -0.2,0 -0.7,-0.03 -0.7,-0.74 0,-0.37 0.3,-0.51 0.5,-0.51 1.2,0 2.4,0.14 3.6,0.14 0.9,0 2.9,-0.14 3.7,-0.14 0.4,0 0.7,0.17 0.7,0.73 0,0.49 -0.4,0.52 -0.8,0.52 -2.2,0.08 -2.2,0.98 -2.2,1.47 0,0.14 0,0.31 0.2,0.87 l 4.4,17.83 10.2,-20.83 c 0.3,-0.56 0.4,-0.59 0.8,-0.59 0.5,0 0.5,0.11 0.7,0.73 z"
           inkscape:connector-curvature="0"
           style="fill:#00c5b7;fill-opacity:0.72701685;stroke-width:0" /><path
           id="path3487"
           d="m 1517.9,369.08 0,0.04 0,0.04 0,0.05 0,0.04 0,0.03 0,0.04 0,0.04 0,0.03 0,0.04 0,0.03 0,0.03 0,0.03 0,0.03 0,0.03 0,0.03 0,0.02 0,0.03 0,0.02 0,0.05 0,0.04 -0.1,0.04 0,0.03 0,0.03 0,0.03 0,0.03 -0.1,0.02 0,0.02 0,0.02 -0.1,0.01 0,0.02 -0.1,0.01 0,0 0,0.01 0,0 -0.1,0 0,0.01 0,0 0,0 -0.1,0 0,0.01 0,0 -0.1,0 0,0 0,0 -0.1,0 0,0 -0.1,0 0,0 0,0 -0.1,0 0,0 c -2.3,-2.2 -5.4,-2.23 -6.9,-2.23 v -1.25 c 0.9,0 3.2,0 5.1,0.97 v -17.77 c 0,-1.16 0,-1.61 -3.5,-1.61 h -1.3 v -1.25 c 0.6,0.03 4.9,0.14 6.2,0.14 1.1,0 5.5,-0.11 6.2,-0.14 v 1.25 h -1.3 c -3.5,0 -3.5,0.45 -3.5,1.61 z"
           inkscape:connector-curvature="0"
           style="fill:#00c5b7;fill-opacity:0.72701685;stroke-width:0" /><path
           id="path3489"
           d="m 1488.2,302.34 0,-0.08 0,-0.07 -0.1,-0.07 0,-0.08 0,-0.16 0,-0.16 -0.1,-0.16 0,-0.17 -0.1,-0.16 0,-0.15 0,-0.08 0,-0.07 0,-0.08 -0.1,-0.07 0,-0.06 0,-0.07 0,-0.06 0,-0.06 0,-0.06 0,-0.05 0,-0.05 0,-0.04 -0.1,-0.04 0,-0.04 0,-0.03 0,-0.02 c 0,-0.9 0.7,-1.35 1.5,-1.35 0.6,0 1.5,0.39 1.8,1.39 0.1,0.21 1.8,6.99 2,7.88 0.4,1.64 1.3,5.12 1.6,6.48 0.2,0.64 1.6,2.99 2.8,4.08 0.4,0.34 1.8,1.64 4,1.64 1.3,0 2,-0.59 2.1,-0.59 -1.5,-0.25 -2.6,-1.46 -2.6,-2.74 0,-0.79 0.5,-1.75 1.9,-1.75 1.3,0 2.7,1.14 2.7,2.94 0,1.75 -1.6,3.23 -4.1,3.23 -3.3,0 -5.4,-2.43 -6.4,-3.82 -0.4,2.23 -2.2,3.82 -4.5,3.82 -2.3,0 -3.3,-1.93 -3.7,-2.82 -0.9,-1.71 -1.6,-4.69 -1.6,-4.85 0,-0.5 0.5,-0.5 0.6,-0.5 0.5,0 0.6,0.06 0.9,1.16 0.8,3.53 1.8,5.92 3.6,5.92 0.9,0 1.6,-0.39 1.6,-2.28 0,-1.05 -0.2,-1.61 -0.8,-4.19 z"
           inkscape:connector-curvature="0"
           style="fill:#00c5b7;fill-opacity:0.72701685;stroke-width:0" /><path
           id="path3491"
           d="m 1536.7,337.52 0.1,0.25 0.1,0.24 0,0.12 0.1,0.11 0,0.12 0.1,0.11 0,0.11 0.1,0.1 0.1,0.11 0,0.1 0.1,0.1 0.1,0.09 0.1,0.09 0.1,0.09 0.1,0.09 0.1,0.08 0.1,0.07 0.1,0.08 0.2,0.06 0.1,0.07 0.2,0.06 0.1,0.05 0.2,0.05 0.2,0.05 0.2,0.03 0.2,0.04 0.2,0.03 0.1,0.01 0.1,0.01 0.2,0.01 0.1,0.01 0.1,0 0.1,0.01 c 0.2,0 0.7,0.03 0.7,0.76 0,0.21 -0.1,0.49 -0.5,0.49 -1.1,0 -2.4,-0.14 -3.6,-0.14 -0.8,0 -2.9,0.14 -3.7,0.14 -0.2,0 -0.7,0 -0.7,-0.77 0,-0.45 0.4,-0.48 0.8,-0.48 1.6,-0.03 2.2,-0.57 2.2,-1.44 0,-0.27 0,-0.45 -0.2,-0.83 l -3.7,-15.19 -8.9,18.11 c -0.3,0.6 -0.3,0.6 -1.2,0.6 h -4.8 c -0.6,0 -1.1,0 -1.1,-0.77 0,-0.48 0.5,-0.48 1.2,-0.48 0.7,0 1.5,-0.03 2.2,-0.18 l -4.7,-18.64 c -0.3,-1.32 -0.9,-2.37 -3.6,-2.48 -0.2,0 -0.7,-0.03 -0.7,-0.73 0,-0.38 0.3,-0.52 0.5,-0.52 1.2,0 2.4,0.14 3.6,0.14 0.9,0 2.9,-0.14 3.7,-0.14 0.4,0 0.7,0.17 0.7,0.73 0,0.49 -0.4,0.52 -0.8,0.52 -2.2,0.08 -2.2,0.98 -2.2,1.47 0,0.14 0,0.31 0.2,0.87 l 4.4,17.83 10.2,-20.83 c 0.3,-0.56 0.4,-0.59 0.8,-0.59 0.5,0 0.5,0.11 0.7,0.73 z"
           inkscape:connector-curvature="0"
           style="fill:#00c5b7;fill-opacity:0.72701685;stroke-width:0" /><path
           id="path3493"
           d="m 1523.8,293.38 h -1.2 c 0,-0.76 -0.4,-2.83 -0.9,-3.17 -0.2,-0.2 -2.9,-0.2 -3.4,-0.2 h -6.4 c 3.6,3.23 4.9,4.2 6.9,5.84 2.6,2.06 5,4.22 5,7.53 0,4.22 -3.7,6.8 -8.1,6.8 -4.3,0 -7.3,-3.03 -7.3,-6.23 0,-1.79 1.5,-1.96 1.9,-1.96 0.8,0 1.8,0.6 1.8,1.85 0,0.62 -0.2,1.84 -2,1.84 1,2.47 3.4,3.23 5.1,3.23 3.4,0 5.3,-2.7 5.3,-5.53 0,-3.03 -2.2,-5.43 -3.3,-6.68 l -8.4,-8.3 c -0.4,-0.31 -0.4,-0.39 -0.4,-1.36 h 14.4 z"
           inkscape:connector-curvature="0"
           style="fill:#00c5b7;fill-opacity:0.72701685;stroke-width:0" /><path
           id="path3495"
           d="m 1517.2,249 0,0.13 0,0.14 0,0.13 0,0.13 0,0.12 -0.1,0.13 0,0.12 -0.1,0.12 0,0.12 -0.1,0.11 0,0.11 -0.1,0.11 -0.1,0.1 -0.1,0.1 0,0.1 -0.1,0.09 -0.1,0.09 -0.1,0.08 -0.1,0.08 -0.1,0.07 -0.1,0.07 -0.1,0.07 -0.2,0.06 -0.1,0.05 -0.1,0.05 -0.1,0.04 -0.1,0.04 -0.2,0.03 -0.1,0.02 -0.1,0.02 -0.2,0.01 -0.1,0 c -1.4,0 -2.6,-1.2 -2.6,-2.64 0,-1.44 1.2,-2.64 2.6,-2.64 1.5,0 2.6,1.2 2.6,2.64 z"
           inkscape:connector-curvature="0"
           style="fill:#00c5b7;fill-opacity:0.72701685;stroke-width:0" /><path
           id="path3497"
           d="m 1517.2,229.08 0,0.14 0,0.13 0,0.13 0,0.13 0,0.13 -0.1,0.12 0,0.12 -0.1,0.12 0,0.12 -0.1,0.11 0,0.11 -0.1,0.11 -0.1,0.1 -0.1,0.1 0,0.1 -0.1,0.09 -0.1,0.09 -0.1,0.08 -0.1,0.08 -0.1,0.08 -0.1,0.07 -0.1,0.06 -0.2,0.06 -0.1,0.05 -0.1,0.05 -0.1,0.04 -0.1,0.04 -0.2,0.03 -0.1,0.02 -0.1,0.02 -0.2,0.01 -0.1,0 c -1.4,0 -2.6,-1.2 -2.6,-2.64 0,-1.43 1.2,-2.64 2.6,-2.64 1.5,0 2.6,1.21 2.6,2.64 z"
           inkscape:connector-curvature="0"
           style="fill:#00c5b7;fill-opacity:0.72701685;stroke-width:0" /><path
           id="path3499"
           d="m 1517.2,209.16 0,0.13 0,0.14 0,0.13 0,0.13 0,0.12 -0.1,0.13 0,0.12 -0.1,0.12 0,0.12 -0.1,0.11 0,0.11 -0.1,0.11 -0.1,0.1 -0.1,0.1 0,0.1 -0.1,0.09 -0.1,0.09 -0.1,0.08 -0.1,0.08 -0.1,0.07 -0.1,0.07 -0.1,0.07 -0.2,0.06 -0.1,0.05 -0.1,0.05 -0.1,0.04 -0.1,0.04 -0.2,0.03 -0.1,0.02 -0.1,0.02 -0.2,0.01 -0.1,0 c -1.4,0 -2.6,-1.2 -2.6,-2.64 0,-1.44 1.2,-2.64 2.6,-2.64 1.5,0 2.6,1.2 2.6,2.64 z"
           inkscape:connector-curvature="0"
           style="fill:#00c5b7;fill-opacity:0.72701685;stroke-width:0" /><path
           id="path3501"
           d="m 1466.6,149.58 0,-0.07 0,-0.08 -0.1,-0.07 0,-0.08 0,-0.16 0,-0.16 -0.1,-0.16 0,-0.16 -0.1,-0.16 0,-0.16 0,-0.08 0,-0.07 0,-0.07 -0.1,-0.07 0,-0.07 0,-0.07 0,-0.06 0,-0.06 0,-0.05 0,-0.06 0,-0.04 0,-0.05 -0.1,-0.04 0,-0.04 0,-0.03 0,-0.02 c 0,-0.89 0.7,-1.35 1.5,-1.35 0.6,0 1.5,0.39 1.8,1.39 0.1,0.21 1.8,6.99 2,7.88 0.4,1.64 1.3,5.12 1.6,6.48 0.2,0.64 1.6,2.99 2.8,4.08 0.4,0.35 1.8,1.64 4,1.64 1.3,0 2,-0.59 2.1,-0.59 -1.5,-0.25 -2.6,-1.45 -2.6,-2.74 0,-0.79 0.5,-1.75 1.9,-1.75 1.3,0 2.7,1.14 2.7,2.94 0,1.75 -1.6,3.24 -4.1,3.24 -3.3,0 -5.4,-2.44 -6.4,-3.83 -0.4,2.23 -2.2,3.83 -4.5,3.83 -2.3,0 -3.3,-1.94 -3.7,-2.83 -0.9,-1.71 -1.6,-4.69 -1.6,-4.85 0,-0.5 0.5,-0.5 0.6,-0.5 0.6,0 0.6,0.07 0.9,1.16 0.8,3.53 1.8,5.92 3.6,5.92 0.9,0 1.6,-0.39 1.6,-2.28 0,-1.05 -0.2,-1.61 -0.8,-4.19 z"
           inkscape:connector-curvature="0"
           style="fill:#00c5b7;fill-opacity:0.72701685;stroke-width:0" /><path
           id="path3503"
           d="m 1515.1,184.76 0.1,0.25 0.1,0.24 0,0.12 0.1,0.11 0,0.12 0.1,0.11 0,0.11 0.1,0.11 0.1,0.1 0,0.1 0.1,0.1 0.1,0.09 0.1,0.1 0.1,0.08 0.1,0.09 0.1,0.08 0.1,0.08 0.1,0.07 0.2,0.07 0.1,0.06 0.2,0.06 0.1,0.05 0.2,0.05 0.2,0.05 0.2,0.04 0.2,0.03 0.2,0.03 0.1,0.01 0.1,0.01 0.2,0.01 0.1,0.01 0.1,0 0.1,0.01 c 0.2,0 0.7,0.03 0.7,0.76 0,0.21 -0.1,0.49 -0.5,0.49 -1.1,0 -2.4,-0.14 -3.6,-0.14 -0.8,0 -2.9,0.14 -3.7,0.14 -0.2,0 -0.7,0 -0.7,-0.77 0,-0.45 0.4,-0.48 0.8,-0.48 1.6,-0.03 2.2,-0.56 2.2,-1.44 0,-0.27 -0.1,-0.45 -0.2,-0.83 l -3.7,-15.19 -8.9,18.11 c -0.3,0.6 -0.3,0.6 -1.2,0.6 h -4.8 c -0.6,0 -1.1,0 -1.1,-0.77 0,-0.48 0.5,-0.48 1.2,-0.48 0.7,0 1.5,-0.03 2.2,-0.17 l -4.7,-18.64 c -0.3,-1.33 -0.9,-2.38 -3.6,-2.49 -0.2,0 -0.7,-0.03 -0.7,-0.73 0,-0.38 0.3,-0.52 0.5,-0.52 1.2,0 2.4,0.14 3.6,0.14 0.9,0 2.9,-0.14 3.7,-0.14 0.4,0 0.7,0.17 0.7,0.74 0,0.48 -0.4,0.51 -0.8,0.51 -2.2,0.08 -2.2,0.99 -2.2,1.47 0,0.14 0,0.31 0.2,0.87 l 4.4,17.83 10.2,-20.83 c 0.3,-0.56 0.4,-0.59 0.8,-0.59 0.5,0 0.5,0.11 0.7,0.74 z"
           inkscape:connector-curvature="0"
           style="fill:#00c5b7;fill-opacity:0.72701685;stroke-width:0" /><path
           id="path3505"
           d="m 1501.6,154.04 0,0.05 0,0.04 0,0.05 0,0.04 0,0.04 0,0.04 0.1,0.04 0,0.04 0,0.07 0,0.07 0,0.06 0,0.06 0.1,0.06 0,0.05 0,0.05 0,0.04 0,0.05 0.1,0.03 0,0.04 0,0.03 0,0.03 0.1,0.03 0,0.02 0,0.02 0.1,0.02 0,0.02 0.1,0.01 0,0.02 0,0.01 0.1,0.01 0,0.01 0.1,0.01 0.1,0.01 0,0 0.1,0.01 0.1,0.01 c 0.1,0.03 1.4,0.03 2.1,0.03 2.1,0 3,0 3.8,-0.28 1.6,-0.49 1.7,-1.5 1.7,-2.75 0,-0.55 0,-1 -0.2,-2.82 l -0.1,-0.39 c 0,-0.34 0.2,-0.51 0.6,-0.51 0.5,0 0.6,0.31 0.6,0.86 l 1,6.65 c 0,0.5 -0.4,0.5 -1.1,0.5 h -21.4 c -0.9,0 -0.9,0 -1.2,-0.73 l -2.2,-6.17 c 0,-0.14 -0.2,-0.46 -0.2,-0.63 0,-0.14 0.1,-0.48 0.6,-0.48 0.5,0 0.5,0.17 0.8,0.83 2,5.57 3.1,5.92 8.4,5.92 h 1.5 c 1,0 1.1,-0.03 1.1,-0.35 0,-0.03 0,-0.2 -0.2,-0.73 l -4.6,-18.33 c -0.3,-1.28 -0.4,-1.64 -4,-1.64 -1.3,0 -1.6,0 -1.6,-0.76 0,-0.1 0.1,-0.49 0.6,-0.49 1,0 2,0.11 3,0.11 1,0 2,0.03 3,0.03 1,0 2.1,0 3.1,-0.03 1,-0.05 2,-0.11 2.9,-0.11 0.3,0 0.9,0 0.9,0.77 0,0.48 -0.4,0.48 -1.5,0.48 -0.7,0 -1.3,0.05 -2,0.08 -1.2,0.09 -1.3,0.23 -1.3,0.66 0,0.25 0,0.31 0.2,0.79 z"
           inkscape:connector-curvature="0"
           style="fill:#00c5b7;fill-opacity:0.72701685;stroke-width:0" /><path
           id="path3507"
           d="m 1539.5,140.84 0,0 0.1,0 0.1,0 0.1,0 0.1,0 0,0.01 0.1,0 0.1,0.01 0,0.01 0.1,0.01 0,0.01 0.1,0.02 0,0.01 0.1,0.02 0,0.02 0.1,0.03 0,0.02 0.1,0.03 0,0.03 0.1,0.04 0,0.04 0,0.02 0,0.02 0,0.02 0.1,0.03 0,0.02 0,0.03 0,0.03 0,0.02 0,0.03 0,0.03 0,0.03 0,0.03 0.1,0.04 0,0.03 0,0.04 0,0.03 0,0.04 0,0.04 c 0,0.86 -0.8,0.86 -1.4,0.86 h -20.8 c -0.5,0 -1.4,0 -1.4,-0.83 0,-0.87 0.8,-0.87 1.4,-0.87 z"
           inkscape:connector-curvature="0"
           style="fill:#00c5b7;fill-opacity:0.72701685;stroke-width:0" /><path
           id="path3509"
           d="m 1556.3,155.12 0,0.04 0,0.04 0,0.05 0,0.04 0,0.03 0,0.04 0,0.04 0,0.03 0,0.04 0,0.03 0,0.03 0,0.03 0,0.03 0,0.03 0,0.03 0,0.02 0,0.03 0,0.02 0,0.05 0,0.04 -0.1,0.04 0,0.03 0,0.03 0,0.03 0,0.03 -0.1,0.02 0,0.02 0,0.02 -0.1,0.01 0,0.01 -0.1,0.02 0,0 0,0 0,0.01 -0.1,0 0,0.01 0,0 0,0 -0.1,0 0,0 0,0.01 -0.1,0 0,0 0,0 -0.1,0 0,0 -0.1,0 0,0 0,0 -0.1,0 0,0 c -2.3,-2.2 -5.4,-2.23 -6.9,-2.23 v -1.25 c 0.9,0 3.2,0 5.1,0.97 v -17.77 c 0,-1.16 0,-1.61 -3.5,-1.61 h -1.3 v -1.25 c 0.6,0.03 4.9,0.14 6.2,0.14 1.1,0 5.5,-0.11 6.2,-0.14 v 1.25 h -1.3 c -3.5,0 -3.5,0.45 -3.5,1.61 z"
           inkscape:connector-curvature="0"
           style="fill:#00c5b7;fill-opacity:0.72701685;stroke-width:0" /><path
           id="path3511"
           d="m 1488.2,89.816 0,-0.071 0,-0.073 -0.1,-0.076 0,-0.077 0,-0.157 0,-0.161 -0.1,-0.163 0,-0.163 -0.1,-0.16 0,-0.156 0,-0.077 0,-0.074 0,-0.072 -0.1,-0.071 0,-0.068 0,-0.065 0,-0.062 0,-0.06 0,-0.056 0,-0.052 0,-0.049 0,-0.044 -0.1,-0.04 0,-0.036 0,-0.031 0,-0.026 c 0,-0.891 0.7,-1.344 1.5,-1.344 0.6,0 1.5,0.391 1.8,1.391 0.1,0.203 1.8,6.984 2,7.875 0.4,1.64 1.3,5.122 1.6,6.482 0.2,0.64 1.6,2.99 2.8,4.08 0.4,0.34 1.8,1.64 4,1.64 1.3,0 2,-0.59 2.1,-0.59 -1.5,-0.25 -2.6,-1.46 -2.6,-2.74 0,-0.79 0.5,-1.75 1.9,-1.75 1.3,0 2.7,1.14 2.7,2.94 0,1.75 -1.6,3.23 -4.1,3.23 -3.3,0 -5.4,-2.43 -6.4,-3.82 -0.4,2.23 -2.2,3.82 -4.5,3.82 -2.3,0 -3.3,-1.93 -3.7,-2.82 -0.9,-1.71 -1.6,-4.69 -1.6,-4.85 0,-0.5 0.5,-0.5 0.6,-0.5 0.5,0 0.6,0.07 0.9,1.16 0.8,3.53 1.8,5.92 3.6,5.92 0.9,0 1.6,-0.39 1.6,-2.28 0,-1.05 -0.2,-1.61 -0.8,-4.19 z"
           inkscape:connector-curvature="0"
           style="fill:#00c5b7;fill-opacity:0.72701685;stroke-width:0" /><path
           id="path3513"
           d="m 1536.7,124.88 0.1,0.25 0.1,0.24 0,0.11 0.1,0.12 0,0.11 0.1,0.12 0,0.11 0.1,0.1 0.1,0.11 0,0.1 0.1,0.1 0.1,0.09 0.1,0.09 0.1,0.09 0.1,0.09 0.1,0.08 0.1,0.07 0.1,0.08 0.2,0.06 0.1,0.07 0.2,0.06 0.1,0.05 0.2,0.05 0.2,0.05 0.2,0.03 0.2,0.04 0.2,0.03 0.1,0.01 0.1,0.01 0.2,0.01 0.1,0.01 0.1,0 0.1,0.01 c 0.2,0 0.7,0.03 0.7,0.76 0,0.21 -0.1,0.49 -0.5,0.49 -1.1,0 -2.4,-0.14 -3.6,-0.14 -0.8,0 -2.9,0.14 -3.7,0.14 -0.2,0 -0.7,0 -0.7,-0.77 0,-0.45 0.4,-0.48 0.8,-0.48 1.6,-0.04 2.2,-0.57 2.2,-1.44 0,-0.27 0,-0.45 -0.2,-0.83 l -3.7,-15.19 -8.9,18.11 c -0.3,0.6 -0.3,0.6 -1.2,0.6 h -4.8 c -0.6,0 -1.1,0 -1.1,-0.77 0,-0.48 0.5,-0.48 1.2,-0.48 0.7,0 1.5,-0.04 2.2,-0.18 l -4.7,-18.64 c -0.3,-1.32 -0.9,-2.37 -3.6,-2.48 -0.2,0 -0.7,-0.03 -0.7,-0.74 0,-0.37 0.3,-0.51 0.5,-0.51 1.2,0 2.4,0.14 3.6,0.14 0.9,0 2.9,-0.14 3.7,-0.14 0.4,0 0.7,0.17 0.7,0.73 0,0.49 -0.4,0.52 -0.8,0.52 -2.2,0.08 -2.2,0.98 -2.2,1.47 0,0.14 0,0.31 0.2,0.87 l 4.4,17.83 10.2,-20.83 c 0.3,-0.56 0.4,-0.59 0.8,-0.59 0.5,0 0.5,0.11 0.7,0.73 z"
           inkscape:connector-curvature="0"
           style="fill:#00c5b7;fill-opacity:0.72701685;stroke-width:0" /><path
           id="path3515"
           d="m 1523.2,94.156 0,0.047 0,0.046 0,0.044 0,0.043 0,0.042 0,0.041 0.1,0.039 0,0.038 0,0.073 0,0.069 0,0.064 0,0.06 0.1,0.055 0,0.052 0,0.048 0,0.045 0,0.041 0.1,0.038 0,0.035 0,0.031 0,0.029 0.1,0.027 0,0.024 0,0.021 0.1,0.02 0,0.017 0.1,0.016 0,0.014 0,0.012 0.1,0.011 0,0.01 0.1,0.008 0.1,0.008 0,0.007 0.1,0.007 0,0.006 c 0.2,0.031 1.4,0.031 2.1,0.031 2.2,0 3.1,0 3.9,-0.281 1.6,-0.485 1.7,-1.5 1.7,-2.75 0,-0.547 0,-1 -0.3,-2.813 l 0,-0.39 c 0,-0.344 0.2,-0.516 0.6,-0.516 0.5,0 0.6,0.313 0.6,0.859 l 1,6.657 c 0,0.5 -0.5,0.5 -1.1,0.5 h -21.4 c -0.9,0 -1,0 -1.2,-0.735 l -2.2,-6.172 c 0,-0.14 -0.2,-0.453 -0.2,-0.625 0,-0.14 0.1,-0.484 0.6,-0.484 0.5,0 0.5,0.172 0.8,0.828 2,5.578 3.1,5.922 8.4,5.922 h 1.5 c 1,0 1.1,-0.031 1.1,-0.344 0,-0.031 0,-0.203 -0.2,-0.734 l -4.6,-18.328 c -0.3,-1.281 -0.4,-1.641 -4.1,-1.641 -1.2,0 -1.5,0 -1.5,-0.766 0,-0.093 0.1,-0.484 0.6,-0.484 0.9,0 2,0.11 3,0.11 0.9,0 2,0.031 3,0.031 0.9,0 2.1,0 3.1,-0.031 0.9,-0.047 2,-0.11 2.9,-0.11 0.3,0 0.8,0 0.8,0.766 0,0.484 -0.3,0.484 -1.4,0.484 -0.6,0 -1.4,0.047 -2,0.078 -1.2,0.094 -1.3,0.235 -1.3,0.656 0,0.25 0,0.313 0.2,0.797 z"
           inkscape:connector-curvature="0"
           style="fill:#00c5b7;fill-opacity:0.72701685;stroke-width:0" /><polygon
           id="polygon3517"
           points="1567.3,395.94 1580.5,395.94 1580.5,309.75 1583.9,309.75 1583.9,399.38 1567.3,399.38 "
           style="fill:#00c5b7;fill-opacity:0.72701685;stroke-width:0" /><polygon
           id="polygon3519"
           points="1583.9,309.77 1580.5,309.77 1580.5,279.78 1583.9,279.78 "
           style="fill:#00c5b7;fill-opacity:0.72701685;stroke-width:0" /><polygon
           id="polygon3521"
           points="1583.9,279.89 1580.5,279.89 1580.5,249.9 1583.9,249.9 "
           style="fill:#00c5b7;fill-opacity:0.72701685;stroke-width:0" /><polygon
           id="polygon3523"
           points="1583.9,250.01 1580.5,250.01 1580.5,220.02 1583.9,220.02 "
           style="fill:#00c5b7;fill-opacity:0.72701685;stroke-width:0" /><polygon
           id="polygon3525"
           points="1583.9,220.12 1580.5,220.12 1580.5,190.14 1583.9,190.14 "
           style="fill:#00c5b7;fill-opacity:0.72701685;stroke-width:0" /><polygon
           id="polygon3527"
           points="1583.9,190.25 1580.5,190.25 1580.5,160.26 1583.9,160.26 "
           style="fill:#00c5b7;fill-opacity:0.72701685;stroke-width:0" /><polygon
           id="polygon3529"
           points="1583.9,160.4 1580.5,160.4 1580.5,74.195 1567.3,74.195 1567.3,70.758 1583.9,70.758 "
           style="fill:#00c5b7;fill-opacity:0.72701685;stroke-width:0" /></g>    </g>
  </g>
</svg>
